{
	"asset":{
		"generator":"Khronos glTF Blender I/O v5.0.21",
		"version":"2.0"
	},
	"scene":0,
	"scenes":[
		{
			"name":"Scene",
			"nodes":[
				0,
				1,
				91
			]
		}
	],
	"nodes":[
		{
			"name":"Stroke"
		},
		{
			"mesh":0,
			"name":"Plane",
			"scale":[
				100,
				100,
				100
			],
			"translation":[
				0,
				-0.019120512530207634,
				0
			]
		},
		{
			"mesh":1,
			"name":"C_0805_2012Metric",
			"translation":[
				0.02603498101234436,
				0.0008000009111128747,
				0.01777999848127365
			]
		},
		{
			"mesh":1,
			"name":"C_0805_2012Metric.001",
			"translation":[
				0.005400016903877258,
				0.0008000009111128747,
				0.009525001049041748
			]
		},
		{
			"mesh":1,
			"name":"C_0805_2012Metric.002",
			"rotation":[
				0,
				1,
				0,
				1.148381556959066e-06
			],
			"translation":[
				0.005394935607910156,
				0.0008000009111128747,
				0.018414996564388275
			]
		},
		{
			"mesh":1,
			"name":"C_0805_2012Metric.003",
			"translation":[
				0.005400016903877258,
				0.0008000009111128747,
				0.015451587736606598
			]
		},
		{
			"mesh":1,
			"name":"C_0805_2012Metric.004",
			"translation":[
				0.005400016903877258,
				0.0008000009111128747,
				0.012488417327404022
			]
		},
		{
			"mesh":2,
			"name":"MICROFJ-60035-TSV-TR",
			"rotation":[
				1,
				0,
				0,
				1.148381556959066e-06
			],
			"translation":[
				0.01657348871231079,
				-0.0008000009111128747,
				0.014033503830432892
			]
		},
		{
			"mesh":3,
			"name":"PinHeader_2x02_P2.54mm_Vertical_SMD",
			"translation":[
				0.026684969663619995,
				0.0008000009111128747,
				0.023495003581047058
			]
		},
		{
			"mesh":3,
			"name":"PinHeader_2x02_P2.54mm_Vertical_SMD.001",
			"translation":[
				0.005744948983192444,
				0.0008000009111128747,
				0.023495003581047058
			]
		},
		{
			"mesh":4,
			"name":"R_0805_2012Metric",
			"rotation":[
				0,
				0.7071080803871155,
				0,
				0.7071055769920349
			],
			"translation":[
				0.020954981446266174,
				0.0008000009111128747,
				0.009882383048534393
			]
		},
		{
			"mesh":4,
			"name":"R_0805_2012Metric.001",
			"rotation":[
				0,
				0.7071080803871155,
				0,
				0.7071055769920349
			],
			"translation":[
				0.01735655963420868,
				0.0008000009111128747,
				0.009882383048534393
			]
		},
		{
			"mesh":4,
			"name":"R_0805_2012Metric.002",
			"rotation":[
				0,
				0.7071080803871155,
				0,
				0.7071055769920349
			],
			"translation":[
				0.010159984230995178,
				0.0008000009111128747,
				0.009882383048534393
			]
		},
		{
			"mesh":4,
			"name":"R_0805_2012Metric.003",
			"rotation":[
				0,
				0.7071080803871155,
				0,
				0.7071055769920349
			],
			"translation":[
				0.01375839114189148,
				0.0008000009111128747,
				0.009882383048534393
			]
		},
		{
			"mesh":5,
			"name":"SOLDER_100nF_C1_9_0",
			"translation":[
				0.004449978470802307,
				0,
				0.009525001049041748
			]
		},
		{
			"mesh":5,
			"name":"SOLDER_100nF_C1_9_1",
			"translation":[
				0.00634998083114624,
				0,
				0.009525001049041748
			]
		},
		{
			"mesh":5,
			"name":"SOLDER_100nF_C2_15_0",
			"translation":[
				0.004449978470802307,
				0,
				0.012488305568695068
			]
		},
		{
			"mesh":5,
			"name":"SOLDER_100nF_C2_15_1",
			"translation":[
				0.00634998083114624,
				0,
				0.012488305568695068
			]
		},
		{
			"mesh":5,
			"name":"SOLDER_100nF_C4_10_0",
			"rotation":[
				0,
				-1,
				0,
				4.371138828673793e-08
			],
			"translation":[
				0.006344988942146301,
				0,
				0.018415004014968872
			]
		},
		{
			"mesh":5,
			"name":"SOLDER_100nF_C4_10_1",
			"rotation":[
				0,
				-1,
				0,
				4.371138828673793e-08
			],
			"translation":[
				0.004444986581802368,
				0,
				0.018415004014968872
			]
		},
		{
			"mesh":6,
			"name":"SOLDER_100\u03a9_R1_5_0",
			"rotation":[
				0,
				0.7071068286895752,
				0,
				0.7071068286895752
			],
			"translation":[
				0.010159984230995178,
				0,
				0.010795004665851593
			]
		},
		{
			"mesh":6,
			"name":"SOLDER_100\u03a9_R1_5_1",
			"rotation":[
				0,
				0.7071068286895752,
				0,
				0.7071068286895752
			],
			"translation":[
				0.010159984230995178,
				0,
				0.008969999849796295
			]
		},
		{
			"mesh":6,
			"name":"SOLDER_100\u03a9_R3_12_0",
			"rotation":[
				0,
				0.7071068286895752,
				0,
				0.7071068286895752
			],
			"translation":[
				0.013758286833763123,
				0,
				0.010795004665851593
			]
		},
		{
			"mesh":6,
			"name":"SOLDER_100\u03a9_R3_12_1",
			"rotation":[
				0,
				0.7071068286895752,
				0,
				0.7071068286895752
			],
			"translation":[
				0.013758286833763123,
				0,
				0.008969999849796295
			]
		},
		{
			"mesh":6,
			"name":"SOLDER_10k\u03a9_R4_3_0",
			"rotation":[
				0,
				0.7071068286895752,
				0,
				0.7071068286895752
			],
			"translation":[
				0.017356693744659424,
				0,
				0.010795004665851593
			]
		},
		{
			"mesh":6,
			"name":"SOLDER_10k\u03a9_R4_3_1",
			"rotation":[
				0,
				0.7071068286895752,
				0,
				0.7071068286895752
			],
			"translation":[
				0.017356693744659424,
				0,
				0.008969999849796295
			]
		},
		{
			"mesh":6,
			"name":"SOLDER_10k\u03a9_R5_2_0",
			"rotation":[
				0,
				0.7071068286895752,
				0,
				0.7071068286895752
			],
			"translation":[
				0.020954981446266174,
				0,
				0.010795004665851593
			]
		},
		{
			"mesh":6,
			"name":"SOLDER_10k\u03a9_R5_2_1",
			"rotation":[
				0,
				0.7071068286895752,
				0,
				0.7071068286895752
			],
			"translation":[
				0.020954981446266174,
				0,
				0.008969999849796295
			]
		},
		{
			"mesh":5,
			"name":"SOLDER_4_7uF_C3_13_0",
			"translation":[
				0.004449978470802307,
				0,
				0.015451706945896149
			]
		},
		{
			"mesh":5,
			"name":"SOLDER_4_7uF_C3_13_1",
			"translation":[
				0.00634998083114624,
				0,
				0.015451706945896149
			]
		},
		{
			"mesh":5,
			"name":"SOLDER_4_7uF_C6_6_0",
			"translation":[
				0.02508498728275299,
				0,
				0.01777999848127365
			]
		},
		{
			"mesh":5,
			"name":"SOLDER_4_7uF_C6_6_1",
			"translation":[
				0.026984989643096924,
				0,
				0.01777999848127365
			]
		},
		{
			"mesh":7,
			"name":"SOLDER_AT24CS01_STUM_U2_4_0",
			"translation":[
				0.024394989013671875,
				0,
				0.00889500230550766
			]
		},
		{
			"mesh":7,
			"name":"SOLDER_AT24CS01_STUM_U2_4_1",
			"translation":[
				0.024394989013671875,
				0,
				0.009845003485679626
			]
		},
		{
			"mesh":7,
			"name":"SOLDER_AT24CS01_STUM_U2_4_2",
			"translation":[
				0.024394989013671875,
				0,
				0.010795004665851593
			]
		},
		{
			"mesh":7,
			"name":"SOLDER_AT24CS01_STUM_U2_4_3",
			"translation":[
				0.026669979095458984,
				0,
				0.010795004665851593
			]
		},
		{
			"mesh":7,
			"name":"SOLDER_AT24CS01_STUM_U2_4_4",
			"translation":[
				0.026669979095458984,
				0,
				0.00889500230550766
			]
		},
		{
			"mesh":8,
			"name":"SOLDER_Header_Male_2_54_2x2_P1_11_0",
			"translation":[
				0.003219977021217346,
				0,
				0.022224999964237213
			]
		},
		{
			"mesh":8,
			"name":"SOLDER_Header_Male_2_54_2x2_P1_11_1",
			"translation":[
				0.008269980549812317,
				0,
				0.022224999964237213
			]
		},
		{
			"mesh":8,
			"name":"SOLDER_Header_Male_2_54_2x2_P1_11_2",
			"translation":[
				0.003219977021217346,
				0,
				0.024764999747276306
			]
		},
		{
			"mesh":8,
			"name":"SOLDER_Header_Male_2_54_2x2_P1_11_3",
			"translation":[
				0.008269980549812317,
				0,
				0.024764999747276306
			]
		},
		{
			"mesh":8,
			"name":"SOLDER_Header_Male_2_54_2x2_P2_8_0",
			"translation":[
				0.024159982800483704,
				0,
				0.022224999964237213
			]
		},
		{
			"mesh":8,
			"name":"SOLDER_Header_Male_2_54_2x2_P2_8_1",
			"translation":[
				0.029209986329078674,
				0,
				0.022224999964237213
			]
		},
		{
			"mesh":8,
			"name":"SOLDER_Header_Male_2_54_2x2_P2_8_2",
			"translation":[
				0.024159982800483704,
				0,
				0.024764999747276306
			]
		},
		{
			"mesh":8,
			"name":"SOLDER_Header_Male_2_54_2x2_P2_8_3",
			"translation":[
				0.029209986329078674,
				0,
				0.024764999747276306
			]
		},
		{
			"mesh":9,
			"name":"SOLDER_MICROFJ_60035_TSV_TR_IC1_16_0",
			"rotation":[
				0,
				0.7071068286895752,
				0,
				0.7071068286895752
			],
			"scale":[
				-1,
				-1,
				-1
			],
			"translation":[
				0.014073491096496582,
				0,
				0.0165335014462471
			]
		},
		{
			"mesh":9,
			"name":"SOLDER_MICROFJ_60035_TSV_TR_IC1_16_1",
			"rotation":[
				0,
				0.7071068286895752,
				0,
				0.7071068286895752
			],
			"scale":[
				-1,
				-1,
				-1
			],
			"translation":[
				0.01507347822189331,
				0,
				0.0165335014462471
			]
		},
		{
			"mesh":9,
			"name":"SOLDER_MICROFJ_60035_TSV_TR_IC1_16_10",
			"rotation":[
				0,
				0.7071068286895752,
				0,
				0.7071068286895752
			],
			"scale":[
				-1,
				-1,
				-1
			],
			"translation":[
				0.018073484301567078,
				0,
				0.015533499419689178
			]
		},
		{
			"mesh":9,
			"name":"SOLDER_MICROFJ_60035_TSV_TR_IC1_16_11",
			"rotation":[
				0,
				0.7071068286895752,
				0,
				0.7071068286895752
			],
			"scale":[
				-1,
				-1,
				-1
			],
			"translation":[
				0.019073486328125,
				0,
				0.015533499419689178
			]
		},
		{
			"mesh":9,
			"name":"SOLDER_MICROFJ_60035_TSV_TR_IC1_16_12",
			"rotation":[
				0,
				0.7071068286895752,
				0,
				0.7071068286895752
			],
			"scale":[
				-1,
				-1,
				-1
			],
			"translation":[
				0.014073491096496582,
				0,
				0.014533504843711853
			]
		},
		{
			"mesh":9,
			"name":"SOLDER_MICROFJ_60035_TSV_TR_IC1_16_13",
			"rotation":[
				0,
				0.7071068286895752,
				0,
				0.7071068286895752
			],
			"scale":[
				-1,
				-1,
				-1
			],
			"translation":[
				0.01507347822189331,
				0,
				0.014533504843711853
			]
		},
		{
			"mesh":9,
			"name":"SOLDER_MICROFJ_60035_TSV_TR_IC1_16_14",
			"rotation":[
				0,
				0.7071068286895752,
				0,
				0.7071068286895752
			],
			"scale":[
				-1,
				-1,
				-1
			],
			"translation":[
				0.016073480248451233,
				0,
				0.014533504843711853
			]
		},
		{
			"mesh":9,
			"name":"SOLDER_MICROFJ_60035_TSV_TR_IC1_16_15",
			"rotation":[
				0,
				0.7071068286895752,
				0,
				0.7071068286895752
			],
			"scale":[
				-1,
				-1,
				-1
			],
			"translation":[
				0.017073482275009155,
				0,
				0.014533504843711853
			]
		},
		{
			"mesh":9,
			"name":"SOLDER_MICROFJ_60035_TSV_TR_IC1_16_16",
			"rotation":[
				0,
				0.7071068286895752,
				0,
				0.7071068286895752
			],
			"scale":[
				-1,
				-1,
				-1
			],
			"translation":[
				0.018073484301567078,
				0,
				0.014533504843711853
			]
		},
		{
			"mesh":9,
			"name":"SOLDER_MICROFJ_60035_TSV_TR_IC1_16_17",
			"rotation":[
				0,
				0.7071068286895752,
				0,
				0.7071068286895752
			],
			"scale":[
				-1,
				-1,
				-1
			],
			"translation":[
				0.019073486328125,
				0,
				0.014533504843711853
			]
		},
		{
			"mesh":9,
			"name":"SOLDER_MICROFJ_60035_TSV_TR_IC1_16_18",
			"rotation":[
				0,
				0.7071068286895752,
				0,
				0.7071068286895752
			],
			"scale":[
				-1,
				-1,
				-1
			],
			"translation":[
				0.014073491096496582,
				0,
				0.01353350281715393
			]
		},
		{
			"mesh":9,
			"name":"SOLDER_MICROFJ_60035_TSV_TR_IC1_16_19",
			"rotation":[
				0,
				0.7071068286895752,
				0,
				0.7071068286895752
			],
			"scale":[
				-1,
				-1,
				-1
			],
			"translation":[
				0.01507347822189331,
				0,
				0.01353350281715393
			]
		},
		{
			"mesh":9,
			"name":"SOLDER_MICROFJ_60035_TSV_TR_IC1_16_2",
			"rotation":[
				0,
				0.7071068286895752,
				0,
				0.7071068286895752
			],
			"scale":[
				-1,
				-1,
				-1
			],
			"translation":[
				0.016073480248451233,
				0,
				0.0165335014462471
			]
		},
		{
			"mesh":9,
			"name":"SOLDER_MICROFJ_60035_TSV_TR_IC1_16_20",
			"rotation":[
				0,
				0.7071068286895752,
				0,
				0.7071068286895752
			],
			"scale":[
				-1,
				-1,
				-1
			],
			"translation":[
				0.016073480248451233,
				0,
				0.01353350281715393
			]
		},
		{
			"mesh":9,
			"name":"SOLDER_MICROFJ_60035_TSV_TR_IC1_16_21",
			"rotation":[
				0,
				0.7071068286895752,
				0,
				0.7071068286895752
			],
			"scale":[
				-1,
				-1,
				-1
			],
			"translation":[
				0.017073482275009155,
				0,
				0.01353350281715393
			]
		},
		{
			"mesh":9,
			"name":"SOLDER_MICROFJ_60035_TSV_TR_IC1_16_22",
			"rotation":[
				0,
				0.7071068286895752,
				0,
				0.7071068286895752
			],
			"scale":[
				-1,
				-1,
				-1
			],
			"translation":[
				0.018073484301567078,
				0,
				0.01353350281715393
			]
		},
		{
			"mesh":9,
			"name":"SOLDER_MICROFJ_60035_TSV_TR_IC1_16_23",
			"rotation":[
				0,
				0.7071068286895752,
				0,
				0.7071068286895752
			],
			"scale":[
				-1,
				-1,
				-1
			],
			"translation":[
				0.019073486328125,
				0,
				0.01353350281715393
			]
		},
		{
			"mesh":9,
			"name":"SOLDER_MICROFJ_60035_TSV_TR_IC1_16_24",
			"rotation":[
				0,
				0.7071068286895752,
				0,
				0.7071068286895752
			],
			"scale":[
				-1,
				-1,
				-1
			],
			"translation":[
				0.014073491096496582,
				0,
				0.012533500790596008
			]
		},
		{
			"mesh":9,
			"name":"SOLDER_MICROFJ_60035_TSV_TR_IC1_16_25",
			"rotation":[
				0,
				0.7071068286895752,
				0,
				0.7071068286895752
			],
			"scale":[
				-1,
				-1,
				-1
			],
			"translation":[
				0.01507347822189331,
				0,
				0.012533500790596008
			]
		},
		{
			"mesh":9,
			"name":"SOLDER_MICROFJ_60035_TSV_TR_IC1_16_26",
			"rotation":[
				0,
				0.7071068286895752,
				0,
				0.7071068286895752
			],
			"scale":[
				-1,
				-1,
				-1
			],
			"translation":[
				0.016073480248451233,
				0,
				0.012533500790596008
			]
		},
		{
			"mesh":9,
			"name":"SOLDER_MICROFJ_60035_TSV_TR_IC1_16_27",
			"rotation":[
				0,
				0.7071068286895752,
				0,
				0.7071068286895752
			],
			"scale":[
				-1,
				-1,
				-1
			],
			"translation":[
				0.017073482275009155,
				0,
				0.012533500790596008
			]
		},
		{
			"mesh":9,
			"name":"SOLDER_MICROFJ_60035_TSV_TR_IC1_16_28",
			"rotation":[
				0,
				0.7071068286895752,
				0,
				0.7071068286895752
			],
			"scale":[
				-1,
				-1,
				-1
			],
			"translation":[
				0.018073484301567078,
				0,
				0.012533500790596008
			]
		},
		{
			"mesh":9,
			"name":"SOLDER_MICROFJ_60035_TSV_TR_IC1_16_29",
			"rotation":[
				0,
				0.7071068286895752,
				0,
				0.7071068286895752
			],
			"scale":[
				-1,
				-1,
				-1
			],
			"translation":[
				0.019073486328125,
				0,
				0.012533500790596008
			]
		},
		{
			"mesh":9,
			"name":"SOLDER_MICROFJ_60035_TSV_TR_IC1_16_3",
			"rotation":[
				0,
				0.7071068286895752,
				0,
				0.7071068286895752
			],
			"scale":[
				-1,
				-1,
				-1
			],
			"translation":[
				0.017073482275009155,
				0,
				0.0165335014462471
			]
		},
		{
			"mesh":9,
			"name":"SOLDER_MICROFJ_60035_TSV_TR_IC1_16_30",
			"rotation":[
				0,
				0.7071068286895752,
				0,
				0.7071068286895752
			],
			"scale":[
				-1,
				-1,
				-1
			],
			"translation":[
				0.014073491096496582,
				0,
				0.011533498764038086
			]
		},
		{
			"mesh":9,
			"name":"SOLDER_MICROFJ_60035_TSV_TR_IC1_16_31",
			"rotation":[
				0,
				0.7071068286895752,
				0,
				0.7071068286895752
			],
			"scale":[
				-1,
				-1,
				-1
			],
			"translation":[
				0.01507347822189331,
				0,
				0.011533498764038086
			]
		},
		{
			"mesh":9,
			"name":"SOLDER_MICROFJ_60035_TSV_TR_IC1_16_32",
			"rotation":[
				0,
				0.7071068286895752,
				0,
				0.7071068286895752
			],
			"scale":[
				-1,
				-1,
				-1
			],
			"translation":[
				0.016073480248451233,
				0,
				0.011533498764038086
			]
		},
		{
			"mesh":9,
			"name":"SOLDER_MICROFJ_60035_TSV_TR_IC1_16_33",
			"rotation":[
				0,
				0.7071068286895752,
				0,
				0.7071068286895752
			],
			"scale":[
				-1,
				-1,
				-1
			],
			"translation":[
				0.017073482275009155,
				0,
				0.011533498764038086
			]
		},
		{
			"mesh":9,
			"name":"SOLDER_MICROFJ_60035_TSV_TR_IC1_16_34",
			"rotation":[
				0,
				0.7071068286895752,
				0,
				0.7071068286895752
			],
			"scale":[
				-1,
				-1,
				-1
			],
			"translation":[
				0.018073484301567078,
				0,
				0.011533498764038086
			]
		},
		{
			"mesh":9,
			"name":"SOLDER_MICROFJ_60035_TSV_TR_IC1_16_35",
			"rotation":[
				0,
				0.7071068286895752,
				0,
				0.7071068286895752
			],
			"scale":[
				-1,
				-1,
				-1
			],
			"translation":[
				0.019073486328125,
				0,
				0.011533498764038086
			]
		},
		{
			"mesh":9,
			"name":"SOLDER_MICROFJ_60035_TSV_TR_IC1_16_4",
			"rotation":[
				0,
				0.7071068286895752,
				0,
				0.7071068286895752
			],
			"scale":[
				-1,
				-1,
				-1
			],
			"translation":[
				0.018073484301567078,
				0,
				0.0165335014462471
			]
		},
		{
			"mesh":9,
			"name":"SOLDER_MICROFJ_60035_TSV_TR_IC1_16_5",
			"rotation":[
				0,
				0.7071068286895752,
				0,
				0.7071068286895752
			],
			"scale":[
				-1,
				-1,
				-1
			],
			"translation":[
				0.019073486328125,
				0,
				0.0165335014462471
			]
		},
		{
			"mesh":9,
			"name":"SOLDER_MICROFJ_60035_TSV_TR_IC1_16_6",
			"rotation":[
				0,
				0.7071068286895752,
				0,
				0.7071068286895752
			],
			"scale":[
				-1,
				-1,
				-1
			],
			"translation":[
				0.014073491096496582,
				0,
				0.015533499419689178
			]
		},
		{
			"mesh":9,
			"name":"SOLDER_MICROFJ_60035_TSV_TR_IC1_16_7",
			"rotation":[
				0,
				0.7071068286895752,
				0,
				0.7071068286895752
			],
			"scale":[
				-1,
				-1,
				-1
			],
			"translation":[
				0.01507347822189331,
				0,
				0.015533499419689178
			]
		},
		{
			"mesh":9,
			"name":"SOLDER_MICROFJ_60035_TSV_TR_IC1_16_8",
			"rotation":[
				0,
				0.7071068286895752,
				0,
				0.7071068286895752
			],
			"scale":[
				-1,
				-1,
				-1
			],
			"translation":[
				0.016073480248451233,
				0,
				0.015533499419689178
			]
		},
		{
			"mesh":9,
			"name":"SOLDER_MICROFJ_60035_TSV_TR_IC1_16_9",
			"rotation":[
				0,
				0.7071068286895752,
				0,
				0.7071068286895752
			],
			"scale":[
				-1,
				-1,
				-1
			],
			"translation":[
				0.017073482275009155,
				0,
				0.015533499419689178
			]
		},
		{
			"mesh":10,
			"name":"SOLDER_TMP116xxDRV_U1_14_0",
			"translation":[
				0.02539999783039093,
				0,
				0.013805001974105835
			]
		},
		{
			"mesh":10,
			"name":"SOLDER_TMP116xxDRV_U1_14_1",
			"translation":[
				0.02539999783039093,
				0,
				0.014605008065700531
			]
		},
		{
			"mesh":11,
			"name":"SOLDER_TMP116xxDRV_U1_14_2",
			"translation":[
				0.024512484669685364,
				0,
				0.013555005192756653
			]
		},
		{
			"mesh":11,
			"name":"SOLDER_TMP116xxDRV_U1_14_3",
			"translation":[
				0.024512484669685364,
				0,
				0.014205001294612885
			]
		},
		{
			"mesh":11,
			"name":"SOLDER_TMP116xxDRV_U1_14_4",
			"translation":[
				0.024512484669685364,
				0,
				0.014855004847049713
			]
		},
		{
			"mesh":11,
			"name":"SOLDER_TMP116xxDRV_U1_14_5",
			"translation":[
				0.026287496089935303,
				0,
				0.014855004847049713
			]
		},
		{
			"mesh":11,
			"name":"SOLDER_TMP116xxDRV_U1_14_6",
			"translation":[
				0.026287496089935303,
				0,
				0.014205001294612885
			]
		},
		{
			"mesh":11,
			"name":"SOLDER_TMP116xxDRV_U1_14_7",
			"translation":[
				0.026287496089935303,
				0,
				0.013555005192756653
			]
		},
		{
			"mesh":12,
			"name":"SOT-23-5",
			"translation":[
				0.025532573461532593,
				0.0008000009111128747,
				0.009845040738582611
			]
		},
		{
			"mesh":13,
			"name":"WSON-6-1EP_2x2mm_P0.65mm_EP1x1.6mm",
			"translation":[
				0.025399982929229736,
				0.0008000009111128747,
				0.014204949140548706
			]
		},
		{
			"children":[
				2,
				3,
				4,
				5,
				6,
				7,
				8,
				9,
				10,
				11,
				12,
				13,
				14,
				15,
				16,
				17,
				18,
				19,
				20,
				21,
				22,
				23,
				24,
				25,
				26,
				27,
				28,
				29,
				30,
				31,
				32,
				33,
				34,
				35,
				36,
				37,
				38,
				39,
				40,
				41,
				42,
				43,
				44,
				45,
				46,
				47,
				48,
				49,
				50,
				51,
				52,
				53,
				54,
				55,
				56,
				57,
				58,
				59,
				60,
				61,
				62,
				63,
				64,
				65,
				66,
				67,
				68,
				69,
				70,
				71,
				72,
				73,
				74,
				75,
				76,
				77,
				78,
				79,
				80,
				81,
				82,
				83,
				84,
				85,
				86,
				87,
				88,
				89,
				90
			],
			"mesh":14,
			"name":"PCB_Test",
			"translation":[
				-0.016509994864463806,
				0,
				-0.013970001600682735
			]
		}
	],
	"animations":[
		{
			"channels":[
				{
					"sampler":0,
					"target":{
						"node":1,
						"path":"translation"
					}
				},
				{
					"sampler":1,
					"target":{
						"node":1,
						"path":"rotation"
					}
				},
				{
					"sampler":2,
					"target":{
						"node":1,
						"path":"scale"
					}
				}
			],
			"name":"PlaneAction",
			"samplers":[
				{
					"input":83,
					"interpolation":"LINEAR",
					"output":84
				},
				{
					"input":83,
					"interpolation":"LINEAR",
					"output":85
				},
				{
					"input":83,
					"interpolation":"LINEAR",
					"output":86
				}
			]
		}
	],
	"materials":[
		{
			"doubleSided":true,
			"name":"Material.001",
			"pbrMetallicRoughness":{
				"metallicFactor":0,
				"roughnessFactor":0.5
			}
		},
		{
			"doubleSided":true,
			"name":"SHAPE_1"
		},
		{
			"doubleSided":true,
			"name":"SHAPE_11"
		},
		{
			"doubleSided":true,
			"name":"SHAPE_1.003"
		},
		{
			"doubleSided":true,
			"name":"SHAPE_37"
		},
		{
			"doubleSided":true,
			"name":"SHAPE_1.001"
		},
		{
			"doubleSided":true,
			"name":"SHAPE_17"
		},
		{
			"doubleSided":true,
			"name":"SHAPE_8"
		},
		{
			"doubleSided":true,
			"name":"SHAPE_14"
		},
		{
			"doubleSided":true,
			"name":"Solder Joint"
		},
		{
			"doubleSided":true,
			"name":"SHAPE_15"
		},
		{
			"doubleSided":true,
			"name":"SHAPE_102"
		},
		{
			"doubleSided":true,
			"name":"SHAPE_4"
		},
		{
			"doubleSided":true,
			"name":"SHAPE_49"
		},
		{
			"doubleSided":true,
			"name":"PCB_Test"
		}
	],
	"meshes":[
		{
			"name":"Plane",
			"primitives":[
				{
					"attributes":{
						"POSITION":0,
						"NORMAL":1,
						"TEXCOORD_0":2
					},
					"indices":3,
					"material":0
				}
			]
		},
		{
			"name":"C_0805_2012Metric",
			"primitives":[
				{
					"attributes":{
						"POSITION":4,
						"NORMAL":5,
						"TEXCOORD_0":6
					},
					"indices":7,
					"material":1
				},
				{
					"attributes":{
						"POSITION":8,
						"NORMAL":9,
						"TEXCOORD_0":10
					},
					"indices":11,
					"material":2
				}
			]
		},
		{
			"name":"MICROFJ-60035-TSV-TR",
			"primitives":[
				{
					"attributes":{
						"POSITION":12,
						"NORMAL":13,
						"TEXCOORD_0":14
					},
					"indices":15,
					"material":3
				},
				{
					"attributes":{
						"POSITION":16,
						"NORMAL":17,
						"TEXCOORD_0":18
					},
					"indices":19,
					"material":4
				}
			]
		},
		{
			"name":"PinHeader_2x02_P2.54mm_Vertical_SMD",
			"primitives":[
				{
					"attributes":{
						"POSITION":20,
						"NORMAL":21,
						"TEXCOORD_0":22
					},
					"indices":23,
					"material":5
				},
				{
					"attributes":{
						"POSITION":24,
						"NORMAL":25,
						"TEXCOORD_0":26
					},
					"indices":27,
					"material":6
				}
			]
		},
		{
			"name":"R_0805_2012Metric",
			"primitives":[
				{
					"attributes":{
						"POSITION":28,
						"NORMAL":29,
						"TEXCOORD_0":30
					},
					"indices":31,
					"material":1
				},
				{
					"attributes":{
						"POSITION":32,
						"NORMAL":33,
						"TEXCOORD_0":34
					},
					"indices":35,
					"material":7
				},
				{
					"attributes":{
						"POSITION":36,
						"NORMAL":37,
						"TEXCOORD_0":38
					},
					"indices":39,
					"material":8
				}
			]
		},
		{
			"name":"Solder Joint.002",
			"primitives":[
				{
					"attributes":{
						"POSITION":40,
						"NORMAL":41
					},
					"indices":42,
					"material":9
				}
			]
		},
		{
			"name":"Solder Joint",
			"primitives":[
				{
					"attributes":{
						"POSITION":43,
						"NORMAL":44
					},
					"indices":42,
					"material":9
				}
			]
		},
		{
			"name":"Solder Joint.001",
			"primitives":[
				{
					"attributes":{
						"POSITION":45,
						"NORMAL":46
					},
					"indices":42,
					"material":9
				}
			]
		},
		{
			"name":"Solder Joint.003",
			"primitives":[
				{
					"attributes":{
						"POSITION":47,
						"NORMAL":48
					},
					"indices":42,
					"material":9
				}
			]
		},
		{
			"name":"Solder Joint.006",
			"primitives":[
				{
					"attributes":{
						"POSITION":49,
						"NORMAL":50
					},
					"indices":42,
					"material":9
				}
			]
		},
		{
			"name":"Solder Joint.004",
			"primitives":[
				{
					"attributes":{
						"POSITION":51,
						"NORMAL":52
					},
					"indices":42,
					"material":9
				}
			]
		},
		{
			"name":"Solder Joint.005",
			"primitives":[
				{
					"attributes":{
						"POSITION":53,
						"NORMAL":54
					},
					"indices":42,
					"material":9
				}
			]
		},
		{
			"name":"SOT-23-5",
			"primitives":[
				{
					"attributes":{
						"POSITION":55,
						"NORMAL":56,
						"TEXCOORD_0":57
					},
					"indices":58,
					"material":5
				},
				{
					"attributes":{
						"POSITION":59,
						"NORMAL":60,
						"TEXCOORD_0":61
					},
					"indices":62,
					"material":10
				},
				{
					"attributes":{
						"POSITION":63,
						"NORMAL":64,
						"TEXCOORD_0":65
					},
					"indices":66,
					"material":11
				}
			]
		},
		{
			"name":"WSON-6-1EP_2x2mm_P0.65mm_EP1x1.6mm",
			"primitives":[
				{
					"attributes":{
						"POSITION":67,
						"NORMAL":68,
						"TEXCOORD_0":69
					},
					"indices":70,
					"material":1
				},
				{
					"attributes":{
						"POSITION":71,
						"NORMAL":72,
						"TEXCOORD_0":73
					},
					"indices":74,
					"material":12
				},
				{
					"attributes":{
						"POSITION":75,
						"NORMAL":76,
						"TEXCOORD_0":77
					},
					"indices":78,
					"material":13
				}
			]
		},
		{
			"name":"PCB_Test",
			"primitives":[
				{
					"attributes":{
						"POSITION":79,
						"NORMAL":80,
						"TEXCOORD_0":81
					},
					"indices":82,
					"material":14
				}
			]
		}
	],
	"accessors":[
		{
			"bufferView":0,
			"componentType":5126,
			"count":4,
			"max":[
				1,
				0,
				1
			],
			"min":[
				-1,
				0,
				-1
			],
			"type":"VEC3"
		},
		{
			"bufferView":1,
			"componentType":5126,
			"count":4,
			"type":"VEC3"
		},
		{
			"bufferView":2,
			"componentType":5126,
			"count":4,
			"type":"VEC2"
		},
		{
			"bufferView":3,
			"componentType":5123,
			"count":6,
			"type":"SCALAR"
		},
		{
			"bufferView":4,
			"componentType":5126,
			"count":272,
			"max":[
				0.0010000000474974513,
				0.0012499999720603228,
				0.0006249999860301614
			],
			"min":[
				-0.0010000000474974513,
				0,
				-0.0006249999860301614
			],
			"type":"VEC3"
		},
		{
			"bufferView":5,
			"componentType":5126,
			"count":272,
			"type":"VEC3"
		},
		{
			"bufferView":6,
			"componentType":5126,
			"count":272,
			"type":"VEC2"
		},
		{
			"bufferView":7,
			"componentType":5123,
			"count":708,
			"type":"SCALAR"
		},
		{
			"bufferView":8,
			"componentType":5126,
			"count":64,
			"max":[
				0.0005999999702908099,
				0.0012100000167265534,
				0.0005850000306963921
			],
			"min":[
				-0.0005999999702908099,
				3.9999998989515007e-05,
				-0.0005850000306963921
			],
			"type":"VEC3"
		},
		{
			"bufferView":9,
			"componentType":5126,
			"count":64,
			"type":"VEC3"
		},
		{
			"bufferView":10,
			"componentType":5126,
			"count":64,
			"type":"VEC2"
		},
		{
			"bufferView":11,
			"componentType":5123,
			"count":144,
			"type":"SCALAR"
		},
		{
			"bufferView":12,
			"componentType":5126,
			"count":5976,
			"max":[
				0.002630000002682209,
				0.00026000000070780516,
				0.0026280249003320932
			],
			"min":[
				-0.0026280249003320932,
				0,
				-0.0026280249003320932
			],
			"type":"VEC3"
		},
		{
			"bufferView":13,
			"componentType":5126,
			"count":5976,
			"type":"VEC3"
		},
		{
			"bufferView":14,
			"componentType":5126,
			"count":5976,
			"type":"VEC2"
		},
		{
			"bufferView":15,
			"componentType":5123,
			"count":32832,
			"type":"SCALAR"
		},
		{
			"bufferView":16,
			"componentType":5126,
			"count":122,
			"max":[
				0.003065000055357814,
				0.0006700000376440585,
				0.003065000055357814
			],
			"min":[
				-0.003065000055357814,
				0.00026000000070780516,
				-0.003065000055357814
			],
			"type":"VEC3"
		},
		{
			"bufferView":17,
			"componentType":5126,
			"count":122,
			"type":"VEC3"
		},
		{
			"bufferView":18,
			"componentType":5126,
			"count":122,
			"type":"VEC2"
		},
		{
			"bufferView":19,
			"componentType":5123,
			"count":324,
			"type":"SCALAR"
		},
		{
			"bufferView":20,
			"componentType":5126,
			"count":116,
			"max":[
				0.0025400000158697367,
				0.0032999999821186066,
				0.0025400000158697367
			],
			"min":[
				-0.0025400000158697367,
				0.0007600000244565308,
				-0.0025400000158697367
			],
			"type":"VEC3"
		},
		{
			"bufferView":21,
			"componentType":5126,
			"count":116,
			"type":"VEC3"
		},
		{
			"bufferView":22,
			"componentType":5126,
			"count":116,
			"type":"VEC2"
		},
		{
			"bufferView":23,
			"componentType":5123,
			"count":300,
			"type":"SCALAR"
		},
		{
			"bufferView":24,
			"componentType":5126,
			"count":440,
			"max":[
				0.0037700000684708357,
				0.00930000003427267,
				0.0015899999998509884
			],
			"min":[
				-0.0037700000684708357,
				0,
				-0.0015899999998509884
			],
			"type":"VEC3"
		},
		{
			"bufferView":25,
			"componentType":5126,
			"count":440,
			"type":"VEC3"
		},
		{
			"bufferView":26,
			"componentType":5126,
			"count":440,
			"type":"VEC2"
		},
		{
			"bufferView":27,
			"componentType":5123,
			"count":816,
			"type":"SCALAR"
		},
		{
			"bufferView":28,
			"componentType":5126,
			"count":256,
			"max":[
				0.0010000000474974513,
				0.00044999999227002263,
				0.0005999999702908099
			],
			"min":[
				-0.0010000000474974513,
				0,
				-0.0005999999702908099
			],
			"type":"VEC3"
		},
		{
			"bufferView":29,
			"componentType":5126,
			"count":256,
			"type":"VEC3"
		},
		{
			"bufferView":30,
			"componentType":5126,
			"count":256,
			"type":"VEC2"
		},
		{
			"bufferView":31,
			"componentType":5123,
			"count":660,
			"type":"SCALAR"
		},
		{
			"bufferView":32,
			"componentType":5126,
			"count":20,
			"max":[
				0.0009549999958835542,
				0.00040499999886378646,
				0.0005999999702908099
			],
			"min":[
				-0.0009549999958835542,
				4.5000000682193786e-05,
				-0.0005999999702908099
			],
			"type":"VEC3"
		},
		{
			"bufferView":33,
			"componentType":5126,
			"count":20,
			"type":"VEC3"
		},
		{
			"bufferView":34,
			"componentType":5126,
			"count":20,
			"type":"VEC2"
		},
		{
			"bufferView":35,
			"componentType":5123,
			"count":42,
			"type":"SCALAR"
		},
		{
			"bufferView":36,
			"componentType":5126,
			"count":20,
			"max":[
				0.000699999975040555,
				0.00044999999227002263,
				0.0005999999702908099
			],
			"min":[
				-0.000699999975040555,
				0.00040499999886378646,
				-0.0005999999702908099
			],
			"type":"VEC3"
		},
		{
			"bufferView":37,
			"componentType":5126,
			"count":20,
			"type":"VEC3"
		},
		{
			"bufferView":38,
			"componentType":5126,
			"count":20,
			"type":"VEC2"
		},
		{
			"bufferView":39,
			"componentType":5123,
			"count":30,
			"type":"SCALAR"
		},
		{
			"bufferView":40,
			"componentType":5126,
			"count":18,
			"max":[
				0.0005200000014156103,
				0.0008399999933317304,
				0.0007540000369772315
			],
			"min":[
				-0.0005200000014156103,
				0.0007399999885819852,
				-0.0007540000369772315
			],
			"type":"VEC3"
		},
		{
			"bufferView":41,
			"componentType":5126,
			"count":18,
			"type":"VEC3"
		},
		{
			"bufferView":42,
			"componentType":5123,
			"count":96,
			"type":"SCALAR"
		},
		{
			"bufferView":43,
			"componentType":5126,
			"count":18,
			"max":[
				0.0005329999839887023,
				0.0008399999933317304,
				0.0007280000136233866
			],
			"min":[
				-0.0005329999839887023,
				0.0007399999885819852,
				-0.0007280000136233866
			],
			"type":"VEC3"
		},
		{
			"bufferView":44,
			"componentType":5126,
			"count":18,
			"type":"VEC3"
		},
		{
			"bufferView":45,
			"componentType":5126,
			"count":18,
			"max":[
				0.0006890000076964498,
				0.0008399999933317304,
				0.00031200001831166446
			],
			"min":[
				-0.0006890000076964498,
				0.0007399999885819852,
				-0.00031200001831166446
			],
			"type":"VEC3"
		},
		{
			"bufferView":46,
			"componentType":5126,
			"count":18,
			"type":"VEC3"
		},
		{
			"bufferView":47,
			"componentType":5126,
			"count":18,
			"max":[
				0.0016380000161007047,
				0.0008399999933317304,
				0.0005200000014156103
			],
			"min":[
				-0.0016380000161007047,
				0.0007399999885819852,
				-0.0005200000014156103
			],
			"type":"VEC3"
		},
		{
			"bufferView":48,
			"componentType":5126,
			"count":18,
			"type":"VEC3"
		},
		{
			"bufferView":49,
			"componentType":5126,
			"count":18,
			"max":[
				0.00010815999849000946,
				0.0008399999933317304,
				0.00010815999849000946
			],
			"min":[
				-0.00010815999849000946,
				0.0007399999885819852,
				-0.00010815999849000946
			],
			"type":"VEC3"
		},
		{
			"bufferView":50,
			"componentType":5126,
			"count":18,
			"type":"VEC3"
		},
		{
			"bufferView":51,
			"componentType":5126,
			"count":18,
			"max":[
				0.00042119997669942677,
				0.0008399999933317304,
				0.00033279997296631336
			],
			"min":[
				-0.00042119997669942677,
				0.0007399999885819852,
				-0.00033279997296631336
			],
			"type":"VEC3"
		},
		{
			"bufferView":52,
			"componentType":5126,
			"count":18,
			"type":"VEC3"
		},
		{
			"bufferView":53,
			"componentType":5126,
			"count":18,
			"max":[
				0.00019499998597893864,
				0.0008399999933317304,
				0.00020799998310394585
			],
			"min":[
				-0.00019499998597893864,
				0.0007399999885819852,
				-0.00020799998310394585
			],
			"type":"VEC3"
		},
		{
			"bufferView":54,
			"componentType":5126,
			"count":18,
			"type":"VEC3"
		},
		{
			"bufferView":55,
			"componentType":5126,
			"count":211,
			"max":[
				0.0007999999797903001,
				0.001550000044517219,
				0.001449999981559813
			],
			"min":[
				-0.0007999999797903001,
				0.00010000000474974513,
				-0.001449999981559813
			],
			"type":"VEC3"
		},
		{
			"bufferView":56,
			"componentType":5126,
			"count":211,
			"type":"VEC3"
		},
		{
			"bufferView":57,
			"componentType":5126,
			"count":211,
			"type":"VEC2"
		},
		{
			"bufferView":58,
			"componentType":5123,
			"count":423,
			"type":"SCALAR"
		},
		{
			"bufferView":59,
			"componentType":5126,
			"count":750,
			"max":[
				0.00139999995008111,
				0.0008999999845400453,
				0.0011999999405816197
			],
			"min":[
				-0.00139999995008111,
				0,
				-0.0011999999405816197
			],
			"type":"VEC3"
		},
		{
			"bufferView":60,
			"componentType":5126,
			"count":750,
			"type":"VEC3"
		},
		{
			"bufferView":61,
			"componentType":5126,
			"count":750,
			"type":"VEC2"
		},
		{
			"bufferView":62,
			"componentType":5123,
			"count":1860,
			"type":"SCALAR"
		},
		{
			"bufferView":63,
			"componentType":5126,
			"count":23,
			"max":[
				-0.0004337650316301733,
				0.001550000044517219,
				-0.001083648414351046
			],
			"min":[
				-0.0005335318855941296,
				0.001550000044517219,
				-0.0011831826996058226
			],
			"type":"VEC3"
		},
		{
			"bufferView":64,
			"componentType":5126,
			"count":23,
			"type":"VEC3"
		},
		{
			"bufferView":65,
			"componentType":5126,
			"count":23,
			"type":"VEC2"
		},
		{
			"bufferView":66,
			"componentType":5123,
			"count":63,
			"type":"SCALAR"
		},
		{
			"bufferView":67,
			"componentType":5126,
			"count":193,
			"max":[
				0.0010000000474974513,
				0.00019999999494757503,
				0.0007999999797903001
			],
			"min":[
				-0.0010000000474974513,
				0,
				-0.0007999999797903001
			],
			"type":"VEC3"
		},
		{
			"bufferView":68,
			"componentType":5126,
			"count":193,
			"type":"VEC3"
		},
		{
			"bufferView":69,
			"componentType":5126,
			"count":193,
			"type":"VEC2"
		},
		{
			"bufferView":70,
			"componentType":5123,
			"count":327,
			"type":"SCALAR"
		},
		{
			"bufferView":71,
			"componentType":5126,
			"count":101,
			"max":[
				0.0009899999713525176,
				0.0008200000156648457,
				0.0009899999713525176
			],
			"min":[
				-0.0009899999713525176,
				1.9999999494757503e-05,
				-0.0009899999713525176
			],
			"type":"VEC3"
		},
		{
			"bufferView":72,
			"componentType":5126,
			"count":101,
			"type":"VEC3"
		},
		{
			"bufferView":73,
			"componentType":5126,
			"count":101,
			"type":"VEC2"
		},
		{
			"bufferView":74,
			"componentType":5123,
			"count":279,
			"type":"SCALAR"
		},
		{
			"bufferView":75,
			"componentType":5126,
			"count":74,
			"max":[
				-0.0005249999812804163,
				0.0008200000156648457,
				-0.0005249999812804163
			],
			"min":[
				-0.0007750000222586095,
				0.0008099999977275729,
				-0.0007750000222586095
			],
			"type":"VEC3"
		},
		{
			"bufferView":76,
			"componentType":5126,
			"count":74,
			"type":"VEC3"
		},
		{
			"bufferView":77,
			"componentType":5126,
			"count":74,
			"type":"VEC2"
		},
		{
			"bufferView":78,
			"componentType":5123,
			"count":210,
			"type":"SCALAR"
		},
		{
			"bufferView":79,
			"componentType":5126,
			"count":2640,
			"max":[
				0.03301998972892761,
				0.0007993116159923375,
				0.027939997613430023
			],
			"min":[
				0,
				-0.0007993116159923375,
				0
			],
			"type":"VEC3"
		},
		{
			"bufferView":80,
			"componentType":5126,
			"count":2640,
			"type":"VEC3"
		},
		{
			"bufferView":81,
			"componentType":5126,
			"count":2640,
			"type":"VEC2"
		},
		{
			"bufferView":82,
			"componentType":5123,
			"count":8172,
			"type":"SCALAR"
		},
		{
			"bufferView":83,
			"componentType":5126,
			"count":1,
			"max":[
				0.041666666666666664
			],
			"min":[
				0.041666666666666664
			],
			"type":"SCALAR"
		},
		{
			"bufferView":84,
			"componentType":5126,
			"count":1,
			"type":"VEC3"
		},
		{
			"bufferView":85,
			"componentType":5126,
			"count":1,
			"type":"VEC4"
		},
		{
			"bufferView":86,
			"componentType":5126,
			"count":1,
			"type":"VEC3"
		}
	],
	"bufferViews":[
		{
			"buffer":0,
			"byteLength":48,
			"byteOffset":0,
			"target":34962
		},
		{
			"buffer":0,
			"byteLength":48,
			"byteOffset":48,
			"target":34962
		},
		{
			"buffer":0,
			"byteLength":32,
			"byteOffset":96,
			"target":34962
		},
		{
			"buffer":0,
			"byteLength":12,
			"byteOffset":128,
			"target":34963
		},
		{
			"buffer":0,
			"byteLength":3264,
			"byteOffset":140,
			"target":34962
		},
		{
			"buffer":0,
			"byteLength":3264,
			"byteOffset":3404,
			"target":34962
		},
		{
			"buffer":0,
			"byteLength":2176,
			"byteOffset":6668,
			"target":34962
		},
		{
			"buffer":0,
			"byteLength":1416,
			"byteOffset":8844,
			"target":34963
		},
		{
			"buffer":0,
			"byteLength":768,
			"byteOffset":10260,
			"target":34962
		},
		{
			"buffer":0,
			"byteLength":768,
			"byteOffset":11028,
			"target":34962
		},
		{
			"buffer":0,
			"byteLength":512,
			"byteOffset":11796,
			"target":34962
		},
		{
			"buffer":0,
			"byteLength":288,
			"byteOffset":12308,
			"target":34963
		},
		{
			"buffer":0,
			"byteLength":71712,
			"byteOffset":12596,
			"target":34962
		},
		{
			"buffer":0,
			"byteLength":71712,
			"byteOffset":84308,
			"target":34962
		},
		{
			"buffer":0,
			"byteLength":47808,
			"byteOffset":156020,
			"target":34962
		},
		{
			"buffer":0,
			"byteLength":65664,
			"byteOffset":203828,
			"target":34963
		},
		{
			"buffer":0,
			"byteLength":1464,
			"byteOffset":269492,
			"target":34962
		},
		{
			"buffer":0,
			"byteLength":1464,
			"byteOffset":270956,
			"target":34962
		},
		{
			"buffer":0,
			"byteLength":976,
			"byteOffset":272420,
			"target":34962
		},
		{
			"buffer":0,
			"byteLength":648,
			"byteOffset":273396,
			"target":34963
		},
		{
			"buffer":0,
			"byteLength":1392,
			"byteOffset":274044,
			"target":34962
		},
		{
			"buffer":0,
			"byteLength":1392,
			"byteOffset":275436,
			"target":34962
		},
		{
			"buffer":0,
			"byteLength":928,
			"byteOffset":276828,
			"target":34962
		},
		{
			"buffer":0,
			"byteLength":600,
			"byteOffset":277756,
			"target":34963
		},
		{
			"buffer":0,
			"byteLength":5280,
			"byteOffset":278356,
			"target":34962
		},
		{
			"buffer":0,
			"byteLength":5280,
			"byteOffset":283636,
			"target":34962
		},
		{
			"buffer":0,
			"byteLength":3520,
			"byteOffset":288916,
			"target":34962
		},
		{
			"buffer":0,
			"byteLength":1632,
			"byteOffset":292436,
			"target":34963
		},
		{
			"buffer":0,
			"byteLength":3072,
			"byteOffset":294068,
			"target":34962
		},
		{
			"buffer":0,
			"byteLength":3072,
			"byteOffset":297140,
			"target":34962
		},
		{
			"buffer":0,
			"byteLength":2048,
			"byteOffset":300212,
			"target":34962
		},
		{
			"buffer":0,
			"byteLength":1320,
			"byteOffset":302260,
			"target":34963
		},
		{
			"buffer":0,
			"byteLength":240,
			"byteOffset":303580,
			"target":34962
		},
		{
			"buffer":0,
			"byteLength":240,
			"byteOffset":303820,
			"target":34962
		},
		{
			"buffer":0,
			"byteLength":160,
			"byteOffset":304060,
			"target":34962
		},
		{
			"buffer":0,
			"byteLength":84,
			"byteOffset":304220,
			"target":34963
		},
		{
			"buffer":0,
			"byteLength":240,
			"byteOffset":304304,
			"target":34962
		},
		{
			"buffer":0,
			"byteLength":240,
			"byteOffset":304544,
			"target":34962
		},
		{
			"buffer":0,
			"byteLength":160,
			"byteOffset":304784,
			"target":34962
		},
		{
			"buffer":0,
			"byteLength":60,
			"byteOffset":304944,
			"target":34963
		},
		{
			"buffer":0,
			"byteLength":216,
			"byteOffset":305004,
			"target":34962
		},
		{
			"buffer":0,
			"byteLength":216,
			"byteOffset":305220,
			"target":34962
		},
		{
			"buffer":0,
			"byteLength":192,
			"byteOffset":305436,
			"target":34963
		},
		{
			"buffer":0,
			"byteLength":216,
			"byteOffset":305628,
			"target":34962
		},
		{
			"buffer":0,
			"byteLength":216,
			"byteOffset":305844,
			"target":34962
		},
		{
			"buffer":0,
			"byteLength":216,
			"byteOffset":306060,
			"target":34962
		},
		{
			"buffer":0,
			"byteLength":216,
			"byteOffset":306276,
			"target":34962
		},
		{
			"buffer":0,
			"byteLength":216,
			"byteOffset":306492,
			"target":34962
		},
		{
			"buffer":0,
			"byteLength":216,
			"byteOffset":306708,
			"target":34962
		},
		{
			"buffer":0,
			"byteLength":216,
			"byteOffset":306924,
			"target":34962
		},
		{
			"buffer":0,
			"byteLength":216,
			"byteOffset":307140,
			"target":34962
		},
		{
			"buffer":0,
			"byteLength":216,
			"byteOffset":307356,
			"target":34962
		},
		{
			"buffer":0,
			"byteLength":216,
			"byteOffset":307572,
			"target":34962
		},
		{
			"buffer":0,
			"byteLength":216,
			"byteOffset":307788,
			"target":34962
		},
		{
			"buffer":0,
			"byteLength":216,
			"byteOffset":308004,
			"target":34962
		},
		{
			"buffer":0,
			"byteLength":2532,
			"byteOffset":308220,
			"target":34962
		},
		{
			"buffer":0,
			"byteLength":2532,
			"byteOffset":310752,
			"target":34962
		},
		{
			"buffer":0,
			"byteLength":1688,
			"byteOffset":313284,
			"target":34962
		},
		{
			"buffer":0,
			"byteLength":846,
			"byteOffset":314972,
			"target":34963
		},
		{
			"buffer":0,
			"byteLength":9000,
			"byteOffset":315820,
			"target":34962
		},
		{
			"buffer":0,
			"byteLength":9000,
			"byteOffset":324820,
			"target":34962
		},
		{
			"buffer":0,
			"byteLength":6000,
			"byteOffset":333820,
			"target":34962
		},
		{
			"buffer":0,
			"byteLength":3720,
			"byteOffset":339820,
			"target":34963
		},
		{
			"buffer":0,
			"byteLength":276,
			"byteOffset":343540,
			"target":34962
		},
		{
			"buffer":0,
			"byteLength":276,
			"byteOffset":343816,
			"target":34962
		},
		{
			"buffer":0,
			"byteLength":184,
			"byteOffset":344092,
			"target":34962
		},
		{
			"buffer":0,
			"byteLength":126,
			"byteOffset":344276,
			"target":34963
		},
		{
			"buffer":0,
			"byteLength":2316,
			"byteOffset":344404,
			"target":34962
		},
		{
			"buffer":0,
			"byteLength":2316,
			"byteOffset":346720,
			"target":34962
		},
		{
			"buffer":0,
			"byteLength":1544,
			"byteOffset":349036,
			"target":34962
		},
		{
			"buffer":0,
			"byteLength":654,
			"byteOffset":350580,
			"target":34963
		},
		{
			"buffer":0,
			"byteLength":1212,
			"byteOffset":351236,
			"target":34962
		},
		{
			"buffer":0,
			"byteLength":1212,
			"byteOffset":352448,
			"target":34962
		},
		{
			"buffer":0,
			"byteLength":808,
			"byteOffset":353660,
			"target":34962
		},
		{
			"buffer":0,
			"byteLength":558,
			"byteOffset":354468,
			"target":34963
		},
		{
			"buffer":0,
			"byteLength":888,
			"byteOffset":355028,
			"target":34962
		},
		{
			"buffer":0,
			"byteLength":888,
			"byteOffset":355916,
			"target":34962
		},
		{
			"buffer":0,
			"byteLength":592,
			"byteOffset":356804,
			"target":34962
		},
		{
			"buffer":0,
			"byteLength":420,
			"byteOffset":357396,
			"target":34963
		},
		{
			"buffer":0,
			"byteLength":31680,
			"byteOffset":357816,
			"target":34962
		},
		{
			"buffer":0,
			"byteLength":31680,
			"byteOffset":389496,
			"target":34962
		},
		{
			"buffer":0,
			"byteLength":21120,
			"byteOffset":421176,
			"target":34962
		},
		{
			"buffer":0,
			"byteLength":16344,
			"byteOffset":442296,
			"target":34963
		},
		{
			"buffer":0,
			"byteLength":4,
			"byteOffset":458640
		},
		{
			"buffer":0,
			"byteLength":12,
			"byteOffset":458644
		},
		{
			"buffer":0,
			"byteLength":16,
			"byteOffset":458656
		},
		{
			"buffer":0,
			"byteLength":12,
			"byteOffset":458672
		}
	],
	"buffers":[
		{
			"byteLength":458684,
			"uri":"physcis%20board.bin"
		}
	]
}
