ISO-10303-21;
HEADER;
FILE_DESCRIPTION(('FreeCAD Model'),'2;1');
FILE_NAME('/var/www/3D/0T/1745252.2.1.stp','2025-01-22T22:13:35',(
    'Author'),(''),'Open CASCADE STEP processor 6.9','FreeCAD','Unknown'
  );
FILE_SCHEMA(('AUTOMOTIVE_DESIGN { 1 0 10303 214 1 1 1 1 }'));
ENDSEC;
DATA;
#1 = APPLICATION_PROTOCOL_DEFINITION('international standard',
  'automotive_design',2000,#2);
#2 = APPLICATION_CONTEXT(
  'core data for automotive mechanical design processes');
#3 = SHAPE_DEFINITION_REPRESENTATION(#4,#10);
#4 = PRODUCT_DEFINITION_SHAPE('','',#5);
#5 = PRODUCT_DEFINITION('design','',#6,#9);
#6 = PRODUCT_DEFINITION_FORMATION('','',#7);
#7 = PRODUCT('ASSEMBLY','ASSEMBLY','',(#8));
#8 = PRODUCT_CONTEXT('',#2,'mechanical');
#9 = PRODUCT_DEFINITION_CONTEXT('part definition',#2,'design');
#10 = SHAPE_REPRESENTATION('',(#11,#15,#19),#23);
#11 = AXIS2_PLACEMENT_3D('',#12,#13,#14);
#12 = CARTESIAN_POINT('',(0.,0.,0.));
#13 = DIRECTION('',(0.,0.,1.));
#14 = DIRECTION('',(1.,0.,-0.));
#15 = AXIS2_PLACEMENT_3D('',#16,#17,#18);
#16 = CARTESIAN_POINT('',(0.,0.,0.));
#17 = DIRECTION('',(0.,0.,1.));
#18 = DIRECTION('',(1.,0.,0.));
#19 = AXIS2_PLACEMENT_3D('',#20,#21,#22);
#20 = CARTESIAN_POINT('',(0.,0.,0.));
#21 = DIRECTION('',(0.,0.,1.));
#22 = DIRECTION('',(1.,0.,0.));
#23 = ( GEOMETRIC_REPRESENTATION_CONTEXT(3) 
GLOBAL_UNCERTAINTY_ASSIGNED_CONTEXT((#27)) GLOBAL_UNIT_ASSIGNED_CONTEXT(
(#24,#25,#26)) REPRESENTATION_CONTEXT('Context #1',
  '3D Context with UNIT and UNCERTAINTY') );
#24 = ( LENGTH_UNIT() NAMED_UNIT(*) SI_UNIT(.MILLI.,.METRE.) );
#25 = ( NAMED_UNIT(*) PLANE_ANGLE_UNIT() SI_UNIT($,.RADIAN.) );
#26 = ( NAMED_UNIT(*) SI_UNIT($,.STERADIAN.) SOLID_ANGLE_UNIT() );
#27 = UNCERTAINTY_MEASURE_WITH_UNIT(LENGTH_MEASURE(1.E-07),#24,
  'distance_accuracy_value','confusion accuracy');
#28 = PRODUCT_RELATED_PRODUCT_CATEGORY('part',$,(#7));
#29 = SHAPE_REPRESENTATION('',(#11,#30,#42,#54,#66,#78,#90,#102,#114,
    #126,#138,#150,#162,#174,#186,#198,#210,#222,#234,#246,#258,#270,
    #282,#294,#306,#318,#330,#342,#354,#366,#378,#390,#402,#414,#426,
    #438,#450),#462);
#30 = MANIFOLD_SOLID_BREP('',#31);
#31 = CLOSED_SHELL('',(#32));
#32 = ADVANCED_FACE('',(#33),#37,.T.);
#33 = FACE_BOUND('',#34,.T.);
#34 = VERTEX_LOOP('',#35);
#35 = VERTEX_POINT('',#36);
#36 = CARTESIAN_POINT('',(-2.5,2.5,0.));
#37 = SPHERICAL_SURFACE('',#38,0.13);
#38 = AXIS2_PLACEMENT_3D('',#39,#40,#41);
#39 = CARTESIAN_POINT('',(-2.5,2.5,0.13));
#40 = DIRECTION('',(0.,0.,1.));
#41 = DIRECTION('',(1.,0.,0.));
#42 = MANIFOLD_SOLID_BREP('',#43);
#43 = CLOSED_SHELL('',(#44));
#44 = ADVANCED_FACE('',(#45),#49,.T.);
#45 = FACE_BOUND('',#46,.T.);
#46 = VERTEX_LOOP('',#47);
#47 = VERTEX_POINT('',#48);
#48 = CARTESIAN_POINT('',(-2.5,1.5,0.));
#49 = SPHERICAL_SURFACE('',#50,0.13);
#50 = AXIS2_PLACEMENT_3D('',#51,#52,#53);
#51 = CARTESIAN_POINT('',(-2.5,1.5,0.13));
#52 = DIRECTION('',(0.,0.,1.));
#53 = DIRECTION('',(1.,0.,0.));
#54 = MANIFOLD_SOLID_BREP('',#55);
#55 = CLOSED_SHELL('',(#56));
#56 = ADVANCED_FACE('',(#57),#61,.T.);
#57 = FACE_BOUND('',#58,.T.);
#58 = VERTEX_LOOP('',#59);
#59 = VERTEX_POINT('',#60);
#60 = CARTESIAN_POINT('',(-2.5,0.5,0.));
#61 = SPHERICAL_SURFACE('',#62,0.13);
#62 = AXIS2_PLACEMENT_3D('',#63,#64,#65);
#63 = CARTESIAN_POINT('',(-2.5,0.5,0.13));
#64 = DIRECTION('',(0.,0.,1.));
#65 = DIRECTION('',(1.,0.,0.));
#66 = MANIFOLD_SOLID_BREP('',#67);
#67 = CLOSED_SHELL('',(#68));
#68 = ADVANCED_FACE('',(#69),#73,.T.);
#69 = FACE_BOUND('',#70,.T.);
#70 = VERTEX_LOOP('',#71);
#71 = VERTEX_POINT('',#72);
#72 = CARTESIAN_POINT('',(-2.5,-0.5,0.));
#73 = SPHERICAL_SURFACE('',#74,0.13);
#74 = AXIS2_PLACEMENT_3D('',#75,#76,#77);
#75 = CARTESIAN_POINT('',(-2.5,-0.5,0.13));
#76 = DIRECTION('',(0.,0.,1.));
#77 = DIRECTION('',(1.,0.,0.));
#78 = MANIFOLD_SOLID_BREP('',#79);
#79 = CLOSED_SHELL('',(#80));
#80 = ADVANCED_FACE('',(#81),#85,.T.);
#81 = FACE_BOUND('',#82,.T.);
#82 = VERTEX_LOOP('',#83);
#83 = VERTEX_POINT('',#84);
#84 = CARTESIAN_POINT('',(-2.5,-1.5,0.));
#85 = SPHERICAL_SURFACE('',#86,0.13);
#86 = AXIS2_PLACEMENT_3D('',#87,#88,#89);
#87 = CARTESIAN_POINT('',(-2.5,-1.5,0.13));
#88 = DIRECTION('',(0.,0.,1.));
#89 = DIRECTION('',(1.,0.,0.));
#90 = MANIFOLD_SOLID_BREP('',#91);
#91 = CLOSED_SHELL('',(#92));
#92 = ADVANCED_FACE('',(#93),#97,.T.);
#93 = FACE_BOUND('',#94,.T.);
#94 = VERTEX_LOOP('',#95);
#95 = VERTEX_POINT('',#96);
#96 = CARTESIAN_POINT('',(-2.5,-2.5,0.));
#97 = SPHERICAL_SURFACE('',#98,0.13);
#98 = AXIS2_PLACEMENT_3D('',#99,#100,#101);
#99 = CARTESIAN_POINT('',(-2.5,-2.5,0.13));
#100 = DIRECTION('',(0.,0.,1.));
#101 = DIRECTION('',(1.,0.,0.));
#102 = MANIFOLD_SOLID_BREP('',#103);
#103 = CLOSED_SHELL('',(#104));
#104 = ADVANCED_FACE('',(#105),#109,.T.);
#105 = FACE_BOUND('',#106,.T.);
#106 = VERTEX_LOOP('',#107);
#107 = VERTEX_POINT('',#108);
#108 = CARTESIAN_POINT('',(-1.5,2.5,0.));
#109 = SPHERICAL_SURFACE('',#110,0.13);
#110 = AXIS2_PLACEMENT_3D('',#111,#112,#113);
#111 = CARTESIAN_POINT('',(-1.5,2.5,0.13));
#112 = DIRECTION('',(0.,0.,1.));
#113 = DIRECTION('',(1.,0.,0.));
#114 = MANIFOLD_SOLID_BREP('',#115);
#115 = CLOSED_SHELL('',(#116));
#116 = ADVANCED_FACE('',(#117),#121,.T.);
#117 = FACE_BOUND('',#118,.T.);
#118 = VERTEX_LOOP('',#119);
#119 = VERTEX_POINT('',#120);
#120 = CARTESIAN_POINT('',(-1.5,1.5,0.));
#121 = SPHERICAL_SURFACE('',#122,0.13);
#122 = AXIS2_PLACEMENT_3D('',#123,#124,#125);
#123 = CARTESIAN_POINT('',(-1.5,1.5,0.13));
#124 = DIRECTION('',(0.,0.,1.));
#125 = DIRECTION('',(1.,0.,0.));
#126 = MANIFOLD_SOLID_BREP('',#127);
#127 = CLOSED_SHELL('',(#128));
#128 = ADVANCED_FACE('',(#129),#133,.T.);
#129 = FACE_BOUND('',#130,.T.);
#130 = VERTEX_LOOP('',#131);
#131 = VERTEX_POINT('',#132);
#132 = CARTESIAN_POINT('',(-1.5,0.5,0.));
#133 = SPHERICAL_SURFACE('',#134,0.13);
#134 = AXIS2_PLACEMENT_3D('',#135,#136,#137);
#135 = CARTESIAN_POINT('',(-1.5,0.5,0.13));
#136 = DIRECTION('',(0.,0.,1.));
#137 = DIRECTION('',(1.,0.,0.));
#138 = MANIFOLD_SOLID_BREP('',#139);
#139 = CLOSED_SHELL('',(#140));
#140 = ADVANCED_FACE('',(#141),#145,.T.);
#141 = FACE_BOUND('',#142,.T.);
#142 = VERTEX_LOOP('',#143);
#143 = VERTEX_POINT('',#144);
#144 = CARTESIAN_POINT('',(-1.5,-0.5,0.));
#145 = SPHERICAL_SURFACE('',#146,0.13);
#146 = AXIS2_PLACEMENT_3D('',#147,#148,#149);
#147 = CARTESIAN_POINT('',(-1.5,-0.5,0.13));
#148 = DIRECTION('',(0.,0.,1.));
#149 = DIRECTION('',(1.,0.,0.));
#150 = MANIFOLD_SOLID_BREP('',#151);
#151 = CLOSED_SHELL('',(#152));
#152 = ADVANCED_FACE('',(#153),#157,.T.);
#153 = FACE_BOUND('',#154,.T.);
#154 = VERTEX_LOOP('',#155);
#155 = VERTEX_POINT('',#156);
#156 = CARTESIAN_POINT('',(-1.5,-1.5,0.));
#157 = SPHERICAL_SURFACE('',#158,0.13);
#158 = AXIS2_PLACEMENT_3D('',#159,#160,#161);
#159 = CARTESIAN_POINT('',(-1.5,-1.5,0.13));
#160 = DIRECTION('',(0.,0.,1.));
#161 = DIRECTION('',(1.,0.,0.));
#162 = MANIFOLD_SOLID_BREP('',#163);
#163 = CLOSED_SHELL('',(#164));
#164 = ADVANCED_FACE('',(#165),#169,.T.);
#165 = FACE_BOUND('',#166,.T.);
#166 = VERTEX_LOOP('',#167);
#167 = VERTEX_POINT('',#168);
#168 = CARTESIAN_POINT('',(-1.5,-2.5,0.));
#169 = SPHERICAL_SURFACE('',#170,0.13);
#170 = AXIS2_PLACEMENT_3D('',#171,#172,#173);
#171 = CARTESIAN_POINT('',(-1.5,-2.5,0.13));
#172 = DIRECTION('',(0.,0.,1.));
#173 = DIRECTION('',(1.,0.,0.));
#174 = MANIFOLD_SOLID_BREP('',#175);
#175 = CLOSED_SHELL('',(#176));
#176 = ADVANCED_FACE('',(#177),#181,.T.);
#177 = FACE_BOUND('',#178,.T.);
#178 = VERTEX_LOOP('',#179);
#179 = VERTEX_POINT('',#180);
#180 = CARTESIAN_POINT('',(-0.5,2.5,0.));
#181 = SPHERICAL_SURFACE('',#182,0.13);
#182 = AXIS2_PLACEMENT_3D('',#183,#184,#185);
#183 = CARTESIAN_POINT('',(-0.5,2.5,0.13));
#184 = DIRECTION('',(0.,0.,1.));
#185 = DIRECTION('',(1.,0.,0.));
#186 = MANIFOLD_SOLID_BREP('',#187);
#187 = CLOSED_SHELL('',(#188));
#188 = ADVANCED_FACE('',(#189),#193,.T.);
#189 = FACE_BOUND('',#190,.T.);
#190 = VERTEX_LOOP('',#191);
#191 = VERTEX_POINT('',#192);
#192 = CARTESIAN_POINT('',(-0.5,1.5,0.));
#193 = SPHERICAL_SURFACE('',#194,0.13);
#194 = AXIS2_PLACEMENT_3D('',#195,#196,#197);
#195 = CARTESIAN_POINT('',(-0.5,1.5,0.13));
#196 = DIRECTION('',(0.,0.,1.));
#197 = DIRECTION('',(1.,0.,0.));
#198 = MANIFOLD_SOLID_BREP('',#199);
#199 = CLOSED_SHELL('',(#200));
#200 = ADVANCED_FACE('',(#201),#205,.T.);
#201 = FACE_BOUND('',#202,.T.);
#202 = VERTEX_LOOP('',#203);
#203 = VERTEX_POINT('',#204);
#204 = CARTESIAN_POINT('',(-0.5,0.5,0.));
#205 = SPHERICAL_SURFACE('',#206,0.13);
#206 = AXIS2_PLACEMENT_3D('',#207,#208,#209);
#207 = CARTESIAN_POINT('',(-0.5,0.5,0.13));
#208 = DIRECTION('',(0.,0.,1.));
#209 = DIRECTION('',(1.,0.,0.));
#210 = MANIFOLD_SOLID_BREP('',#211);
#211 = CLOSED_SHELL('',(#212));
#212 = ADVANCED_FACE('',(#213),#217,.T.);
#213 = FACE_BOUND('',#214,.T.);
#214 = VERTEX_LOOP('',#215);
#215 = VERTEX_POINT('',#216);
#216 = CARTESIAN_POINT('',(-0.5,-0.5,0.));
#217 = SPHERICAL_SURFACE('',#218,0.13);
#218 = AXIS2_PLACEMENT_3D('',#219,#220,#221);
#219 = CARTESIAN_POINT('',(-0.5,-0.5,0.13));
#220 = DIRECTION('',(0.,0.,1.));
#221 = DIRECTION('',(1.,0.,0.));
#222 = MANIFOLD_SOLID_BREP('',#223);
#223 = CLOSED_SHELL('',(#224));
#224 = ADVANCED_FACE('',(#225),#229,.T.);
#225 = FACE_BOUND('',#226,.T.);
#226 = VERTEX_LOOP('',#227);
#227 = VERTEX_POINT('',#228);
#228 = CARTESIAN_POINT('',(-0.5,-1.5,0.));
#229 = SPHERICAL_SURFACE('',#230,0.13);
#230 = AXIS2_PLACEMENT_3D('',#231,#232,#233);
#231 = CARTESIAN_POINT('',(-0.5,-1.5,0.13));
#232 = DIRECTION('',(0.,0.,1.));
#233 = DIRECTION('',(1.,0.,0.));
#234 = MANIFOLD_SOLID_BREP('',#235);
#235 = CLOSED_SHELL('',(#236));
#236 = ADVANCED_FACE('',(#237),#241,.T.);
#237 = FACE_BOUND('',#238,.T.);
#238 = VERTEX_LOOP('',#239);
#239 = VERTEX_POINT('',#240);
#240 = CARTESIAN_POINT('',(-0.5,-2.5,0.));
#241 = SPHERICAL_SURFACE('',#242,0.13);
#242 = AXIS2_PLACEMENT_3D('',#243,#244,#245);
#243 = CARTESIAN_POINT('',(-0.5,-2.5,0.13));
#244 = DIRECTION('',(0.,0.,1.));
#245 = DIRECTION('',(1.,0.,0.));
#246 = MANIFOLD_SOLID_BREP('',#247);
#247 = CLOSED_SHELL('',(#248));
#248 = ADVANCED_FACE('',(#249),#253,.T.);
#249 = FACE_BOUND('',#250,.T.);
#250 = VERTEX_LOOP('',#251);
#251 = VERTEX_POINT('',#252);
#252 = CARTESIAN_POINT('',(0.5,2.5,0.));
#253 = SPHERICAL_SURFACE('',#254,0.13);
#254 = AXIS2_PLACEMENT_3D('',#255,#256,#257);
#255 = CARTESIAN_POINT('',(0.5,2.5,0.13));
#256 = DIRECTION('',(0.,0.,1.));
#257 = DIRECTION('',(1.,0.,0.));
#258 = MANIFOLD_SOLID_BREP('',#259);
#259 = CLOSED_SHELL('',(#260));
#260 = ADVANCED_FACE('',(#261),#265,.T.);
#261 = FACE_BOUND('',#262,.T.);
#262 = VERTEX_LOOP('',#263);
#263 = VERTEX_POINT('',#264);
#264 = CARTESIAN_POINT('',(0.5,1.5,0.));
#265 = SPHERICAL_SURFACE('',#266,0.13);
#266 = AXIS2_PLACEMENT_3D('',#267,#268,#269);
#267 = CARTESIAN_POINT('',(0.5,1.5,0.13));
#268 = DIRECTION('',(0.,0.,1.));
#269 = DIRECTION('',(1.,0.,0.));
#270 = MANIFOLD_SOLID_BREP('',#271);
#271 = CLOSED_SHELL('',(#272));
#272 = ADVANCED_FACE('',(#273),#277,.T.);
#273 = FACE_BOUND('',#274,.T.);
#274 = VERTEX_LOOP('',#275);
#275 = VERTEX_POINT('',#276);
#276 = CARTESIAN_POINT('',(0.5,0.5,0.));
#277 = SPHERICAL_SURFACE('',#278,0.13);
#278 = AXIS2_PLACEMENT_3D('',#279,#280,#281);
#279 = CARTESIAN_POINT('',(0.5,0.5,0.13));
#280 = DIRECTION('',(0.,0.,1.));
#281 = DIRECTION('',(1.,0.,0.));
#282 = MANIFOLD_SOLID_BREP('',#283);
#283 = CLOSED_SHELL('',(#284));
#284 = ADVANCED_FACE('',(#285),#289,.T.);
#285 = FACE_BOUND('',#286,.T.);
#286 = VERTEX_LOOP('',#287);
#287 = VERTEX_POINT('',#288);
#288 = CARTESIAN_POINT('',(0.5,-0.5,0.));
#289 = SPHERICAL_SURFACE('',#290,0.13);
#290 = AXIS2_PLACEMENT_3D('',#291,#292,#293);
#291 = CARTESIAN_POINT('',(0.5,-0.5,0.13));
#292 = DIRECTION('',(0.,0.,1.));
#293 = DIRECTION('',(1.,0.,0.));
#294 = MANIFOLD_SOLID_BREP('',#295);
#295 = CLOSED_SHELL('',(#296));
#296 = ADVANCED_FACE('',(#297),#301,.T.);
#297 = FACE_BOUND('',#298,.T.);
#298 = VERTEX_LOOP('',#299);
#299 = VERTEX_POINT('',#300);
#300 = CARTESIAN_POINT('',(0.5,-1.5,0.));
#301 = SPHERICAL_SURFACE('',#302,0.13);
#302 = AXIS2_PLACEMENT_3D('',#303,#304,#305);
#303 = CARTESIAN_POINT('',(0.5,-1.5,0.13));
#304 = DIRECTION('',(0.,0.,1.));
#305 = DIRECTION('',(1.,0.,0.));
#306 = MANIFOLD_SOLID_BREP('',#307);
#307 = CLOSED_SHELL('',(#308));
#308 = ADVANCED_FACE('',(#309),#313,.T.);
#309 = FACE_BOUND('',#310,.T.);
#310 = VERTEX_LOOP('',#311);
#311 = VERTEX_POINT('',#312);
#312 = CARTESIAN_POINT('',(0.5,-2.5,0.));
#313 = SPHERICAL_SURFACE('',#314,0.13);
#314 = AXIS2_PLACEMENT_3D('',#315,#316,#317);
#315 = CARTESIAN_POINT('',(0.5,-2.5,0.13));
#316 = DIRECTION('',(0.,0.,1.));
#317 = DIRECTION('',(1.,0.,0.));
#318 = MANIFOLD_SOLID_BREP('',#319);
#319 = CLOSED_SHELL('',(#320));
#320 = ADVANCED_FACE('',(#321),#325,.T.);
#321 = FACE_BOUND('',#322,.T.);
#322 = VERTEX_LOOP('',#323);
#323 = VERTEX_POINT('',#324);
#324 = CARTESIAN_POINT('',(1.5,2.5,0.));
#325 = SPHERICAL_SURFACE('',#326,0.13);
#326 = AXIS2_PLACEMENT_3D('',#327,#328,#329);
#327 = CARTESIAN_POINT('',(1.5,2.5,0.13));
#328 = DIRECTION('',(0.,0.,1.));
#329 = DIRECTION('',(1.,0.,0.));
#330 = MANIFOLD_SOLID_BREP('',#331);
#331 = CLOSED_SHELL('',(#332));
#332 = ADVANCED_FACE('',(#333),#337,.T.);
#333 = FACE_BOUND('',#334,.T.);
#334 = VERTEX_LOOP('',#335);
#335 = VERTEX_POINT('',#336);
#336 = CARTESIAN_POINT('',(1.5,1.5,0.));
#337 = SPHERICAL_SURFACE('',#338,0.13);
#338 = AXIS2_PLACEMENT_3D('',#339,#340,#341);
#339 = CARTESIAN_POINT('',(1.5,1.5,0.13));
#340 = DIRECTION('',(0.,0.,1.));
#341 = DIRECTION('',(1.,0.,0.));
#342 = MANIFOLD_SOLID_BREP('',#343);
#343 = CLOSED_SHELL('',(#344));
#344 = ADVANCED_FACE('',(#345),#349,.T.);
#345 = FACE_BOUND('',#346,.T.);
#346 = VERTEX_LOOP('',#347);
#347 = VERTEX_POINT('',#348);
#348 = CARTESIAN_POINT('',(1.5,0.5,0.));
#349 = SPHERICAL_SURFACE('',#350,0.13);
#350 = AXIS2_PLACEMENT_3D('',#351,#352,#353);
#351 = CARTESIAN_POINT('',(1.5,0.5,0.13));
#352 = DIRECTION('',(0.,0.,1.));
#353 = DIRECTION('',(1.,0.,0.));
#354 = MANIFOLD_SOLID_BREP('',#355);
#355 = CLOSED_SHELL('',(#356));
#356 = ADVANCED_FACE('',(#357),#361,.T.);
#357 = FACE_BOUND('',#358,.T.);
#358 = VERTEX_LOOP('',#359);
#359 = VERTEX_POINT('',#360);
#360 = CARTESIAN_POINT('',(1.5,-0.5,0.));
#361 = SPHERICAL_SURFACE('',#362,0.13);
#362 = AXIS2_PLACEMENT_3D('',#363,#364,#365);
#363 = CARTESIAN_POINT('',(1.5,-0.5,0.13));
#364 = DIRECTION('',(0.,0.,1.));
#365 = DIRECTION('',(1.,0.,0.));
#366 = MANIFOLD_SOLID_BREP('',#367);
#367 = CLOSED_SHELL('',(#368));
#368 = ADVANCED_FACE('',(#369),#373,.T.);
#369 = FACE_BOUND('',#370,.T.);
#370 = VERTEX_LOOP('',#371);
#371 = VERTEX_POINT('',#372);
#372 = CARTESIAN_POINT('',(1.5,-1.5,0.));
#373 = SPHERICAL_SURFACE('',#374,0.13);
#374 = AXIS2_PLACEMENT_3D('',#375,#376,#377);
#375 = CARTESIAN_POINT('',(1.5,-1.5,0.13));
#376 = DIRECTION('',(0.,0.,1.));
#377 = DIRECTION('',(1.,0.,0.));
#378 = MANIFOLD_SOLID_BREP('',#379);
#379 = CLOSED_SHELL('',(#380));
#380 = ADVANCED_FACE('',(#381),#385,.T.);
#381 = FACE_BOUND('',#382,.T.);
#382 = VERTEX_LOOP('',#383);
#383 = VERTEX_POINT('',#384);
#384 = CARTESIAN_POINT('',(1.5,-2.5,0.));
#385 = SPHERICAL_SURFACE('',#386,0.13);
#386 = AXIS2_PLACEMENT_3D('',#387,#388,#389);
#387 = CARTESIAN_POINT('',(1.5,-2.5,0.13));
#388 = DIRECTION('',(0.,0.,1.));
#389 = DIRECTION('',(1.,0.,0.));
#390 = MANIFOLD_SOLID_BREP('',#391);
#391 = CLOSED_SHELL('',(#392));
#392 = ADVANCED_FACE('',(#393),#397,.T.);
#393 = FACE_BOUND('',#394,.T.);
#394 = VERTEX_LOOP('',#395);
#395 = VERTEX_POINT('',#396);
#396 = CARTESIAN_POINT('',(2.5,2.5,0.));
#397 = SPHERICAL_SURFACE('',#398,0.13);
#398 = AXIS2_PLACEMENT_3D('',#399,#400,#401);
#399 = CARTESIAN_POINT('',(2.5,2.5,0.13));
#400 = DIRECTION('',(0.,0.,1.));
#401 = DIRECTION('',(1.,0.,0.));
#402 = MANIFOLD_SOLID_BREP('',#403);
#403 = CLOSED_SHELL('',(#404));
#404 = ADVANCED_FACE('',(#405),#409,.T.);
#405 = FACE_BOUND('',#406,.T.);
#406 = VERTEX_LOOP('',#407);
#407 = VERTEX_POINT('',#408);
#408 = CARTESIAN_POINT('',(2.5,1.5,0.));
#409 = SPHERICAL_SURFACE('',#410,0.13);
#410 = AXIS2_PLACEMENT_3D('',#411,#412,#413);
#411 = CARTESIAN_POINT('',(2.5,1.5,0.13));
#412 = DIRECTION('',(0.,0.,1.));
#413 = DIRECTION('',(1.,0.,0.));
#414 = MANIFOLD_SOLID_BREP('',#415);
#415 = CLOSED_SHELL('',(#416));
#416 = ADVANCED_FACE('',(#417),#421,.T.);
#417 = FACE_BOUND('',#418,.T.);
#418 = VERTEX_LOOP('',#419);
#419 = VERTEX_POINT('',#420);
#420 = CARTESIAN_POINT('',(2.5,0.5,0.));
#421 = SPHERICAL_SURFACE('',#422,0.13);
#422 = AXIS2_PLACEMENT_3D('',#423,#424,#425);
#423 = CARTESIAN_POINT('',(2.5,0.5,0.13));
#424 = DIRECTION('',(0.,0.,1.));
#425 = DIRECTION('',(1.,0.,0.));
#426 = MANIFOLD_SOLID_BREP('',#427);
#427 = CLOSED_SHELL('',(#428));
#428 = ADVANCED_FACE('',(#429),#433,.T.);
#429 = FACE_BOUND('',#430,.T.);
#430 = VERTEX_LOOP('',#431);
#431 = VERTEX_POINT('',#432);
#432 = CARTESIAN_POINT('',(2.5,-0.5,0.));
#433 = SPHERICAL_SURFACE('',#434,0.13);
#434 = AXIS2_PLACEMENT_3D('',#435,#436,#437);
#435 = CARTESIAN_POINT('',(2.5,-0.5,0.13));
#436 = DIRECTION('',(0.,0.,1.));
#437 = DIRECTION('',(1.,0.,0.));
#438 = MANIFOLD_SOLID_BREP('',#439);
#439 = CLOSED_SHELL('',(#440));
#440 = ADVANCED_FACE('',(#441),#445,.T.);
#441 = FACE_BOUND('',#442,.T.);
#442 = VERTEX_LOOP('',#443);
#443 = VERTEX_POINT('',#444);
#444 = CARTESIAN_POINT('',(2.5,-1.5,0.));
#445 = SPHERICAL_SURFACE('',#446,0.13);
#446 = AXIS2_PLACEMENT_3D('',#447,#448,#449);
#447 = CARTESIAN_POINT('',(2.5,-1.5,0.13));
#448 = DIRECTION('',(0.,0.,1.));
#449 = DIRECTION('',(1.,0.,0.));
#450 = MANIFOLD_SOLID_BREP('',#451);
#451 = CLOSED_SHELL('',(#452));
#452 = ADVANCED_FACE('',(#453),#457,.T.);
#453 = FACE_BOUND('',#454,.T.);
#454 = VERTEX_LOOP('',#455);
#455 = VERTEX_POINT('',#456);
#456 = CARTESIAN_POINT('',(2.5,-2.5,0.));
#457 = SPHERICAL_SURFACE('',#458,0.13);
#458 = AXIS2_PLACEMENT_3D('',#459,#460,#461);
#459 = CARTESIAN_POINT('',(2.5,-2.5,0.13));
#460 = DIRECTION('',(0.,0.,1.));
#461 = DIRECTION('',(1.,0.,0.));
#462 = ( GEOMETRIC_REPRESENTATION_CONTEXT(3) 
GLOBAL_UNCERTAINTY_ASSIGNED_CONTEXT((#466)) GLOBAL_UNIT_ASSIGNED_CONTEXT
((#463,#464,#465)) REPRESENTATION_CONTEXT('Context #1',
  '3D Context with UNIT and UNCERTAINTY') );
#463 = ( LENGTH_UNIT() NAMED_UNIT(*) SI_UNIT(.MILLI.,.METRE.) );
#464 = ( NAMED_UNIT(*) PLANE_ANGLE_UNIT() SI_UNIT($,.RADIAN.) );
#465 = ( NAMED_UNIT(*) SI_UNIT($,.STERADIAN.) SOLID_ANGLE_UNIT() );
#466 = UNCERTAINTY_MEASURE_WITH_UNIT(LENGTH_MEASURE(1.E-07),#463,
  'distance_accuracy_value','confusion accuracy');
#467 = SHAPE_DEFINITION_REPRESENTATION(#468,#29);
#468 = PRODUCT_DEFINITION_SHAPE('','',#469);
#469 = PRODUCT_DEFINITION('design','',#470,#473);
#470 = PRODUCT_DEFINITION_FORMATION('','',#471);
#471 = PRODUCT('Array','Array','',(#472));
#472 = PRODUCT_CONTEXT('',#2,'mechanical');
#473 = PRODUCT_DEFINITION_CONTEXT('part definition',#2,'design');
#474 = CONTEXT_DEPENDENT_SHAPE_REPRESENTATION(#475,#477);
#475 = ( REPRESENTATION_RELATIONSHIP('','',#29,#10) 
REPRESENTATION_RELATIONSHIP_WITH_TRANSFORMATION(#476) 
SHAPE_REPRESENTATION_RELATIONSHIP() );
#476 = ITEM_DEFINED_TRANSFORMATION('','',#11,#15);
#477 = PRODUCT_DEFINITION_SHAPE('Placement','Placement of an item',#478
  );
#478 = NEXT_ASSEMBLY_USAGE_OCCURRENCE('1','=>[0:1:1:2]','',#5,#469,$);
#479 = PRODUCT_RELATED_PRODUCT_CATEGORY('part',$,(#471));
#480 = ADVANCED_BREP_SHAPE_REPRESENTATION('',(#11,#481),#901);
#481 = MANIFOLD_SOLID_BREP('',#482);
#482 = CLOSED_SHELL('',(#483,#603,#679,#759,#808,#835,#842,#897));
#483 = ADVANCED_FACE('',(#484),#498,.F.);
#484 = FACE_BOUND('',#485,.F.);
#485 = EDGE_LOOP('',(#486,#521,#549,#577));
#486 = ORIENTED_EDGE('',*,*,#487,.F.);
#487 = EDGE_CURVE('',#488,#490,#492,.T.);
#488 = VERTEX_POINT('',#489);
#489 = CARTESIAN_POINT('',(-3.065,-3.065,0.26));
#490 = VERTEX_POINT('',#491);
#491 = CARTESIAN_POINT('',(-3.065,-3.065,0.67));
#492 = SURFACE_CURVE('',#493,(#497,#509),.PCURVE_S1.);
#493 = LINE('',#494,#495);
#494 = CARTESIAN_POINT('',(-3.065,-3.065,0.26));
#495 = VECTOR('',#496,1.);
#496 = DIRECTION('',(0.,0.,1.));
#497 = PCURVE('',#498,#503);
#498 = PLANE('',#499);
#499 = AXIS2_PLACEMENT_3D('',#500,#501,#502);
#500 = CARTESIAN_POINT('',(-3.065,-3.065,0.26));
#501 = DIRECTION('',(1.,0.,0.));
#502 = DIRECTION('',(0.,0.,1.));
#503 = DEFINITIONAL_REPRESENTATION('',(#504),#508);
#504 = LINE('',#505,#506);
#505 = CARTESIAN_POINT('',(0.,0.));
#506 = VECTOR('',#507,1.);
#507 = DIRECTION('',(1.,0.));
#508 = ( GEOMETRIC_REPRESENTATION_CONTEXT(2) 
PARAMETRIC_REPRESENTATION_CONTEXT() REPRESENTATION_CONTEXT('2D SPACE',''
  ) );
#509 = PCURVE('',#510,#515);
#510 = PLANE('',#511);
#511 = AXIS2_PLACEMENT_3D('',#512,#513,#514);
#512 = CARTESIAN_POINT('',(-3.065,-3.065,0.26));
#513 = DIRECTION('',(0.,1.,0.));
#514 = DIRECTION('',(0.,0.,1.));
#515 = DEFINITIONAL_REPRESENTATION('',(#516),#520);
#516 = LINE('',#517,#518);
#517 = CARTESIAN_POINT('',(0.,0.));
#518 = VECTOR('',#519,1.);
#519 = DIRECTION('',(1.,0.));
#520 = ( GEOMETRIC_REPRESENTATION_CONTEXT(2) 
PARAMETRIC_REPRESENTATION_CONTEXT() REPRESENTATION_CONTEXT('2D SPACE',''
  ) );
#521 = ORIENTED_EDGE('',*,*,#522,.T.);
#522 = EDGE_CURVE('',#488,#523,#525,.T.);
#523 = VERTEX_POINT('',#524);
#524 = CARTESIAN_POINT('',(-3.065,3.065,0.26));
#525 = SURFACE_CURVE('',#526,(#530,#537),.PCURVE_S1.);
#526 = LINE('',#527,#528);
#527 = CARTESIAN_POINT('',(-3.065,-3.065,0.26));
#528 = VECTOR('',#529,1.);
#529 = DIRECTION('',(0.,1.,0.));
#530 = PCURVE('',#498,#531);
#531 = DEFINITIONAL_REPRESENTATION('',(#532),#536);
#532 = LINE('',#533,#534);
#533 = CARTESIAN_POINT('',(0.,0.));
#534 = VECTOR('',#535,1.);
#535 = DIRECTION('',(0.,-1.));
#536 = ( GEOMETRIC_REPRESENTATION_CONTEXT(2) 
PARAMETRIC_REPRESENTATION_CONTEXT() REPRESENTATION_CONTEXT('2D SPACE',''
  ) );
#537 = PCURVE('',#538,#543);
#538 = PLANE('',#539);
#539 = AXIS2_PLACEMENT_3D('',#540,#541,#542);
#540 = CARTESIAN_POINT('',(-3.065,-3.065,0.26));
#541 = DIRECTION('',(0.,0.,1.));
#542 = DIRECTION('',(1.,0.,0.));
#543 = DEFINITIONAL_REPRESENTATION('',(#544),#548);
#544 = LINE('',#545,#546);
#545 = CARTESIAN_POINT('',(0.,0.));
#546 = VECTOR('',#547,1.);
#547 = DIRECTION('',(0.,1.));
#548 = ( GEOMETRIC_REPRESENTATION_CONTEXT(2) 
PARAMETRIC_REPRESENTATION_CONTEXT() REPRESENTATION_CONTEXT('2D SPACE',''
  ) );
#549 = ORIENTED_EDGE('',*,*,#550,.T.);
#550 = EDGE_CURVE('',#523,#551,#553,.T.);
#551 = VERTEX_POINT('',#552);
#552 = CARTESIAN_POINT('',(-3.065,3.065,0.67));
#553 = SURFACE_CURVE('',#554,(#558,#565),.PCURVE_S1.);
#554 = LINE('',#555,#556);
#555 = CARTESIAN_POINT('',(-3.065,3.065,0.26));
#556 = VECTOR('',#557,1.);
#557 = DIRECTION('',(0.,0.,1.));
#558 = PCURVE('',#498,#559);
#559 = DEFINITIONAL_REPRESENTATION('',(#560),#564);
#560 = LINE('',#561,#562);
#561 = CARTESIAN_POINT('',(0.,-6.13));
#562 = VECTOR('',#563,1.);
#563 = DIRECTION('',(1.,0.));
#564 = ( GEOMETRIC_REPRESENTATION_CONTEXT(2) 
PARAMETRIC_REPRESENTATION_CONTEXT() REPRESENTATION_CONTEXT('2D SPACE',''
  ) );
#565 = PCURVE('',#566,#571);
#566 = PLANE('',#567);
#567 = AXIS2_PLACEMENT_3D('',#568,#569,#570);
#568 = CARTESIAN_POINT('',(-3.065,3.065,0.26));
#569 = DIRECTION('',(0.,1.,0.));
#570 = DIRECTION('',(0.,0.,1.));
#571 = DEFINITIONAL_REPRESENTATION('',(#572),#576);
#572 = LINE('',#573,#574);
#573 = CARTESIAN_POINT('',(0.,0.));
#574 = VECTOR('',#575,1.);
#575 = DIRECTION('',(1.,0.));
#576 = ( GEOMETRIC_REPRESENTATION_CONTEXT(2) 
PARAMETRIC_REPRESENTATION_CONTEXT() REPRESENTATION_CONTEXT('2D SPACE',''
  ) );
#577 = ORIENTED_EDGE('',*,*,#578,.F.);
#578 = EDGE_CURVE('',#490,#551,#579,.T.);
#579 = SURFACE_CURVE('',#580,(#584,#591),.PCURVE_S1.);
#580 = LINE('',#581,#582);
#581 = CARTESIAN_POINT('',(-3.065,-3.065,0.67));
#582 = VECTOR('',#583,1.);
#583 = DIRECTION('',(0.,1.,0.));
#584 = PCURVE('',#498,#585);
#585 = DEFINITIONAL_REPRESENTATION('',(#586),#590);
#586 = LINE('',#587,#588);
#587 = CARTESIAN_POINT('',(0.41,0.));
#588 = VECTOR('',#589,1.);
#589 = DIRECTION('',(0.,-1.));
#590 = ( GEOMETRIC_REPRESENTATION_CONTEXT(2) 
PARAMETRIC_REPRESENTATION_CONTEXT() REPRESENTATION_CONTEXT('2D SPACE',''
  ) );
#591 = PCURVE('',#592,#597);
#592 = PLANE('',#593);
#593 = AXIS2_PLACEMENT_3D('',#594,#595,#596);
#594 = CARTESIAN_POINT('',(-3.065,-3.065,0.67));
#595 = DIRECTION('',(0.,0.,1.));
#596 = DIRECTION('',(1.,0.,0.));
#597 = DEFINITIONAL_REPRESENTATION('',(#598),#602);
#598 = LINE('',#599,#600);
#599 = CARTESIAN_POINT('',(0.,0.));
#600 = VECTOR('',#601,1.);
#601 = DIRECTION('',(0.,1.));
#602 = ( GEOMETRIC_REPRESENTATION_CONTEXT(2) 
PARAMETRIC_REPRESENTATION_CONTEXT() REPRESENTATION_CONTEXT('2D SPACE',''
  ) );
#603 = ADVANCED_FACE('',(#604),#510,.F.);
#604 = FACE_BOUND('',#605,.F.);
#605 = EDGE_LOOP('',(#606,#629,#630,#653));
#606 = ORIENTED_EDGE('',*,*,#607,.F.);
#607 = EDGE_CURVE('',#488,#608,#610,.T.);
#608 = VERTEX_POINT('',#609);
#609 = CARTESIAN_POINT('',(3.065,-3.065,0.26));
#610 = SURFACE_CURVE('',#611,(#615,#622),.PCURVE_S1.);
#611 = LINE('',#612,#613);
#612 = CARTESIAN_POINT('',(-3.065,-3.065,0.26));
#613 = VECTOR('',#614,1.);
#614 = DIRECTION('',(1.,0.,0.));
#615 = PCURVE('',#510,#616);
#616 = DEFINITIONAL_REPRESENTATION('',(#617),#621);
#617 = LINE('',#618,#619);
#618 = CARTESIAN_POINT('',(0.,0.));
#619 = VECTOR('',#620,1.);
#620 = DIRECTION('',(0.,1.));
#621 = ( GEOMETRIC_REPRESENTATION_CONTEXT(2) 
PARAMETRIC_REPRESENTATION_CONTEXT() REPRESENTATION_CONTEXT('2D SPACE',''
  ) );
#622 = PCURVE('',#538,#623);
#623 = DEFINITIONAL_REPRESENTATION('',(#624),#628);
#624 = LINE('',#625,#626);
#625 = CARTESIAN_POINT('',(0.,0.));
#626 = VECTOR('',#627,1.);
#627 = DIRECTION('',(1.,0.));
#628 = ( GEOMETRIC_REPRESENTATION_CONTEXT(2) 
PARAMETRIC_REPRESENTATION_CONTEXT() REPRESENTATION_CONTEXT('2D SPACE',''
  ) );
#629 = ORIENTED_EDGE('',*,*,#487,.T.);
#630 = ORIENTED_EDGE('',*,*,#631,.T.);
#631 = EDGE_CURVE('',#490,#632,#634,.T.);
#632 = VERTEX_POINT('',#633);
#633 = CARTESIAN_POINT('',(3.065,-3.065,0.67));
#634 = SURFACE_CURVE('',#635,(#639,#646),.PCURVE_S1.);
#635 = LINE('',#636,#637);
#636 = CARTESIAN_POINT('',(-3.065,-3.065,0.67));
#637 = VECTOR('',#638,1.);
#638 = DIRECTION('',(1.,0.,0.));
#639 = PCURVE('',#510,#640);
#640 = DEFINITIONAL_REPRESENTATION('',(#641),#645);
#641 = LINE('',#642,#643);
#642 = CARTESIAN_POINT('',(0.41,0.));
#643 = VECTOR('',#644,1.);
#644 = DIRECTION('',(0.,1.));
#645 = ( GEOMETRIC_REPRESENTATION_CONTEXT(2) 
PARAMETRIC_REPRESENTATION_CONTEXT() REPRESENTATION_CONTEXT('2D SPACE',''
  ) );
#646 = PCURVE('',#592,#647);
#647 = DEFINITIONAL_REPRESENTATION('',(#648),#652);
#648 = LINE('',#649,#650);
#649 = CARTESIAN_POINT('',(0.,0.));
#650 = VECTOR('',#651,1.);
#651 = DIRECTION('',(1.,0.));
#652 = ( GEOMETRIC_REPRESENTATION_CONTEXT(2) 
PARAMETRIC_REPRESENTATION_CONTEXT() REPRESENTATION_CONTEXT('2D SPACE',''
  ) );
#653 = ORIENTED_EDGE('',*,*,#654,.F.);
#654 = EDGE_CURVE('',#608,#632,#655,.T.);
#655 = SURFACE_CURVE('',#656,(#660,#667),.PCURVE_S1.);
#656 = LINE('',#657,#658);
#657 = CARTESIAN_POINT('',(3.065,-3.065,0.26));
#658 = VECTOR('',#659,1.);
#659 = DIRECTION('',(0.,0.,1.));
#660 = PCURVE('',#510,#661);
#661 = DEFINITIONAL_REPRESENTATION('',(#662),#666);
#662 = LINE('',#663,#664);
#663 = CARTESIAN_POINT('',(0.,6.13));
#664 = VECTOR('',#665,1.);
#665 = DIRECTION('',(1.,0.));
#666 = ( GEOMETRIC_REPRESENTATION_CONTEXT(2) 
PARAMETRIC_REPRESENTATION_CONTEXT() REPRESENTATION_CONTEXT('2D SPACE',''
  ) );
#667 = PCURVE('',#668,#673);
#668 = PLANE('',#669);
#669 = AXIS2_PLACEMENT_3D('',#670,#671,#672);
#670 = CARTESIAN_POINT('',(3.065,-3.065,0.26));
#671 = DIRECTION('',(1.,0.,0.));
#672 = DIRECTION('',(0.,0.,1.));
#673 = DEFINITIONAL_REPRESENTATION('',(#674),#678);
#674 = LINE('',#675,#676);
#675 = CARTESIAN_POINT('',(0.,0.));
#676 = VECTOR('',#677,1.);
#677 = DIRECTION('',(1.,0.));
#678 = ( GEOMETRIC_REPRESENTATION_CONTEXT(2) 
PARAMETRIC_REPRESENTATION_CONTEXT() REPRESENTATION_CONTEXT('2D SPACE',''
  ) );
#679 = ADVANCED_FACE('',(#680,#728),#592,.T.);
#680 = FACE_BOUND('',#681,.T.);
#681 = EDGE_LOOP('',(#682,#683,#684,#707));
#682 = ORIENTED_EDGE('',*,*,#578,.F.);
#683 = ORIENTED_EDGE('',*,*,#631,.T.);
#684 = ORIENTED_EDGE('',*,*,#685,.T.);
#685 = EDGE_CURVE('',#632,#686,#688,.T.);
#686 = VERTEX_POINT('',#687);
#687 = CARTESIAN_POINT('',(3.065,3.065,0.67));
#688 = SURFACE_CURVE('',#689,(#693,#700),.PCURVE_S1.);
#689 = LINE('',#690,#691);
#690 = CARTESIAN_POINT('',(3.065,-3.065,0.67));
#691 = VECTOR('',#692,1.);
#692 = DIRECTION('',(0.,1.,0.));
#693 = PCURVE('',#592,#694);
#694 = DEFINITIONAL_REPRESENTATION('',(#695),#699);
#695 = LINE('',#696,#697);
#696 = CARTESIAN_POINT('',(6.13,0.));
#697 = VECTOR('',#698,1.);
#698 = DIRECTION('',(0.,1.));
#699 = ( GEOMETRIC_REPRESENTATION_CONTEXT(2) 
PARAMETRIC_REPRESENTATION_CONTEXT() REPRESENTATION_CONTEXT('2D SPACE',''
  ) );
#700 = PCURVE('',#668,#701);
#701 = DEFINITIONAL_REPRESENTATION('',(#702),#706);
#702 = LINE('',#703,#704);
#703 = CARTESIAN_POINT('',(0.41,0.));
#704 = VECTOR('',#705,1.);
#705 = DIRECTION('',(0.,-1.));
#706 = ( GEOMETRIC_REPRESENTATION_CONTEXT(2) 
PARAMETRIC_REPRESENTATION_CONTEXT() REPRESENTATION_CONTEXT('2D SPACE',''
  ) );
#707 = ORIENTED_EDGE('',*,*,#708,.F.);
#708 = EDGE_CURVE('',#551,#686,#709,.T.);
#709 = SURFACE_CURVE('',#710,(#714,#721),.PCURVE_S1.);
#710 = LINE('',#711,#712);
#711 = CARTESIAN_POINT('',(-3.065,3.065,0.67));
#712 = VECTOR('',#713,1.);
#713 = DIRECTION('',(1.,0.,0.));
#714 = PCURVE('',#592,#715);
#715 = DEFINITIONAL_REPRESENTATION('',(#716),#720);
#716 = LINE('',#717,#718);
#717 = CARTESIAN_POINT('',(0.,6.13));
#718 = VECTOR('',#719,1.);
#719 = DIRECTION('',(1.,0.));
#720 = ( GEOMETRIC_REPRESENTATION_CONTEXT(2) 
PARAMETRIC_REPRESENTATION_CONTEXT() REPRESENTATION_CONTEXT('2D SPACE',''
  ) );
#721 = PCURVE('',#566,#722);
#722 = DEFINITIONAL_REPRESENTATION('',(#723),#727);
#723 = LINE('',#724,#725);
#724 = CARTESIAN_POINT('',(0.41,0.));
#725 = VECTOR('',#726,1.);
#726 = DIRECTION('',(0.,1.));
#727 = ( GEOMETRIC_REPRESENTATION_CONTEXT(2) 
PARAMETRIC_REPRESENTATION_CONTEXT() REPRESENTATION_CONTEXT('2D SPACE',''
  ) );
#728 = FACE_BOUND('',#729,.T.);
#729 = EDGE_LOOP('',(#730));
#730 = ORIENTED_EDGE('',*,*,#731,.F.);
#731 = EDGE_CURVE('',#732,#732,#734,.T.);
#732 = VERTEX_POINT('',#733);
#733 = CARTESIAN_POINT('',(-1.915625,2.29875,0.67));
#734 = SURFACE_CURVE('',#735,(#740,#747),.PCURVE_S1.);
#735 = CIRCLE('',#736,0.383125);
#736 = AXIS2_PLACEMENT_3D('',#737,#738,#739);
#737 = CARTESIAN_POINT('',(-2.29875,2.29875,0.67));
#738 = DIRECTION('',(0.,0.,1.));
#739 = DIRECTION('',(1.,0.,0.));
#740 = PCURVE('',#592,#741);
#741 = DEFINITIONAL_REPRESENTATION('',(#742),#746);
#742 = CIRCLE('',#743,0.383125);
#743 = AXIS2_PLACEMENT_2D('',#744,#745);
#744 = CARTESIAN_POINT('',(0.76625,5.36375));
#745 = DIRECTION('',(1.,0.));
#746 = ( GEOMETRIC_REPRESENTATION_CONTEXT(2) 
PARAMETRIC_REPRESENTATION_CONTEXT() REPRESENTATION_CONTEXT('2D SPACE',''
  ) );
#747 = PCURVE('',#748,#753);
#748 = CYLINDRICAL_SURFACE('',#749,0.383125);
#749 = AXIS2_PLACEMENT_3D('',#750,#751,#752);
#750 = CARTESIAN_POINT('',(-2.29875,2.29875,0.603));
#751 = DIRECTION('',(0.,0.,1.));
#752 = DIRECTION('',(1.,0.,0.));
#753 = DEFINITIONAL_REPRESENTATION('',(#754),#758);
#754 = LINE('',#755,#756);
#755 = CARTESIAN_POINT('',(0.,6.7E-02));
#756 = VECTOR('',#757,1.);
#757 = DIRECTION('',(1.,0.));
#758 = ( GEOMETRIC_REPRESENTATION_CONTEXT(2) 
PARAMETRIC_REPRESENTATION_CONTEXT() REPRESENTATION_CONTEXT('2D SPACE',''
  ) );
#759 = ADVANCED_FACE('',(#760),#566,.T.);
#760 = FACE_BOUND('',#761,.T.);
#761 = EDGE_LOOP('',(#762,#785,#786,#787));
#762 = ORIENTED_EDGE('',*,*,#763,.F.);
#763 = EDGE_CURVE('',#523,#764,#766,.T.);
#764 = VERTEX_POINT('',#765);
#765 = CARTESIAN_POINT('',(3.065,3.065,0.26));
#766 = SURFACE_CURVE('',#767,(#771,#778),.PCURVE_S1.);
#767 = LINE('',#768,#769);
#768 = CARTESIAN_POINT('',(-3.065,3.065,0.26));
#769 = VECTOR('',#770,1.);
#770 = DIRECTION('',(1.,0.,0.));
#771 = PCURVE('',#566,#772);
#772 = DEFINITIONAL_REPRESENTATION('',(#773),#777);
#773 = LINE('',#774,#775);
#774 = CARTESIAN_POINT('',(0.,0.));
#775 = VECTOR('',#776,1.);
#776 = DIRECTION('',(0.,1.));
#777 = ( GEOMETRIC_REPRESENTATION_CONTEXT(2) 
PARAMETRIC_REPRESENTATION_CONTEXT() REPRESENTATION_CONTEXT('2D SPACE',''
  ) );
#778 = PCURVE('',#538,#779);
#779 = DEFINITIONAL_REPRESENTATION('',(#780),#784);
#780 = LINE('',#781,#782);
#781 = CARTESIAN_POINT('',(0.,6.13));
#782 = VECTOR('',#783,1.);
#783 = DIRECTION('',(1.,0.));
#784 = ( GEOMETRIC_REPRESENTATION_CONTEXT(2) 
PARAMETRIC_REPRESENTATION_CONTEXT() REPRESENTATION_CONTEXT('2D SPACE',''
  ) );
#785 = ORIENTED_EDGE('',*,*,#550,.T.);
#786 = ORIENTED_EDGE('',*,*,#708,.T.);
#787 = ORIENTED_EDGE('',*,*,#788,.F.);
#788 = EDGE_CURVE('',#764,#686,#789,.T.);
#789 = SURFACE_CURVE('',#790,(#794,#801),.PCURVE_S1.);
#790 = LINE('',#791,#792);
#791 = CARTESIAN_POINT('',(3.065,3.065,0.26));
#792 = VECTOR('',#793,1.);
#793 = DIRECTION('',(0.,0.,1.));
#794 = PCURVE('',#566,#795);
#795 = DEFINITIONAL_REPRESENTATION('',(#796),#800);
#796 = LINE('',#797,#798);
#797 = CARTESIAN_POINT('',(0.,6.13));
#798 = VECTOR('',#799,1.);
#799 = DIRECTION('',(1.,0.));
#800 = ( GEOMETRIC_REPRESENTATION_CONTEXT(2) 
PARAMETRIC_REPRESENTATION_CONTEXT() REPRESENTATION_CONTEXT('2D SPACE',''
  ) );
#801 = PCURVE('',#668,#802);
#802 = DEFINITIONAL_REPRESENTATION('',(#803),#807);
#803 = LINE('',#804,#805);
#804 = CARTESIAN_POINT('',(0.,-6.13));
#805 = VECTOR('',#806,1.);
#806 = DIRECTION('',(1.,0.));
#807 = ( GEOMETRIC_REPRESENTATION_CONTEXT(2) 
PARAMETRIC_REPRESENTATION_CONTEXT() REPRESENTATION_CONTEXT('2D SPACE',''
  ) );
#808 = ADVANCED_FACE('',(#809),#538,.F.);
#809 = FACE_BOUND('',#810,.F.);
#810 = EDGE_LOOP('',(#811,#812,#813,#834));
#811 = ORIENTED_EDGE('',*,*,#522,.F.);
#812 = ORIENTED_EDGE('',*,*,#607,.T.);
#813 = ORIENTED_EDGE('',*,*,#814,.T.);
#814 = EDGE_CURVE('',#608,#764,#815,.T.);
#815 = SURFACE_CURVE('',#816,(#820,#827),.PCURVE_S1.);
#816 = LINE('',#817,#818);
#817 = CARTESIAN_POINT('',(3.065,-3.065,0.26));
#818 = VECTOR('',#819,1.);
#819 = DIRECTION('',(0.,1.,0.));
#820 = PCURVE('',#538,#821);
#821 = DEFINITIONAL_REPRESENTATION('',(#822),#826);
#822 = LINE('',#823,#824);
#823 = CARTESIAN_POINT('',(6.13,0.));
#824 = VECTOR('',#825,1.);
#825 = DIRECTION('',(0.,1.));
#826 = ( GEOMETRIC_REPRESENTATION_CONTEXT(2) 
PARAMETRIC_REPRESENTATION_CONTEXT() REPRESENTATION_CONTEXT('2D SPACE',''
  ) );
#827 = PCURVE('',#668,#828);
#828 = DEFINITIONAL_REPRESENTATION('',(#829),#833);
#829 = LINE('',#830,#831);
#830 = CARTESIAN_POINT('',(0.,0.));
#831 = VECTOR('',#832,1.);
#832 = DIRECTION('',(0.,-1.));
#833 = ( GEOMETRIC_REPRESENTATION_CONTEXT(2) 
PARAMETRIC_REPRESENTATION_CONTEXT() REPRESENTATION_CONTEXT('2D SPACE',''
  ) );
#834 = ORIENTED_EDGE('',*,*,#763,.F.);
#835 = ADVANCED_FACE('',(#836),#668,.T.);
#836 = FACE_BOUND('',#837,.T.);
#837 = EDGE_LOOP('',(#838,#839,#840,#841));
#838 = ORIENTED_EDGE('',*,*,#654,.F.);
#839 = ORIENTED_EDGE('',*,*,#814,.T.);
#840 = ORIENTED_EDGE('',*,*,#788,.T.);
#841 = ORIENTED_EDGE('',*,*,#685,.F.);
#842 = ADVANCED_FACE('',(#843),#748,.F.);
#843 = FACE_BOUND('',#844,.F.);
#844 = EDGE_LOOP('',(#845,#868,#869,#870));
#845 = ORIENTED_EDGE('',*,*,#846,.T.);
#846 = EDGE_CURVE('',#847,#732,#849,.T.);
#847 = VERTEX_POINT('',#848);
#848 = CARTESIAN_POINT('',(-1.915625,2.29875,0.603));
#849 = SEAM_CURVE('',#850,(#854,#861),.PCURVE_S1.);
#850 = LINE('',#851,#852);
#851 = CARTESIAN_POINT('',(-1.915625,2.29875,0.603));
#852 = VECTOR('',#853,1.);
#853 = DIRECTION('',(0.,0.,1.));
#854 = PCURVE('',#748,#855);
#855 = DEFINITIONAL_REPRESENTATION('',(#856),#860);
#856 = LINE('',#857,#858);
#857 = CARTESIAN_POINT('',(6.28318530718,-0.));
#858 = VECTOR('',#859,1.);
#859 = DIRECTION('',(0.,1.));
#860 = ( GEOMETRIC_REPRESENTATION_CONTEXT(2) 
PARAMETRIC_REPRESENTATION_CONTEXT() REPRESENTATION_CONTEXT('2D SPACE',''
  ) );
#861 = PCURVE('',#748,#862);
#862 = DEFINITIONAL_REPRESENTATION('',(#863),#867);
#863 = LINE('',#864,#865);
#864 = CARTESIAN_POINT('',(0.,-0.));
#865 = VECTOR('',#866,1.);
#866 = DIRECTION('',(0.,1.));
#867 = ( GEOMETRIC_REPRESENTATION_CONTEXT(2) 
PARAMETRIC_REPRESENTATION_CONTEXT() REPRESENTATION_CONTEXT('2D SPACE',''
  ) );
#868 = ORIENTED_EDGE('',*,*,#731,.F.);
#869 = ORIENTED_EDGE('',*,*,#846,.F.);
#870 = ORIENTED_EDGE('',*,*,#871,.T.);
#871 = EDGE_CURVE('',#847,#847,#872,.T.);
#872 = SURFACE_CURVE('',#873,(#878,#885),.PCURVE_S1.);
#873 = CIRCLE('',#874,0.383125);
#874 = AXIS2_PLACEMENT_3D('',#875,#876,#877);
#875 = CARTESIAN_POINT('',(-2.29875,2.29875,0.603));
#876 = DIRECTION('',(0.,0.,1.));
#877 = DIRECTION('',(1.,0.,0.));
#878 = PCURVE('',#748,#879);
#879 = DEFINITIONAL_REPRESENTATION('',(#880),#884);
#880 = LINE('',#881,#882);
#881 = CARTESIAN_POINT('',(0.,0.));
#882 = VECTOR('',#883,1.);
#883 = DIRECTION('',(1.,0.));
#884 = ( GEOMETRIC_REPRESENTATION_CONTEXT(2) 
PARAMETRIC_REPRESENTATION_CONTEXT() REPRESENTATION_CONTEXT('2D SPACE',''
  ) );
#885 = PCURVE('',#886,#891);
#886 = PLANE('',#887);
#887 = AXIS2_PLACEMENT_3D('',#888,#889,#890);
#888 = CARTESIAN_POINT('',(-2.29875,2.29875,0.603));
#889 = DIRECTION('',(0.,0.,1.));
#890 = DIRECTION('',(1.,0.,0.));
#891 = DEFINITIONAL_REPRESENTATION('',(#892),#896);
#892 = CIRCLE('',#893,0.383125);
#893 = AXIS2_PLACEMENT_2D('',#894,#895);
#894 = CARTESIAN_POINT('',(0.,0.));
#895 = DIRECTION('',(1.,0.));
#896 = ( GEOMETRIC_REPRESENTATION_CONTEXT(2) 
PARAMETRIC_REPRESENTATION_CONTEXT() REPRESENTATION_CONTEXT('2D SPACE',''
  ) );
#897 = ADVANCED_FACE('',(#898),#886,.T.);
#898 = FACE_BOUND('',#899,.F.);
#899 = EDGE_LOOP('',(#900));
#900 = ORIENTED_EDGE('',*,*,#871,.F.);
#901 = ( GEOMETRIC_REPRESENTATION_CONTEXT(3) 
GLOBAL_UNCERTAINTY_ASSIGNED_CONTEXT((#905)) GLOBAL_UNIT_ASSIGNED_CONTEXT
((#902,#903,#904)) REPRESENTATION_CONTEXT('Context #1',
  '3D Context with UNIT and UNCERTAINTY') );
#902 = ( LENGTH_UNIT() NAMED_UNIT(*) SI_UNIT(.MILLI.,.METRE.) );
#903 = ( NAMED_UNIT(*) PLANE_ANGLE_UNIT() SI_UNIT($,.RADIAN.) );
#904 = ( NAMED_UNIT(*) SI_UNIT($,.STERADIAN.) SOLID_ANGLE_UNIT() );
#905 = UNCERTAINTY_MEASURE_WITH_UNIT(LENGTH_MEASURE(1.E-07),#902,
  'distance_accuracy_value','confusion accuracy');
#906 = SHAPE_DEFINITION_REPRESENTATION(#907,#480);
#907 = PRODUCT_DEFINITION_SHAPE('','',#908);
#908 = PRODUCT_DEFINITION('design','',#909,#912);
#909 = PRODUCT_DEFINITION_FORMATION('','',#910);
#910 = PRODUCT('Body','Body','',(#911));
#911 = PRODUCT_CONTEXT('',#2,'mechanical');
#912 = PRODUCT_DEFINITION_CONTEXT('part definition',#2,'design');
#913 = CONTEXT_DEPENDENT_SHAPE_REPRESENTATION(#914,#916);
#914 = ( REPRESENTATION_RELATIONSHIP('','',#480,#10) 
REPRESENTATION_RELATIONSHIP_WITH_TRANSFORMATION(#915) 
SHAPE_REPRESENTATION_RELATIONSHIP() );
#915 = ITEM_DEFINED_TRANSFORMATION('','',#11,#19);
#916 = PRODUCT_DEFINITION_SHAPE('Placement','Placement of an item',#917
  );
#917 = NEXT_ASSEMBLY_USAGE_OCCURRENCE('2','=>[0:1:1:3]','',#5,#908,$);
#918 = PRODUCT_RELATED_PRODUCT_CATEGORY('part',$,(#910));
#919 = MECHANICAL_DESIGN_GEOMETRIC_PRESENTATION_REPRESENTATION('',(#920,
    #930,#939,#948,#957,#966,#975,#984,#993,#1002,#1011,#1020,#1029,
    #1038,#1047,#1056,#1065,#1074,#1083,#1092,#1101,#1110,#1119,#1128,
    #1137,#1146,#1155,#1164,#1173,#1182,#1191,#1200,#1209,#1218,#1227,
    #1236),#462);
#920 = STYLED_ITEM('color',(#921),#30);
#921 = PRESENTATION_STYLE_ASSIGNMENT((#922,#928));
#922 = SURFACE_STYLE_USAGE(.BOTH.,#923);
#923 = SURFACE_SIDE_STYLE('',(#924));
#924 = SURFACE_STYLE_FILL_AREA(#925);
#925 = FILL_AREA_STYLE('',(#926));
#926 = FILL_AREA_STYLE_COLOUR('',#927);
#927 = COLOUR_RGB('',0.73400002718,0.773000001907,0.79699999094);
#928 = CURVE_STYLE('',#929,POSITIVE_LENGTH_MEASURE(0.1),#927);
#929 = DRAUGHTING_PRE_DEFINED_CURVE_FONT('continuous');
#930 = STYLED_ITEM('color',(#931),#42);
#931 = PRESENTATION_STYLE_ASSIGNMENT((#932,#937));
#932 = SURFACE_STYLE_USAGE(.BOTH.,#933);
#933 = SURFACE_SIDE_STYLE('',(#934));
#934 = SURFACE_STYLE_FILL_AREA(#935);
#935 = FILL_AREA_STYLE('',(#936));
#936 = FILL_AREA_STYLE_COLOUR('',#927);
#937 = CURVE_STYLE('',#938,POSITIVE_LENGTH_MEASURE(0.1),#927);
#938 = DRAUGHTING_PRE_DEFINED_CURVE_FONT('continuous');
#939 = STYLED_ITEM('color',(#940),#54);
#940 = PRESENTATION_STYLE_ASSIGNMENT((#941,#946));
#941 = SURFACE_STYLE_USAGE(.BOTH.,#942);
#942 = SURFACE_SIDE_STYLE('',(#943));
#943 = SURFACE_STYLE_FILL_AREA(#944);
#944 = FILL_AREA_STYLE('',(#945));
#945 = FILL_AREA_STYLE_COLOUR('',#927);
#946 = CURVE_STYLE('',#947,POSITIVE_LENGTH_MEASURE(0.1),#927);
#947 = DRAUGHTING_PRE_DEFINED_CURVE_FONT('continuous');
#948 = STYLED_ITEM('color',(#949),#66);
#949 = PRESENTATION_STYLE_ASSIGNMENT((#950,#955));
#950 = SURFACE_STYLE_USAGE(.BOTH.,#951);
#951 = SURFACE_SIDE_STYLE('',(#952));
#952 = SURFACE_STYLE_FILL_AREA(#953);
#953 = FILL_AREA_STYLE('',(#954));
#954 = FILL_AREA_STYLE_COLOUR('',#927);
#955 = CURVE_STYLE('',#956,POSITIVE_LENGTH_MEASURE(0.1),#927);
#956 = DRAUGHTING_PRE_DEFINED_CURVE_FONT('continuous');
#957 = STYLED_ITEM('color',(#958),#78);
#958 = PRESENTATION_STYLE_ASSIGNMENT((#959,#964));
#959 = SURFACE_STYLE_USAGE(.BOTH.,#960);
#960 = SURFACE_SIDE_STYLE('',(#961));
#961 = SURFACE_STYLE_FILL_AREA(#962);
#962 = FILL_AREA_STYLE('',(#963));
#963 = FILL_AREA_STYLE_COLOUR('',#927);
#964 = CURVE_STYLE('',#965,POSITIVE_LENGTH_MEASURE(0.1),#927);
#965 = DRAUGHTING_PRE_DEFINED_CURVE_FONT('continuous');
#966 = STYLED_ITEM('color',(#967),#90);
#967 = PRESENTATION_STYLE_ASSIGNMENT((#968,#973));
#968 = SURFACE_STYLE_USAGE(.BOTH.,#969);
#969 = SURFACE_SIDE_STYLE('',(#970));
#970 = SURFACE_STYLE_FILL_AREA(#971);
#971 = FILL_AREA_STYLE('',(#972));
#972 = FILL_AREA_STYLE_COLOUR('',#927);
#973 = CURVE_STYLE('',#974,POSITIVE_LENGTH_MEASURE(0.1),#927);
#974 = DRAUGHTING_PRE_DEFINED_CURVE_FONT('continuous');
#975 = STYLED_ITEM('color',(#976),#102);
#976 = PRESENTATION_STYLE_ASSIGNMENT((#977,#982));
#977 = SURFACE_STYLE_USAGE(.BOTH.,#978);
#978 = SURFACE_SIDE_STYLE('',(#979));
#979 = SURFACE_STYLE_FILL_AREA(#980);
#980 = FILL_AREA_STYLE('',(#981));
#981 = FILL_AREA_STYLE_COLOUR('',#927);
#982 = CURVE_STYLE('',#983,POSITIVE_LENGTH_MEASURE(0.1),#927);
#983 = DRAUGHTING_PRE_DEFINED_CURVE_FONT('continuous');
#984 = STYLED_ITEM('color',(#985),#114);
#985 = PRESENTATION_STYLE_ASSIGNMENT((#986,#991));
#986 = SURFACE_STYLE_USAGE(.BOTH.,#987);
#987 = SURFACE_SIDE_STYLE('',(#988));
#988 = SURFACE_STYLE_FILL_AREA(#989);
#989 = FILL_AREA_STYLE('',(#990));
#990 = FILL_AREA_STYLE_COLOUR('',#927);
#991 = CURVE_STYLE('',#992,POSITIVE_LENGTH_MEASURE(0.1),#927);
#992 = DRAUGHTING_PRE_DEFINED_CURVE_FONT('continuous');
#993 = STYLED_ITEM('color',(#994),#126);
#994 = PRESENTATION_STYLE_ASSIGNMENT((#995,#1000));
#995 = SURFACE_STYLE_USAGE(.BOTH.,#996);
#996 = SURFACE_SIDE_STYLE('',(#997));
#997 = SURFACE_STYLE_FILL_AREA(#998);
#998 = FILL_AREA_STYLE('',(#999));
#999 = FILL_AREA_STYLE_COLOUR('',#927);
#1000 = CURVE_STYLE('',#1001,POSITIVE_LENGTH_MEASURE(0.1),#927);
#1001 = DRAUGHTING_PRE_DEFINED_CURVE_FONT('continuous');
#1002 = STYLED_ITEM('color',(#1003),#138);
#1003 = PRESENTATION_STYLE_ASSIGNMENT((#1004,#1009));
#1004 = SURFACE_STYLE_USAGE(.BOTH.,#1005);
#1005 = SURFACE_SIDE_STYLE('',(#1006));
#1006 = SURFACE_STYLE_FILL_AREA(#1007);
#1007 = FILL_AREA_STYLE('',(#1008));
#1008 = FILL_AREA_STYLE_COLOUR('',#927);
#1009 = CURVE_STYLE('',#1010,POSITIVE_LENGTH_MEASURE(0.1),#927);
#1010 = DRAUGHTING_PRE_DEFINED_CURVE_FONT('continuous');
#1011 = STYLED_ITEM('color',(#1012),#150);
#1012 = PRESENTATION_STYLE_ASSIGNMENT((#1013,#1018));
#1013 = SURFACE_STYLE_USAGE(.BOTH.,#1014);
#1014 = SURFACE_SIDE_STYLE('',(#1015));
#1015 = SURFACE_STYLE_FILL_AREA(#1016);
#1016 = FILL_AREA_STYLE('',(#1017));
#1017 = FILL_AREA_STYLE_COLOUR('',#927);
#1018 = CURVE_STYLE('',#1019,POSITIVE_LENGTH_MEASURE(0.1),#927);
#1019 = DRAUGHTING_PRE_DEFINED_CURVE_FONT('continuous');
#1020 = STYLED_ITEM('color',(#1021),#162);
#1021 = PRESENTATION_STYLE_ASSIGNMENT((#1022,#1027));
#1022 = SURFACE_STYLE_USAGE(.BOTH.,#1023);
#1023 = SURFACE_SIDE_STYLE('',(#1024));
#1024 = SURFACE_STYLE_FILL_AREA(#1025);
#1025 = FILL_AREA_STYLE('',(#1026));
#1026 = FILL_AREA_STYLE_COLOUR('',#927);
#1027 = CURVE_STYLE('',#1028,POSITIVE_LENGTH_MEASURE(0.1),#927);
#1028 = DRAUGHTING_PRE_DEFINED_CURVE_FONT('continuous');
#1029 = STYLED_ITEM('color',(#1030),#174);
#1030 = PRESENTATION_STYLE_ASSIGNMENT((#1031,#1036));
#1031 = SURFACE_STYLE_USAGE(.BOTH.,#1032);
#1032 = SURFACE_SIDE_STYLE('',(#1033));
#1033 = SURFACE_STYLE_FILL_AREA(#1034);
#1034 = FILL_AREA_STYLE('',(#1035));
#1035 = FILL_AREA_STYLE_COLOUR('',#927);
#1036 = CURVE_STYLE('',#1037,POSITIVE_LENGTH_MEASURE(0.1),#927);
#1037 = DRAUGHTING_PRE_DEFINED_CURVE_FONT('continuous');
#1038 = STYLED_ITEM('color',(#1039),#186);
#1039 = PRESENTATION_STYLE_ASSIGNMENT((#1040,#1045));
#1040 = SURFACE_STYLE_USAGE(.BOTH.,#1041);
#1041 = SURFACE_SIDE_STYLE('',(#1042));
#1042 = SURFACE_STYLE_FILL_AREA(#1043);
#1043 = FILL_AREA_STYLE('',(#1044));
#1044 = FILL_AREA_STYLE_COLOUR('',#927);
#1045 = CURVE_STYLE('',#1046,POSITIVE_LENGTH_MEASURE(0.1),#927);
#1046 = DRAUGHTING_PRE_DEFINED_CURVE_FONT('continuous');
#1047 = STYLED_ITEM('color',(#1048),#198);
#1048 = PRESENTATION_STYLE_ASSIGNMENT((#1049,#1054));
#1049 = SURFACE_STYLE_USAGE(.BOTH.,#1050);
#1050 = SURFACE_SIDE_STYLE('',(#1051));
#1051 = SURFACE_STYLE_FILL_AREA(#1052);
#1052 = FILL_AREA_STYLE('',(#1053));
#1053 = FILL_AREA_STYLE_COLOUR('',#927);
#1054 = CURVE_STYLE('',#1055,POSITIVE_LENGTH_MEASURE(0.1),#927);
#1055 = DRAUGHTING_PRE_DEFINED_CURVE_FONT('continuous');
#1056 = STYLED_ITEM('color',(#1057),#210);
#1057 = PRESENTATION_STYLE_ASSIGNMENT((#1058,#1063));
#1058 = SURFACE_STYLE_USAGE(.BOTH.,#1059);
#1059 = SURFACE_SIDE_STYLE('',(#1060));
#1060 = SURFACE_STYLE_FILL_AREA(#1061);
#1061 = FILL_AREA_STYLE('',(#1062));
#1062 = FILL_AREA_STYLE_COLOUR('',#927);
#1063 = CURVE_STYLE('',#1064,POSITIVE_LENGTH_MEASURE(0.1),#927);
#1064 = DRAUGHTING_PRE_DEFINED_CURVE_FONT('continuous');
#1065 = STYLED_ITEM('color',(#1066),#222);
#1066 = PRESENTATION_STYLE_ASSIGNMENT((#1067,#1072));
#1067 = SURFACE_STYLE_USAGE(.BOTH.,#1068);
#1068 = SURFACE_SIDE_STYLE('',(#1069));
#1069 = SURFACE_STYLE_FILL_AREA(#1070);
#1070 = FILL_AREA_STYLE('',(#1071));
#1071 = FILL_AREA_STYLE_COLOUR('',#927);
#1072 = CURVE_STYLE('',#1073,POSITIVE_LENGTH_MEASURE(0.1),#927);
#1073 = DRAUGHTING_PRE_DEFINED_CURVE_FONT('continuous');
#1074 = STYLED_ITEM('color',(#1075),#234);
#1075 = PRESENTATION_STYLE_ASSIGNMENT((#1076,#1081));
#1076 = SURFACE_STYLE_USAGE(.BOTH.,#1077);
#1077 = SURFACE_SIDE_STYLE('',(#1078));
#1078 = SURFACE_STYLE_FILL_AREA(#1079);
#1079 = FILL_AREA_STYLE('',(#1080));
#1080 = FILL_AREA_STYLE_COLOUR('',#927);
#1081 = CURVE_STYLE('',#1082,POSITIVE_LENGTH_MEASURE(0.1),#927);
#1082 = DRAUGHTING_PRE_DEFINED_CURVE_FONT('continuous');
#1083 = STYLED_ITEM('color',(#1084),#246);
#1084 = PRESENTATION_STYLE_ASSIGNMENT((#1085,#1090));
#1085 = SURFACE_STYLE_USAGE(.BOTH.,#1086);
#1086 = SURFACE_SIDE_STYLE('',(#1087));
#1087 = SURFACE_STYLE_FILL_AREA(#1088);
#1088 = FILL_AREA_STYLE('',(#1089));
#1089 = FILL_AREA_STYLE_COLOUR('',#927);
#1090 = CURVE_STYLE('',#1091,POSITIVE_LENGTH_MEASURE(0.1),#927);
#1091 = DRAUGHTING_PRE_DEFINED_CURVE_FONT('continuous');
#1092 = STYLED_ITEM('color',(#1093),#258);
#1093 = PRESENTATION_STYLE_ASSIGNMENT((#1094,#1099));
#1094 = SURFACE_STYLE_USAGE(.BOTH.,#1095);
#1095 = SURFACE_SIDE_STYLE('',(#1096));
#1096 = SURFACE_STYLE_FILL_AREA(#1097);
#1097 = FILL_AREA_STYLE('',(#1098));
#1098 = FILL_AREA_STYLE_COLOUR('',#927);
#1099 = CURVE_STYLE('',#1100,POSITIVE_LENGTH_MEASURE(0.1),#927);
#1100 = DRAUGHTING_PRE_DEFINED_CURVE_FONT('continuous');
#1101 = STYLED_ITEM('color',(#1102),#270);
#1102 = PRESENTATION_STYLE_ASSIGNMENT((#1103,#1108));
#1103 = SURFACE_STYLE_USAGE(.BOTH.,#1104);
#1104 = SURFACE_SIDE_STYLE('',(#1105));
#1105 = SURFACE_STYLE_FILL_AREA(#1106);
#1106 = FILL_AREA_STYLE('',(#1107));
#1107 = FILL_AREA_STYLE_COLOUR('',#927);
#1108 = CURVE_STYLE('',#1109,POSITIVE_LENGTH_MEASURE(0.1),#927);
#1109 = DRAUGHTING_PRE_DEFINED_CURVE_FONT('continuous');
#1110 = STYLED_ITEM('color',(#1111),#282);
#1111 = PRESENTATION_STYLE_ASSIGNMENT((#1112,#1117));
#1112 = SURFACE_STYLE_USAGE(.BOTH.,#1113);
#1113 = SURFACE_SIDE_STYLE('',(#1114));
#1114 = SURFACE_STYLE_FILL_AREA(#1115);
#1115 = FILL_AREA_STYLE('',(#1116));
#1116 = FILL_AREA_STYLE_COLOUR('',#927);
#1117 = CURVE_STYLE('',#1118,POSITIVE_LENGTH_MEASURE(0.1),#927);
#1118 = DRAUGHTING_PRE_DEFINED_CURVE_FONT('continuous');
#1119 = STYLED_ITEM('color',(#1120),#294);
#1120 = PRESENTATION_STYLE_ASSIGNMENT((#1121,#1126));
#1121 = SURFACE_STYLE_USAGE(.BOTH.,#1122);
#1122 = SURFACE_SIDE_STYLE('',(#1123));
#1123 = SURFACE_STYLE_FILL_AREA(#1124);
#1124 = FILL_AREA_STYLE('',(#1125));
#1125 = FILL_AREA_STYLE_COLOUR('',#927);
#1126 = CURVE_STYLE('',#1127,POSITIVE_LENGTH_MEASURE(0.1),#927);
#1127 = DRAUGHTING_PRE_DEFINED_CURVE_FONT('continuous');
#1128 = STYLED_ITEM('color',(#1129),#306);
#1129 = PRESENTATION_STYLE_ASSIGNMENT((#1130,#1135));
#1130 = SURFACE_STYLE_USAGE(.BOTH.,#1131);
#1131 = SURFACE_SIDE_STYLE('',(#1132));
#1132 = SURFACE_STYLE_FILL_AREA(#1133);
#1133 = FILL_AREA_STYLE('',(#1134));
#1134 = FILL_AREA_STYLE_COLOUR('',#927);
#1135 = CURVE_STYLE('',#1136,POSITIVE_LENGTH_MEASURE(0.1),#927);
#1136 = DRAUGHTING_PRE_DEFINED_CURVE_FONT('continuous');
#1137 = STYLED_ITEM('color',(#1138),#318);
#1138 = PRESENTATION_STYLE_ASSIGNMENT((#1139,#1144));
#1139 = SURFACE_STYLE_USAGE(.BOTH.,#1140);
#1140 = SURFACE_SIDE_STYLE('',(#1141));
#1141 = SURFACE_STYLE_FILL_AREA(#1142);
#1142 = FILL_AREA_STYLE('',(#1143));
#1143 = FILL_AREA_STYLE_COLOUR('',#927);
#1144 = CURVE_STYLE('',#1145,POSITIVE_LENGTH_MEASURE(0.1),#927);
#1145 = DRAUGHTING_PRE_DEFINED_CURVE_FONT('continuous');
#1146 = STYLED_ITEM('color',(#1147),#330);
#1147 = PRESENTATION_STYLE_ASSIGNMENT((#1148,#1153));
#1148 = SURFACE_STYLE_USAGE(.BOTH.,#1149);
#1149 = SURFACE_SIDE_STYLE('',(#1150));
#1150 = SURFACE_STYLE_FILL_AREA(#1151);
#1151 = FILL_AREA_STYLE('',(#1152));
#1152 = FILL_AREA_STYLE_COLOUR('',#927);
#1153 = CURVE_STYLE('',#1154,POSITIVE_LENGTH_MEASURE(0.1),#927);
#1154 = DRAUGHTING_PRE_DEFINED_CURVE_FONT('continuous');
#1155 = STYLED_ITEM('color',(#1156),#342);
#1156 = PRESENTATION_STYLE_ASSIGNMENT((#1157,#1162));
#1157 = SURFACE_STYLE_USAGE(.BOTH.,#1158);
#1158 = SURFACE_SIDE_STYLE('',(#1159));
#1159 = SURFACE_STYLE_FILL_AREA(#1160);
#1160 = FILL_AREA_STYLE('',(#1161));
#1161 = FILL_AREA_STYLE_COLOUR('',#927);
#1162 = CURVE_STYLE('',#1163,POSITIVE_LENGTH_MEASURE(0.1),#927);
#1163 = DRAUGHTING_PRE_DEFINED_CURVE_FONT('continuous');
#1164 = STYLED_ITEM('color',(#1165),#354);
#1165 = PRESENTATION_STYLE_ASSIGNMENT((#1166,#1171));
#1166 = SURFACE_STYLE_USAGE(.BOTH.,#1167);
#1167 = SURFACE_SIDE_STYLE('',(#1168));
#1168 = SURFACE_STYLE_FILL_AREA(#1169);
#1169 = FILL_AREA_STYLE('',(#1170));
#1170 = FILL_AREA_STYLE_COLOUR('',#927);
#1171 = CURVE_STYLE('',#1172,POSITIVE_LENGTH_MEASURE(0.1),#927);
#1172 = DRAUGHTING_PRE_DEFINED_CURVE_FONT('continuous');
#1173 = STYLED_ITEM('color',(#1174),#366);
#1174 = PRESENTATION_STYLE_ASSIGNMENT((#1175,#1180));
#1175 = SURFACE_STYLE_USAGE(.BOTH.,#1176);
#1176 = SURFACE_SIDE_STYLE('',(#1177));
#1177 = SURFACE_STYLE_FILL_AREA(#1178);
#1178 = FILL_AREA_STYLE('',(#1179));
#1179 = FILL_AREA_STYLE_COLOUR('',#927);
#1180 = CURVE_STYLE('',#1181,POSITIVE_LENGTH_MEASURE(0.1),#927);
#1181 = DRAUGHTING_PRE_DEFINED_CURVE_FONT('continuous');
#1182 = STYLED_ITEM('color',(#1183),#378);
#1183 = PRESENTATION_STYLE_ASSIGNMENT((#1184,#1189));
#1184 = SURFACE_STYLE_USAGE(.BOTH.,#1185);
#1185 = SURFACE_SIDE_STYLE('',(#1186));
#1186 = SURFACE_STYLE_FILL_AREA(#1187);
#1187 = FILL_AREA_STYLE('',(#1188));
#1188 = FILL_AREA_STYLE_COLOUR('',#927);
#1189 = CURVE_STYLE('',#1190,POSITIVE_LENGTH_MEASURE(0.1),#927);
#1190 = DRAUGHTING_PRE_DEFINED_CURVE_FONT('continuous');
#1191 = STYLED_ITEM('color',(#1192),#390);
#1192 = PRESENTATION_STYLE_ASSIGNMENT((#1193,#1198));
#1193 = SURFACE_STYLE_USAGE(.BOTH.,#1194);
#1194 = SURFACE_SIDE_STYLE('',(#1195));
#1195 = SURFACE_STYLE_FILL_AREA(#1196);
#1196 = FILL_AREA_STYLE('',(#1197));
#1197 = FILL_AREA_STYLE_COLOUR('',#927);
#1198 = CURVE_STYLE('',#1199,POSITIVE_LENGTH_MEASURE(0.1),#927);
#1199 = DRAUGHTING_PRE_DEFINED_CURVE_FONT('continuous');
#1200 = STYLED_ITEM('color',(#1201),#402);
#1201 = PRESENTATION_STYLE_ASSIGNMENT((#1202,#1207));
#1202 = SURFACE_STYLE_USAGE(.BOTH.,#1203);
#1203 = SURFACE_SIDE_STYLE('',(#1204));
#1204 = SURFACE_STYLE_FILL_AREA(#1205);
#1205 = FILL_AREA_STYLE('',(#1206));
#1206 = FILL_AREA_STYLE_COLOUR('',#927);
#1207 = CURVE_STYLE('',#1208,POSITIVE_LENGTH_MEASURE(0.1),#927);
#1208 = DRAUGHTING_PRE_DEFINED_CURVE_FONT('continuous');
#1209 = STYLED_ITEM('color',(#1210),#414);
#1210 = PRESENTATION_STYLE_ASSIGNMENT((#1211,#1216));
#1211 = SURFACE_STYLE_USAGE(.BOTH.,#1212);
#1212 = SURFACE_SIDE_STYLE('',(#1213));
#1213 = SURFACE_STYLE_FILL_AREA(#1214);
#1214 = FILL_AREA_STYLE('',(#1215));
#1215 = FILL_AREA_STYLE_COLOUR('',#927);
#1216 = CURVE_STYLE('',#1217,POSITIVE_LENGTH_MEASURE(0.1),#927);
#1217 = DRAUGHTING_PRE_DEFINED_CURVE_FONT('continuous');
#1218 = STYLED_ITEM('color',(#1219),#426);
#1219 = PRESENTATION_STYLE_ASSIGNMENT((#1220,#1225));
#1220 = SURFACE_STYLE_USAGE(.BOTH.,#1221);
#1221 = SURFACE_SIDE_STYLE('',(#1222));
#1222 = SURFACE_STYLE_FILL_AREA(#1223);
#1223 = FILL_AREA_STYLE('',(#1224));
#1224 = FILL_AREA_STYLE_COLOUR('',#927);
#1225 = CURVE_STYLE('',#1226,POSITIVE_LENGTH_MEASURE(0.1),#927);
#1226 = DRAUGHTING_PRE_DEFINED_CURVE_FONT('continuous');
#1227 = STYLED_ITEM('color',(#1228),#438);
#1228 = PRESENTATION_STYLE_ASSIGNMENT((#1229,#1234));
#1229 = SURFACE_STYLE_USAGE(.BOTH.,#1230);
#1230 = SURFACE_SIDE_STYLE('',(#1231));
#1231 = SURFACE_STYLE_FILL_AREA(#1232);
#1232 = FILL_AREA_STYLE('',(#1233));
#1233 = FILL_AREA_STYLE_COLOUR('',#927);
#1234 = CURVE_STYLE('',#1235,POSITIVE_LENGTH_MEASURE(0.1),#927);
#1235 = DRAUGHTING_PRE_DEFINED_CURVE_FONT('continuous');
#1236 = STYLED_ITEM('color',(#1237),#450);
#1237 = PRESENTATION_STYLE_ASSIGNMENT((#1238,#1243));
#1238 = SURFACE_STYLE_USAGE(.BOTH.,#1239);
#1239 = SURFACE_SIDE_STYLE('',(#1240));
#1240 = SURFACE_STYLE_FILL_AREA(#1241);
#1241 = FILL_AREA_STYLE('',(#1242));
#1242 = FILL_AREA_STYLE_COLOUR('',#927);
#1243 = CURVE_STYLE('',#1244,POSITIVE_LENGTH_MEASURE(0.1),#927);
#1244 = DRAUGHTING_PRE_DEFINED_CURVE_FONT('continuous');
#1245 = MECHANICAL_DESIGN_GEOMETRIC_PRESENTATION_REPRESENTATION('',(
    #1246),#901);
#1246 = STYLED_ITEM('color',(#1247),#481);
#1247 = PRESENTATION_STYLE_ASSIGNMENT((#1248,#1254));
#1248 = SURFACE_STYLE_USAGE(.BOTH.,#1249);
#1249 = SURFACE_SIDE_STYLE('',(#1250));
#1250 = SURFACE_STYLE_FILL_AREA(#1251);
#1251 = FILL_AREA_STYLE('',(#1252));
#1252 = FILL_AREA_STYLE_COLOUR('',#1253);
#1253 = COLOUR_RGB('',0.300000011921,0.300000011921,0.300000011921);
#1254 = CURVE_STYLE('',#1255,POSITIVE_LENGTH_MEASURE(0.1),#1253);
#1255 = DRAUGHTING_PRE_DEFINED_CURVE_FONT('continuous');
ENDSEC;
END-ISO-10303-21;
