%TF.GenerationSoftware,KiCad,Pcbnew,10.0.1*%
%TF.CreationDate,2026-04-28T11:37:28-04:00*%
%TF.ProjectId,readout1,72656164-6f75-4743-912e-6b696361645f,rev?*%
%TF.SameCoordinates,PX3473bc0PY3473bc0*%
%TF.FileFunction,Copper,L1,Top*%
%TF.FilePolarity,Positive*%
%FSLAX46Y46*%
G04 Gerber Fmt 4.6, Leading zero omitted, Abs format (unit mm)*
G04 Created by KiCad (PCBNEW 10.0.1) date 2026-04-28 11:37:28*
%MOMM*%
%LPD*%
G01*
G04 APERTURE LIST*
G04 Aperture macros list*
%AMRoundRect*
0 Rectangle with rounded corners*
0 $1 Rounding radius*
0 $2 $3 $4 $5 $6 $7 $8 $9 X,Y pos of 4 corners*
0 Add a 4 corners polygon primitive as box body*
4,1,4,$2,$3,$4,$5,$6,$7,$8,$9,$2,$3,0*
0 Add four circle primitives for the rounded corners*
1,1,$1+$1,$2,$3*
1,1,$1+$1,$4,$5*
1,1,$1+$1,$6,$7*
1,1,$1+$1,$8,$9*
0 Add four rect primitives between the rounded corners*
20,1,$1+$1,$2,$3,$4,$5,0*
20,1,$1+$1,$4,$5,$6,$7,0*
20,1,$1+$1,$6,$7,$8,$9,0*
20,1,$1+$1,$8,$9,$2,$3,0*%
%AMFreePoly0*
4,1,260,1.343000,3.149050,1.349000,3.149050,1.349016,3.149047,1.355012,3.147048,1.361016,3.146047,1.379026,3.140043,1.384026,3.137043,1.390026,3.134043,1.395028,3.131042,1.401028,3.127042,1.406031,3.123039,1.410031,3.119039,1.415031,3.115039,1.415039,3.115031,1.419039,3.110031,1.423039,3.106031,1.427042,3.101028,1.431043,3.095026,1.434043,3.090026,1.437043,3.084026,
1.440043,3.079026,1.446049,3.061008,1.447048,3.055012,1.449047,3.049016,1.449050,3.049000,1.449050,3.043000,1.450050,3.036000,1.450050,1.450050,3.046000,1.450050,3.046010,1.450049,3.051005,1.449050,3.057000,1.449050,3.063008,1.448049,3.063019,1.448046,3.068014,1.446048,3.074008,1.445049,3.074019,1.445046,3.079022,1.443045,3.085022,1.440045,3.085021,1.440044,
3.090026,1.438043,3.105026,1.429043,3.105035,1.429035,3.109028,1.425041,3.114026,1.422043,3.122035,1.414035,3.122043,1.414026,3.125041,1.409028,3.129035,1.405035,3.129043,1.405026,3.138043,1.390026,3.140045,1.385022,3.143046,1.379019,3.145046,1.374019,3.145049,1.374008,3.146048,1.368014,3.148046,1.363019,3.148049,1.363008,3.149050,1.357000,3.149050,1.351005,
3.150049,1.346010,3.150050,1.346000,3.150050,-1.336000,3.149050,-1.343000,3.149050,-1.349000,3.149047,-1.349016,3.147048,-1.355012,3.146047,-1.361016,3.140043,-1.379026,3.137043,-1.384026,3.134043,-1.390026,3.131042,-1.395028,3.127042,-1.401028,3.123039,-1.406031,3.119039,-1.410031,3.115039,-1.415031,3.115031,-1.415039,3.110031,-1.419039,3.106031,-1.423039,3.101028,-1.427042,
3.095026,-1.431043,3.090026,-1.434043,3.084026,-1.437043,3.079026,-1.440043,3.061008,-1.446049,3.055012,-1.447048,3.049016,-1.449047,3.049000,-1.449050,3.043000,-1.449050,3.036000,-1.450050,1.450050,-1.450050,1.450050,-3.046000,1.450049,-3.046010,1.449050,-3.051005,1.449050,-3.057000,1.448049,-3.063008,1.448046,-3.063019,1.446048,-3.068014,1.445049,-3.074008,1.445046,-3.074019,
1.443045,-3.079022,1.440045,-3.085022,1.438043,-3.090026,1.429043,-3.105026,1.429035,-3.105035,1.425041,-3.109028,1.422043,-3.114026,1.414035,-3.122035,1.414026,-3.122043,1.409028,-3.125041,1.405035,-3.129035,1.405026,-3.129043,1.390026,-3.138043,1.385021,-3.140044,1.385022,-3.140045,1.379019,-3.143046,1.374019,-3.145046,1.374008,-3.145049,1.368014,-3.146048,1.363019,-3.148046,
1.363008,-3.148049,1.357000,-3.149050,1.351005,-3.149050,1.346010,-3.150049,1.346000,-3.150050,-1.346000,-3.150050,-1.346010,-3.150049,-1.351005,-3.149050,-1.357000,-3.149050,-1.363008,-3.148049,-1.363019,-3.148046,-1.368014,-3.146048,-1.374008,-3.145049,-1.374019,-3.145046,-1.379022,-3.143045,-1.385022,-3.140045,-1.385021,-3.140044,-1.390026,-3.138043,-1.405026,-3.129043,-1.405035,-3.129035,
-1.409028,-3.125041,-1.414026,-3.122043,-1.422035,-3.114035,-1.422043,-3.114026,-1.425041,-3.109028,-1.429035,-3.105035,-1.429043,-3.105026,-1.438043,-3.090026,-1.440045,-3.085022,-1.443046,-3.079019,-1.445046,-3.074019,-1.445049,-3.074008,-1.446048,-3.068014,-1.448046,-3.063019,-1.448049,-3.063008,-1.449050,-3.057000,-1.449050,-3.051005,-1.450049,-3.046010,-1.450050,-3.046000,-1.450050,-1.450050,
-3.027000,-1.450050,-3.034008,-1.449049,-3.040008,-1.448049,-3.040007,-1.448048,-3.054007,-1.446049,-3.054016,-1.446047,-3.060020,-1.444046,-3.067020,-1.441046,-3.067019,-1.441045,-3.073022,-1.439045,-3.085028,-1.433042,-3.091028,-1.429042,-3.096027,-1.425041,-3.096028,-1.425042,-3.102028,-1.421042,-3.107031,-1.417039,-3.117039,-1.407031,-3.121042,-1.402028,-3.125042,-1.396028,-3.125041,-1.396027,
-3.129042,-1.391028,-3.133042,-1.385028,-3.139045,-1.373022,-3.141046,-1.367020,-3.144047,-1.360016,-3.146047,-1.354016,-3.148049,-1.340008,-3.149049,-1.334007,-3.150050,-1.327000,-3.150050,1.346000,-3.150049,1.346010,-3.149050,1.351005,-3.149050,1.357000,-3.148049,1.363008,-3.148046,1.363019,-3.146048,1.368014,-3.145049,1.374008,-3.145046,1.374019,-3.143045,1.379022,-3.140045,1.385022,
-3.138043,1.390026,-3.129043,1.405026,-3.129035,1.405035,-3.125041,1.409028,-3.122043,1.414026,-3.114035,1.422035,-3.114026,1.422043,-3.109028,1.425041,-3.105035,1.429035,-3.105026,1.429043,-3.090026,1.438043,-3.085021,1.440044,-3.085022,1.440045,-3.079019,1.443046,-3.074019,1.445046,-3.074008,1.445049,-3.068014,1.446048,-3.063019,1.448046,-3.063008,1.448049,-3.057000,1.449050,
-3.051005,1.449050,-3.046010,1.450049,-3.046000,1.450050,-1.450050,1.450050,-1.450050,3.046000,-1.450049,3.046010,-1.449050,3.051005,-1.449050,3.057000,-1.448049,3.063008,-1.448046,3.063019,-1.446048,3.068014,-1.445049,3.074008,-1.445046,3.074019,-1.443045,3.079022,-1.440045,3.085022,-1.438043,3.090026,-1.429043,3.105026,-1.429035,3.105035,-1.425041,3.109028,-1.422043,3.114026,
-1.414035,3.122035,-1.414026,3.122043,-1.409028,3.125041,-1.405035,3.129035,-1.405026,3.129043,-1.390026,3.138043,-1.385021,3.140044,-1.385022,3.140045,-1.379019,3.143046,-1.374019,3.145046,-1.374008,3.145049,-1.368014,3.146048,-1.363019,3.148046,-1.363008,3.148049,-1.357000,3.149050,-1.351005,3.149050,-1.346010,3.150049,-1.346000,3.150050,1.336000,3.150050,1.343000,3.149050,
1.343000,3.149050,$1*%
G04 Aperture macros list end*
%TA.AperFunction,SMDPad,CuDef*%
%ADD10RoundRect,0.150000X-0.150000X0.545000X-0.150000X-0.545000X0.150000X-0.545000X0.150000X0.545000X0*%
%TD*%
%TA.AperFunction,ComponentPad*%
%ADD11R,1.700000X1.700000*%
%TD*%
%TA.AperFunction,ComponentPad*%
%ADD12C,1.700000*%
%TD*%
%TA.AperFunction,SMDPad,CuDef*%
%ADD13RoundRect,0.250000X-0.412500X-0.650000X0.412500X-0.650000X0.412500X0.650000X-0.412500X0.650000X0*%
%TD*%
%TA.AperFunction,SMDPad,CuDef*%
%ADD14RoundRect,0.150000X-0.150000X-0.400000X0.150000X-0.400000X0.150000X0.400000X-0.150000X0.400000X0*%
%TD*%
%TA.AperFunction,SMDPad,CuDef*%
%ADD15RoundRect,0.150000X-0.400000X-0.150000X0.400000X-0.150000X0.400000X0.150000X-0.400000X0.150000X0*%
%TD*%
%TA.AperFunction,SMDPad,CuDef*%
%ADD16FreePoly0,0.000000*%
%TD*%
%TA.AperFunction,SMDPad,CuDef*%
%ADD17RoundRect,0.250000X-0.400000X-0.625000X0.400000X-0.625000X0.400000X0.625000X-0.400000X0.625000X0*%
%TD*%
%TA.AperFunction,Conductor*%
%ADD18C,0.200000*%
%TD*%
G04 APERTURE END LIST*
D10*
%TO.P,U2,1,VOUT_1*%
%TO.N,TEMP*%
X-1550000Y-6835000D03*
%TO.P,U2,2,+VS_2*%
%TO.N,+3.3V*%
X-2500000Y-6835000D03*
%TO.P,U2,3*%
%TO.N,N/C*%
X-3450000Y-6835000D03*
%TO.P,U2,4,~{SHUTDOWN}_4*%
%TO.N,+3.3V*%
X-3450000Y-9165000D03*
%TO.P,U2,5,GND_5*%
%TO.N,GNDA*%
X-1550000Y-9165000D03*
%TD*%
D11*
%TO.P,J1,1,Pin_1_1*%
%TO.N,FAST*%
X8500000Y2500000D03*
D12*
%TO.P,J1,2,Pin_2_2*%
%TO.N,ANODE*%
X8500000Y-40000D03*
%TO.P,J1,3,Pin_3_3*%
%TO.N,GNDA*%
X8500000Y-2580000D03*
%TD*%
D13*
%TO.P,C1,1*%
%TO.N,+BIAS*%
X-62500Y7500000D03*
%TO.P,C1,2*%
%TO.N,GNDA*%
X3062500Y7500000D03*
%TD*%
D11*
%TO.P,J2,1,Pin_1_1*%
%TO.N,+BIAS*%
X-8500000Y2500000D03*
D12*
%TO.P,J2,2,Pin_2_2*%
%TO.N,TEMP*%
X-8500000Y-40000D03*
%TO.P,J2,3,Pin_3_3*%
%TO.N,+3.3V*%
X-8500000Y-2580000D03*
%TD*%
D14*
%TO.P,U1,1*%
%TO.N,ANODE*%
X-2850000Y-3000000D03*
D15*
%TO.P,U1,2*%
%TO.N,FAST*%
X3000000Y-2850000D03*
D14*
%TO.P,U1,3*%
%TO.N,+BIAS*%
X2850000Y3000000D03*
D15*
%TO.P,U1,4*%
%TO.N,N/C*%
X-3000000Y2850000D03*
D16*
%TO.P,U1,5,EP_5*%
%TO.N,unconnected-(U1-EP-Pad5)*%
X0Y0D03*
%TD*%
D17*
%TO.P,R1,1*%
%TO.N,ANODE*%
X450000Y-8000000D03*
%TO.P,R1,2*%
%TO.N,GNDA*%
X3550000Y-8000000D03*
%TD*%
%TO.N,+3.3V*%
D18*
X-3450000Y-9165000D02*
X-2500000Y-8215000D01*
X-2500000Y-8215000D02*
X-2500000Y-6835000D01*
%TO.N,TEMP*%
X-1550000Y-6835000D02*
X-1550000Y-6450000D01*
X-1550000Y-6450000D02*
X-7960000Y-40000D01*
X-7960000Y-40000D02*
X-8500000Y-40000D01*
%TO.N,+3.3V*%
X-2500000Y-6835000D02*
X-2500000Y-6140001D01*
X-2500000Y-6140001D02*
X-6060001Y-2580000D01*
X-6060001Y-2580000D02*
X-8500000Y-2580000D01*
%TO.N,+BIAS*%
X-62500Y7500000D02*
X-62500Y4062500D01*
X-62500Y4062500D02*
X0Y4000000D01*
%TO.N,ANODE*%
X-2850000Y-3000000D02*
X450000Y-6300000D01*
X450000Y-6300000D02*
X450000Y-8000000D01*
%TO.N,FAST*%
X8500000Y2500000D02*
X8350000Y2500000D01*
X8350000Y2500000D02*
X3000000Y-2850000D01*
%TO.N,ANODE*%
X8500000Y-40000D02*
X540000Y-8000000D01*
X540000Y-8000000D02*
X450000Y-8000000D01*
%TO.N,+BIAS*%
X-7000000Y4000000D02*
X0Y4000000D01*
X-8500000Y2500000D02*
X-7000000Y4000000D01*
X1850000Y4000000D02*
X2850000Y3000000D01*
X0Y4000000D02*
X1850000Y4000000D01*
%TD*%
%TA.AperFunction,Conductor*%
%TO.N,GNDA*%
G36*
X10458691Y10480593D02*
G01*
X10494655Y10431093D01*
X10499500Y10400500D01*
X10499500Y-10400500D01*
X10480593Y-10458691D01*
X10431093Y-10494655D01*
X10400500Y-10499500D01*
X-10400500Y-10499500D01*
X-10458691Y-10480593D01*
X-10494655Y-10431093D01*
X-10499500Y-10400500D01*
X-10499500Y-7878710D01*
X-9850500Y-7878710D01*
X-9850500Y-8121289D01*
X-9818839Y-8361781D01*
X-9818839Y-8361786D01*
X-9804977Y-8413518D01*
X-9758551Y-8586783D01*
X-9756056Y-8596092D01*
X-9756052Y-8596105D01*
X-9663228Y-8820204D01*
X-9663226Y-8820208D01*
X-9663224Y-8820212D01*
X-9543377Y-9027793D01*
X-9541934Y-9030292D01*
X-9394271Y-9222731D01*
X-9394269Y-9222733D01*
X-9394265Y-9222738D01*
X-9222738Y-9394265D01*
X-9222734Y-9394268D01*
X-9222732Y-9394270D01*
X-9030293Y-9541933D01*
X-9030289Y-9541936D01*
X-8820212Y-9663224D01*
X-8596100Y-9756054D01*
X-8361789Y-9818838D01*
X-8121288Y-9850500D01*
X-8121287Y-9850500D01*
X-7878713Y-9850500D01*
X-7878712Y-9850500D01*
X-7638211Y-9818838D01*
X-7403900Y-9756054D01*
X-7179788Y-9663224D01*
X-6969711Y-9541936D01*
X-6777262Y-9394265D01*
X-6605735Y-9222738D01*
X-6458064Y-9030289D01*
X-6336776Y-8820212D01*
X-6243946Y-8596100D01*
X-6181162Y-8361789D01*
X-6149500Y-8121288D01*
X-6149500Y-7878712D01*
X-6181162Y-7638211D01*
X-6243946Y-7403900D01*
X-6336776Y-7179788D01*
X-6458064Y-6969711D01*
X-6458067Y-6969707D01*
X-6605730Y-6777268D01*
X-6605732Y-6777266D01*
X-6605735Y-6777262D01*
X-6777262Y-6605735D01*
X-6777267Y-6605731D01*
X-6777269Y-6605729D01*
X-6969708Y-6458066D01*
X-6969711Y-6458064D01*
X-7179788Y-6336776D01*
X-7179792Y-6336774D01*
X-7179796Y-6336772D01*
X-7403895Y-6243948D01*
X-7403896Y-6243947D01*
X-7403900Y-6243946D01*
X-7638211Y-6181162D01*
X-7638214Y-6181161D01*
X-7638216Y-6181161D01*
X-7878711Y-6149500D01*
X-7878712Y-6149500D01*
X-8121288Y-6149500D01*
X-8121290Y-6149500D01*
X-8361782Y-6181161D01*
X-8361787Y-6181161D01*
X-8596093Y-6243944D01*
X-8596106Y-6243948D01*
X-8820205Y-6336772D01*
X-9030293Y-6458066D01*
X-9222732Y-6605729D01*
X-9394271Y-6777268D01*
X-9541934Y-6969707D01*
X-9663228Y-7179795D01*
X-9756052Y-7403894D01*
X-9756056Y-7403907D01*
X-9818839Y-7638213D01*
X-9818839Y-7638218D01*
X-9850500Y-7878710D01*
X-10499500Y-7878710D01*
X-10499500Y63468D01*
X-9550500Y63468D01*
X-9550500Y-143467D01*
X-9510131Y-346418D01*
X-9430942Y-537597D01*
X-9430941Y-537598D01*
X-9315977Y-709655D01*
X-9169655Y-855977D01*
X-8997598Y-970941D01*
X-8806420Y-1050130D01*
X-8603465Y-1090500D01*
X-8603464Y-1090500D01*
X-8396536Y-1090500D01*
X-8396535Y-1090500D01*
X-8193580Y-1050130D01*
X-8002402Y-970941D01*
X-7830345Y-855977D01*
X-7769673Y-795304D01*
X-7715160Y-767527D01*
X-7654727Y-777098D01*
X-7629667Y-795304D01*
X-6314475Y-2110496D01*
X-6286698Y-2165013D01*
X-6296269Y-2225445D01*
X-6339534Y-2268710D01*
X-6384479Y-2279500D01*
X-7421268Y-2279500D01*
X-7479459Y-2260593D01*
X-7512732Y-2218386D01*
X-7569059Y-2082402D01*
X-7684021Y-1910348D01*
X-7684023Y-1910345D01*
X-7830345Y-1764023D01*
X-7837039Y-1759550D01*
X-8002403Y-1649058D01*
X-8193582Y-1569869D01*
X-8396533Y-1529500D01*
X-8396535Y-1529500D01*
X-8603465Y-1529500D01*
X-8603468Y-1529500D01*
X-8806419Y-1569869D01*
X-8997598Y-1649058D01*
X-9169652Y-1764020D01*
X-9315980Y-1910348D01*
X-9430942Y-2082402D01*
X-9510131Y-2273581D01*
X-9550500Y-2476532D01*
X-9550500Y-2683467D01*
X-9510131Y-2886418D01*
X-9430942Y-3077597D01*
X-9319655Y-3244151D01*
X-9315977Y-3249655D01*
X-9169655Y-3395977D01*
X-8997598Y-3510941D01*
X-8806420Y-3590130D01*
X-8603465Y-3630500D01*
X-8603464Y-3630500D01*
X-8396536Y-3630500D01*
X-8396535Y-3630500D01*
X-8193580Y-3590130D01*
X-8002402Y-3510941D01*
X-7830345Y-3395977D01*
X-7684023Y-3249655D01*
X-7569059Y-3077598D01*
X-7512732Y-2941614D01*
X-7472995Y-2895088D01*
X-7421268Y-2880500D01*
X-6225480Y-2880500D01*
X-6167289Y-2899407D01*
X-6155476Y-2909496D01*
X-3294476Y-5770496D01*
X-3266699Y-5825013D01*
X-3276270Y-5885445D01*
X-3319535Y-5928710D01*
X-3364480Y-5939500D01*
X-3633260Y-5939500D01*
X-3667327Y-5944463D01*
X-3701396Y-5949427D01*
X-3806482Y-6000801D01*
X-3889199Y-6083518D01*
X-3940573Y-6188604D01*
X-3940573Y-6188606D01*
X-3940573Y-6188607D01*
X-3950500Y-6256740D01*
X-3950500Y-7413260D01*
X-3943882Y-7458682D01*
X-3940573Y-7481395D01*
X-3889199Y-7586481D01*
X-3889198Y-7586483D01*
X-3806483Y-7669198D01*
X-3774883Y-7684646D01*
X-3701396Y-7720572D01*
X-3701395Y-7720572D01*
X-3701393Y-7720573D01*
X-3633260Y-7730500D01*
X-3633257Y-7730500D01*
X-3266743Y-7730500D01*
X-3266740Y-7730500D01*
X-3198607Y-7720573D01*
X-3093517Y-7669198D01*
X-3045002Y-7620682D01*
X-3033390Y-7614766D01*
X-3024691Y-7605062D01*
X-3006797Y-7601216D01*
X-2990487Y-7592907D01*
X-2977613Y-7594945D01*
X-2964871Y-7592208D01*
X-2949879Y-7599338D01*
X-2930055Y-7602478D01*
X-2908920Y-7616969D01*
X-2906913Y-7618768D01*
X-2856483Y-7669198D01*
X-2843661Y-7675466D01*
X-2833420Y-7684646D01*
X-2824631Y-7699791D01*
X-2812047Y-7711965D01*
X-2807904Y-7728615D01*
X-2802709Y-7737566D01*
X-2803577Y-7746001D01*
X-2800500Y-7758365D01*
X-2800500Y-8049521D01*
X-2819407Y-8107712D01*
X-2829497Y-8119525D01*
X-3008112Y-8298139D01*
X-3062628Y-8325916D01*
X-3121596Y-8317075D01*
X-3198604Y-8279428D01*
X-3198606Y-8279427D01*
X-3198607Y-8279427D01*
X-3266740Y-8269500D01*
X-3633260Y-8269500D01*
X-3667327Y-8274463D01*
X-3701396Y-8279427D01*
X-3806482Y-8330801D01*
X-3889199Y-8413518D01*
X-3940573Y-8518604D01*
X-3940573Y-8518607D01*
X-3950500Y-8586740D01*
X-3950500Y-9743260D01*
X-3943882Y-9788682D01*
X-3940573Y-9811395D01*
X-3889343Y-9916187D01*
X-3889198Y-9916483D01*
X-3806483Y-9999198D01*
X-3752715Y-10025483D01*
X-3701396Y-10050572D01*
X-3701395Y-10050572D01*
X-3701393Y-10050573D01*
X-3633260Y-10060500D01*
X-3633257Y-10060500D01*
X-3266743Y-10060500D01*
X-3266740Y-10060500D01*
X-3198607Y-10050573D01*
X-3093517Y-9999198D01*
X-3010802Y-9916483D01*
X-2959427Y-9811393D01*
X-2949500Y-9743260D01*
X-2949500Y-9315001D01*
X-2049999Y-9315001D01*
X-2049999Y-9743216D01*
X-2040088Y-9811250D01*
X-1988786Y-9916188D01*
X-1906188Y-9998786D01*
X-1801249Y-10050087D01*
X-1733217Y-10059999D01*
X-1700001Y-10059999D01*
X-1700000Y-10059998D01*
X-1700000Y-9315001D01*
X-1400000Y-9315001D01*
X-1400000Y-10059998D01*
X-1399999Y-10059999D01*
X-1366787Y-10059999D01*
X-1366784Y-10059998D01*
X-1298750Y-10050087D01*
X-1193812Y-9998785D01*
X-1111214Y-9916187D01*
X-1059913Y-9811248D01*
X-1050000Y-9743215D01*
X-1050000Y-9315001D01*
X-1050001Y-9315000D01*
X-1399999Y-9315000D01*
X-1400000Y-9315001D01*
X-1700000Y-9315001D01*
X-1700001Y-9315000D01*
X-2049998Y-9315000D01*
X-2049999Y-9315001D01*
X-2949500Y-9315001D01*
X-2949500Y-9130478D01*
X-2930593Y-9072287D01*
X-2920510Y-9060480D01*
X-2446813Y-8586784D01*
X-2050000Y-8586784D01*
X-2050000Y-9014999D01*
X-2049999Y-9015000D01*
X-1700001Y-9015000D01*
X-1700000Y-9014999D01*
X-1700000Y-8270001D01*
X-1400000Y-8270001D01*
X-1400000Y-9014999D01*
X-1399999Y-9015000D01*
X-1050002Y-9015000D01*
X-1050001Y-9014999D01*
X-1050001Y-8586786D01*
X-1050002Y-8586783D01*
X-1059913Y-8518749D01*
X-1111215Y-8413811D01*
X-1193813Y-8331213D01*
X-1298752Y-8279912D01*
X-1366784Y-8270000D01*
X-1399999Y-8270000D01*
X-1400000Y-8270001D01*
X-1700000Y-8270001D01*
X-1700000Y-8270000D01*
X-1733213Y-8270000D01*
X-1733218Y-8270001D01*
X-1801250Y-8279912D01*
X-1906189Y-8331214D01*
X-1988787Y-8413812D01*
X-2040088Y-8518751D01*
X-2050000Y-8586784D01*
X-2446813Y-8586784D01*
X-2259540Y-8399511D01*
X-2219979Y-8330989D01*
X-2199500Y-8254562D01*
X-2199500Y-7758365D01*
X-2180593Y-7700174D01*
X-2166580Y-7684646D01*
X-2156340Y-7675466D01*
X-2143517Y-7669198D01*
X-2093088Y-7618768D01*
X-2091080Y-7616969D01*
X-2065459Y-7605630D01*
X-2040487Y-7592907D01*
X-2037705Y-7593347D01*
X-2035129Y-7592208D01*
X-2007739Y-7598093D01*
X-1980055Y-7602478D01*
X-1976998Y-7604699D01*
X-1975309Y-7605062D01*
X-1973089Y-7607539D01*
X-1955000Y-7620681D01*
X-1906483Y-7669198D01*
X-1874883Y-7684646D01*
X-1801396Y-7720572D01*
X-1801395Y-7720572D01*
X-1801393Y-7720573D01*
X-1733260Y-7730500D01*
X-1733257Y-7730500D01*
X-1366743Y-7730500D01*
X-1366740Y-7730500D01*
X-1298607Y-7720573D01*
X-1193517Y-7669198D01*
X-1110802Y-7586483D01*
X-1059427Y-7481393D01*
X-1049500Y-7413260D01*
X-1049500Y-6256740D01*
X-1059427Y-6188607D01*
X-1061673Y-6184013D01*
X-1084517Y-6137285D01*
X-1110802Y-6083517D01*
X-1193517Y-6000802D01*
X-1193519Y-6000801D01*
X-1298605Y-5949427D01*
X-1325861Y-5945456D01*
X-1366740Y-5939500D01*
X-1366743Y-5939500D01*
X-1594521Y-5939500D01*
X-1652712Y-5920593D01*
X-1664525Y-5910504D01*
X-5008289Y-2566740D01*
X-3350500Y-2566740D01*
X-3350500Y-3433260D01*
X-3343882Y-3478682D01*
X-3340573Y-3501395D01*
X-3289199Y-3606481D01*
X-3289198Y-3606483D01*
X-3206483Y-3689198D01*
X-3152715Y-3715483D01*
X-3101396Y-3740572D01*
X-3101395Y-3740572D01*
X-3101393Y-3740573D01*
X-3033260Y-3750500D01*
X-3033257Y-3750500D01*
X-2666741Y-3750500D01*
X-2666740Y-3750500D01*
X-2598607Y-3740573D01*
X-2598606Y-3740572D01*
X-2591720Y-3739569D01*
X-2531411Y-3749888D01*
X-2507441Y-3767530D01*
X120504Y-6395475D01*
X148281Y-6449992D01*
X149500Y-6465479D01*
X149500Y-6825500D01*
X130593Y-6883691D01*
X81093Y-6919655D01*
X50500Y-6924500D01*
X-4275Y-6924500D01*
X-34695Y-6927353D01*
X-34704Y-6927355D01*
X-162884Y-6972207D01*
X-272145Y-7052845D01*
X-272155Y-7052855D01*
X-352793Y-7162116D01*
X-397645Y-7290296D01*
X-397647Y-7290305D01*
X-400500Y-7320725D01*
X-400500Y-8679274D01*
X-397647Y-8709694D01*
X-397645Y-8709703D01*
X-352793Y-8837883D01*
X-272155Y-8947144D01*
X-272153Y-8947146D01*
X-272150Y-8947150D01*
X-272147Y-8947152D01*
X-272145Y-8947154D01*
X-162884Y-9027792D01*
X-162883Y-9027792D01*
X-162882Y-9027793D01*
X-34699Y-9072646D01*
X-4275Y-9075499D01*
X-4273Y-9075500D01*
X-4266Y-9075500D01*
X904273Y-9075500D01*
X904273Y-9075499D01*
X934699Y-9072646D01*
X1062882Y-9027793D01*
X1172150Y-8947150D01*
X1252793Y-8837882D01*
X1297646Y-8709699D01*
X1300499Y-8679273D01*
X1300500Y-8679273D01*
X1300500Y-8150001D01*
X2700001Y-8150001D01*
X2700001Y-8679203D01*
X2702850Y-8709600D01*
X2702850Y-8709602D01*
X2747654Y-8837647D01*
X2828207Y-8946790D01*
X2828209Y-8946792D01*
X2937352Y-9027345D01*
X3065398Y-9072149D01*
X3095789Y-9074999D01*
X3399998Y-9074999D01*
X3400000Y-9074998D01*
X3400000Y-8150001D01*
X3700000Y-8150001D01*
X3700000Y-9074998D01*
X3700001Y-9074999D01*
X4004203Y-9074999D01*
X4034600Y-9072149D01*
X4034602Y-9072149D01*
X4162647Y-9027345D01*
X4271790Y-8946792D01*
X4271792Y-8946790D01*
X4352345Y-8837647D01*
X4397149Y-8709601D01*
X4399999Y-8679211D01*
X4400000Y-8679210D01*
X4400000Y-8150001D01*
X4399999Y-8150000D01*
X3700001Y-8150000D01*
X3700000Y-8150001D01*
X3400000Y-8150001D01*
X3399999Y-8150000D01*
X2700002Y-8150000D01*
X2700001Y-8150001D01*
X1300500Y-8150001D01*
X1300500Y-7878710D01*
X6149500Y-7878710D01*
X6149500Y-8121289D01*
X6181161Y-8361781D01*
X6181161Y-8361786D01*
X6195023Y-8413518D01*
X6241449Y-8586783D01*
X6243944Y-8596092D01*
X6243948Y-8596105D01*
X6336772Y-8820204D01*
X6336774Y-8820208D01*
X6336776Y-8820212D01*
X6456623Y-9027793D01*
X6458066Y-9030292D01*
X6605729Y-9222731D01*
X6605731Y-9222733D01*
X6605735Y-9222738D01*
X6777262Y-9394265D01*
X6777266Y-9394268D01*
X6777268Y-9394270D01*
X6969707Y-9541933D01*
X6969711Y-9541936D01*
X7179788Y-9663224D01*
X7403900Y-9756054D01*
X7638211Y-9818838D01*
X7878712Y-9850500D01*
X7878713Y-9850500D01*
X8121287Y-9850500D01*
X8121288Y-9850500D01*
X8361789Y-9818838D01*
X8596100Y-9756054D01*
X8820212Y-9663224D01*
X9030289Y-9541936D01*
X9222738Y-9394265D01*
X9394265Y-9222738D01*
X9541936Y-9030289D01*
X9663224Y-8820212D01*
X9756054Y-8596100D01*
X9818838Y-8361789D01*
X9850500Y-8121288D01*
X9850500Y-7878712D01*
X9818838Y-7638211D01*
X9756054Y-7403900D01*
X9663224Y-7179788D01*
X9541936Y-6969711D01*
X9541933Y-6969707D01*
X9394270Y-6777268D01*
X9394268Y-6777266D01*
X9394265Y-6777262D01*
X9222738Y-6605735D01*
X9222733Y-6605731D01*
X9222731Y-6605729D01*
X9030292Y-6458066D01*
X9030289Y-6458064D01*
X8820212Y-6336776D01*
X8820208Y-6336774D01*
X8820204Y-6336772D01*
X8596105Y-6243948D01*
X8596104Y-6243947D01*
X8596100Y-6243946D01*
X8361789Y-6181162D01*
X8361786Y-6181161D01*
X8361784Y-6181161D01*
X8121289Y-6149500D01*
X8121288Y-6149500D01*
X7878712Y-6149500D01*
X7878710Y-6149500D01*
X7638218Y-6181161D01*
X7638213Y-6181161D01*
X7403907Y-6243944D01*
X7403894Y-6243948D01*
X7179795Y-6336772D01*
X6969707Y-6458066D01*
X6777268Y-6605729D01*
X6605729Y-6777268D01*
X6458066Y-6969707D01*
X6336772Y-7179795D01*
X6243948Y-7403894D01*
X6243944Y-7403907D01*
X6181161Y-7638213D01*
X6181161Y-7638218D01*
X6149500Y-7878710D01*
X1300500Y-7878710D01*
X1300500Y-7705478D01*
X1319407Y-7647287D01*
X1329490Y-7635480D01*
X1644182Y-7320788D01*
X2700000Y-7320788D01*
X2700000Y-7849999D01*
X2700001Y-7850000D01*
X3399999Y-7850000D01*
X3400000Y-7849999D01*
X3400000Y-6925001D01*
X3700000Y-6925001D01*
X3700000Y-7849999D01*
X3700001Y-7850000D01*
X4399998Y-7850000D01*
X4399999Y-7849999D01*
X4399999Y-7320796D01*
X4397149Y-7290399D01*
X4397149Y-7290397D01*
X4352345Y-7162352D01*
X4271792Y-7053209D01*
X4271790Y-7053207D01*
X4162647Y-6972654D01*
X4034601Y-6927850D01*
X4004211Y-6925000D01*
X3700001Y-6925000D01*
X3700000Y-6925001D01*
X3400000Y-6925001D01*
X3399999Y-6925000D01*
X3095796Y-6925000D01*
X3065399Y-6927850D01*
X3065397Y-6927850D01*
X2937352Y-6972654D01*
X2828209Y-7053207D01*
X2828207Y-7053209D01*
X2747654Y-7162352D01*
X2702850Y-7290398D01*
X2700000Y-7320788D01*
X1644182Y-7320788D01*
X6488388Y-2476581D01*
X7450000Y-2476581D01*
X7450000Y-2683418D01*
X7490349Y-2886272D01*
X7569501Y-3077361D01*
X7658022Y-3209843D01*
X8056328Y-2811536D01*
X8099901Y-2887007D01*
X8192993Y-2980099D01*
X8268460Y-3023670D01*
X7870154Y-3421977D01*
X8002625Y-3510491D01*
X8002639Y-3510498D01*
X8193727Y-3589650D01*
X8396581Y-3629999D01*
X8396586Y-3630000D01*
X8603414Y-3630000D01*
X8603418Y-3629999D01*
X8806272Y-3589650D01*
X8997360Y-3510498D01*
X9129843Y-3421976D01*
X8731538Y-3023671D01*
X8807007Y-2980099D01*
X8900099Y-2887007D01*
X8943671Y-2811538D01*
X9341976Y-3209843D01*
X9430498Y-3077360D01*
X9509650Y-2886272D01*
X9549999Y-2683418D01*
X9550000Y-2683413D01*
X9550000Y-2476586D01*
X9549999Y-2476581D01*
X9509650Y-2273727D01*
X9430498Y-2082639D01*
X9430491Y-2082625D01*
X9341976Y-1950154D01*
X8943670Y-2348460D01*
X8900099Y-2272993D01*
X8807007Y-2179901D01*
X8731536Y-2136328D01*
X9129843Y-1738022D01*
X8997361Y-1649501D01*
X8806272Y-1570349D01*
X8603418Y-1530000D01*
X8396581Y-1530000D01*
X8193727Y-1570349D01*
X8002638Y-1649501D01*
X7870155Y-1738022D01*
X8268461Y-2136328D01*
X8192993Y-2179901D01*
X8099901Y-2272993D01*
X8056328Y-2348461D01*
X7658022Y-1950155D01*
X7569501Y-2082638D01*
X7490349Y-2273727D01*
X7450000Y-2476581D01*
X6488388Y-2476581D01*
X7949708Y-1015261D01*
X8004223Y-987486D01*
X8057595Y-993802D01*
X8193580Y-1050130D01*
X8396535Y-1090500D01*
X8396536Y-1090500D01*
X8603464Y-1090500D01*
X8603465Y-1090500D01*
X8806420Y-1050130D01*
X8997598Y-970941D01*
X9169655Y-855977D01*
X9315977Y-709655D01*
X9430941Y-537598D01*
X9510130Y-346420D01*
X9550500Y-143465D01*
X9550500Y63465D01*
X9510130Y266420D01*
X9430941Y457598D01*
X9315977Y629655D01*
X9169655Y775977D01*
X8997598Y890941D01*
X8997599Y890941D01*
X8997597Y890942D01*
X8806418Y970131D01*
X8603467Y1010500D01*
X8603465Y1010500D01*
X8396535Y1010500D01*
X8396532Y1010500D01*
X8193581Y970131D01*
X8002402Y890942D01*
X7830348Y775980D01*
X7684020Y629652D01*
X7569058Y457598D01*
X7489869Y266419D01*
X7449500Y63468D01*
X7449500Y-143467D01*
X7489869Y-346418D01*
X7546196Y-482401D01*
X7550997Y-543398D01*
X7524736Y-590291D01*
X1166085Y-6948942D01*
X1111568Y-6976719D01*
X1063383Y-6972382D01*
X934703Y-6927355D01*
X934694Y-6927353D01*
X904274Y-6924500D01*
X904266Y-6924500D01*
X849500Y-6924500D01*
X791309Y-6905593D01*
X755345Y-6856093D01*
X750500Y-6825500D01*
X750500Y-6260439D01*
X750500Y-6260438D01*
X731253Y-6188607D01*
X731253Y-6188606D01*
X731253Y-6188605D01*
X730024Y-6184018D01*
X730023Y-6184016D01*
X730022Y-6184012D01*
X690460Y-6115489D01*
X-2320504Y-3104525D01*
X-2348281Y-3050008D01*
X-2349500Y-3034521D01*
X-2349500Y-2566743D01*
X-2357159Y-2514174D01*
X-2359427Y-2498607D01*
X-2361915Y-2493518D01*
X-2402352Y-2410802D01*
X-2410802Y-2393517D01*
X-2493517Y-2310802D01*
X-2493519Y-2310801D01*
X-2598605Y-2259427D01*
X-2625861Y-2255456D01*
X-2666740Y-2249500D01*
X-3033260Y-2249500D01*
X-3067327Y-2254463D01*
X-3101396Y-2259427D01*
X-3206482Y-2310801D01*
X-3289199Y-2393518D01*
X-3340573Y-2498604D01*
X-3340573Y-2498607D01*
X-3350500Y-2566740D01*
X-5008289Y-2566740D01*
X-7420504Y-154525D01*
X-7448281Y-100008D01*
X-7449500Y-84521D01*
X-7449500Y63464D01*
X-7449501Y63468D01*
X-7489870Y266419D01*
X-7569059Y457598D01*
X-7684021Y629652D01*
X-7684023Y629655D01*
X-7830345Y775977D01*
X-8002402Y890941D01*
X-8002401Y890941D01*
X-8002403Y890942D01*
X-8193582Y970131D01*
X-8396533Y1010500D01*
X-8396535Y1010500D01*
X-8603465Y1010500D01*
X-8603468Y1010500D01*
X-8806419Y970131D01*
X-8997598Y890942D01*
X-9169652Y775980D01*
X-9315980Y629652D01*
X-9430942Y457598D01*
X-9510131Y266419D01*
X-9550500Y63468D01*
X-10499500Y63468D01*
X-10499500Y1346000D01*
X-3360550Y1346000D01*
X-3360550Y1344384D01*
X-3360550Y-1327001D01*
X-3360028Y-1341637D01*
X-3359977Y-1342360D01*
X-3358435Y-1356773D01*
X-3357428Y-1363824D01*
X-3357075Y-1366188D01*
X-3357043Y-1366393D01*
X-3357016Y-1366564D01*
X-3357014Y-1366572D01*
X-3356685Y-1368614D01*
X-3356090Y-1372184D01*
X-3354434Y-1383776D01*
X-3351024Y-1401832D01*
X-3350816Y-1402715D01*
X-3345745Y-1420582D01*
X-3343745Y-1426582D01*
X-3340883Y-1434611D01*
X-3340734Y-1435003D01*
X-3337519Y-1442956D01*
X-3337255Y-1443573D01*
X-3334920Y-1449826D01*
X-3334919Y-1449830D01*
X-3333629Y-1453286D01*
X-3333362Y-1453930D01*
X-3333355Y-1453946D01*
X-3333353Y-1453950D01*
X-3327322Y-1467160D01*
X-3327314Y-1467176D01*
X-3321318Y-1479169D01*
X-3315281Y-1490361D01*
X-3314946Y-1490938D01*
X-3308203Y-1501771D01*
X-3307165Y-1503327D01*
X-3304188Y-1507792D01*
X-3301393Y-1511792D01*
X-3299046Y-1515152D01*
X-3298860Y-1515405D01*
X-3298793Y-1515497D01*
X-3296608Y-1518352D01*
X-3294085Y-1521803D01*
X-3291751Y-1525143D01*
X-3291053Y-1526141D01*
X-3290787Y-1526506D01*
X-3288113Y-1530000D01*
X-3285412Y-1533530D01*
X-3281412Y-1538530D01*
X-3281401Y-1538543D01*
X-3281393Y-1538553D01*
X-3274139Y-1547127D01*
X-3273770Y-1547540D01*
X-3265889Y-1555873D01*
X-3255874Y-1565888D01*
X-3247541Y-1573769D01*
X-3247128Y-1574138D01*
X-3240042Y-1580133D01*
X-3238530Y-1581412D01*
X-3233530Y-1585412D01*
X-3226497Y-1590793D01*
X-3226143Y-1591052D01*
X-3220047Y-1595311D01*
X-3215497Y-1598793D01*
X-3215143Y-1599052D01*
X-3207792Y-1604188D01*
X-3201792Y-1608188D01*
X-3190919Y-1614957D01*
X-3190376Y-1615272D01*
X-3179160Y-1621322D01*
X-3167160Y-1627322D01*
X-3153950Y-1633353D01*
X-3153289Y-1633627D01*
X-3143574Y-1637254D01*
X-3142956Y-1637519D01*
X-3135003Y-1640734D01*
X-3134611Y-1640883D01*
X-3126582Y-1643745D01*
X-3120582Y-1645745D01*
X-3120562Y-1645750D01*
X-3120558Y-1645752D01*
X-3120555Y-1645753D01*
X-3102748Y-1650807D01*
X-3102731Y-1650811D01*
X-3102715Y-1650816D01*
X-3101832Y-1651024D01*
X-3083776Y-1654434D01*
X-3073287Y-1655932D01*
X-3071038Y-1656281D01*
X-3068567Y-1656693D01*
X-3067522Y-1656860D01*
X-3066341Y-1657051D01*
X-3066225Y-1657069D01*
X-3064897Y-1657266D01*
X-3063825Y-1657427D01*
X-3063777Y-1657433D01*
X-3063776Y-1657434D01*
X-3056776Y-1658434D01*
X-3042355Y-1659977D01*
X-3041641Y-1660028D01*
X-3027458Y-1660533D01*
X-3027001Y-1660550D01*
X-3027000Y-1660550D01*
X-1759550Y-1660550D01*
X-1701359Y-1679457D01*
X-1665395Y-1728957D01*
X-1660550Y-1759550D01*
X-1660550Y-3046011D01*
X-1659582Y-3065609D01*
X-1659582Y-3065614D01*
X-1659550Y-3066243D01*
X-1659452Y-3067233D01*
X-1659000Y-3070264D01*
X-1658844Y-3074025D01*
X-1658775Y-3074855D01*
X-1656685Y-3091614D01*
X-1655685Y-3097614D01*
X-1650913Y-3119085D01*
X-1650621Y-3120131D01*
X-1649178Y-3124395D01*
X-1647913Y-3130085D01*
X-1647622Y-3131129D01*
X-1647616Y-3131149D01*
X-1640498Y-3152179D01*
X-1640490Y-3152200D01*
X-1638493Y-3157195D01*
X-1635214Y-3164912D01*
X-1635071Y-3165247D01*
X-1634899Y-3165629D01*
X-1634893Y-3165642D01*
X-1630892Y-3174065D01*
X-1630924Y-3174079D01*
X-1629954Y-3176096D01*
X-1626697Y-3183370D01*
X-1626693Y-3183378D01*
X-1626333Y-3184102D01*
X-1618551Y-3198317D01*
X-1618546Y-3198326D01*
X-1618545Y-3198327D01*
X-1609545Y-3213327D01*
X-1609542Y-3213331D01*
X-1595363Y-3233992D01*
X-1594588Y-3234985D01*
X-1593621Y-3236149D01*
X-1593712Y-3236223D01*
X-1589327Y-3241839D01*
X-1589287Y-3241808D01*
X-1589284Y-3241813D01*
X-1589246Y-3241786D01*
X-1588360Y-3242997D01*
X-1587610Y-3243959D01*
X-1582574Y-3249655D01*
X-1570881Y-3262881D01*
X-1562881Y-3270881D01*
X-1543966Y-3287603D01*
X-1542993Y-3288362D01*
X-1538668Y-3291330D01*
X-1534966Y-3294603D01*
X-1533993Y-3295362D01*
X-1513327Y-3309545D01*
X-1498327Y-3318545D01*
X-1484092Y-3326338D01*
X-1483370Y-3326697D01*
X-1474181Y-3330811D01*
X-1473160Y-3331322D01*
X-1465629Y-3334899D01*
X-1465247Y-3335071D01*
X-1461055Y-3336852D01*
X-1457196Y-3338492D01*
X-1454199Y-3339690D01*
X-1452197Y-3340491D01*
X-1452186Y-3340494D01*
X-1452180Y-3340497D01*
X-1431138Y-3347619D01*
X-1431131Y-3347621D01*
X-1430085Y-3347913D01*
X-1430081Y-3347914D01*
X-1430077Y-3347915D01*
X-1429614Y-3348018D01*
X-1429154Y-3348146D01*
X-1428781Y-3348240D01*
X-1428784Y-3348249D01*
X-1421458Y-3350296D01*
X-1421434Y-3350219D01*
X-1420159Y-3350611D01*
X-1420131Y-3350621D01*
X-1419085Y-3350913D01*
X-1397614Y-3355685D01*
X-1391614Y-3356685D01*
X-1374855Y-3358775D01*
X-1374025Y-3358844D01*
X-1374013Y-3358844D01*
X-1371964Y-3359015D01*
X-1371969Y-3359064D01*
X-1368437Y-3359355D01*
X-1368434Y-3359333D01*
X-1367240Y-3359451D01*
X-1367233Y-3359452D01*
X-1366243Y-3359550D01*
X-1346012Y-3360549D01*
X-1346011Y-3360550D01*
X-1346000Y-3360550D01*
X1346011Y-3360550D01*
X1346011Y-3360549D01*
X1366243Y-3359550D01*
X1367233Y-3359452D01*
X1370264Y-3358999D01*
X1374025Y-3358844D01*
X1374855Y-3358775D01*
X1391614Y-3356685D01*
X1397614Y-3355685D01*
X1419085Y-3350913D01*
X1420131Y-3350621D01*
X1424395Y-3349177D01*
X1430085Y-3347913D01*
X1431131Y-3347621D01*
X1452197Y-3340491D01*
X1457197Y-3338491D01*
X1465247Y-3335071D01*
X1465629Y-3334899D01*
X1473160Y-3331322D01*
X1473162Y-3331320D01*
X1474097Y-3330877D01*
X1474121Y-3330929D01*
X1476114Y-3329944D01*
X1483370Y-3326697D01*
X1484092Y-3326338D01*
X1498327Y-3318545D01*
X1513327Y-3309545D01*
X1533993Y-3295362D01*
X1534966Y-3294603D01*
X1534972Y-3294597D01*
X1534978Y-3294593D01*
X1536141Y-3293627D01*
X1536221Y-3293723D01*
X1541825Y-3289346D01*
X1541764Y-3289262D01*
X1542980Y-3288370D01*
X1542993Y-3288362D01*
X1543966Y-3287603D01*
X1562881Y-3270881D01*
X1570881Y-3262881D01*
X1587603Y-3243966D01*
X1588362Y-3242993D01*
X1591330Y-3238667D01*
X1594603Y-3234966D01*
X1595362Y-3233993D01*
X1609545Y-3213327D01*
X1618545Y-3198327D01*
X1626338Y-3184092D01*
X1626697Y-3183370D01*
X1630811Y-3174180D01*
X1631322Y-3173160D01*
X1634899Y-3165629D01*
X1635071Y-3165247D01*
X1638491Y-3157197D01*
X1640491Y-3152197D01*
X1647621Y-3131131D01*
X1647913Y-3130085D01*
X1648017Y-3129614D01*
X1648144Y-3129161D01*
X1648236Y-3128795D01*
X1648245Y-3128797D01*
X1650300Y-3121448D01*
X1650257Y-3121436D01*
X1650260Y-3121423D01*
X1650225Y-3121413D01*
X1650613Y-3120151D01*
X1650621Y-3120131D01*
X1650913Y-3119085D01*
X1655685Y-3097614D01*
X1656685Y-3091614D01*
X1658775Y-3074855D01*
X1658844Y-3074025D01*
X1658844Y-3074011D01*
X1659015Y-3071964D01*
X1659065Y-3071968D01*
X1659357Y-3068440D01*
X1659332Y-3068438D01*
X1659449Y-3067249D01*
X1659452Y-3067233D01*
X1659550Y-3066243D01*
X1660549Y-3046011D01*
X1660550Y-3046011D01*
X1660550Y-2666740D01*
X2249500Y-2666740D01*
X2249500Y-3033260D01*
X2255560Y-3074855D01*
X2259427Y-3101395D01*
X2306810Y-3198317D01*
X2310802Y-3206483D01*
X2393517Y-3289198D01*
X2435130Y-3309541D01*
X2498604Y-3340572D01*
X2498605Y-3340572D01*
X2498607Y-3340573D01*
X2566740Y-3350500D01*
X2566743Y-3350500D01*
X3433257Y-3350500D01*
X3433260Y-3350500D01*
X3501393Y-3340573D01*
X3606483Y-3289198D01*
X3689198Y-3206483D01*
X3740573Y-3101393D01*
X3750500Y-3033260D01*
X3750500Y-2666740D01*
X3740573Y-2598607D01*
X3740571Y-2598603D01*
X3739568Y-2591717D01*
X3749888Y-2531409D01*
X3767527Y-2507442D01*
X7695475Y1420504D01*
X7749992Y1448281D01*
X7765479Y1449500D01*
X9369747Y1449500D01*
X9369748Y1449500D01*
X9428231Y1461133D01*
X9494552Y1505448D01*
X9538867Y1571769D01*
X9550500Y1630252D01*
X9550500Y3369748D01*
X9538867Y3428231D01*
X9494552Y3494552D01*
X9484314Y3501393D01*
X9428233Y3538866D01*
X9428231Y3538867D01*
X9428228Y3538868D01*
X9428227Y3538868D01*
X9369758Y3550499D01*
X9369748Y3550500D01*
X7630252Y3550500D01*
X7630251Y3550500D01*
X7630241Y3550499D01*
X7571772Y3538868D01*
X7571766Y3538866D01*
X7505451Y3494555D01*
X7505445Y3494549D01*
X7461134Y3428234D01*
X7461132Y3428228D01*
X7449501Y3369759D01*
X7449500Y3369747D01*
X7449500Y2065479D01*
X7430593Y2007288D01*
X7420504Y1995475D01*
X3104525Y-2320504D01*
X3050008Y-2348281D01*
X3034521Y-2349500D01*
X2566740Y-2349500D01*
X2532673Y-2354463D01*
X2498604Y-2359427D01*
X2393518Y-2410801D01*
X2310801Y-2493518D01*
X2259427Y-2598604D01*
X2259427Y-2598607D01*
X2249500Y-2666740D01*
X1660550Y-2666740D01*
X1660550Y-1759550D01*
X1679457Y-1701359D01*
X1728957Y-1665395D01*
X1759550Y-1660550D01*
X3036001Y-1660550D01*
X3036443Y-1660534D01*
X3050641Y-1660028D01*
X3051355Y-1659977D01*
X3065776Y-1658434D01*
X3069553Y-1657894D01*
X3081898Y-1656900D01*
X3083495Y-1656641D01*
X3095281Y-1653740D01*
X3095602Y-1653687D01*
X3111243Y-1650452D01*
X3112010Y-1650262D01*
X3123505Y-1646927D01*
X3127573Y-1645748D01*
X3127582Y-1645745D01*
X3145582Y-1639745D01*
X3166560Y-1631448D01*
X3167561Y-1630987D01*
X3179504Y-1624676D01*
X3181483Y-1623660D01*
X3182322Y-1623240D01*
X3184160Y-1622322D01*
X3191292Y-1618579D01*
X3191632Y-1618392D01*
X3198327Y-1614545D01*
X3203327Y-1611545D01*
X3207205Y-1609159D01*
X3207408Y-1609031D01*
X3211792Y-1606188D01*
X3217792Y-1602188D01*
X3225143Y-1597052D01*
X3225497Y-1596793D01*
X3232530Y-1591412D01*
X3237530Y-1587412D01*
X3246138Y-1580129D01*
X3246554Y-1579757D01*
X3253780Y-1572921D01*
X3263465Y-1564253D01*
X3264253Y-1563465D01*
X3272921Y-1553780D01*
X3279757Y-1546554D01*
X3280129Y-1546138D01*
X3287412Y-1537530D01*
X3291412Y-1532530D01*
X3296793Y-1525497D01*
X3297052Y-1525143D01*
X3302188Y-1517792D01*
X3306188Y-1511792D01*
X3309031Y-1507408D01*
X3309159Y-1507205D01*
X3311545Y-1503327D01*
X3314545Y-1498327D01*
X3318392Y-1491632D01*
X3318579Y-1491292D01*
X3322322Y-1484160D01*
X3324159Y-1480484D01*
X3330987Y-1467561D01*
X3331448Y-1466560D01*
X3339745Y-1445582D01*
X3345745Y-1427582D01*
X3350262Y-1412010D01*
X3350452Y-1411243D01*
X3353687Y-1395602D01*
X3353740Y-1395281D01*
X3356641Y-1383495D01*
X3356900Y-1381898D01*
X3357649Y-1372585D01*
X3358331Y-1366498D01*
X3358435Y-1365769D01*
X3359975Y-1351371D01*
X3359977Y-1351355D01*
X3360028Y-1350641D01*
X3360550Y-1336000D01*
X3360550Y1346000D01*
X3360550Y1346011D01*
X3360549Y1346012D01*
X3359581Y1365610D01*
X3359550Y1366243D01*
X3359452Y1367233D01*
X3358999Y1370265D01*
X3358844Y1374025D01*
X3358775Y1374855D01*
X3356685Y1391614D01*
X3355685Y1397614D01*
X3350913Y1419085D01*
X3350621Y1420131D01*
X3349177Y1424396D01*
X3347913Y1430085D01*
X3347621Y1431131D01*
X3347615Y1431148D01*
X3340497Y1452180D01*
X3340489Y1452201D01*
X3338492Y1457196D01*
X3336818Y1461135D01*
X3335071Y1465247D01*
X3334899Y1465629D01*
X3331322Y1473160D01*
X3330884Y1474083D01*
X3330922Y1474102D01*
X3329940Y1476126D01*
X3326697Y1483369D01*
X3326332Y1484104D01*
X3318550Y1498318D01*
X3318545Y1498327D01*
X3309545Y1513327D01*
X3295362Y1533993D01*
X3294603Y1534966D01*
X3294593Y1534979D01*
X3293636Y1536131D01*
X3293671Y1536161D01*
X3293665Y1536169D01*
X3293720Y1536213D01*
X3289331Y1541837D01*
X3289290Y1541804D01*
X3289278Y1541820D01*
X3289241Y1541792D01*
X3288356Y1543001D01*
X3287606Y1543962D01*
X3287603Y1543966D01*
X3270881Y1562881D01*
X3262881Y1570881D01*
X3243966Y1587603D01*
X3242993Y1588362D01*
X3238667Y1591331D01*
X3234966Y1594603D01*
X3233993Y1595362D01*
X3213327Y1609545D01*
X3198327Y1618545D01*
X3184092Y1626338D01*
X3183370Y1626697D01*
X3174180Y1630812D01*
X3173160Y1631322D01*
X3169410Y1633104D01*
X3169407Y1633105D01*
X3165642Y1634893D01*
X3165629Y1634899D01*
X3165247Y1635071D01*
X3164912Y1635214D01*
X3157195Y1638493D01*
X3152200Y1640490D01*
X3152179Y1640498D01*
X3131149Y1647616D01*
X3130067Y1647918D01*
X3130061Y1647919D01*
X3129562Y1648030D01*
X3129078Y1648165D01*
X3128807Y1648233D01*
X3128808Y1648241D01*
X3121451Y1650295D01*
X3121429Y1650221D01*
X3120168Y1650610D01*
X3120142Y1650618D01*
X3120131Y1650621D01*
X3119085Y1650913D01*
X3097614Y1655685D01*
X3091614Y1656685D01*
X3091613Y1656686D01*
X3091608Y1656686D01*
X3080253Y1658102D01*
X3074855Y1658775D01*
X3074852Y1658776D01*
X3074838Y1658777D01*
X3071975Y1659015D01*
X3071978Y1659063D01*
X3068438Y1659356D01*
X3068436Y1659333D01*
X3066247Y1659550D01*
X3046011Y1660550D01*
X3046000Y1660550D01*
X1759550Y1660550D01*
X1701359Y1679457D01*
X1665395Y1728957D01*
X1660550Y1759550D01*
X1660550Y3036002D01*
X1660193Y3046000D01*
X1660028Y3050641D01*
X1659977Y3051355D01*
X1658434Y3065776D01*
X1657894Y3069554D01*
X1656900Y3081898D01*
X1656641Y3083495D01*
X1653740Y3095282D01*
X1653687Y3095602D01*
X1650452Y3111243D01*
X1650262Y3112010D01*
X1647806Y3120476D01*
X1645748Y3127574D01*
X1643746Y3133577D01*
X1639745Y3145582D01*
X1631448Y3166560D01*
X1631377Y3166714D01*
X1630994Y3167547D01*
X1630983Y3167568D01*
X1624675Y3179510D01*
X1623659Y3181487D01*
X1622337Y3184131D01*
X1622322Y3184160D01*
X1618579Y3191292D01*
X1618392Y3191632D01*
X1614545Y3198327D01*
X1614537Y3198341D01*
X1611566Y3203293D01*
X1609158Y3207206D01*
X1609031Y3207408D01*
X1606188Y3211792D01*
X1602188Y3217792D01*
X1597052Y3225143D01*
X1596793Y3225497D01*
X1596786Y3225507D01*
X1593848Y3229346D01*
X1591412Y3232530D01*
X1587412Y3237530D01*
X1587392Y3237554D01*
X1580139Y3246127D01*
X1579752Y3246560D01*
X1574799Y3251796D01*
X1574791Y3251804D01*
X1572921Y3253781D01*
X1564253Y3263465D01*
X1563465Y3264253D01*
X1553780Y3272922D01*
X1546554Y3279757D01*
X1546550Y3279761D01*
X1546539Y3279771D01*
X1546131Y3280136D01*
X1537553Y3287393D01*
X1537543Y3287401D01*
X1537530Y3287412D01*
X1532530Y3291412D01*
X1529533Y3293705D01*
X1525506Y3296787D01*
X1525151Y3297046D01*
X1525143Y3297052D01*
X1517792Y3302188D01*
X1517783Y3302194D01*
X1517773Y3302201D01*
X1511820Y3306169D01*
X1511792Y3306188D01*
X1507408Y3309031D01*
X1507205Y3309159D01*
X1506578Y3309545D01*
X1503292Y3311567D01*
X1498340Y3314538D01*
X1491655Y3318379D01*
X1491646Y3318384D01*
X1491632Y3318392D01*
X1491292Y3318579D01*
X1484160Y3322322D01*
X1480484Y3324160D01*
X1467561Y3330987D01*
X1466560Y3331448D01*
X1445582Y3339745D01*
X1427582Y3345745D01*
X1412010Y3350262D01*
X1411243Y3350452D01*
X1395602Y3353687D01*
X1395281Y3353741D01*
X1388569Y3355393D01*
X1388565Y3355394D01*
X1383500Y3356640D01*
X1383486Y3356643D01*
X1381915Y3356898D01*
X1381886Y3356902D01*
X1372569Y3357653D01*
X1366575Y3358321D01*
X1365794Y3358433D01*
X1351364Y3359977D01*
X1350860Y3360013D01*
X1350641Y3360028D01*
X1338928Y3360446D01*
X1336001Y3360550D01*
X1336000Y3360550D01*
X-1346000Y3360550D01*
X-1346011Y3360550D01*
X-1365616Y3359582D01*
X-1365624Y3359581D01*
X-1366243Y3359550D01*
X-1367233Y3359452D01*
X-1370265Y3359000D01*
X-1374025Y3358844D01*
X-1374855Y3358775D01*
X-1391614Y3356685D01*
X-1397614Y3355685D01*
X-1419085Y3350913D01*
X-1420131Y3350621D01*
X-1424396Y3349178D01*
X-1430085Y3347913D01*
X-1431131Y3347621D01*
X-1431136Y3347620D01*
X-1431148Y3347616D01*
X-1452180Y3340498D01*
X-1452201Y3340490D01*
X-1457196Y3338493D01*
X-1465222Y3335082D01*
X-1465237Y3335076D01*
X-1465247Y3335071D01*
X-1465629Y3334899D01*
X-1473160Y3331322D01*
X-1473182Y3331312D01*
X-1474043Y3330902D01*
X-1474140Y3330856D01*
X-1474159Y3330847D01*
X-1476076Y3329964D01*
X-1483373Y3326697D01*
X-1484094Y3326338D01*
X-1498318Y3318551D01*
X-1513332Y3309542D01*
X-1533999Y3295358D01*
X-1534958Y3294611D01*
X-1536141Y3293627D01*
X-1536206Y3293705D01*
X-1541829Y3289321D01*
X-1541778Y3289251D01*
X-1543010Y3288350D01*
X-1543964Y3287605D01*
X-1562869Y3270892D01*
X-1562877Y3270885D01*
X-1570885Y3262877D01*
X-1570892Y3262869D01*
X-1587445Y3244147D01*
X-1587450Y3244140D01*
X-1587603Y3243966D01*
X-1588362Y3242993D01*
X-1591331Y3238668D01*
X-1594603Y3234966D01*
X-1595362Y3233993D01*
X-1609545Y3213327D01*
X-1618545Y3198327D01*
X-1626338Y3184092D01*
X-1626697Y3183370D01*
X-1630812Y3174181D01*
X-1631322Y3173160D01*
X-1633119Y3169378D01*
X-1633122Y3169372D01*
X-1634892Y3165644D01*
X-1635082Y3165222D01*
X-1638493Y3157196D01*
X-1640490Y3152201D01*
X-1640498Y3152180D01*
X-1647616Y3131148D01*
X-1647916Y3130076D01*
X-1648036Y3129536D01*
X-1648180Y3129021D01*
X-1648237Y3128792D01*
X-1648243Y3128794D01*
X-1650291Y3121448D01*
X-1650257Y3121438D01*
X-1650270Y3121393D01*
X-1650235Y3121382D01*
X-1650625Y3120123D01*
X-1650907Y3119111D01*
X-1650911Y3119094D01*
X-1655684Y3097619D01*
X-1655686Y3097608D01*
X-1656686Y3091609D01*
X-1658777Y3074842D01*
X-1659015Y3071974D01*
X-1659063Y3071978D01*
X-1659356Y3068435D01*
X-1659333Y3068432D01*
X-1659551Y3066241D01*
X-1660550Y3046012D01*
X-1660550Y1759550D01*
X-1679457Y1701359D01*
X-1728957Y1665395D01*
X-1759550Y1660550D01*
X-3046011Y1660550D01*
X-3065616Y1659582D01*
X-3065624Y1659581D01*
X-3066243Y1659550D01*
X-3067233Y1659452D01*
X-3070265Y1659000D01*
X-3074025Y1658844D01*
X-3074855Y1658775D01*
X-3091614Y1656685D01*
X-3097614Y1655685D01*
X-3119085Y1650913D01*
X-3120131Y1650621D01*
X-3124396Y1649178D01*
X-3130085Y1647913D01*
X-3131131Y1647621D01*
X-3131136Y1647620D01*
X-3131148Y1647616D01*
X-3152180Y1640498D01*
X-3152201Y1640490D01*
X-3157196Y1638493D01*
X-3165222Y1635082D01*
X-3165237Y1635076D01*
X-3165247Y1635071D01*
X-3165629Y1634899D01*
X-3173160Y1631322D01*
X-3173182Y1631312D01*
X-3174043Y1630902D01*
X-3174053Y1630923D01*
X-3176076Y1629964D01*
X-3183367Y1626700D01*
X-3184094Y1626338D01*
X-3198318Y1618551D01*
X-3213332Y1609542D01*
X-3233999Y1595358D01*
X-3234958Y1594611D01*
X-3236141Y1593627D01*
X-3236206Y1593705D01*
X-3241829Y1589321D01*
X-3241778Y1589251D01*
X-3243010Y1588350D01*
X-3243964Y1587605D01*
X-3262869Y1570892D01*
X-3262877Y1570885D01*
X-3270885Y1562877D01*
X-3270892Y1562869D01*
X-3287444Y1544147D01*
X-3287447Y1544144D01*
X-3287603Y1543966D01*
X-3288362Y1542993D01*
X-3291331Y1538668D01*
X-3294603Y1534966D01*
X-3295362Y1533993D01*
X-3309545Y1513327D01*
X-3318545Y1498327D01*
X-3326338Y1484092D01*
X-3326697Y1483370D01*
X-3330812Y1474181D01*
X-3331322Y1473160D01*
X-3333116Y1469384D01*
X-3333116Y1469383D01*
X-3334892Y1465644D01*
X-3335082Y1465222D01*
X-3338493Y1457196D01*
X-3340490Y1452201D01*
X-3340498Y1452180D01*
X-3347616Y1431148D01*
X-3347916Y1430076D01*
X-3348036Y1429536D01*
X-3348180Y1429021D01*
X-3348237Y1428792D01*
X-3348243Y1428794D01*
X-3350291Y1421448D01*
X-3350257Y1421438D01*
X-3350270Y1421393D01*
X-3350235Y1421382D01*
X-3350625Y1420123D01*
X-3350907Y1419111D01*
X-3350911Y1419094D01*
X-3355684Y1397619D01*
X-3355686Y1397608D01*
X-3356686Y1391609D01*
X-3358777Y1374842D01*
X-3358868Y1373749D01*
X-3358871Y1373675D01*
X-3359108Y1369541D01*
X-3359452Y1367233D01*
X-3359550Y1366243D01*
X-3360550Y1346000D01*
X-10499500Y1346000D01*
X-10499500Y3369747D01*
X-9550500Y3369747D01*
X-9550500Y1630254D01*
X-9550499Y1630242D01*
X-9538868Y1571773D01*
X-9538866Y1571767D01*
X-9499820Y1513332D01*
X-9494552Y1505448D01*
X-9428231Y1461133D01*
X-9383769Y1452289D01*
X-9369759Y1449502D01*
X-9369754Y1449502D01*
X-9369748Y1449500D01*
X-9369747Y1449500D01*
X-7630253Y1449500D01*
X-7630252Y1449500D01*
X-7571769Y1461133D01*
X-7505448Y1505448D01*
X-7461133Y1571769D01*
X-7449500Y1630252D01*
X-7449500Y3033260D01*
X-3750500Y3033260D01*
X-3750500Y2666740D01*
X-3743882Y2621318D01*
X-3740573Y2598605D01*
X-3691686Y2498607D01*
X-3689198Y2493517D01*
X-3606483Y2410802D01*
X-3552715Y2384517D01*
X-3501396Y2359428D01*
X-3501395Y2359428D01*
X-3501393Y2359427D01*
X-3433260Y2349500D01*
X-3433257Y2349500D01*
X-2566743Y2349500D01*
X-2566740Y2349500D01*
X-2498607Y2359427D01*
X-2393517Y2410802D01*
X-2310802Y2493517D01*
X-2259427Y2598607D01*
X-2249500Y2666740D01*
X-2249500Y3033260D01*
X-2259427Y3101393D01*
X-2264623Y3112021D01*
X-2291292Y3166575D01*
X-2310802Y3206483D01*
X-2393517Y3289198D01*
X-2398046Y3291412D01*
X-2498605Y3340573D01*
X-2534105Y3345745D01*
X-2566740Y3350500D01*
X-3433260Y3350500D01*
X-3465895Y3345745D01*
X-3501396Y3340573D01*
X-3606482Y3289199D01*
X-3689199Y3206482D01*
X-3740573Y3101396D01*
X-3744561Y3074025D01*
X-3750500Y3033260D01*
X-7449500Y3033260D01*
X-7449500Y3084521D01*
X-7430593Y3142712D01*
X-7420504Y3154525D01*
X-6904525Y3670504D01*
X-6850008Y3698281D01*
X-6834521Y3699500D01*
X-39562Y3699500D01*
X1684521Y3699500D01*
X1742712Y3680593D01*
X1754525Y3670504D01*
X2320504Y3104525D01*
X2348281Y3050008D01*
X2349500Y3034521D01*
X2349500Y2566740D01*
X2356118Y2521318D01*
X2359427Y2498605D01*
X2402352Y2410802D01*
X2410802Y2393517D01*
X2493517Y2310802D01*
X2547285Y2284517D01*
X2598604Y2259428D01*
X2598605Y2259428D01*
X2598607Y2259427D01*
X2666740Y2249500D01*
X2666743Y2249500D01*
X3033257Y2249500D01*
X3033260Y2249500D01*
X3101393Y2259427D01*
X3206483Y2310802D01*
X3289198Y2393517D01*
X3340573Y2498607D01*
X3350500Y2566740D01*
X3350500Y3433260D01*
X3340573Y3501393D01*
X3289198Y3606483D01*
X3206483Y3689198D01*
X3206481Y3689199D01*
X3101395Y3740573D01*
X3074139Y3744544D01*
X3033260Y3750500D01*
X2666740Y3750500D01*
X2598607Y3740573D01*
X2598606Y3740573D01*
X2591717Y3739569D01*
X2531409Y3749889D01*
X2507441Y3767531D01*
X2034510Y4240461D01*
X2034509Y4240462D01*
X2023166Y4247010D01*
X2023164Y4247012D01*
X2023164Y4247011D01*
X1965989Y4280021D01*
X1965988Y4280022D01*
X1965987Y4280022D01*
X1889564Y4300500D01*
X1889562Y4300500D01*
X337000Y4300500D01*
X278809Y4319407D01*
X242845Y4368907D01*
X238000Y4399500D01*
X238000Y6300500D01*
X256907Y6358691D01*
X306407Y6394655D01*
X337000Y6399500D01*
X404273Y6399500D01*
X404273Y6399501D01*
X434699Y6402354D01*
X562882Y6447207D01*
X672150Y6527850D01*
X752793Y6637118D01*
X797646Y6765301D01*
X800499Y6795727D01*
X800500Y6795727D01*
X800500Y7349999D01*
X2200001Y7349999D01*
X2200001Y6795797D01*
X2202850Y6765400D01*
X2202850Y6765398D01*
X2247654Y6637353D01*
X2328207Y6528210D01*
X2328209Y6528208D01*
X2437352Y6447655D01*
X2565398Y6402851D01*
X2595789Y6400001D01*
X2912498Y6400001D01*
X2912500Y6400002D01*
X2912500Y7349999D01*
X3212500Y7349999D01*
X3212500Y6400002D01*
X3212501Y6400001D01*
X3529203Y6400001D01*
X3559600Y6402851D01*
X3559602Y6402851D01*
X3687647Y6447655D01*
X3796790Y6528208D01*
X3796792Y6528210D01*
X3877345Y6637353D01*
X3922149Y6765399D01*
X3924999Y6795789D01*
X3925000Y6795790D01*
X3925000Y7349999D01*
X3924999Y7350000D01*
X3212501Y7350000D01*
X3212500Y7349999D01*
X2912500Y7349999D01*
X2912499Y7350000D01*
X2200002Y7350000D01*
X2200001Y7349999D01*
X800500Y7349999D01*
X800500Y8204212D01*
X2200000Y8204212D01*
X2200000Y7650001D01*
X2200001Y7650000D01*
X2912499Y7650000D01*
X2912500Y7650001D01*
X2912500Y8599999D01*
X3212500Y8599999D01*
X3212500Y7650001D01*
X3212501Y7650000D01*
X3924998Y7650000D01*
X3924999Y7650001D01*
X3924999Y8121290D01*
X6149500Y8121290D01*
X6149500Y7878711D01*
X6181161Y7638219D01*
X6181161Y7638214D01*
X6243944Y7403908D01*
X6243948Y7403895D01*
X6336772Y7179796D01*
X6336774Y7179792D01*
X6336776Y7179788D01*
X6458064Y6969711D01*
X6458066Y6969708D01*
X6605729Y6777269D01*
X6605731Y6777267D01*
X6605735Y6777262D01*
X6777262Y6605735D01*
X6777266Y6605732D01*
X6777268Y6605730D01*
X6878297Y6528208D01*
X6969711Y6458064D01*
X7179788Y6336776D01*
X7403900Y6243946D01*
X7638211Y6181162D01*
X7878712Y6149500D01*
X7878713Y6149500D01*
X8121287Y6149500D01*
X8121288Y6149500D01*
X8361789Y6181162D01*
X8596100Y6243946D01*
X8820212Y6336776D01*
X9030289Y6458064D01*
X9222738Y6605735D01*
X9394265Y6777262D01*
X9541936Y6969711D01*
X9663224Y7179788D01*
X9756054Y7403900D01*
X9818838Y7638211D01*
X9850500Y7878712D01*
X9850500Y8121288D01*
X9818838Y8361789D01*
X9756054Y8596100D01*
X9663224Y8820212D01*
X9541936Y9030289D01*
X9394265Y9222738D01*
X9222738Y9394265D01*
X9222733Y9394269D01*
X9222731Y9394271D01*
X9030292Y9541934D01*
X9030289Y9541936D01*
X8820212Y9663224D01*
X8820208Y9663226D01*
X8820204Y9663228D01*
X8596105Y9756052D01*
X8596104Y9756053D01*
X8596100Y9756054D01*
X8361789Y9818838D01*
X8361786Y9818839D01*
X8361784Y9818839D01*
X8121289Y9850500D01*
X8121288Y9850500D01*
X7878712Y9850500D01*
X7878710Y9850500D01*
X7638218Y9818839D01*
X7638213Y9818839D01*
X7403907Y9756056D01*
X7403894Y9756052D01*
X7179795Y9663228D01*
X6969707Y9541934D01*
X6777268Y9394271D01*
X6605729Y9222732D01*
X6458066Y9030293D01*
X6336772Y8820205D01*
X6243948Y8596106D01*
X6243944Y8596093D01*
X6181161Y8361787D01*
X6181161Y8361782D01*
X6149500Y8121290D01*
X3924999Y8121290D01*
X3924999Y8204204D01*
X3922149Y8234601D01*
X3922149Y8234603D01*
X3877345Y8362648D01*
X3796792Y8471791D01*
X3796790Y8471793D01*
X3687647Y8552346D01*
X3559601Y8597150D01*
X3529211Y8600000D01*
X3212501Y8600000D01*
X3212500Y8599999D01*
X2912500Y8599999D01*
X2912499Y8600000D01*
X2595796Y8600000D01*
X2565399Y8597150D01*
X2565397Y8597150D01*
X2437352Y8552346D01*
X2328209Y8471793D01*
X2328207Y8471791D01*
X2247654Y8362648D01*
X2202850Y8234602D01*
X2200000Y8204212D01*
X800500Y8204212D01*
X800500Y8204273D01*
X800499Y8204275D01*
X797646Y8234695D01*
X797646Y8234699D01*
X752793Y8362882D01*
X672413Y8471793D01*
X672154Y8472145D01*
X672152Y8472147D01*
X672150Y8472150D01*
X672146Y8472153D01*
X672144Y8472155D01*
X562883Y8552793D01*
X434703Y8597645D01*
X434694Y8597647D01*
X404274Y8600500D01*
X404266Y8600500D01*
X-529266Y8600500D01*
X-529275Y8600500D01*
X-559695Y8597647D01*
X-559704Y8597645D01*
X-687884Y8552793D01*
X-797145Y8472155D01*
X-797155Y8472145D01*
X-877793Y8362884D01*
X-922645Y8234704D01*
X-922647Y8234695D01*
X-925500Y8204275D01*
X-925500Y6795726D01*
X-922647Y6765306D01*
X-922645Y6765297D01*
X-877793Y6637117D01*
X-797155Y6527856D01*
X-797153Y6527854D01*
X-797150Y6527850D01*
X-797147Y6527848D01*
X-797145Y6527846D01*
X-687884Y6447208D01*
X-687883Y6447208D01*
X-687882Y6447207D01*
X-559699Y6402354D01*
X-529275Y6399501D01*
X-529273Y6399500D01*
X-529266Y6399500D01*
X-462000Y6399500D01*
X-403809Y6380593D01*
X-367845Y6331093D01*
X-363000Y6300500D01*
X-363000Y4399500D01*
X-381907Y4341309D01*
X-431407Y4305345D01*
X-462000Y4300500D01*
X-7039565Y4300500D01*
X-7115988Y4280022D01*
X-7173164Y4247011D01*
X-7173165Y4247011D01*
X-7184508Y4240463D01*
X-7845475Y3579496D01*
X-7899992Y3551719D01*
X-7915479Y3550500D01*
X-9369748Y3550500D01*
X-9369749Y3550500D01*
X-9369759Y3550499D01*
X-9428228Y3538868D01*
X-9428234Y3538866D01*
X-9494549Y3494555D01*
X-9494555Y3494549D01*
X-9538866Y3428234D01*
X-9538868Y3428228D01*
X-9550499Y3369759D01*
X-9550500Y3369747D01*
X-10499500Y3369747D01*
X-10499500Y8121290D01*
X-9850500Y8121290D01*
X-9850500Y7878711D01*
X-9818839Y7638219D01*
X-9818839Y7638214D01*
X-9756056Y7403908D01*
X-9756052Y7403895D01*
X-9663228Y7179796D01*
X-9663226Y7179792D01*
X-9663224Y7179788D01*
X-9541936Y6969711D01*
X-9541934Y6969708D01*
X-9394271Y6777269D01*
X-9394269Y6777267D01*
X-9394265Y6777262D01*
X-9222738Y6605735D01*
X-9222734Y6605732D01*
X-9222732Y6605730D01*
X-9121703Y6528208D01*
X-9030289Y6458064D01*
X-8820212Y6336776D01*
X-8596100Y6243946D01*
X-8361789Y6181162D01*
X-8121288Y6149500D01*
X-8121287Y6149500D01*
X-7878713Y6149500D01*
X-7878712Y6149500D01*
X-7638211Y6181162D01*
X-7403900Y6243946D01*
X-7179788Y6336776D01*
X-6969711Y6458064D01*
X-6777262Y6605735D01*
X-6605735Y6777262D01*
X-6458064Y6969711D01*
X-6336776Y7179788D01*
X-6243946Y7403900D01*
X-6181162Y7638211D01*
X-6149500Y7878712D01*
X-6149500Y8121288D01*
X-6181162Y8361789D01*
X-6243946Y8596100D01*
X-6336776Y8820212D01*
X-6458064Y9030289D01*
X-6605735Y9222738D01*
X-6777262Y9394265D01*
X-6777267Y9394269D01*
X-6777269Y9394271D01*
X-6969708Y9541934D01*
X-6969711Y9541936D01*
X-7179788Y9663224D01*
X-7179792Y9663226D01*
X-7179796Y9663228D01*
X-7403895Y9756052D01*
X-7403896Y9756053D01*
X-7403900Y9756054D01*
X-7638211Y9818838D01*
X-7638214Y9818839D01*
X-7638216Y9818839D01*
X-7878711Y9850500D01*
X-7878712Y9850500D01*
X-8121288Y9850500D01*
X-8121290Y9850500D01*
X-8361782Y9818839D01*
X-8361787Y9818839D01*
X-8596093Y9756056D01*
X-8596106Y9756052D01*
X-8820205Y9663228D01*
X-9030293Y9541934D01*
X-9222732Y9394271D01*
X-9394271Y9222732D01*
X-9541934Y9030293D01*
X-9663228Y8820205D01*
X-9756052Y8596106D01*
X-9756056Y8596093D01*
X-9818839Y8361787D01*
X-9818839Y8361782D01*
X-9850500Y8121290D01*
X-10499500Y8121290D01*
X-10499500Y10400500D01*
X-10480593Y10458691D01*
X-10431093Y10494655D01*
X-10400500Y10499500D01*
X10400500Y10499500D01*
X10458691Y10480593D01*
G37*
%TD.AperFunction*%
%TD*%
M02*
