%TF.GenerationSoftware,KiCad,Pcbnew,10.0.1*%
%TF.CreationDate,2026-04-28T11:37:28-04:00*%
%TF.ProjectId,readout1,72656164-6f75-4743-912e-6b696361645f,rev?*%
%TF.SameCoordinates,PX3473bc0PY3473bc0*%
%TF.FileFunction,Copper,L4,Bot*%
%TF.FilePolarity,Positive*%
%FSLAX46Y46*%
G04 Gerber Fmt 4.6, Leading zero omitted, Abs format (unit mm)*
G04 Created by KiCad (PCBNEW 10.0.1) date 2026-04-28 11:37:28*
%MOMM*%
%LPD*%
G01*
G04 APERTURE LIST*
%TA.AperFunction,ComponentPad*%
%ADD10R,1.700000X1.700000*%
%TD*%
%TA.AperFunction,ComponentPad*%
%ADD11C,1.700000*%
%TD*%
G04 APERTURE END LIST*
D10*
%TO.P,J1,1,Pin_1_1*%
%TO.N,FAST*%
X8500000Y2500000D03*
D11*
%TO.P,J1,2,Pin_2_2*%
%TO.N,ANODE*%
X8500000Y-40000D03*
%TO.P,J1,3,Pin_3_3*%
%TO.N,GNDA*%
X8500000Y-2580000D03*
%TD*%
D10*
%TO.P,J2,1,Pin_1_1*%
%TO.N,+BIAS*%
X-8500000Y2500000D03*
D11*
%TO.P,J2,2,Pin_2_2*%
%TO.N,TEMP*%
X-8500000Y-40000D03*
%TO.P,J2,3,Pin_3_3*%
%TO.N,+3.3V*%
X-8500000Y-2580000D03*
%TD*%
%TA.AperFunction,NonConductor*%
G36*
X10458691Y10480593D02*
G01*
X10494655Y10431093D01*
X10499500Y10400500D01*
X10499500Y-10400500D01*
X10480593Y-10458691D01*
X10431093Y-10494655D01*
X10400500Y-10499500D01*
X-10400500Y-10499500D01*
X-10458691Y-10480593D01*
X-10494655Y-10431093D01*
X-10499500Y-10400500D01*
X-10499500Y-7878710D01*
X-9850500Y-7878710D01*
X-9850500Y-8121289D01*
X-9818839Y-8361781D01*
X-9818839Y-8361786D01*
X-9756056Y-8596092D01*
X-9756052Y-8596105D01*
X-9663228Y-8820204D01*
X-9663226Y-8820208D01*
X-9663224Y-8820212D01*
X-9541936Y-9030289D01*
X-9541934Y-9030292D01*
X-9394271Y-9222731D01*
X-9394269Y-9222733D01*
X-9394265Y-9222738D01*
X-9222738Y-9394265D01*
X-9222734Y-9394268D01*
X-9222732Y-9394270D01*
X-9030293Y-9541933D01*
X-9030289Y-9541936D01*
X-8820212Y-9663224D01*
X-8596100Y-9756054D01*
X-8361789Y-9818838D01*
X-8121288Y-9850500D01*
X-8121287Y-9850500D01*
X-7878713Y-9850500D01*
X-7878712Y-9850500D01*
X-7638211Y-9818838D01*
X-7403900Y-9756054D01*
X-7179788Y-9663224D01*
X-6969711Y-9541936D01*
X-6777262Y-9394265D01*
X-6605735Y-9222738D01*
X-6458064Y-9030289D01*
X-6336776Y-8820212D01*
X-6243946Y-8596100D01*
X-6181162Y-8361789D01*
X-6149500Y-8121288D01*
X-6149500Y-7878712D01*
X-6149500Y-7878710D01*
X6149500Y-7878710D01*
X6149500Y-8121289D01*
X6181161Y-8361781D01*
X6181161Y-8361786D01*
X6243944Y-8596092D01*
X6243948Y-8596105D01*
X6336772Y-8820204D01*
X6336774Y-8820208D01*
X6336776Y-8820212D01*
X6458064Y-9030289D01*
X6458066Y-9030292D01*
X6605729Y-9222731D01*
X6605731Y-9222733D01*
X6605735Y-9222738D01*
X6777262Y-9394265D01*
X6777266Y-9394268D01*
X6777268Y-9394270D01*
X6969707Y-9541933D01*
X6969711Y-9541936D01*
X7179788Y-9663224D01*
X7403900Y-9756054D01*
X7638211Y-9818838D01*
X7878712Y-9850500D01*
X7878713Y-9850500D01*
X8121287Y-9850500D01*
X8121288Y-9850500D01*
X8361789Y-9818838D01*
X8596100Y-9756054D01*
X8820212Y-9663224D01*
X9030289Y-9541936D01*
X9222738Y-9394265D01*
X9394265Y-9222738D01*
X9541936Y-9030289D01*
X9663224Y-8820212D01*
X9756054Y-8596100D01*
X9818838Y-8361789D01*
X9850500Y-8121288D01*
X9850500Y-7878712D01*
X9818838Y-7638211D01*
X9756054Y-7403900D01*
X9663224Y-7179788D01*
X9541936Y-6969711D01*
X9394265Y-6777262D01*
X9222738Y-6605735D01*
X9222733Y-6605731D01*
X9222731Y-6605729D01*
X9030292Y-6458066D01*
X9030289Y-6458064D01*
X8820212Y-6336776D01*
X8820208Y-6336774D01*
X8820204Y-6336772D01*
X8596105Y-6243948D01*
X8596104Y-6243947D01*
X8596100Y-6243946D01*
X8361789Y-6181162D01*
X8361786Y-6181161D01*
X8361784Y-6181161D01*
X8121289Y-6149500D01*
X8121288Y-6149500D01*
X7878712Y-6149500D01*
X7878710Y-6149500D01*
X7638218Y-6181161D01*
X7638213Y-6181161D01*
X7403907Y-6243944D01*
X7403894Y-6243948D01*
X7179795Y-6336772D01*
X6969707Y-6458066D01*
X6777268Y-6605729D01*
X6605729Y-6777268D01*
X6458066Y-6969707D01*
X6336772Y-7179795D01*
X6243948Y-7403894D01*
X6243944Y-7403907D01*
X6181161Y-7638213D01*
X6181161Y-7638218D01*
X6149500Y-7878710D01*
X-6149500Y-7878710D01*
X-6181162Y-7638211D01*
X-6243946Y-7403900D01*
X-6336776Y-7179788D01*
X-6458064Y-6969711D01*
X-6605735Y-6777262D01*
X-6777262Y-6605735D01*
X-6777267Y-6605731D01*
X-6777269Y-6605729D01*
X-6969708Y-6458066D01*
X-6969711Y-6458064D01*
X-7179788Y-6336776D01*
X-7179792Y-6336774D01*
X-7179796Y-6336772D01*
X-7403895Y-6243948D01*
X-7403896Y-6243947D01*
X-7403900Y-6243946D01*
X-7638211Y-6181162D01*
X-7638214Y-6181161D01*
X-7638216Y-6181161D01*
X-7878711Y-6149500D01*
X-7878712Y-6149500D01*
X-8121288Y-6149500D01*
X-8121290Y-6149500D01*
X-8361782Y-6181161D01*
X-8361787Y-6181161D01*
X-8596093Y-6243944D01*
X-8596106Y-6243948D01*
X-8820205Y-6336772D01*
X-9030293Y-6458066D01*
X-9222732Y-6605729D01*
X-9394271Y-6777268D01*
X-9541934Y-6969707D01*
X-9663228Y-7179795D01*
X-9756052Y-7403894D01*
X-9756056Y-7403907D01*
X-9818839Y-7638213D01*
X-9818839Y-7638218D01*
X-9850500Y-7878710D01*
X-10499500Y-7878710D01*
X-10499500Y-2489450D01*
X-9650500Y-2489450D01*
X-9650500Y-2670549D01*
X-9622172Y-2849406D01*
X-9622171Y-2849409D01*
X-9566211Y-3021639D01*
X-9483996Y-3182994D01*
X-9377553Y-3329501D01*
X-9249501Y-3457553D01*
X-9102994Y-3563996D01*
X-8941639Y-3646211D01*
X-8769409Y-3702171D01*
X-8697864Y-3713502D01*
X-8590549Y-3730500D01*
X-8590546Y-3730500D01*
X-8409451Y-3730500D01*
X-8320023Y-3716335D01*
X-8230591Y-3702171D01*
X-8058361Y-3646211D01*
X-7897006Y-3563996D01*
X-7750499Y-3457553D01*
X-7622447Y-3329501D01*
X-7516004Y-3182994D01*
X-7433789Y-3021639D01*
X-7377829Y-2849409D01*
X-7349500Y-2670546D01*
X-7349500Y-2489454D01*
X-7349500Y-2489450D01*
X7349500Y-2489450D01*
X7349500Y-2670549D01*
X7377828Y-2849406D01*
X7377829Y-2849409D01*
X7433789Y-3021639D01*
X7516004Y-3182994D01*
X7622447Y-3329501D01*
X7750499Y-3457553D01*
X7897006Y-3563996D01*
X8058361Y-3646211D01*
X8230591Y-3702171D01*
X8302136Y-3713502D01*
X8409451Y-3730500D01*
X8409454Y-3730500D01*
X8590549Y-3730500D01*
X8679977Y-3716335D01*
X8769409Y-3702171D01*
X8941639Y-3646211D01*
X9102994Y-3563996D01*
X9249501Y-3457553D01*
X9377553Y-3329501D01*
X9483996Y-3182994D01*
X9566211Y-3021639D01*
X9622171Y-2849409D01*
X9650500Y-2670546D01*
X9650500Y-2489454D01*
X9650500Y-2489450D01*
X9622171Y-2310593D01*
X9622171Y-2310591D01*
X9566211Y-2138361D01*
X9483996Y-1977006D01*
X9377553Y-1830499D01*
X9249501Y-1702447D01*
X9102994Y-1596004D01*
X9102993Y-1596003D01*
X9102991Y-1596002D01*
X8941637Y-1513788D01*
X8769406Y-1457828D01*
X8590549Y-1429500D01*
X8590546Y-1429500D01*
X8409454Y-1429500D01*
X8409451Y-1429500D01*
X8230593Y-1457828D01*
X8058362Y-1513788D01*
X7897008Y-1596002D01*
X7823752Y-1649225D01*
X7750499Y-1702447D01*
X7622447Y-1830499D01*
X7569225Y-1903752D01*
X7516002Y-1977008D01*
X7433788Y-2138362D01*
X7377828Y-2310593D01*
X7349500Y-2489450D01*
X-7349500Y-2489450D01*
X-7377829Y-2310593D01*
X-7377829Y-2310591D01*
X-7433789Y-2138361D01*
X-7516004Y-1977006D01*
X-7622447Y-1830499D01*
X-7750499Y-1702447D01*
X-7897006Y-1596004D01*
X-7897007Y-1596003D01*
X-7897009Y-1596002D01*
X-8058363Y-1513788D01*
X-8230594Y-1457828D01*
X-8409451Y-1429500D01*
X-8409454Y-1429500D01*
X-8590546Y-1429500D01*
X-8590549Y-1429500D01*
X-8769407Y-1457828D01*
X-8941638Y-1513788D01*
X-9102992Y-1596002D01*
X-9176248Y-1649225D01*
X-9249501Y-1702447D01*
X-9377553Y-1830499D01*
X-9430775Y-1903752D01*
X-9483998Y-1977008D01*
X-9566212Y-2138362D01*
X-9622172Y-2310593D01*
X-9650500Y-2489450D01*
X-10499500Y-2489450D01*
X-10499500Y50550D01*
X-9650500Y50550D01*
X-9650500Y-130549D01*
X-9622172Y-309406D01*
X-9622171Y-309409D01*
X-9566211Y-481639D01*
X-9483996Y-642994D01*
X-9377553Y-789501D01*
X-9249501Y-917553D01*
X-9102994Y-1023996D01*
X-8941639Y-1106211D01*
X-8769409Y-1162171D01*
X-8697864Y-1173502D01*
X-8590549Y-1190500D01*
X-8590546Y-1190500D01*
X-8409451Y-1190500D01*
X-8320023Y-1176335D01*
X-8230591Y-1162171D01*
X-8058361Y-1106211D01*
X-7897006Y-1023996D01*
X-7750499Y-917553D01*
X-7622447Y-789501D01*
X-7516004Y-642994D01*
X-7433789Y-481639D01*
X-7377829Y-309409D01*
X-7349500Y-130546D01*
X-7349500Y50546D01*
X-7349500Y50550D01*
X7349500Y50550D01*
X7349500Y-130549D01*
X7377828Y-309406D01*
X7377829Y-309409D01*
X7433789Y-481639D01*
X7516004Y-642994D01*
X7622447Y-789501D01*
X7750499Y-917553D01*
X7897006Y-1023996D01*
X8058361Y-1106211D01*
X8230591Y-1162171D01*
X8302136Y-1173502D01*
X8409451Y-1190500D01*
X8409454Y-1190500D01*
X8590549Y-1190500D01*
X8679977Y-1176335D01*
X8769409Y-1162171D01*
X8941639Y-1106211D01*
X9102994Y-1023996D01*
X9249501Y-917553D01*
X9377553Y-789501D01*
X9483996Y-642994D01*
X9566211Y-481639D01*
X9622171Y-309409D01*
X9650500Y-130546D01*
X9650500Y50546D01*
X9650500Y50550D01*
X9622171Y229407D01*
X9622171Y229409D01*
X9566211Y401639D01*
X9483996Y562994D01*
X9377553Y709501D01*
X9249501Y837553D01*
X9102994Y943996D01*
X9102993Y943997D01*
X9102991Y943998D01*
X8941637Y1026212D01*
X8769406Y1082172D01*
X8590549Y1110500D01*
X8590546Y1110500D01*
X8409454Y1110500D01*
X8409451Y1110500D01*
X8230593Y1082172D01*
X8058362Y1026212D01*
X7897008Y943998D01*
X7823752Y890775D01*
X7750499Y837553D01*
X7622447Y709501D01*
X7569225Y636248D01*
X7516002Y562992D01*
X7433788Y401638D01*
X7377828Y229407D01*
X7349500Y50550D01*
X-7349500Y50550D01*
X-7377829Y229407D01*
X-7377829Y229409D01*
X-7433789Y401639D01*
X-7516004Y562994D01*
X-7622447Y709501D01*
X-7750499Y837553D01*
X-7897006Y943996D01*
X-7897007Y943997D01*
X-7897009Y943998D01*
X-8058363Y1026212D01*
X-8230594Y1082172D01*
X-8409451Y1110500D01*
X-8409454Y1110500D01*
X-8590546Y1110500D01*
X-8590549Y1110500D01*
X-8769407Y1082172D01*
X-8941638Y1026212D01*
X-9102992Y943998D01*
X-9176248Y890775D01*
X-9249501Y837553D01*
X-9377553Y709501D01*
X-9430775Y636248D01*
X-9483998Y562992D01*
X-9566212Y401638D01*
X-9622172Y229407D01*
X-9650500Y50550D01*
X-10499500Y50550D01*
X-10499500Y3394870D01*
X-9650500Y3394870D01*
X-9650500Y1605140D01*
X-9650499Y1605137D01*
X-9647586Y1580010D01*
X-9622244Y1522615D01*
X-9602206Y1477235D01*
X-9522765Y1397794D01*
X-9419991Y1352415D01*
X-9394865Y1349500D01*
X-7605136Y1349501D01*
X-7580009Y1352415D01*
X-7477235Y1397794D01*
X-7397794Y1477235D01*
X-7352415Y1580009D01*
X-7349500Y1605135D01*
X-7349501Y3394864D01*
X-7349502Y3394870D01*
X7349500Y3394870D01*
X7349500Y1605140D01*
X7349501Y1605137D01*
X7352414Y1580010D01*
X7377756Y1522615D01*
X7397794Y1477235D01*
X7477235Y1397794D01*
X7580009Y1352415D01*
X7605135Y1349500D01*
X9394864Y1349501D01*
X9419991Y1352415D01*
X9522765Y1397794D01*
X9602206Y1477235D01*
X9647585Y1580009D01*
X9650500Y1605135D01*
X9650499Y3394864D01*
X9647585Y3419991D01*
X9602206Y3522765D01*
X9522765Y3602206D01*
X9419991Y3647585D01*
X9419990Y3647586D01*
X9419988Y3647586D01*
X9394868Y3650500D01*
X7605139Y3650500D01*
X7605136Y3650499D01*
X7580009Y3647586D01*
X7477235Y3602206D01*
X7397794Y3522765D01*
X7352414Y3419989D01*
X7349500Y3394870D01*
X-7349502Y3394870D01*
X-7352415Y3419991D01*
X-7397794Y3522765D01*
X-7477235Y3602206D01*
X-7580009Y3647585D01*
X-7580010Y3647586D01*
X-7580012Y3647586D01*
X-7605132Y3650500D01*
X-9394861Y3650500D01*
X-9394864Y3650499D01*
X-9419991Y3647586D01*
X-9522765Y3602206D01*
X-9602206Y3522765D01*
X-9647586Y3419989D01*
X-9650500Y3394870D01*
X-10499500Y3394870D01*
X-10499500Y8121290D01*
X-9850500Y8121290D01*
X-9850500Y7878711D01*
X-9818839Y7638219D01*
X-9818839Y7638214D01*
X-9756056Y7403908D01*
X-9756052Y7403895D01*
X-9663228Y7179796D01*
X-9663226Y7179792D01*
X-9663224Y7179788D01*
X-9541936Y6969711D01*
X-9541934Y6969708D01*
X-9394271Y6777269D01*
X-9394269Y6777267D01*
X-9394265Y6777262D01*
X-9222738Y6605735D01*
X-9222734Y6605732D01*
X-9222732Y6605730D01*
X-9030293Y6458067D01*
X-9030289Y6458064D01*
X-8820212Y6336776D01*
X-8596100Y6243946D01*
X-8361789Y6181162D01*
X-8121288Y6149500D01*
X-8121287Y6149500D01*
X-7878713Y6149500D01*
X-7878712Y6149500D01*
X-7638211Y6181162D01*
X-7403900Y6243946D01*
X-7179788Y6336776D01*
X-6969711Y6458064D01*
X-6777262Y6605735D01*
X-6605735Y6777262D01*
X-6458064Y6969711D01*
X-6336776Y7179788D01*
X-6243946Y7403900D01*
X-6181162Y7638211D01*
X-6149500Y7878712D01*
X-6149500Y8121288D01*
X-6149500Y8121290D01*
X6149500Y8121290D01*
X6149500Y7878711D01*
X6181161Y7638219D01*
X6181161Y7638214D01*
X6243944Y7403908D01*
X6243948Y7403895D01*
X6336772Y7179796D01*
X6336774Y7179792D01*
X6336776Y7179788D01*
X6458064Y6969711D01*
X6458066Y6969708D01*
X6605729Y6777269D01*
X6605731Y6777267D01*
X6605735Y6777262D01*
X6777262Y6605735D01*
X6777266Y6605732D01*
X6777268Y6605730D01*
X6969707Y6458067D01*
X6969711Y6458064D01*
X7179788Y6336776D01*
X7403900Y6243946D01*
X7638211Y6181162D01*
X7878712Y6149500D01*
X7878713Y6149500D01*
X8121287Y6149500D01*
X8121288Y6149500D01*
X8361789Y6181162D01*
X8596100Y6243946D01*
X8820212Y6336776D01*
X9030289Y6458064D01*
X9222738Y6605735D01*
X9394265Y6777262D01*
X9541936Y6969711D01*
X9663224Y7179788D01*
X9756054Y7403900D01*
X9818838Y7638211D01*
X9850500Y7878712D01*
X9850500Y8121288D01*
X9818838Y8361789D01*
X9756054Y8596100D01*
X9663224Y8820212D01*
X9541936Y9030289D01*
X9394265Y9222738D01*
X9222738Y9394265D01*
X9222733Y9394269D01*
X9222731Y9394271D01*
X9030292Y9541934D01*
X9030289Y9541936D01*
X8820212Y9663224D01*
X8820208Y9663226D01*
X8820204Y9663228D01*
X8596105Y9756052D01*
X8596104Y9756053D01*
X8596100Y9756054D01*
X8361789Y9818838D01*
X8361786Y9818839D01*
X8361784Y9818839D01*
X8121289Y9850500D01*
X8121288Y9850500D01*
X7878712Y9850500D01*
X7878710Y9850500D01*
X7638218Y9818839D01*
X7638213Y9818839D01*
X7403907Y9756056D01*
X7403894Y9756052D01*
X7179795Y9663228D01*
X6969707Y9541934D01*
X6777268Y9394271D01*
X6605729Y9222732D01*
X6458066Y9030293D01*
X6336772Y8820205D01*
X6243948Y8596106D01*
X6243944Y8596093D01*
X6181161Y8361787D01*
X6181161Y8361782D01*
X6149500Y8121290D01*
X-6149500Y8121290D01*
X-6181162Y8361789D01*
X-6243946Y8596100D01*
X-6336776Y8820212D01*
X-6458064Y9030289D01*
X-6605735Y9222738D01*
X-6777262Y9394265D01*
X-6777267Y9394269D01*
X-6777269Y9394271D01*
X-6969708Y9541934D01*
X-6969711Y9541936D01*
X-7179788Y9663224D01*
X-7179792Y9663226D01*
X-7179796Y9663228D01*
X-7403895Y9756052D01*
X-7403896Y9756053D01*
X-7403900Y9756054D01*
X-7638211Y9818838D01*
X-7638214Y9818839D01*
X-7638216Y9818839D01*
X-7878711Y9850500D01*
X-7878712Y9850500D01*
X-8121288Y9850500D01*
X-8121290Y9850500D01*
X-8361782Y9818839D01*
X-8361787Y9818839D01*
X-8596093Y9756056D01*
X-8596106Y9756052D01*
X-8820205Y9663228D01*
X-9030293Y9541934D01*
X-9222732Y9394271D01*
X-9394271Y9222732D01*
X-9541934Y9030293D01*
X-9663228Y8820205D01*
X-9756052Y8596106D01*
X-9756056Y8596093D01*
X-9818839Y8361787D01*
X-9818839Y8361782D01*
X-9850500Y8121290D01*
X-10499500Y8121290D01*
X-10499500Y10400500D01*
X-10480593Y10458691D01*
X-10431093Y10494655D01*
X-10400500Y10499500D01*
X10400500Y10499500D01*
X10458691Y10480593D01*
G37*
%TD.AperFunction*%
M02*
