%TF.GenerationSoftware,KiCad,Pcbnew,10.0.1*%
%TF.CreationDate,2026-04-28T11:37:29-04:00*%
%TF.ProjectId,readout1,72656164-6f75-4743-912e-6b696361645f,rev?*%
%TF.SameCoordinates,PX3473bc0PY3473bc0*%
%TF.FileFunction,Soldermask,Top*%
%TF.FilePolarity,Negative*%
%FSLAX46Y46*%
G04 Gerber Fmt 4.6, Leading zero omitted, Abs format (unit mm)*
G04 Created by KiCad (PCBNEW 10.0.1) date 2026-04-28 11:37:29*
%MOMM*%
%LPD*%
G01*
G04 APERTURE LIST*
G04 APERTURE END LIST*
G36*
X-3292299Y-8369531D02*
G01*
X-3236238Y-8376912D01*
X-3222136Y-8383487D01*
X-3203564Y-8387182D01*
X-3178965Y-8403618D01*
X-3155990Y-8414332D01*
X-3142013Y-8428309D01*
X-3121809Y-8441809D01*
X-3108310Y-8462012D01*
X-3094333Y-8475989D01*
X-3083621Y-8498962D01*
X-3067182Y-8523564D01*
X-3063488Y-8542136D01*
X-3056913Y-8556236D01*
X-3049535Y-8612286D01*
X-3048000Y-8620000D01*
X-3048000Y-9710000D01*
X-3049535Y-9717716D01*
X-3056913Y-9773762D01*
X-3063488Y-9787860D01*
X-3067182Y-9806436D01*
X-3083623Y-9831040D01*
X-3094333Y-9854010D01*
X-3108308Y-9867984D01*
X-3121809Y-9888191D01*
X-3142016Y-9901692D01*
X-3155990Y-9915667D01*
X-3178961Y-9926378D01*
X-3203564Y-9942818D01*
X-3222139Y-9946512D01*
X-3236237Y-9953087D01*
X-3292283Y-9960464D01*
X-3300000Y-9962000D01*
X-3600000Y-9962000D01*
X-3607715Y-9960465D01*
X-3663763Y-9953087D01*
X-3677863Y-9946512D01*
X-3696436Y-9942818D01*
X-3721039Y-9926379D01*
X-3744011Y-9915667D01*
X-3757988Y-9901690D01*
X-3778191Y-9888191D01*
X-3791691Y-9867987D01*
X-3805668Y-9854010D01*
X-3816382Y-9831034D01*
X-3832818Y-9806436D01*
X-3836512Y-9787865D01*
X-3843088Y-9773763D01*
X-3850469Y-9717701D01*
X-3852000Y-9710000D01*
X-3852000Y-8620000D01*
X-3850469Y-8612300D01*
X-3843088Y-8556237D01*
X-3836512Y-8542134D01*
X-3832818Y-8523564D01*
X-3816383Y-8498966D01*
X-3805668Y-8475989D01*
X-3791689Y-8462009D01*
X-3778191Y-8441809D01*
X-3757991Y-8428311D01*
X-3744011Y-8414332D01*
X-3721033Y-8403616D01*
X-3696436Y-8387182D01*
X-3677868Y-8383488D01*
X-3663764Y-8376912D01*
X-3607701Y-8369531D01*
X-3600000Y-8368000D01*
X-3300000Y-8368000D01*
X-3292299Y-8369531D01*
G37*
G36*
X-1392299Y-8369531D02*
G01*
X-1336238Y-8376912D01*
X-1322136Y-8383487D01*
X-1303564Y-8387182D01*
X-1278965Y-8403618D01*
X-1255990Y-8414332D01*
X-1242013Y-8428309D01*
X-1221809Y-8441809D01*
X-1208310Y-8462012D01*
X-1194333Y-8475989D01*
X-1183621Y-8498962D01*
X-1167182Y-8523564D01*
X-1163488Y-8542136D01*
X-1156913Y-8556236D01*
X-1149535Y-8612286D01*
X-1148000Y-8620000D01*
X-1148000Y-9710000D01*
X-1149535Y-9717716D01*
X-1156913Y-9773762D01*
X-1163488Y-9787860D01*
X-1167182Y-9806436D01*
X-1183623Y-9831040D01*
X-1194333Y-9854010D01*
X-1208308Y-9867984D01*
X-1221809Y-9888191D01*
X-1242016Y-9901692D01*
X-1255990Y-9915667D01*
X-1278961Y-9926378D01*
X-1303564Y-9942818D01*
X-1322139Y-9946512D01*
X-1336237Y-9953087D01*
X-1392283Y-9960464D01*
X-1400000Y-9962000D01*
X-1700000Y-9962000D01*
X-1707715Y-9960465D01*
X-1763763Y-9953087D01*
X-1777863Y-9946512D01*
X-1796436Y-9942818D01*
X-1821039Y-9926379D01*
X-1844011Y-9915667D01*
X-1857988Y-9901690D01*
X-1878191Y-9888191D01*
X-1891691Y-9867987D01*
X-1905668Y-9854010D01*
X-1916382Y-9831034D01*
X-1932818Y-9806436D01*
X-1936512Y-9787865D01*
X-1943088Y-9773763D01*
X-1950469Y-9717701D01*
X-1952000Y-9710000D01*
X-1952000Y-8620000D01*
X-1950469Y-8612300D01*
X-1943088Y-8556237D01*
X-1936512Y-8542134D01*
X-1932818Y-8523564D01*
X-1916383Y-8498966D01*
X-1905668Y-8475989D01*
X-1891689Y-8462009D01*
X-1878191Y-8441809D01*
X-1857991Y-8428311D01*
X-1844011Y-8414332D01*
X-1821033Y-8403616D01*
X-1796436Y-8387182D01*
X-1777868Y-8383488D01*
X-1763764Y-8376912D01*
X-1707701Y-8369531D01*
X-1700000Y-8368000D01*
X-1400000Y-8368000D01*
X-1392299Y-8369531D01*
G37*
G36*
X-7626487Y-6444208D02*
G01*
X-7387707Y-6521793D01*
X-7164002Y-6635776D01*
X-6960883Y-6783350D01*
X-6783350Y-6960883D01*
X-6635776Y-7164002D01*
X-6521793Y-7387707D01*
X-6444208Y-7626487D01*
X-6404932Y-7874465D01*
X-6404932Y-8125535D01*
X-6444208Y-8373513D01*
X-6521793Y-8612293D01*
X-6635776Y-8835998D01*
X-6783350Y-9039117D01*
X-6960883Y-9216650D01*
X-7164002Y-9364224D01*
X-7387707Y-9478207D01*
X-7626487Y-9555792D01*
X-7874465Y-9595068D01*
X-8125535Y-9595068D01*
X-8373513Y-9555792D01*
X-8612293Y-9478207D01*
X-8835998Y-9364224D01*
X-9039117Y-9216650D01*
X-9216650Y-9039117D01*
X-9364224Y-8835998D01*
X-9478207Y-8612293D01*
X-9555792Y-8373513D01*
X-9595068Y-8125535D01*
X-9595068Y-7874465D01*
X-9555792Y-7626487D01*
X-9478207Y-7387707D01*
X-9364224Y-7164002D01*
X-9216650Y-6960883D01*
X-9039117Y-6783350D01*
X-8835998Y-6635776D01*
X-8612293Y-6521793D01*
X-8373513Y-6444208D01*
X-8125535Y-6404932D01*
X-7874465Y-6404932D01*
X-7626487Y-6444208D01*
G37*
G36*
X8373513Y-6444208D02*
G01*
X8612293Y-6521793D01*
X8835998Y-6635776D01*
X9039117Y-6783350D01*
X9216650Y-6960883D01*
X9364224Y-7164002D01*
X9478207Y-7387707D01*
X9555792Y-7626487D01*
X9595068Y-7874465D01*
X9595068Y-8125535D01*
X9555792Y-8373513D01*
X9478207Y-8612293D01*
X9364224Y-8835998D01*
X9216650Y-9039117D01*
X9039117Y-9216650D01*
X8835998Y-9364224D01*
X8612293Y-9478207D01*
X8373513Y-9555792D01*
X8125535Y-9595068D01*
X7874465Y-9595068D01*
X7626487Y-9555792D01*
X7387707Y-9478207D01*
X7164002Y-9364224D01*
X6960883Y-9216650D01*
X6783350Y-9039117D01*
X6635776Y-8835998D01*
X6521793Y-8612293D01*
X6444208Y-8373513D01*
X6404932Y-8125535D01*
X6404932Y-7874465D01*
X6444208Y-7626487D01*
X6521793Y-7387707D01*
X6635776Y-7164002D01*
X6783350Y-6960883D01*
X6960883Y-6783350D01*
X7164002Y-6635776D01*
X7387707Y-6521793D01*
X7626487Y-6444208D01*
X7874465Y-6404932D01*
X8125535Y-6404932D01*
X8373513Y-6444208D01*
G37*
G36*
X854850Y-7125964D02*
G01*
X905040Y-7131787D01*
X922189Y-7139359D01*
X945671Y-7144030D01*
X970810Y-7160827D01*
X990696Y-7169608D01*
X1004277Y-7183189D01*
X1026777Y-7198223D01*
X1041810Y-7220722D01*
X1055391Y-7234303D01*
X1064170Y-7254186D01*
X1080970Y-7279329D01*
X1085641Y-7302812D01*
X1093212Y-7319959D01*
X1099033Y-7370139D01*
X1100000Y-7375000D01*
X1100000Y-8625000D01*
X1099032Y-8629863D01*
X1093212Y-8680040D01*
X1085641Y-8697185D01*
X1080970Y-8720671D01*
X1064169Y-8745815D01*
X1055391Y-8765696D01*
X1041812Y-8779274D01*
X1026777Y-8801777D01*
X1004274Y-8816812D01*
X990696Y-8830391D01*
X970815Y-8839169D01*
X945671Y-8855970D01*
X922185Y-8860641D01*
X905040Y-8868212D01*
X854861Y-8874032D01*
X850000Y-8875000D01*
X50000Y-8875000D01*
X45138Y-8874032D01*
X-5041Y-8868212D01*
X-22188Y-8860641D01*
X-45671Y-8855970D01*
X-70814Y-8839170D01*
X-90697Y-8830391D01*
X-104278Y-8816810D01*
X-126777Y-8801777D01*
X-141811Y-8779277D01*
X-155392Y-8765696D01*
X-164173Y-8745810D01*
X-180970Y-8720671D01*
X-185641Y-8697189D01*
X-193213Y-8680040D01*
X-199036Y-8629849D01*
X-200000Y-8625000D01*
X-200000Y-7375000D01*
X-199036Y-7370150D01*
X-193213Y-7319959D01*
X-185641Y-7302808D01*
X-180970Y-7279329D01*
X-164174Y-7254191D01*
X-155392Y-7234303D01*
X-141809Y-7220719D01*
X-126777Y-7198223D01*
X-104281Y-7183191D01*
X-90697Y-7169608D01*
X-70809Y-7160826D01*
X-45671Y-7144030D01*
X-22192Y-7139359D01*
X-5041Y-7131787D01*
X45151Y-7125964D01*
X50000Y-7125000D01*
X850000Y-7125000D01*
X854850Y-7125964D01*
G37*
G36*
X3954850Y-7125964D02*
G01*
X4005040Y-7131787D01*
X4022189Y-7139359D01*
X4045671Y-7144030D01*
X4070810Y-7160827D01*
X4090696Y-7169608D01*
X4104277Y-7183189D01*
X4126777Y-7198223D01*
X4141810Y-7220722D01*
X4155391Y-7234303D01*
X4164170Y-7254186D01*
X4180970Y-7279329D01*
X4185641Y-7302812D01*
X4193212Y-7319959D01*
X4199033Y-7370139D01*
X4200000Y-7375000D01*
X4200000Y-8625000D01*
X4199032Y-8629863D01*
X4193212Y-8680040D01*
X4185641Y-8697185D01*
X4180970Y-8720671D01*
X4164169Y-8745815D01*
X4155391Y-8765696D01*
X4141812Y-8779274D01*
X4126777Y-8801777D01*
X4104274Y-8816812D01*
X4090696Y-8830391D01*
X4070815Y-8839169D01*
X4045671Y-8855970D01*
X4022185Y-8860641D01*
X4005040Y-8868212D01*
X3954861Y-8874032D01*
X3950000Y-8875000D01*
X3150000Y-8875000D01*
X3145138Y-8874032D01*
X3094959Y-8868212D01*
X3077812Y-8860641D01*
X3054329Y-8855970D01*
X3029186Y-8839170D01*
X3009303Y-8830391D01*
X2995722Y-8816810D01*
X2973223Y-8801777D01*
X2958189Y-8779277D01*
X2944608Y-8765696D01*
X2935827Y-8745810D01*
X2919030Y-8720671D01*
X2914359Y-8697189D01*
X2906787Y-8680040D01*
X2900964Y-8629849D01*
X2900000Y-8625000D01*
X2900000Y-7375000D01*
X2900964Y-7370150D01*
X2906787Y-7319959D01*
X2914359Y-7302808D01*
X2919030Y-7279329D01*
X2935826Y-7254191D01*
X2944608Y-7234303D01*
X2958191Y-7220719D01*
X2973223Y-7198223D01*
X2995719Y-7183191D01*
X3009303Y-7169608D01*
X3029191Y-7160826D01*
X3054329Y-7144030D01*
X3077808Y-7139359D01*
X3094959Y-7131787D01*
X3145151Y-7125964D01*
X3150000Y-7125000D01*
X3950000Y-7125000D01*
X3954850Y-7125964D01*
G37*
G36*
X-3292299Y-6039531D02*
G01*
X-3236238Y-6046912D01*
X-3222136Y-6053487D01*
X-3203564Y-6057182D01*
X-3178965Y-6073618D01*
X-3155990Y-6084332D01*
X-3142013Y-6098309D01*
X-3121809Y-6111809D01*
X-3108310Y-6132012D01*
X-3094333Y-6145989D01*
X-3083621Y-6168962D01*
X-3067182Y-6193564D01*
X-3063488Y-6212136D01*
X-3056913Y-6226236D01*
X-3049535Y-6282286D01*
X-3048000Y-6290000D01*
X-3048000Y-7380000D01*
X-3049535Y-7387716D01*
X-3056913Y-7443762D01*
X-3063488Y-7457860D01*
X-3067182Y-7476436D01*
X-3083623Y-7501040D01*
X-3094333Y-7524010D01*
X-3108308Y-7537984D01*
X-3121809Y-7558191D01*
X-3142016Y-7571692D01*
X-3155990Y-7585667D01*
X-3178961Y-7596378D01*
X-3203564Y-7612818D01*
X-3222139Y-7616512D01*
X-3236237Y-7623087D01*
X-3292283Y-7630464D01*
X-3300000Y-7632000D01*
X-3600000Y-7632000D01*
X-3607715Y-7630465D01*
X-3663763Y-7623087D01*
X-3677863Y-7616512D01*
X-3696436Y-7612818D01*
X-3721039Y-7596379D01*
X-3744011Y-7585667D01*
X-3757988Y-7571690D01*
X-3778191Y-7558191D01*
X-3791691Y-7537987D01*
X-3805668Y-7524010D01*
X-3816382Y-7501034D01*
X-3832818Y-7476436D01*
X-3836512Y-7457865D01*
X-3843088Y-7443763D01*
X-3850469Y-7387701D01*
X-3852000Y-7380000D01*
X-3852000Y-6290000D01*
X-3850469Y-6282300D01*
X-3843088Y-6226237D01*
X-3836512Y-6212134D01*
X-3832818Y-6193564D01*
X-3816383Y-6168966D01*
X-3805668Y-6145989D01*
X-3791689Y-6132009D01*
X-3778191Y-6111809D01*
X-3757991Y-6098311D01*
X-3744011Y-6084332D01*
X-3721033Y-6073616D01*
X-3696436Y-6057182D01*
X-3677868Y-6053488D01*
X-3663764Y-6046912D01*
X-3607701Y-6039531D01*
X-3600000Y-6038000D01*
X-3300000Y-6038000D01*
X-3292299Y-6039531D01*
G37*
G36*
X-2342299Y-6039531D02*
G01*
X-2286238Y-6046912D01*
X-2272136Y-6053487D01*
X-2253564Y-6057182D01*
X-2228965Y-6073618D01*
X-2205990Y-6084332D01*
X-2192013Y-6098309D01*
X-2171809Y-6111809D01*
X-2158310Y-6132012D01*
X-2144333Y-6145989D01*
X-2133621Y-6168962D01*
X-2117182Y-6193564D01*
X-2113488Y-6212136D01*
X-2106913Y-6226236D01*
X-2099535Y-6282286D01*
X-2098000Y-6290000D01*
X-2098000Y-7380000D01*
X-2099535Y-7387716D01*
X-2106913Y-7443762D01*
X-2113488Y-7457860D01*
X-2117182Y-7476436D01*
X-2133623Y-7501040D01*
X-2144333Y-7524010D01*
X-2158308Y-7537984D01*
X-2171809Y-7558191D01*
X-2192016Y-7571692D01*
X-2205990Y-7585667D01*
X-2228961Y-7596378D01*
X-2253564Y-7612818D01*
X-2272139Y-7616512D01*
X-2286237Y-7623087D01*
X-2342283Y-7630464D01*
X-2350000Y-7632000D01*
X-2650000Y-7632000D01*
X-2657715Y-7630465D01*
X-2713763Y-7623087D01*
X-2727863Y-7616512D01*
X-2746436Y-7612818D01*
X-2771039Y-7596379D01*
X-2794011Y-7585667D01*
X-2807988Y-7571690D01*
X-2828191Y-7558191D01*
X-2841691Y-7537987D01*
X-2855668Y-7524010D01*
X-2866382Y-7501034D01*
X-2882818Y-7476436D01*
X-2886512Y-7457865D01*
X-2893088Y-7443763D01*
X-2900469Y-7387701D01*
X-2902000Y-7380000D01*
X-2902000Y-6290000D01*
X-2900469Y-6282300D01*
X-2893088Y-6226237D01*
X-2886512Y-6212134D01*
X-2882818Y-6193564D01*
X-2866383Y-6168966D01*
X-2855668Y-6145989D01*
X-2841689Y-6132009D01*
X-2828191Y-6111809D01*
X-2807991Y-6098311D01*
X-2794011Y-6084332D01*
X-2771033Y-6073616D01*
X-2746436Y-6057182D01*
X-2727868Y-6053488D01*
X-2713764Y-6046912D01*
X-2657701Y-6039531D01*
X-2650000Y-6038000D01*
X-2350000Y-6038000D01*
X-2342299Y-6039531D01*
G37*
G36*
X-1392299Y-6039531D02*
G01*
X-1336238Y-6046912D01*
X-1322136Y-6053487D01*
X-1303564Y-6057182D01*
X-1278965Y-6073618D01*
X-1255990Y-6084332D01*
X-1242013Y-6098309D01*
X-1221809Y-6111809D01*
X-1208310Y-6132012D01*
X-1194333Y-6145989D01*
X-1183621Y-6168962D01*
X-1167182Y-6193564D01*
X-1163488Y-6212136D01*
X-1156913Y-6226236D01*
X-1149535Y-6282286D01*
X-1148000Y-6290000D01*
X-1148000Y-7380000D01*
X-1149535Y-7387716D01*
X-1156913Y-7443762D01*
X-1163488Y-7457860D01*
X-1167182Y-7476436D01*
X-1183623Y-7501040D01*
X-1194333Y-7524010D01*
X-1208308Y-7537984D01*
X-1221809Y-7558191D01*
X-1242016Y-7571692D01*
X-1255990Y-7585667D01*
X-1278961Y-7596378D01*
X-1303564Y-7612818D01*
X-1322139Y-7616512D01*
X-1336237Y-7623087D01*
X-1392283Y-7630464D01*
X-1400000Y-7632000D01*
X-1700000Y-7632000D01*
X-1707715Y-7630465D01*
X-1763763Y-7623087D01*
X-1777863Y-7616512D01*
X-1796436Y-7612818D01*
X-1821039Y-7596379D01*
X-1844011Y-7585667D01*
X-1857988Y-7571690D01*
X-1878191Y-7558191D01*
X-1891691Y-7537987D01*
X-1905668Y-7524010D01*
X-1916382Y-7501034D01*
X-1932818Y-7476436D01*
X-1936512Y-7457865D01*
X-1943088Y-7443763D01*
X-1950469Y-7387701D01*
X-1952000Y-7380000D01*
X-1952000Y-6290000D01*
X-1950469Y-6282300D01*
X-1943088Y-6226237D01*
X-1936512Y-6212134D01*
X-1932818Y-6193564D01*
X-1916383Y-6168966D01*
X-1905668Y-6145989D01*
X-1891689Y-6132009D01*
X-1878191Y-6111809D01*
X-1857991Y-6098311D01*
X-1844011Y-6084332D01*
X-1821033Y-6073616D01*
X-1796436Y-6057182D01*
X-1777868Y-6053488D01*
X-1763764Y-6046912D01*
X-1707701Y-6039531D01*
X-1700000Y-6038000D01*
X-1400000Y-6038000D01*
X-1392299Y-6039531D01*
G37*
G36*
X-2692299Y-2349531D02*
G01*
X-2636238Y-2356912D01*
X-2622136Y-2363487D01*
X-2603564Y-2367182D01*
X-2578965Y-2383618D01*
X-2555990Y-2394332D01*
X-2542013Y-2408309D01*
X-2521809Y-2421809D01*
X-2508310Y-2442012D01*
X-2494333Y-2455989D01*
X-2483621Y-2478962D01*
X-2467182Y-2503564D01*
X-2463488Y-2522136D01*
X-2456913Y-2536236D01*
X-2449535Y-2592286D01*
X-2448000Y-2600000D01*
X-2448000Y-3400000D01*
X-2449535Y-3407716D01*
X-2456913Y-3463762D01*
X-2463488Y-3477860D01*
X-2467182Y-3496436D01*
X-2483623Y-3521040D01*
X-2494333Y-3544010D01*
X-2508308Y-3557984D01*
X-2521809Y-3578191D01*
X-2542016Y-3591692D01*
X-2555990Y-3605667D01*
X-2578961Y-3616378D01*
X-2603564Y-3632818D01*
X-2622139Y-3636512D01*
X-2636237Y-3643087D01*
X-2692283Y-3650464D01*
X-2700000Y-3652000D01*
X-3000000Y-3652000D01*
X-3007715Y-3650465D01*
X-3063763Y-3643087D01*
X-3077863Y-3636512D01*
X-3096436Y-3632818D01*
X-3121039Y-3616379D01*
X-3144011Y-3605667D01*
X-3157988Y-3591690D01*
X-3178191Y-3578191D01*
X-3191691Y-3557987D01*
X-3205668Y-3544010D01*
X-3216382Y-3521034D01*
X-3232818Y-3496436D01*
X-3236512Y-3477865D01*
X-3243088Y-3463763D01*
X-3250469Y-3407701D01*
X-3252000Y-3400000D01*
X-3252000Y-2600000D01*
X-3250469Y-2592300D01*
X-3243088Y-2536237D01*
X-3236512Y-2522134D01*
X-3232818Y-2503564D01*
X-3216383Y-2478966D01*
X-3205668Y-2455989D01*
X-3191689Y-2442009D01*
X-3178191Y-2421809D01*
X-3157991Y-2408311D01*
X-3144011Y-2394332D01*
X-3121033Y-2383616D01*
X-3096436Y-2367182D01*
X-3077868Y-2363488D01*
X-3063764Y-2356912D01*
X-3007701Y-2349531D01*
X-3000000Y-2348000D01*
X-2700000Y-2348000D01*
X-2692299Y-2349531D01*
G37*
G36*
X-8253258Y-1766601D02*
G01*
X-8099313Y-1830367D01*
X-7960766Y-1922941D01*
X-7842941Y-2040766D01*
X-7750367Y-2179313D01*
X-7686601Y-2333258D01*
X-7654093Y-2496685D01*
X-7654093Y-2663315D01*
X-7686601Y-2826742D01*
X-7750367Y-2980687D01*
X-7842941Y-3119234D01*
X-7960766Y-3237059D01*
X-8099313Y-3329633D01*
X-8253258Y-3393399D01*
X-8416685Y-3425907D01*
X-8583315Y-3425907D01*
X-8746742Y-3393399D01*
X-8900687Y-3329633D01*
X-9039234Y-3237059D01*
X-9157059Y-3119234D01*
X-9249633Y-2980687D01*
X-9313399Y-2826742D01*
X-9345907Y-2663315D01*
X-9345907Y-2496685D01*
X-9313399Y-2333258D01*
X-9249633Y-2179313D01*
X-9157059Y-2040766D01*
X-9039234Y-1922941D01*
X-8900687Y-1830367D01*
X-8746742Y-1766601D01*
X-8583315Y-1734093D01*
X-8416685Y-1734093D01*
X-8253258Y-1766601D01*
G37*
G36*
X8746742Y-1766601D02*
G01*
X8900687Y-1830367D01*
X9039234Y-1922941D01*
X9157059Y-2040766D01*
X9249633Y-2179313D01*
X9313399Y-2333258D01*
X9345907Y-2496685D01*
X9345907Y-2663315D01*
X9313399Y-2826742D01*
X9249633Y-2980687D01*
X9157059Y-3119234D01*
X9039234Y-3237059D01*
X8900687Y-3329633D01*
X8746742Y-3393399D01*
X8583315Y-3425907D01*
X8416685Y-3425907D01*
X8253258Y-3393399D01*
X8099313Y-3329633D01*
X7960766Y-3237059D01*
X7842941Y-3119234D01*
X7750367Y-2980687D01*
X7686601Y-2826742D01*
X7654093Y-2663315D01*
X7654093Y-2496685D01*
X7686601Y-2333258D01*
X7750367Y-2179313D01*
X7842941Y-2040766D01*
X7960766Y-1922941D01*
X8099313Y-1830367D01*
X8253258Y-1766601D01*
X8416685Y-1734093D01*
X8583315Y-1734093D01*
X8746742Y-1766601D01*
G37*
G36*
X1342457Y3255029D02*
G01*
X1343783Y3254909D01*
X1343793Y3254908D01*
X1352135Y3254150D01*
X1352153Y3254148D01*
X1353457Y3254029D01*
X1353903Y3253969D01*
X1355204Y3253733D01*
X1355222Y3253730D01*
X1363909Y3252150D01*
X1364732Y3252000D01*
X1364875Y3251974D01*
X1376648Y3250012D01*
X1376728Y3249998D01*
X1376830Y3249981D01*
X1376903Y3249969D01*
X1377141Y3249926D01*
X1377168Y3249921D01*
X1385404Y3248424D01*
X1385411Y3248423D01*
X1387903Y3247969D01*
X1388726Y3247746D01*
X1391106Y3246881D01*
X1391108Y3246880D01*
X1410255Y3239918D01*
X1410293Y3239904D01*
X1410726Y3239746D01*
X1410876Y3239689D01*
X1420876Y3235689D01*
X1421090Y3235597D01*
X1432090Y3230597D01*
X1432258Y3230517D01*
X1432725Y3230284D01*
X1432747Y3230273D01*
X1441228Y3226033D01*
X1441248Y3226022D01*
X1442258Y3225517D01*
X1442598Y3225330D01*
X1452598Y3219330D01*
X1453100Y3218986D01*
X1454523Y3217880D01*
X1454535Y3217871D01*
X1470332Y3205585D01*
X1470362Y3205560D01*
X1471100Y3204986D01*
X1471355Y3204774D01*
X1472067Y3204141D01*
X1472084Y3204127D01*
X1479491Y3197543D01*
X1481001Y3196287D01*
X1486147Y3192284D01*
X1486151Y3192280D01*
X1489100Y3189986D01*
X1489986Y3189100D01*
X1492278Y3186153D01*
X1492282Y3186149D01*
X1496285Y3181003D01*
X1497544Y3179489D01*
X1504134Y3172075D01*
X1504774Y3171355D01*
X1504986Y3171100D01*
X1505561Y3170360D01*
X1505584Y3170333D01*
X1517870Y3154536D01*
X1517876Y3154527D01*
X1518986Y3153100D01*
X1519330Y3152598D01*
X1525330Y3142598D01*
X1525517Y3142258D01*
X1526026Y3141240D01*
X1526032Y3141229D01*
X1530272Y3132748D01*
X1530517Y3132258D01*
X1530597Y3132090D01*
X1535597Y3121090D01*
X1535689Y3120876D01*
X1539689Y3110876D01*
X1539746Y3110726D01*
X1547746Y3088726D01*
X1547969Y3087903D01*
X1549969Y3076903D01*
X1549981Y3076830D01*
X1551969Y3064903D01*
X1553969Y3053903D01*
X1554029Y3053457D01*
X1555029Y3042457D01*
X1555050Y3042000D01*
X1555050Y3040651D01*
X1555050Y1590197D01*
X1590197Y1555050D01*
X3049650Y1555050D01*
X3051000Y1555050D01*
X3051457Y1555029D01*
X3052783Y1554909D01*
X3052793Y1554908D01*
X3061135Y1554150D01*
X3061153Y1554148D01*
X3062457Y1554029D01*
X3062903Y1553969D01*
X3064204Y1553733D01*
X3064222Y1553730D01*
X3084585Y1550027D01*
X3084607Y1550023D01*
X3084903Y1549969D01*
X3084990Y1549952D01*
X3085184Y1549914D01*
X3085264Y1549898D01*
X3093981Y1548154D01*
X3093986Y1548153D01*
X3094990Y1547952D01*
X3095329Y1547872D01*
X3096306Y1547606D01*
X3096321Y1547602D01*
X3104672Y1545324D01*
X3106329Y1544872D01*
X3106876Y1544689D01*
X3126876Y1536689D01*
X3127258Y1536517D01*
X3128373Y1535960D01*
X3128383Y1535955D01*
X3145585Y1527354D01*
X3145591Y1527351D01*
X3147258Y1526517D01*
X3147801Y1526202D01*
X3149354Y1525167D01*
X3149362Y1525162D01*
X3164889Y1514811D01*
X3164907Y1514798D01*
X3165801Y1514202D01*
X3166100Y1513986D01*
X3166944Y1513330D01*
X3166960Y1513318D01*
X3181836Y1501748D01*
X3181842Y1501742D01*
X3184100Y1499986D01*
X3184801Y1499325D01*
X3186688Y1497168D01*
X3190260Y1493086D01*
X3193081Y1490264D01*
X3199325Y1484801D01*
X3199986Y1484100D01*
X3201741Y1481843D01*
X3201747Y1481837D01*
X3213317Y1466961D01*
X3213325Y1466950D01*
X3213986Y1466100D01*
X3214202Y1465801D01*
X3214801Y1464903D01*
X3214810Y1464890D01*
X3225161Y1449363D01*
X3226202Y1447801D01*
X3226517Y1447258D01*
X3236517Y1427258D01*
X3236689Y1426876D01*
X3244689Y1406876D01*
X3244872Y1406329D01*
X3247872Y1395329D01*
X3247952Y1394990D01*
X3249952Y1384990D01*
X3249969Y1384903D01*
X3253969Y1362903D01*
X3254029Y1362457D01*
X3255029Y1351457D01*
X3255050Y1351000D01*
X3255050Y-1342000D01*
X3255029Y-1342457D01*
X3254029Y-1353457D01*
X3253969Y-1353903D01*
X3253729Y-1355222D01*
X3251974Y-1364875D01*
X3251249Y-1369225D01*
X3249981Y-1376830D01*
X3249969Y-1376903D01*
X3247969Y-1387903D01*
X3247746Y-1388726D01*
X3239746Y-1410726D01*
X3239689Y-1410876D01*
X3235689Y-1420876D01*
X3235597Y-1421090D01*
X3230597Y-1432090D01*
X3230517Y-1432258D01*
X3225517Y-1442258D01*
X3225330Y-1442598D01*
X3219330Y-1452598D01*
X3218986Y-1453100D01*
X3217870Y-1454533D01*
X3217870Y-1454535D01*
X3205584Y-1470332D01*
X3205573Y-1470344D01*
X3204986Y-1471100D01*
X3204774Y-1471355D01*
X3200046Y-1476673D01*
X3197544Y-1479489D01*
X3196285Y-1481003D01*
X3193150Y-1485032D01*
X3189986Y-1489100D01*
X3189100Y-1489986D01*
X3186148Y-1492281D01*
X3186148Y-1492282D01*
X3181003Y-1496285D01*
X3179489Y-1497544D01*
X3176673Y-1500046D01*
X3171355Y-1504774D01*
X3171100Y-1504986D01*
X3170344Y-1505573D01*
X3170332Y-1505584D01*
X3156255Y-1516532D01*
X3153100Y-1518986D01*
X3152598Y-1519330D01*
X3142598Y-1525330D01*
X3142258Y-1525517D01*
X3132258Y-1530517D01*
X3132090Y-1530597D01*
X3121090Y-1535597D01*
X3120876Y-1535689D01*
X3110876Y-1539689D01*
X3110726Y-1539746D01*
X3088726Y-1547746D01*
X3087903Y-1547969D01*
X3076903Y-1549969D01*
X3076830Y-1549981D01*
X3074590Y-1550354D01*
X3064881Y-1551972D01*
X3053903Y-1553969D01*
X3053457Y-1554029D01*
X3042457Y-1555029D01*
X3042000Y-1555050D01*
X3040650Y-1555050D01*
X1590197Y-1555050D01*
X1555050Y-1590197D01*
X1555050Y-3051000D01*
X1555029Y-3051457D01*
X1554029Y-3062457D01*
X1553969Y-3062903D01*
X1549969Y-3084903D01*
X1549952Y-3084990D01*
X1547952Y-3094990D01*
X1547872Y-3095329D01*
X1544872Y-3106329D01*
X1544689Y-3106876D01*
X1536689Y-3126876D01*
X1536517Y-3127258D01*
X1526517Y-3147258D01*
X1526202Y-3147801D01*
X1514202Y-3165801D01*
X1513986Y-3166100D01*
X1499986Y-3184100D01*
X1499325Y-3184801D01*
X1493079Y-3190264D01*
X1490264Y-3193079D01*
X1484801Y-3199325D01*
X1484100Y-3199986D01*
X1466100Y-3213986D01*
X1465801Y-3214202D01*
X1447801Y-3226202D01*
X1447258Y-3226517D01*
X1427258Y-3236517D01*
X1426876Y-3236689D01*
X1406876Y-3244689D01*
X1406329Y-3244872D01*
X1395329Y-3247872D01*
X1394990Y-3247952D01*
X1384990Y-3249952D01*
X1384903Y-3249969D01*
X1362903Y-3253969D01*
X1362457Y-3254029D01*
X1351457Y-3255029D01*
X1351000Y-3255050D01*
X1349650Y-3255050D01*
X-1349650Y-3255050D01*
X-1351000Y-3255050D01*
X-1351457Y-3255029D01*
X-1362457Y-3254029D01*
X-1362903Y-3253969D01*
X-1384903Y-3249969D01*
X-1384990Y-3249952D01*
X-1394990Y-3247952D01*
X-1395329Y-3247872D01*
X-1406329Y-3244872D01*
X-1406876Y-3244689D01*
X-1426876Y-3236689D01*
X-1427258Y-3236517D01*
X-1447258Y-3226517D01*
X-1447801Y-3226202D01*
X-1449363Y-3225161D01*
X-1464890Y-3214810D01*
X-1464903Y-3214801D01*
X-1465801Y-3214202D01*
X-1466100Y-3213986D01*
X-1466950Y-3213325D01*
X-1466961Y-3213317D01*
X-1481837Y-3201747D01*
X-1481843Y-3201741D01*
X-1484100Y-3199986D01*
X-1484801Y-3199325D01*
X-1490264Y-3193081D01*
X-1493086Y-3190260D01*
X-1495004Y-3188581D01*
X-1499325Y-3184801D01*
X-1499986Y-3184100D01*
X-1501742Y-3181842D01*
X-1501748Y-3181836D01*
X-1513318Y-3166960D01*
X-1513330Y-3166944D01*
X-1513986Y-3166100D01*
X-1514202Y-3165801D01*
X-1514798Y-3164907D01*
X-1514811Y-3164889D01*
X-1525162Y-3149362D01*
X-1525167Y-3149354D01*
X-1526202Y-3147801D01*
X-1526517Y-3147258D01*
X-1527351Y-3145591D01*
X-1527354Y-3145585D01*
X-1535955Y-3128383D01*
X-1535960Y-3128373D01*
X-1536517Y-3127258D01*
X-1536689Y-3126876D01*
X-1544689Y-3106876D01*
X-1544872Y-3106329D01*
X-1545324Y-3104672D01*
X-1547602Y-3096321D01*
X-1547606Y-3096306D01*
X-1547872Y-3095329D01*
X-1547952Y-3094990D01*
X-1548154Y-3093981D01*
X-1549898Y-3085264D01*
X-1549914Y-3085184D01*
X-1549952Y-3084990D01*
X-1549969Y-3084903D01*
X-1550027Y-3084585D01*
X-1553730Y-3064222D01*
X-1553733Y-3064204D01*
X-1553969Y-3062903D01*
X-1554029Y-3062457D01*
X-1554148Y-3061153D01*
X-1554150Y-3061135D01*
X-1554908Y-3052793D01*
X-1554909Y-3052783D01*
X-1555029Y-3051457D01*
X-1555050Y-3051000D01*
X-1555050Y-1590197D01*
X-1590197Y-1555050D01*
X-3032000Y-1555050D01*
X-3032419Y-1555033D01*
X-3044419Y-1554033D01*
X-3044830Y-1553981D01*
X-3068830Y-1549981D01*
X-3069225Y-1549899D01*
X-3081225Y-1546899D01*
X-3081329Y-1546872D01*
X-3092329Y-1543872D01*
X-3092726Y-1543746D01*
X-3103726Y-1539746D01*
X-3103942Y-1539662D01*
X-3115942Y-1534662D01*
X-3116258Y-1534517D01*
X-3126258Y-1529517D01*
X-3126418Y-1529433D01*
X-3137418Y-1523433D01*
X-3137598Y-1523330D01*
X-3147598Y-1517330D01*
X-3147896Y-1517137D01*
X-3167896Y-1503137D01*
X-3168355Y-1502774D01*
X-3169646Y-1501627D01*
X-3169653Y-1501621D01*
X-3185032Y-1487950D01*
X-3186355Y-1486774D01*
X-3186774Y-1486355D01*
X-3202774Y-1468355D01*
X-3203137Y-1467896D01*
X-3217137Y-1447896D01*
X-3217330Y-1447598D01*
X-3223330Y-1437598D01*
X-3223433Y-1437418D01*
X-3223704Y-1436921D01*
X-3223719Y-1436895D01*
X-3229199Y-1426847D01*
X-3229433Y-1426418D01*
X-3229517Y-1426258D01*
X-3232208Y-1420876D01*
X-3234053Y-1417187D01*
X-3234059Y-1417175D01*
X-3234517Y-1416258D01*
X-3234662Y-1415942D01*
X-3239662Y-1403942D01*
X-3239746Y-1403726D01*
X-3239964Y-1403128D01*
X-3239974Y-1403101D01*
X-3243323Y-1393890D01*
X-3243325Y-1393884D01*
X-3243746Y-1392726D01*
X-3243872Y-1392329D01*
X-3246872Y-1381329D01*
X-3246899Y-1381225D01*
X-3247913Y-1377168D01*
X-3249614Y-1370367D01*
X-3249617Y-1370355D01*
X-3249899Y-1369225D01*
X-3249981Y-1368830D01*
X-3250172Y-1367686D01*
X-3250175Y-1367670D01*
X-3253780Y-1346041D01*
X-3253783Y-1346021D01*
X-3253981Y-1344830D01*
X-3254033Y-1344419D01*
X-3255033Y-1332419D01*
X-3255050Y-1332000D01*
X-3255050Y1351000D01*
X-3255029Y1351457D01*
X-3254909Y1352783D01*
X-3254908Y1352794D01*
X-3254150Y1361136D01*
X-3254148Y1361157D01*
X-3254029Y1362457D01*
X-3253969Y1362903D01*
X-3253733Y1364202D01*
X-3253730Y1364223D01*
X-3250027Y1384586D01*
X-3250019Y1384631D01*
X-3249969Y1384903D01*
X-3249952Y1384990D01*
X-3249917Y1385166D01*
X-3249898Y1385265D01*
X-3248154Y1393982D01*
X-3248152Y1393994D01*
X-3247952Y1394990D01*
X-3247872Y1395329D01*
X-3247608Y1396300D01*
X-3247602Y1396322D01*
X-3245324Y1404673D01*
X-3245323Y1404679D01*
X-3244872Y1406329D01*
X-3244689Y1406876D01*
X-3236689Y1426876D01*
X-3236517Y1427258D01*
X-3235964Y1428365D01*
X-3235955Y1428384D01*
X-3227354Y1445586D01*
X-3227347Y1445599D01*
X-3226517Y1447258D01*
X-3226202Y1447801D01*
X-3225171Y1449348D01*
X-3225162Y1449363D01*
X-3214811Y1464890D01*
X-3214789Y1464921D01*
X-3214202Y1465801D01*
X-3213986Y1466100D01*
X-3213340Y1466932D01*
X-3213318Y1466961D01*
X-3201748Y1481837D01*
X-3201738Y1481849D01*
X-3199986Y1484100D01*
X-3199325Y1484801D01*
X-3197169Y1486688D01*
X-3197168Y1486689D01*
X-3193083Y1490263D01*
X-3190263Y1493083D01*
X-3186689Y1497168D01*
X-3186686Y1497172D01*
X-3184801Y1499325D01*
X-3184100Y1499986D01*
X-3181849Y1501738D01*
X-3181837Y1501748D01*
X-3166961Y1513318D01*
X-3166932Y1513340D01*
X-3166100Y1513986D01*
X-3165801Y1514202D01*
X-3164921Y1514789D01*
X-3164890Y1514811D01*
X-3149363Y1525162D01*
X-3149348Y1525171D01*
X-3147801Y1526202D01*
X-3147258Y1526517D01*
X-3145599Y1527347D01*
X-3145586Y1527354D01*
X-3128384Y1535955D01*
X-3128365Y1535964D01*
X-3127258Y1536517D01*
X-3126876Y1536689D01*
X-3106876Y1544689D01*
X-3106329Y1544872D01*
X-3104679Y1545323D01*
X-3104673Y1545324D01*
X-3096322Y1547602D01*
X-3096300Y1547608D01*
X-3095329Y1547872D01*
X-3094990Y1547952D01*
X-3093994Y1548152D01*
X-3093982Y1548154D01*
X-3085265Y1549898D01*
X-3085166Y1549917D01*
X-3084990Y1549952D01*
X-3084903Y1549969D01*
X-3084631Y1550019D01*
X-3084586Y1550027D01*
X-3064223Y1553730D01*
X-3064202Y1553733D01*
X-3062903Y1553969D01*
X-3062457Y1554029D01*
X-3061157Y1554148D01*
X-3061136Y1554150D01*
X-3052794Y1554908D01*
X-3052783Y1554909D01*
X-3051457Y1555029D01*
X-3051000Y1555050D01*
X-1590197Y1555050D01*
X-1555050Y1590197D01*
X-1555050Y3049651D01*
X-1555050Y3051000D01*
X-1555029Y3051457D01*
X-1554909Y3052783D01*
X-1554908Y3052794D01*
X-1554150Y3061136D01*
X-1554148Y3061157D01*
X-1554029Y3062457D01*
X-1553969Y3062903D01*
X-1553733Y3064202D01*
X-1553730Y3064223D01*
X-1550027Y3084586D01*
X-1550019Y3084631D01*
X-1549969Y3084903D01*
X-1549952Y3084990D01*
X-1549917Y3085166D01*
X-1549898Y3085265D01*
X-1548154Y3093982D01*
X-1548152Y3093994D01*
X-1547952Y3094990D01*
X-1547872Y3095329D01*
X-1547608Y3096300D01*
X-1547602Y3096322D01*
X-1545324Y3104673D01*
X-1545323Y3104679D01*
X-1544872Y3106329D01*
X-1544689Y3106876D01*
X-1536689Y3126876D01*
X-1536517Y3127258D01*
X-1535964Y3128365D01*
X-1535955Y3128384D01*
X-1527354Y3145586D01*
X-1527347Y3145599D01*
X-1526517Y3147258D01*
X-1526202Y3147801D01*
X-1525171Y3149348D01*
X-1525162Y3149363D01*
X-1514811Y3164890D01*
X-1514789Y3164921D01*
X-1514202Y3165801D01*
X-1513986Y3166100D01*
X-1513340Y3166932D01*
X-1513318Y3166961D01*
X-1501748Y3181837D01*
X-1501738Y3181849D01*
X-1499986Y3184100D01*
X-1499325Y3184801D01*
X-1497172Y3186686D01*
X-1497168Y3186689D01*
X-1493083Y3190263D01*
X-1490263Y3193083D01*
X-1486689Y3197168D01*
X-1486686Y3197172D01*
X-1484801Y3199325D01*
X-1484100Y3199986D01*
X-1481849Y3201738D01*
X-1481837Y3201748D01*
X-1466961Y3213318D01*
X-1466932Y3213340D01*
X-1466100Y3213986D01*
X-1465801Y3214202D01*
X-1464921Y3214789D01*
X-1464890Y3214811D01*
X-1449363Y3225162D01*
X-1449348Y3225171D01*
X-1447801Y3226202D01*
X-1447258Y3226517D01*
X-1445599Y3227347D01*
X-1445586Y3227354D01*
X-1428384Y3235955D01*
X-1428365Y3235964D01*
X-1427258Y3236517D01*
X-1426876Y3236689D01*
X-1406876Y3244689D01*
X-1406329Y3244872D01*
X-1404679Y3245323D01*
X-1404673Y3245324D01*
X-1396322Y3247602D01*
X-1396300Y3247608D01*
X-1395329Y3247872D01*
X-1394990Y3247952D01*
X-1393994Y3248152D01*
X-1393982Y3248154D01*
X-1385265Y3249898D01*
X-1385166Y3249917D01*
X-1384990Y3249952D01*
X-1384903Y3249969D01*
X-1384631Y3250019D01*
X-1384586Y3250027D01*
X-1364223Y3253730D01*
X-1364202Y3253733D01*
X-1362903Y3253969D01*
X-1362457Y3254029D01*
X-1361157Y3254148D01*
X-1361136Y3254150D01*
X-1352794Y3254908D01*
X-1352783Y3254909D01*
X-1351457Y3255029D01*
X-1351000Y3255050D01*
X1342000Y3255050D01*
X1342457Y3255029D01*
G37*
G36*
X3407701Y-2449531D02*
G01*
X3463762Y-2456912D01*
X3477864Y-2463487D01*
X3496436Y-2467182D01*
X3521035Y-2483618D01*
X3544010Y-2494332D01*
X3557987Y-2508309D01*
X3578191Y-2521809D01*
X3591690Y-2542012D01*
X3605667Y-2555989D01*
X3616379Y-2578962D01*
X3632818Y-2603564D01*
X3636512Y-2622136D01*
X3643087Y-2636236D01*
X3650465Y-2692284D01*
X3652000Y-2700000D01*
X3652000Y-3000000D01*
X3650465Y-3007716D01*
X3643087Y-3063762D01*
X3636512Y-3077860D01*
X3632818Y-3096436D01*
X3616377Y-3121040D01*
X3605667Y-3144010D01*
X3591692Y-3157984D01*
X3578191Y-3178191D01*
X3557984Y-3191692D01*
X3544010Y-3205667D01*
X3521039Y-3216378D01*
X3496436Y-3232818D01*
X3477861Y-3236512D01*
X3463763Y-3243087D01*
X3407715Y-3250465D01*
X3400000Y-3252000D01*
X2600000Y-3252000D01*
X2592285Y-3250465D01*
X2536237Y-3243087D01*
X2522137Y-3236512D01*
X2503564Y-3232818D01*
X2478961Y-3216379D01*
X2455989Y-3205667D01*
X2442012Y-3191690D01*
X2421809Y-3178191D01*
X2408309Y-3157987D01*
X2394332Y-3144010D01*
X2383618Y-3121034D01*
X2367182Y-3096436D01*
X2363488Y-3077865D01*
X2356912Y-3063763D01*
X2349532Y-3007702D01*
X2348000Y-3000000D01*
X2348000Y-2700000D01*
X2349531Y-2692300D01*
X2356912Y-2636237D01*
X2363488Y-2622134D01*
X2367182Y-2603564D01*
X2383617Y-2578966D01*
X2394332Y-2555989D01*
X2408311Y-2542009D01*
X2421809Y-2521809D01*
X2442009Y-2508311D01*
X2455989Y-2494332D01*
X2478967Y-2483616D01*
X2503564Y-2467182D01*
X2522132Y-2463488D01*
X2536236Y-2456912D01*
X2592300Y-2449531D01*
X2600000Y-2448000D01*
X3400000Y-2448000D01*
X3407701Y-2449531D01*
G37*
G36*
X-8253258Y773399D02*
G01*
X-8099313Y709633D01*
X-7960766Y617059D01*
X-7842941Y499234D01*
X-7750367Y360687D01*
X-7686601Y206742D01*
X-7654093Y43315D01*
X-7654093Y-123315D01*
X-7686601Y-286742D01*
X-7750367Y-440687D01*
X-7842941Y-579234D01*
X-7960766Y-697059D01*
X-8099313Y-789633D01*
X-8253258Y-853399D01*
X-8416685Y-885907D01*
X-8583315Y-885907D01*
X-8746742Y-853399D01*
X-8900687Y-789633D01*
X-9039234Y-697059D01*
X-9157059Y-579234D01*
X-9249633Y-440687D01*
X-9313399Y-286742D01*
X-9345907Y-123315D01*
X-9345907Y43315D01*
X-9313399Y206742D01*
X-9249633Y360687D01*
X-9157059Y499234D01*
X-9039234Y617059D01*
X-8900687Y709633D01*
X-8746742Y773399D01*
X-8583315Y805907D01*
X-8416685Y805907D01*
X-8253258Y773399D01*
G37*
G36*
X8746742Y773399D02*
G01*
X8900687Y709633D01*
X9039234Y617059D01*
X9157059Y499234D01*
X9249633Y360687D01*
X9313399Y206742D01*
X9345907Y43315D01*
X9345907Y-123315D01*
X9313399Y-286742D01*
X9249633Y-440687D01*
X9157059Y-579234D01*
X9039234Y-697059D01*
X8900687Y-789633D01*
X8746742Y-853399D01*
X8583315Y-885907D01*
X8416685Y-885907D01*
X8253258Y-853399D01*
X8099313Y-789633D01*
X7960766Y-697059D01*
X7842941Y-579234D01*
X7750367Y-440687D01*
X7686601Y-286742D01*
X7654093Y-123315D01*
X7654093Y43315D01*
X7686601Y206742D01*
X7750367Y360687D01*
X7842941Y499234D01*
X7960766Y617059D01*
X8099313Y709633D01*
X8253258Y773399D01*
X8416685Y805907D01*
X8583315Y805907D01*
X8746742Y773399D01*
G37*
G36*
X-7650000Y1650000D02*
G01*
X-9350000Y1650000D01*
X-9350000Y3350000D01*
X-7650000Y3350000D01*
X-7650000Y1650000D01*
G37*
G36*
X9350000Y1650000D02*
G01*
X7650000Y1650000D01*
X7650000Y3350000D01*
X9350000Y3350000D01*
X9350000Y1650000D01*
G37*
G36*
X3007701Y3650469D02*
G01*
X3063762Y3643088D01*
X3077864Y3636513D01*
X3096436Y3632818D01*
X3121035Y3616382D01*
X3144010Y3605668D01*
X3157987Y3591691D01*
X3178191Y3578191D01*
X3191690Y3557988D01*
X3205667Y3544011D01*
X3216379Y3521038D01*
X3232818Y3496436D01*
X3236512Y3477864D01*
X3243087Y3463764D01*
X3250465Y3407714D01*
X3252000Y3400000D01*
X3252000Y2600000D01*
X3250465Y2592284D01*
X3243087Y2536238D01*
X3236512Y2522140D01*
X3232818Y2503564D01*
X3216377Y2478960D01*
X3205667Y2455990D01*
X3191692Y2442016D01*
X3178191Y2421809D01*
X3157984Y2408308D01*
X3144010Y2394333D01*
X3121039Y2383622D01*
X3096436Y2367182D01*
X3077861Y2363488D01*
X3063763Y2356913D01*
X3007717Y2349536D01*
X3000000Y2348000D01*
X2700000Y2348000D01*
X2692285Y2349535D01*
X2636237Y2356913D01*
X2622137Y2363488D01*
X2603564Y2367182D01*
X2578961Y2383621D01*
X2555989Y2394333D01*
X2542012Y2408310D01*
X2521809Y2421809D01*
X2508309Y2442013D01*
X2494332Y2455990D01*
X2483618Y2478966D01*
X2467182Y2503564D01*
X2463488Y2522135D01*
X2456912Y2536237D01*
X2449531Y2592299D01*
X2448000Y2600000D01*
X2448000Y3400000D01*
X2449531Y3407700D01*
X2456912Y3463763D01*
X2463488Y3477866D01*
X2467182Y3496436D01*
X2483617Y3521034D01*
X2494332Y3544011D01*
X2508311Y3557991D01*
X2521809Y3578191D01*
X2542009Y3591689D01*
X2555989Y3605668D01*
X2578967Y3616384D01*
X2603564Y3632818D01*
X2622132Y3636512D01*
X2636236Y3643088D01*
X2692299Y3650469D01*
X2700000Y3652000D01*
X3000000Y3652000D01*
X3007701Y3650469D01*
G37*
G36*
X-2592299Y3250469D02*
G01*
X-2536238Y3243088D01*
X-2522136Y3236513D01*
X-2503564Y3232818D01*
X-2478965Y3216382D01*
X-2455990Y3205668D01*
X-2442013Y3191691D01*
X-2421809Y3178191D01*
X-2408310Y3157988D01*
X-2394333Y3144011D01*
X-2383621Y3121038D01*
X-2367182Y3096436D01*
X-2363488Y3077864D01*
X-2356913Y3063764D01*
X-2349535Y3007716D01*
X-2348000Y3000000D01*
X-2348000Y2700000D01*
X-2349535Y2692284D01*
X-2356913Y2636238D01*
X-2363488Y2622140D01*
X-2367182Y2603564D01*
X-2383623Y2578960D01*
X-2394333Y2555990D01*
X-2408308Y2542016D01*
X-2421809Y2521809D01*
X-2442016Y2508308D01*
X-2455990Y2494333D01*
X-2478961Y2483622D01*
X-2503564Y2467182D01*
X-2522139Y2463488D01*
X-2536237Y2456913D01*
X-2592285Y2449535D01*
X-2600000Y2448000D01*
X-3400000Y2448000D01*
X-3407715Y2449535D01*
X-3463763Y2456913D01*
X-3477863Y2463488D01*
X-3496436Y2467182D01*
X-3521039Y2483621D01*
X-3544011Y2494333D01*
X-3557988Y2508310D01*
X-3578191Y2521809D01*
X-3591691Y2542013D01*
X-3605668Y2555990D01*
X-3616382Y2578966D01*
X-3632818Y2603564D01*
X-3636512Y2622135D01*
X-3643088Y2636237D01*
X-3650468Y2692298D01*
X-3652000Y2700000D01*
X-3652000Y3000000D01*
X-3650469Y3007700D01*
X-3643088Y3063763D01*
X-3636512Y3077866D01*
X-3632818Y3096436D01*
X-3616383Y3121034D01*
X-3605668Y3144011D01*
X-3591689Y3157991D01*
X-3578191Y3178191D01*
X-3557991Y3191689D01*
X-3544011Y3205668D01*
X-3521033Y3216384D01*
X-3496436Y3232818D01*
X-3477868Y3236512D01*
X-3463764Y3243088D01*
X-3407700Y3250469D01*
X-3400000Y3252000D01*
X-2600000Y3252000D01*
X-2592299Y3250469D01*
G37*
G36*
X-7626487Y9555792D02*
G01*
X-7387707Y9478207D01*
X-7164002Y9364224D01*
X-6960883Y9216650D01*
X-6783350Y9039117D01*
X-6635776Y8835998D01*
X-6521793Y8612293D01*
X-6444208Y8373513D01*
X-6404932Y8125535D01*
X-6404932Y7874465D01*
X-6444208Y7626487D01*
X-6521793Y7387707D01*
X-6635776Y7164002D01*
X-6783350Y6960883D01*
X-6960883Y6783350D01*
X-7164002Y6635776D01*
X-7387707Y6521793D01*
X-7626487Y6444208D01*
X-7874465Y6404932D01*
X-8125535Y6404932D01*
X-8373513Y6444208D01*
X-8612293Y6521793D01*
X-8835998Y6635776D01*
X-9039117Y6783350D01*
X-9216650Y6960883D01*
X-9364224Y7164002D01*
X-9478207Y7387707D01*
X-9555792Y7626487D01*
X-9595068Y7874465D01*
X-9595068Y8125535D01*
X-9555792Y8373513D01*
X-9478207Y8612293D01*
X-9364224Y8835998D01*
X-9216650Y9039117D01*
X-9039117Y9216650D01*
X-8835998Y9364224D01*
X-8612293Y9478207D01*
X-8373513Y9555792D01*
X-8125535Y9595068D01*
X-7874465Y9595068D01*
X-7626487Y9555792D01*
G37*
G36*
X8373513Y9555792D02*
G01*
X8612293Y9478207D01*
X8835998Y9364224D01*
X9039117Y9216650D01*
X9216650Y9039117D01*
X9364224Y8835998D01*
X9478207Y8612293D01*
X9555792Y8373513D01*
X9595068Y8125535D01*
X9595068Y7874465D01*
X9555792Y7626487D01*
X9478207Y7387707D01*
X9364224Y7164002D01*
X9216650Y6960883D01*
X9039117Y6783350D01*
X8835998Y6635776D01*
X8612293Y6521793D01*
X8373513Y6444208D01*
X8125535Y6404932D01*
X7874465Y6404932D01*
X7626487Y6444208D01*
X7387707Y6521793D01*
X7164002Y6635776D01*
X6960883Y6783350D01*
X6783350Y6960883D01*
X6635776Y7164002D01*
X6521793Y7387707D01*
X6444208Y7626487D01*
X6404932Y7874465D01*
X6404932Y8125535D01*
X6444208Y8373513D01*
X6521793Y8612293D01*
X6635776Y8835998D01*
X6783350Y9039117D01*
X6960883Y9216650D01*
X7164002Y9364224D01*
X7387707Y9478207D01*
X7626487Y9555792D01*
X7874465Y9595068D01*
X8125535Y9595068D01*
X8373513Y9555792D01*
G37*
G36*
X354850Y8399036D02*
G01*
X405040Y8393213D01*
X422189Y8385641D01*
X445671Y8380970D01*
X470810Y8364173D01*
X490696Y8355392D01*
X504277Y8341811D01*
X526777Y8326777D01*
X541810Y8304278D01*
X555391Y8290697D01*
X564170Y8270814D01*
X580970Y8245671D01*
X585641Y8222188D01*
X593212Y8205041D01*
X599033Y8154861D01*
X600000Y8150000D01*
X600000Y6850000D01*
X599032Y6845137D01*
X593212Y6794960D01*
X585641Y6777815D01*
X580970Y6754329D01*
X564169Y6729185D01*
X555391Y6709304D01*
X541812Y6695726D01*
X526777Y6673223D01*
X504274Y6658188D01*
X490696Y6644609D01*
X470815Y6635831D01*
X445671Y6619030D01*
X422185Y6614359D01*
X405040Y6606788D01*
X354861Y6600968D01*
X350000Y6600000D01*
X-475000Y6600000D01*
X-479862Y6600968D01*
X-530041Y6606788D01*
X-547188Y6614359D01*
X-570671Y6619030D01*
X-595814Y6635830D01*
X-615697Y6644609D01*
X-629278Y6658190D01*
X-651777Y6673223D01*
X-666811Y6695723D01*
X-680392Y6709304D01*
X-689173Y6729190D01*
X-705970Y6754329D01*
X-710641Y6777811D01*
X-718213Y6794960D01*
X-724036Y6845151D01*
X-725000Y6850000D01*
X-725000Y8150000D01*
X-724036Y8154850D01*
X-718213Y8205041D01*
X-710641Y8222192D01*
X-705970Y8245671D01*
X-689174Y8270809D01*
X-680392Y8290697D01*
X-666809Y8304281D01*
X-651777Y8326777D01*
X-629281Y8341809D01*
X-615697Y8355392D01*
X-595809Y8364174D01*
X-570671Y8380970D01*
X-547192Y8385641D01*
X-530041Y8393213D01*
X-479849Y8399036D01*
X-475000Y8400000D01*
X350000Y8400000D01*
X354850Y8399036D01*
G37*
G36*
X3479850Y8399036D02*
G01*
X3530040Y8393213D01*
X3547189Y8385641D01*
X3570671Y8380970D01*
X3595810Y8364173D01*
X3615696Y8355392D01*
X3629277Y8341811D01*
X3651777Y8326777D01*
X3666810Y8304278D01*
X3680391Y8290697D01*
X3689170Y8270814D01*
X3705970Y8245671D01*
X3710641Y8222188D01*
X3718212Y8205041D01*
X3724033Y8154861D01*
X3725000Y8150000D01*
X3725000Y6850000D01*
X3724032Y6845137D01*
X3718212Y6794960D01*
X3710641Y6777815D01*
X3705970Y6754329D01*
X3689169Y6729185D01*
X3680391Y6709304D01*
X3666812Y6695726D01*
X3651777Y6673223D01*
X3629274Y6658188D01*
X3615696Y6644609D01*
X3595815Y6635831D01*
X3570671Y6619030D01*
X3547185Y6614359D01*
X3530040Y6606788D01*
X3479861Y6600968D01*
X3475000Y6600000D01*
X2650000Y6600000D01*
X2645138Y6600968D01*
X2594959Y6606788D01*
X2577812Y6614359D01*
X2554329Y6619030D01*
X2529186Y6635830D01*
X2509303Y6644609D01*
X2495722Y6658190D01*
X2473223Y6673223D01*
X2458189Y6695723D01*
X2444608Y6709304D01*
X2435827Y6729190D01*
X2419030Y6754329D01*
X2414359Y6777811D01*
X2406787Y6794960D01*
X2400964Y6845151D01*
X2400000Y6850000D01*
X2400000Y8150000D01*
X2400964Y8154850D01*
X2406787Y8205041D01*
X2414359Y8222192D01*
X2419030Y8245671D01*
X2435826Y8270809D01*
X2444608Y8290697D01*
X2458191Y8304281D01*
X2473223Y8326777D01*
X2495719Y8341809D01*
X2509303Y8355392D01*
X2529191Y8364174D01*
X2554329Y8380970D01*
X2577808Y8385641D01*
X2594959Y8393213D01*
X2645151Y8399036D01*
X2650000Y8400000D01*
X3475000Y8400000D01*
X3479850Y8399036D01*
G37*
M02*
