%TF.GenerationSoftware,KiCad,Pcbnew,9.0.7-rc2*%
%TF.CreationDate,2026-02-06T21:08:13+09:00*%
%TF.ProjectId,bGeigieScint Physics,62476569-6769-4655-9363-696e74205068,V0.9A*%
%TF.SameCoordinates,Original*%
%TF.FileFunction,Copper,L3,Inr*%
%TF.FilePolarity,Positive*%
%FSLAX46Y46*%
G04 Gerber Fmt 4.6, Leading zero omitted, Abs format (unit mm)*
G04 Created by KiCad (PCBNEW 9.0.7-rc2) date 2026-02-06 21:08:13*
%MOMM*%
%LPD*%
G01*
G04 APERTURE LIST*
%TA.AperFunction,ViaPad*%
%ADD10C,0.600000*%
%TD*%
G04 APERTURE END LIST*
D10*
%TO.N,GND*%
X149225000Y-83185000D03*
X155467538Y-90826000D03*
X155627815Y-84224954D03*
X154940000Y-88265000D03*
%TO.N,Net-(IC1-CATHODE_1)*%
X134620000Y-88265000D03*
X134620000Y-88265000D03*
X134620000Y-88265000D03*
%TO.N,/SiPM_A*%
X136525000Y-97155000D03*
%TD*%
%TA.AperFunction,Conductor*%
%TO.N,GND*%
G36*
X158832702Y-76700617D02*
G01*
X159216771Y-76717386D01*
X159227506Y-76718326D01*
X159605971Y-76768152D01*
X159616597Y-76770025D01*
X159989284Y-76852648D01*
X159999710Y-76855442D01*
X160363765Y-76970227D01*
X160373911Y-76973920D01*
X160726578Y-77120000D01*
X160736369Y-77124566D01*
X161074942Y-77300816D01*
X161084310Y-77306224D01*
X161406244Y-77511318D01*
X161415105Y-77517523D01*
X161717930Y-77749889D01*
X161726217Y-77756843D01*
X162007635Y-78014715D01*
X162015284Y-78022364D01*
X162273156Y-78303782D01*
X162280110Y-78312069D01*
X162512476Y-78614894D01*
X162518681Y-78623755D01*
X162723775Y-78945689D01*
X162729183Y-78955057D01*
X162905430Y-79293623D01*
X162910002Y-79303427D01*
X163056075Y-79656078D01*
X163059775Y-79666244D01*
X163174554Y-80030278D01*
X163177354Y-80040727D01*
X163259971Y-80413389D01*
X163261849Y-80424042D01*
X163311671Y-80802473D01*
X163312614Y-80813249D01*
X163329382Y-81197297D01*
X163329500Y-81202706D01*
X163329500Y-101677293D01*
X163329382Y-101682702D01*
X163312614Y-102066750D01*
X163311671Y-102077526D01*
X163261849Y-102455957D01*
X163259971Y-102466610D01*
X163177354Y-102839272D01*
X163174554Y-102849721D01*
X163059775Y-103213755D01*
X163056075Y-103223921D01*
X162910002Y-103576572D01*
X162905430Y-103586376D01*
X162729183Y-103924942D01*
X162723775Y-103934310D01*
X162518681Y-104256244D01*
X162512476Y-104265105D01*
X162280110Y-104567930D01*
X162273156Y-104576217D01*
X162015284Y-104857635D01*
X162007635Y-104865284D01*
X161726217Y-105123156D01*
X161717930Y-105130110D01*
X161415105Y-105362476D01*
X161406244Y-105368681D01*
X161084310Y-105573775D01*
X161074942Y-105579183D01*
X160736376Y-105755430D01*
X160726572Y-105760002D01*
X160373921Y-105906075D01*
X160363755Y-105909775D01*
X159999721Y-106024554D01*
X159989272Y-106027354D01*
X159616610Y-106109971D01*
X159605957Y-106111849D01*
X159227526Y-106161671D01*
X159216750Y-106162614D01*
X158832703Y-106179382D01*
X158827294Y-106179500D01*
X135812706Y-106179500D01*
X135807297Y-106179382D01*
X135423249Y-106162614D01*
X135412473Y-106161671D01*
X135034042Y-106111849D01*
X135023389Y-106109971D01*
X134650727Y-106027354D01*
X134640278Y-106024554D01*
X134276244Y-105909775D01*
X134266078Y-105906075D01*
X133913427Y-105760002D01*
X133903623Y-105755430D01*
X133565057Y-105579183D01*
X133555689Y-105573775D01*
X133233755Y-105368681D01*
X133224894Y-105362476D01*
X132922069Y-105130110D01*
X132913782Y-105123156D01*
X132632364Y-104865284D01*
X132624715Y-104857635D01*
X132366843Y-104576217D01*
X132359889Y-104567930D01*
X132127523Y-104265105D01*
X132121318Y-104256244D01*
X131916224Y-103934310D01*
X131910816Y-103924942D01*
X131734566Y-103586369D01*
X131729997Y-103576572D01*
X131583920Y-103223911D01*
X131580224Y-103213755D01*
X131465442Y-102849710D01*
X131462648Y-102839284D01*
X131380025Y-102466597D01*
X131378152Y-102455974D01*
X131333092Y-102113711D01*
X132769500Y-102113711D01*
X132769500Y-102356288D01*
X132801161Y-102596785D01*
X132863947Y-102831104D01*
X132956773Y-103055205D01*
X132956776Y-103055212D01*
X133078064Y-103265289D01*
X133078066Y-103265292D01*
X133078067Y-103265293D01*
X133225733Y-103457736D01*
X133225739Y-103457743D01*
X133397256Y-103629260D01*
X133397263Y-103629266D01*
X133510321Y-103716018D01*
X133589711Y-103776936D01*
X133799788Y-103898224D01*
X134023900Y-103991054D01*
X134258211Y-104053838D01*
X134438586Y-104077584D01*
X134498711Y-104085500D01*
X134498712Y-104085500D01*
X134741289Y-104085500D01*
X134789388Y-104079167D01*
X134981789Y-104053838D01*
X135216100Y-103991054D01*
X135440212Y-103898224D01*
X135650289Y-103776936D01*
X135842738Y-103629265D01*
X136014265Y-103457738D01*
X136161936Y-103265289D01*
X136283224Y-103055212D01*
X136376054Y-102831100D01*
X136438838Y-102596789D01*
X136470500Y-102356288D01*
X136470500Y-102113712D01*
X136470500Y-102113711D01*
X157534500Y-102113711D01*
X157534500Y-102356288D01*
X157566161Y-102596785D01*
X157628947Y-102831104D01*
X157721773Y-103055205D01*
X157721776Y-103055212D01*
X157843064Y-103265289D01*
X157843066Y-103265292D01*
X157843067Y-103265293D01*
X157990733Y-103457736D01*
X157990739Y-103457743D01*
X158162256Y-103629260D01*
X158162263Y-103629266D01*
X158275321Y-103716018D01*
X158354711Y-103776936D01*
X158564788Y-103898224D01*
X158788900Y-103991054D01*
X159023211Y-104053838D01*
X159203586Y-104077584D01*
X159263711Y-104085500D01*
X159263712Y-104085500D01*
X159506289Y-104085500D01*
X159554388Y-104079167D01*
X159746789Y-104053838D01*
X159981100Y-103991054D01*
X160205212Y-103898224D01*
X160415289Y-103776936D01*
X160607738Y-103629265D01*
X160779265Y-103457738D01*
X160926936Y-103265289D01*
X161048224Y-103055212D01*
X161141054Y-102831100D01*
X161203838Y-102596789D01*
X161235500Y-102356288D01*
X161235500Y-102113712D01*
X161203838Y-101873211D01*
X161141054Y-101638900D01*
X161048224Y-101414788D01*
X160926936Y-101204711D01*
X160779265Y-101012262D01*
X160779260Y-101012256D01*
X160607743Y-100840739D01*
X160607736Y-100840733D01*
X160415293Y-100693067D01*
X160415292Y-100693066D01*
X160415289Y-100693064D01*
X160205212Y-100571776D01*
X160205205Y-100571773D01*
X159981104Y-100478947D01*
X159746785Y-100416161D01*
X159506289Y-100384500D01*
X159506288Y-100384500D01*
X159263712Y-100384500D01*
X159263711Y-100384500D01*
X159023214Y-100416161D01*
X158788895Y-100478947D01*
X158564794Y-100571773D01*
X158564785Y-100571777D01*
X158354706Y-100693067D01*
X158162263Y-100840733D01*
X158162256Y-100840739D01*
X157990739Y-101012256D01*
X157990733Y-101012263D01*
X157843067Y-101204706D01*
X157721777Y-101414785D01*
X157721773Y-101414794D01*
X157628947Y-101638895D01*
X157566161Y-101873214D01*
X157534500Y-102113711D01*
X136470500Y-102113711D01*
X136438838Y-101873211D01*
X136376054Y-101638900D01*
X136283224Y-101414788D01*
X136161936Y-101204711D01*
X136014265Y-101012262D01*
X136014260Y-101012256D01*
X135842743Y-100840739D01*
X135842736Y-100840733D01*
X135650293Y-100693067D01*
X135650292Y-100693066D01*
X135650289Y-100693064D01*
X135440212Y-100571776D01*
X135440205Y-100571773D01*
X135216104Y-100478947D01*
X134981785Y-100416161D01*
X134741289Y-100384500D01*
X134741288Y-100384500D01*
X134498712Y-100384500D01*
X134498711Y-100384500D01*
X134258214Y-100416161D01*
X134023895Y-100478947D01*
X133799794Y-100571773D01*
X133799785Y-100571777D01*
X133589706Y-100693067D01*
X133397263Y-100840733D01*
X133397256Y-100840739D01*
X133225739Y-101012256D01*
X133225733Y-101012263D01*
X133078067Y-101204706D01*
X132956777Y-101414785D01*
X132956773Y-101414794D01*
X132863947Y-101638895D01*
X132801161Y-101873214D01*
X132769500Y-102113711D01*
X131333092Y-102113711D01*
X131328326Y-102077508D01*
X131327386Y-102066771D01*
X131310618Y-101682702D01*
X131310500Y-101677293D01*
X131310500Y-97076153D01*
X135724500Y-97076153D01*
X135724500Y-97233846D01*
X135755261Y-97388489D01*
X135755264Y-97388501D01*
X135815602Y-97534172D01*
X135815609Y-97534185D01*
X135903210Y-97665288D01*
X135903213Y-97665292D01*
X136014707Y-97776786D01*
X136014711Y-97776789D01*
X136145814Y-97864390D01*
X136145827Y-97864397D01*
X136291498Y-97924735D01*
X136291503Y-97924737D01*
X136446153Y-97955499D01*
X136446156Y-97955500D01*
X136446158Y-97955500D01*
X136603844Y-97955500D01*
X136603845Y-97955499D01*
X136758497Y-97924737D01*
X136904179Y-97864394D01*
X137035289Y-97776789D01*
X137146789Y-97665289D01*
X137234394Y-97534179D01*
X137294737Y-97388497D01*
X137325500Y-97233842D01*
X137325500Y-97076158D01*
X137325500Y-97076155D01*
X137325499Y-97076153D01*
X137294738Y-96921510D01*
X137294737Y-96921503D01*
X137294735Y-96921498D01*
X137234397Y-96775827D01*
X137234390Y-96775814D01*
X137146789Y-96644711D01*
X137146786Y-96644707D01*
X137035292Y-96533213D01*
X137035288Y-96533210D01*
X136904185Y-96445609D01*
X136904172Y-96445602D01*
X136758501Y-96385264D01*
X136758489Y-96385261D01*
X136603845Y-96354500D01*
X136603842Y-96354500D01*
X136446158Y-96354500D01*
X136446155Y-96354500D01*
X136291510Y-96385261D01*
X136291498Y-96385264D01*
X136145827Y-96445602D01*
X136145814Y-96445609D01*
X136014711Y-96533210D01*
X136014707Y-96533213D01*
X135903213Y-96644707D01*
X135903210Y-96644711D01*
X135815609Y-96775814D01*
X135815602Y-96775827D01*
X135755264Y-96921498D01*
X135755261Y-96921510D01*
X135724500Y-97076153D01*
X131310500Y-97076153D01*
X131310500Y-88186153D01*
X133819500Y-88186153D01*
X133819500Y-88343846D01*
X133850261Y-88498489D01*
X133850264Y-88498501D01*
X133910602Y-88644172D01*
X133910609Y-88644185D01*
X133998210Y-88775288D01*
X133998213Y-88775292D01*
X134109707Y-88886786D01*
X134109711Y-88886789D01*
X134240814Y-88974390D01*
X134240827Y-88974397D01*
X134386498Y-89034735D01*
X134386503Y-89034737D01*
X134541153Y-89065499D01*
X134541156Y-89065500D01*
X134541158Y-89065500D01*
X134698844Y-89065500D01*
X134698845Y-89065499D01*
X134853497Y-89034737D01*
X134999179Y-88974394D01*
X135130289Y-88886789D01*
X135241789Y-88775289D01*
X135329394Y-88644179D01*
X135389737Y-88498497D01*
X135420500Y-88343842D01*
X135420500Y-88186158D01*
X135420500Y-88186155D01*
X135420499Y-88186153D01*
X135389738Y-88031510D01*
X135389737Y-88031503D01*
X135389735Y-88031498D01*
X135329397Y-87885827D01*
X135329390Y-87885814D01*
X135241789Y-87754711D01*
X135241786Y-87754707D01*
X135130292Y-87643213D01*
X135130288Y-87643210D01*
X134999185Y-87555609D01*
X134999172Y-87555602D01*
X134853501Y-87495264D01*
X134853489Y-87495261D01*
X134698845Y-87464500D01*
X134698842Y-87464500D01*
X134541158Y-87464500D01*
X134541155Y-87464500D01*
X134386510Y-87495261D01*
X134386498Y-87495264D01*
X134240827Y-87555602D01*
X134240814Y-87555609D01*
X134109711Y-87643210D01*
X134109707Y-87643213D01*
X133998213Y-87754707D01*
X133998210Y-87754711D01*
X133910609Y-87885814D01*
X133910602Y-87885827D01*
X133850264Y-88031498D01*
X133850261Y-88031510D01*
X133819500Y-88186153D01*
X131310500Y-88186153D01*
X131310500Y-81202706D01*
X131310618Y-81197297D01*
X131313377Y-81134108D01*
X131327386Y-80813226D01*
X131328326Y-80802495D01*
X131365029Y-80523711D01*
X132769500Y-80523711D01*
X132769500Y-80766288D01*
X132801161Y-81006785D01*
X132863947Y-81241104D01*
X132956773Y-81465205D01*
X132956776Y-81465212D01*
X133078064Y-81675289D01*
X133078066Y-81675292D01*
X133078067Y-81675293D01*
X133225733Y-81867736D01*
X133225739Y-81867743D01*
X133397256Y-82039260D01*
X133397262Y-82039265D01*
X133589711Y-82186936D01*
X133799788Y-82308224D01*
X134023900Y-82401054D01*
X134258211Y-82463838D01*
X134438586Y-82487584D01*
X134498711Y-82495500D01*
X134498712Y-82495500D01*
X134741289Y-82495500D01*
X134789388Y-82489167D01*
X134981789Y-82463838D01*
X135216100Y-82401054D01*
X135440212Y-82308224D01*
X135650289Y-82186936D01*
X135842738Y-82039265D01*
X136014265Y-81867738D01*
X136161936Y-81675289D01*
X136283224Y-81465212D01*
X136376054Y-81241100D01*
X136438838Y-81006789D01*
X136470500Y-80766288D01*
X136470500Y-80523712D01*
X136470500Y-80523711D01*
X157534500Y-80523711D01*
X157534500Y-80766288D01*
X157566161Y-81006785D01*
X157628947Y-81241104D01*
X157721773Y-81465205D01*
X157721776Y-81465212D01*
X157843064Y-81675289D01*
X157843066Y-81675292D01*
X157843067Y-81675293D01*
X157990733Y-81867736D01*
X157990739Y-81867743D01*
X158162256Y-82039260D01*
X158162262Y-82039265D01*
X158354711Y-82186936D01*
X158564788Y-82308224D01*
X158788900Y-82401054D01*
X159023211Y-82463838D01*
X159203586Y-82487584D01*
X159263711Y-82495500D01*
X159263712Y-82495500D01*
X159506289Y-82495500D01*
X159554388Y-82489167D01*
X159746789Y-82463838D01*
X159981100Y-82401054D01*
X160205212Y-82308224D01*
X160415289Y-82186936D01*
X160607738Y-82039265D01*
X160779265Y-81867738D01*
X160926936Y-81675289D01*
X161048224Y-81465212D01*
X161141054Y-81241100D01*
X161203838Y-81006789D01*
X161235500Y-80766288D01*
X161235500Y-80523712D01*
X161203838Y-80283211D01*
X161141054Y-80048900D01*
X161048224Y-79824788D01*
X160926936Y-79614711D01*
X160779265Y-79422262D01*
X160779260Y-79422256D01*
X160607743Y-79250739D01*
X160607736Y-79250733D01*
X160415293Y-79103067D01*
X160415292Y-79103066D01*
X160415289Y-79103064D01*
X160205212Y-78981776D01*
X160205205Y-78981773D01*
X159981104Y-78888947D01*
X159746785Y-78826161D01*
X159506289Y-78794500D01*
X159506288Y-78794500D01*
X159263712Y-78794500D01*
X159263711Y-78794500D01*
X159023214Y-78826161D01*
X158788895Y-78888947D01*
X158564794Y-78981773D01*
X158564785Y-78981777D01*
X158354706Y-79103067D01*
X158162263Y-79250733D01*
X158162256Y-79250739D01*
X157990739Y-79422256D01*
X157990733Y-79422263D01*
X157843067Y-79614706D01*
X157721777Y-79824785D01*
X157721773Y-79824794D01*
X157628947Y-80048895D01*
X157566161Y-80283214D01*
X157534500Y-80523711D01*
X136470500Y-80523711D01*
X136438838Y-80283211D01*
X136376054Y-80048900D01*
X136283224Y-79824788D01*
X136161936Y-79614711D01*
X136014265Y-79422262D01*
X136014260Y-79422256D01*
X135842743Y-79250739D01*
X135842736Y-79250733D01*
X135650293Y-79103067D01*
X135650292Y-79103066D01*
X135650289Y-79103064D01*
X135440212Y-78981776D01*
X135440205Y-78981773D01*
X135216104Y-78888947D01*
X134981785Y-78826161D01*
X134741289Y-78794500D01*
X134741288Y-78794500D01*
X134498712Y-78794500D01*
X134498711Y-78794500D01*
X134258214Y-78826161D01*
X134023895Y-78888947D01*
X133799794Y-78981773D01*
X133799785Y-78981777D01*
X133589706Y-79103067D01*
X133397263Y-79250733D01*
X133397256Y-79250739D01*
X133225739Y-79422256D01*
X133225733Y-79422263D01*
X133078067Y-79614706D01*
X132956777Y-79824785D01*
X132956773Y-79824794D01*
X132863947Y-80048895D01*
X132801161Y-80283214D01*
X132769500Y-80523711D01*
X131365029Y-80523711D01*
X131378153Y-80424021D01*
X131380025Y-80413405D01*
X131462649Y-80040709D01*
X131465440Y-80030295D01*
X131580230Y-79666227D01*
X131583917Y-79656095D01*
X131730003Y-79303412D01*
X131734561Y-79293638D01*
X131910822Y-78955045D01*
X131916217Y-78945700D01*
X132121325Y-78623744D01*
X132127515Y-78614905D01*
X132359896Y-78312060D01*
X132366834Y-78303791D01*
X132624726Y-78022352D01*
X132632352Y-78014726D01*
X132913791Y-77756834D01*
X132922060Y-77749896D01*
X133224905Y-77517515D01*
X133233744Y-77511325D01*
X133555700Y-77306217D01*
X133565045Y-77300822D01*
X133903638Y-77124561D01*
X133913412Y-77120003D01*
X134266095Y-76973917D01*
X134276227Y-76970230D01*
X134640295Y-76855440D01*
X134650709Y-76852649D01*
X135023405Y-76770025D01*
X135034025Y-76768152D01*
X135412495Y-76718326D01*
X135423226Y-76717386D01*
X135807297Y-76700617D01*
X135812706Y-76700500D01*
X135875892Y-76700500D01*
X158764108Y-76700500D01*
X158827294Y-76700500D01*
X158832702Y-76700617D01*
G37*
%TD.AperFunction*%
%TD*%
M02*
