%TF.GenerationSoftware,KiCad,Pcbnew,9.0.7-rc2*%
%TF.CreationDate,2026-02-06T21:08:13+09:00*%
%TF.ProjectId,bGeigieScint Physics,62476569-6769-4655-9363-696e74205068,V0.9A*%
%TF.SameCoordinates,Original*%
%TF.FileFunction,Legend,Bot*%
%TF.FilePolarity,Positive*%
%FSLAX46Y46*%
G04 Gerber Fmt 4.6, Leading zero omitted, Abs format (unit mm)*
G04 Created by KiCad (PCBNEW 9.0.7-rc2) date 2026-02-06 21:08:13*
%MOMM*%
%LPD*%
G01*
G04 APERTURE LIST*
%ADD10C,0.187500*%
%ADD11C,0.200000*%
%ADD12C,0.254000*%
%ADD13C,3.200000*%
%ADD14C,0.208000*%
G04 APERTURE END LIST*
D10*
X148115642Y-91713714D02*
X148115642Y-90963714D01*
X147329928Y-91642285D02*
X147365642Y-91678000D01*
X147365642Y-91678000D02*
X147472785Y-91713714D01*
X147472785Y-91713714D02*
X147544213Y-91713714D01*
X147544213Y-91713714D02*
X147651356Y-91678000D01*
X147651356Y-91678000D02*
X147722785Y-91606571D01*
X147722785Y-91606571D02*
X147758499Y-91535142D01*
X147758499Y-91535142D02*
X147794213Y-91392285D01*
X147794213Y-91392285D02*
X147794213Y-91285142D01*
X147794213Y-91285142D02*
X147758499Y-91142285D01*
X147758499Y-91142285D02*
X147722785Y-91070857D01*
X147722785Y-91070857D02*
X147651356Y-90999428D01*
X147651356Y-90999428D02*
X147544213Y-90963714D01*
X147544213Y-90963714D02*
X147472785Y-90963714D01*
X147472785Y-90963714D02*
X147365642Y-90999428D01*
X147365642Y-90999428D02*
X147329928Y-91035142D01*
X146615642Y-91713714D02*
X147044213Y-91713714D01*
X146829928Y-91713714D02*
X146829928Y-90963714D01*
X146829928Y-90963714D02*
X146901356Y-91070857D01*
X146901356Y-91070857D02*
X146972785Y-91142285D01*
X146972785Y-91142285D02*
X147044213Y-91178000D01*
D11*
%TO.C,IC1*%
X144318500Y-88311500D02*
X144318500Y-93876500D01*
X144318500Y-93876500D02*
X144883500Y-94441500D01*
X144883500Y-94441500D02*
X150448500Y-94441500D01*
X150448500Y-88311500D02*
X144318500Y-88311500D01*
X150448500Y-94441500D02*
X150448500Y-88311500D01*
D12*
X144418500Y-94441500D02*
G75*
G02*
X144218500Y-94441500I-100000J0D01*
G01*
X144218500Y-94441500D02*
G75*
G02*
X144418500Y-94441500I100000J0D01*
G01*
%TD*%
%LPC*%
D13*
%TO.C,H4*%
X159385000Y-102235000D03*
%TD*%
%TO.C,H1*%
X134620000Y-80645000D03*
%TD*%
%TO.C,H2*%
X159385000Y-80645000D03*
%TD*%
%TO.C,H3*%
X134620000Y-102235000D03*
%TD*%
D14*
%TO.C,IC1*%
X144883500Y-93876500D03*
X145883500Y-93876500D03*
X146883500Y-93876500D03*
X147883500Y-93876500D03*
X148883500Y-93876500D03*
X149883500Y-93876500D03*
X144883500Y-92876500D03*
X145883500Y-92876500D03*
X146883500Y-92876500D03*
X147883500Y-92876500D03*
X148883500Y-92876500D03*
X149883500Y-92876500D03*
X144883500Y-91876500D03*
X145883500Y-91876500D03*
X146883500Y-91876500D03*
X147883500Y-91876500D03*
X148883500Y-91876500D03*
X149883500Y-91876500D03*
X144883500Y-90876500D03*
X145883500Y-90876500D03*
X146883500Y-90876500D03*
X147883500Y-90876500D03*
X148883500Y-90876500D03*
X149883500Y-90876500D03*
X144883500Y-89876500D03*
X145883500Y-89876500D03*
X146883500Y-89876500D03*
X147883500Y-89876500D03*
X148883500Y-89876500D03*
X149883500Y-89876500D03*
X144883500Y-88876500D03*
X145883500Y-88876500D03*
X146883500Y-88876500D03*
X147883500Y-88876500D03*
X148883500Y-88876500D03*
X149883500Y-88876500D03*
%TD*%
%LPD*%
M02*
