%TF.GenerationSoftware,KiCad,Pcbnew,9.0.7-rc2*%
%TF.CreationDate,2026-02-06T21:08:13+09:00*%
%TF.ProjectId,bGeigieScint Physics,62476569-6769-4655-9363-696e74205068,V0.9A*%
%TF.SameCoordinates,Original*%
%TF.FileFunction,Soldermask,Bot*%
%TF.FilePolarity,Negative*%
%FSLAX46Y46*%
G04 Gerber Fmt 4.6, Leading zero omitted, Abs format (unit mm)*
G04 Created by KiCad (PCBNEW 9.0.7-rc2) date 2026-02-06 21:08:13*
%MOMM*%
%LPD*%
G01*
G04 APERTURE LIST*
%ADD10C,3.200000*%
%ADD11C,0.208000*%
G04 APERTURE END LIST*
D10*
%TO.C,H4*%
X159385000Y-102235000D03*
%TD*%
%TO.C,H1*%
X134620000Y-80645000D03*
%TD*%
%TO.C,H2*%
X159385000Y-80645000D03*
%TD*%
%TO.C,H3*%
X134620000Y-102235000D03*
%TD*%
D11*
%TO.C,IC1*%
X144883500Y-93876500D03*
X145883500Y-93876500D03*
X146883500Y-93876500D03*
X147883500Y-93876500D03*
X148883500Y-93876500D03*
X149883500Y-93876500D03*
X144883500Y-92876500D03*
X145883500Y-92876500D03*
X146883500Y-92876500D03*
X147883500Y-92876500D03*
X148883500Y-92876500D03*
X149883500Y-92876500D03*
X144883500Y-91876500D03*
X145883500Y-91876500D03*
X146883500Y-91876500D03*
X147883500Y-91876500D03*
X148883500Y-91876500D03*
X149883500Y-91876500D03*
X144883500Y-90876500D03*
X145883500Y-90876500D03*
X146883500Y-90876500D03*
X147883500Y-90876500D03*
X148883500Y-90876500D03*
X149883500Y-90876500D03*
X144883500Y-89876500D03*
X145883500Y-89876500D03*
X146883500Y-89876500D03*
X147883500Y-89876500D03*
X148883500Y-89876500D03*
X149883500Y-89876500D03*
X144883500Y-88876500D03*
X145883500Y-88876500D03*
X146883500Y-88876500D03*
X147883500Y-88876500D03*
X148883500Y-88876500D03*
X149883500Y-88876500D03*
%TD*%
M02*
