%TF.GenerationSoftware,KiCad,Pcbnew,10.0.4*%
%TF.CreationDate,2026-07-04T12:46:53-04:00*%
%TF.ProjectId,carrier1_Adalogger_M0_2x3pin,63617272-6965-4723-915f-4164616c6f67,A*%
%TF.SameCoordinates,Original*%
%TF.FileFunction,Soldermask,Bot*%
%TF.FilePolarity,Negative*%
%FSLAX46Y46*%
G04 Gerber Fmt 4.6, Leading zero omitted, Abs format (unit mm)*
G04 Created by KiCad (PCBNEW 10.0.4) date 2026-07-04 12:46:53*
%MOMM*%
%LPD*%
G01*
G04 APERTURE LIST*
G04 APERTURE END LIST*
G36*
X54438953Y-146793233D02*
G01*
X54723239Y-146869407D01*
X54995150Y-146982036D01*
X55250033Y-147129193D01*
X55483528Y-147308360D01*
X55691640Y-147516472D01*
X55870807Y-147749967D01*
X56017964Y-148004850D01*
X56130593Y-148276761D01*
X56206767Y-148561047D01*
X56245183Y-148852843D01*
X56245183Y-149147157D01*
X56206767Y-149438953D01*
X56130593Y-149723239D01*
X56017964Y-149995150D01*
X55870807Y-150250033D01*
X55691640Y-150483528D01*
X55483528Y-150691640D01*
X55250033Y-150870807D01*
X54995150Y-151017964D01*
X54723239Y-151130593D01*
X54438953Y-151206767D01*
X54147157Y-151245183D01*
X53852843Y-151245183D01*
X53561047Y-151206767D01*
X53276761Y-151130593D01*
X53004850Y-151017964D01*
X52749967Y-150870807D01*
X52516472Y-150691640D01*
X52308360Y-150483528D01*
X52129193Y-150250033D01*
X51982036Y-149995150D01*
X51869407Y-149723239D01*
X51793233Y-149438953D01*
X51754817Y-149147157D01*
X51754817Y-148852843D01*
X51793233Y-148561047D01*
X51869407Y-148276761D01*
X51982036Y-148004850D01*
X52129193Y-147749967D01*
X52308360Y-147516472D01*
X52516472Y-147308360D01*
X52749967Y-147129193D01*
X53004850Y-146982036D01*
X53276761Y-146869407D01*
X53561047Y-146793233D01*
X53852843Y-146754817D01*
X54147157Y-146754817D01*
X54438953Y-146793233D01*
G37*
G36*
X127438953Y-146793233D02*
G01*
X127723239Y-146869407D01*
X127995150Y-146982036D01*
X128250033Y-147129193D01*
X128483528Y-147308360D01*
X128691640Y-147516472D01*
X128870807Y-147749967D01*
X129017964Y-148004850D01*
X129130593Y-148276761D01*
X129206767Y-148561047D01*
X129245183Y-148852843D01*
X129245183Y-149147157D01*
X129206767Y-149438953D01*
X129130593Y-149723239D01*
X129017964Y-149995150D01*
X128870807Y-150250033D01*
X128691640Y-150483528D01*
X128483528Y-150691640D01*
X128250033Y-150870807D01*
X127995150Y-151017964D01*
X127723239Y-151130593D01*
X127438953Y-151206767D01*
X127147157Y-151245183D01*
X126852843Y-151245183D01*
X126561047Y-151206767D01*
X126276761Y-151130593D01*
X126004850Y-151017964D01*
X125749967Y-150870807D01*
X125516472Y-150691640D01*
X125308360Y-150483528D01*
X125129193Y-150250033D01*
X124982036Y-149995150D01*
X124869407Y-149723239D01*
X124793233Y-149438953D01*
X124754817Y-149147157D01*
X124754817Y-148852843D01*
X124793233Y-148561047D01*
X124869407Y-148276761D01*
X124982036Y-148004850D01*
X125129193Y-147749967D01*
X125308360Y-147516472D01*
X125516472Y-147308360D01*
X125749967Y-147129193D01*
X126004850Y-146982036D01*
X126276761Y-146869407D01*
X126561047Y-146793233D01*
X126852843Y-146754817D01*
X127147157Y-146754817D01*
X127438953Y-146793233D01*
G37*
G36*
X119850000Y-150600000D02*
G01*
X118150000Y-150600000D01*
X118150000Y-148900000D01*
X119850000Y-148900000D01*
X119850000Y-150600000D01*
G37*
G36*
X66454047Y-143400805D02*
G01*
X66505408Y-143406764D01*
X66522954Y-143414511D01*
X66545671Y-143419030D01*
X66569991Y-143435280D01*
X66590793Y-143444465D01*
X66605000Y-143458672D01*
X66626777Y-143473223D01*
X66641327Y-143494999D01*
X66655534Y-143509206D01*
X66664718Y-143530006D01*
X66680970Y-143554329D01*
X66685489Y-143577048D01*
X66693235Y-143594591D01*
X66699192Y-143645940D01*
X66700000Y-143650000D01*
X66700000Y-145750000D01*
X66699192Y-145754059D01*
X66693235Y-145805408D01*
X66685489Y-145822950D01*
X66680970Y-145845671D01*
X66664716Y-145869995D01*
X66655534Y-145890793D01*
X66641329Y-145904997D01*
X66626777Y-145926777D01*
X66604997Y-145941329D01*
X66590793Y-145955534D01*
X66569995Y-145964716D01*
X66545671Y-145980970D01*
X66522950Y-145985489D01*
X66505408Y-145993235D01*
X66454061Y-145999192D01*
X66450000Y-146000000D01*
X65350000Y-146000000D01*
X65345941Y-145999192D01*
X65294591Y-145993235D01*
X65277048Y-145985489D01*
X65254329Y-145980970D01*
X65230006Y-145964718D01*
X65209206Y-145955534D01*
X65194999Y-145941327D01*
X65173223Y-145926777D01*
X65158672Y-145905000D01*
X65144465Y-145890793D01*
X65135280Y-145869991D01*
X65119030Y-145845671D01*
X65114511Y-145822954D01*
X65106764Y-145805408D01*
X65100805Y-145754049D01*
X65100000Y-145750000D01*
X65100000Y-143650000D01*
X65100804Y-143645953D01*
X65106764Y-143594591D01*
X65114511Y-143577043D01*
X65119030Y-143554329D01*
X65135278Y-143530010D01*
X65144465Y-143509206D01*
X65158674Y-143494996D01*
X65173223Y-143473223D01*
X65194996Y-143458674D01*
X65209206Y-143444465D01*
X65230010Y-143435278D01*
X65254329Y-143419030D01*
X65277043Y-143414511D01*
X65294591Y-143406764D01*
X65345952Y-143400805D01*
X65350000Y-143400000D01*
X66450000Y-143400000D01*
X66454047Y-143400805D01*
G37*
G36*
X68672228Y-143434448D02*
G01*
X68817117Y-143494463D01*
X68947515Y-143581592D01*
X69058408Y-143692485D01*
X69145537Y-143822883D01*
X69205552Y-143967772D01*
X69236148Y-144121586D01*
X69240000Y-144200000D01*
X69240000Y-145200000D01*
X69236148Y-145278414D01*
X69205552Y-145432228D01*
X69145537Y-145577117D01*
X69058408Y-145707515D01*
X68947515Y-145818408D01*
X68817117Y-145905537D01*
X68672228Y-145965552D01*
X68518414Y-145996148D01*
X68361586Y-145996148D01*
X68207772Y-145965552D01*
X68062883Y-145905537D01*
X67932485Y-145818408D01*
X67821592Y-145707515D01*
X67734463Y-145577117D01*
X67674448Y-145432228D01*
X67643852Y-145278414D01*
X67640000Y-145200000D01*
X67640000Y-144200000D01*
X67643852Y-144121586D01*
X67674448Y-143967772D01*
X67734463Y-143822883D01*
X67821592Y-143692485D01*
X67932485Y-143581592D01*
X68062883Y-143494463D01*
X68207772Y-143434448D01*
X68361586Y-143403852D01*
X68518414Y-143403852D01*
X68672228Y-143434448D01*
G37*
G36*
X71212228Y-143434448D02*
G01*
X71357117Y-143494463D01*
X71487515Y-143581592D01*
X71598408Y-143692485D01*
X71685537Y-143822883D01*
X71745552Y-143967772D01*
X71776148Y-144121586D01*
X71780000Y-144200000D01*
X71780000Y-145200000D01*
X71776148Y-145278414D01*
X71745552Y-145432228D01*
X71685537Y-145577117D01*
X71598408Y-145707515D01*
X71487515Y-145818408D01*
X71357117Y-145905537D01*
X71212228Y-145965552D01*
X71058414Y-145996148D01*
X70901586Y-145996148D01*
X70747772Y-145965552D01*
X70602883Y-145905537D01*
X70472485Y-145818408D01*
X70361592Y-145707515D01*
X70274463Y-145577117D01*
X70214448Y-145432228D01*
X70183852Y-145278414D01*
X70180000Y-145200000D01*
X70180000Y-144200000D01*
X70183852Y-144121586D01*
X70214448Y-143967772D01*
X70274463Y-143822883D01*
X70361592Y-143692485D01*
X70472485Y-143581592D01*
X70602883Y-143494463D01*
X70747772Y-143434448D01*
X70901586Y-143403852D01*
X71058414Y-143403852D01*
X71212228Y-143434448D01*
G37*
G36*
X73752228Y-143434448D02*
G01*
X73897117Y-143494463D01*
X74027515Y-143581592D01*
X74138408Y-143692485D01*
X74225537Y-143822883D01*
X74285552Y-143967772D01*
X74316148Y-144121586D01*
X74320000Y-144200000D01*
X74320000Y-145200000D01*
X74316148Y-145278414D01*
X74285552Y-145432228D01*
X74225537Y-145577117D01*
X74138408Y-145707515D01*
X74027515Y-145818408D01*
X73897117Y-145905537D01*
X73752228Y-145965552D01*
X73598414Y-145996148D01*
X73441586Y-145996148D01*
X73287772Y-145965552D01*
X73142883Y-145905537D01*
X73012485Y-145818408D01*
X72901592Y-145707515D01*
X72814463Y-145577117D01*
X72754448Y-145432228D01*
X72723852Y-145278414D01*
X72720000Y-145200000D01*
X72720000Y-144200000D01*
X72723852Y-144121586D01*
X72754448Y-143967772D01*
X72814463Y-143822883D01*
X72901592Y-143692485D01*
X73012485Y-143581592D01*
X73142883Y-143494463D01*
X73287772Y-143434448D01*
X73441586Y-143403852D01*
X73598414Y-143403852D01*
X73752228Y-143434448D01*
G37*
G36*
X76292228Y-143434448D02*
G01*
X76437117Y-143494463D01*
X76567515Y-143581592D01*
X76678408Y-143692485D01*
X76765537Y-143822883D01*
X76825552Y-143967772D01*
X76856148Y-144121586D01*
X76860000Y-144200000D01*
X76860000Y-145200000D01*
X76856148Y-145278414D01*
X76825552Y-145432228D01*
X76765537Y-145577117D01*
X76678408Y-145707515D01*
X76567515Y-145818408D01*
X76437117Y-145905537D01*
X76292228Y-145965552D01*
X76138414Y-145996148D01*
X75981586Y-145996148D01*
X75827772Y-145965552D01*
X75682883Y-145905537D01*
X75552485Y-145818408D01*
X75441592Y-145707515D01*
X75354463Y-145577117D01*
X75294448Y-145432228D01*
X75263852Y-145278414D01*
X75260000Y-145200000D01*
X75260000Y-144200000D01*
X75263852Y-144121586D01*
X75294448Y-143967772D01*
X75354463Y-143822883D01*
X75441592Y-143692485D01*
X75552485Y-143581592D01*
X75682883Y-143494463D01*
X75827772Y-143434448D01*
X75981586Y-143403852D01*
X76138414Y-143403852D01*
X76292228Y-143434448D01*
G37*
G36*
X78832228Y-143434448D02*
G01*
X78977117Y-143494463D01*
X79107515Y-143581592D01*
X79218408Y-143692485D01*
X79305537Y-143822883D01*
X79365552Y-143967772D01*
X79396148Y-144121586D01*
X79400000Y-144200000D01*
X79400000Y-145200000D01*
X79396148Y-145278414D01*
X79365552Y-145432228D01*
X79305537Y-145577117D01*
X79218408Y-145707515D01*
X79107515Y-145818408D01*
X78977117Y-145905537D01*
X78832228Y-145965552D01*
X78678414Y-145996148D01*
X78521586Y-145996148D01*
X78367772Y-145965552D01*
X78222883Y-145905537D01*
X78092485Y-145818408D01*
X77981592Y-145707515D01*
X77894463Y-145577117D01*
X77834448Y-145432228D01*
X77803852Y-145278414D01*
X77800000Y-145200000D01*
X77800000Y-144200000D01*
X77803852Y-144121586D01*
X77834448Y-143967772D01*
X77894463Y-143822883D01*
X77981592Y-143692485D01*
X78092485Y-143581592D01*
X78222883Y-143494463D01*
X78367772Y-143434448D01*
X78521586Y-143403852D01*
X78678414Y-143403852D01*
X78832228Y-143434448D01*
G37*
G36*
X81372228Y-143434448D02*
G01*
X81517117Y-143494463D01*
X81647515Y-143581592D01*
X81758408Y-143692485D01*
X81845537Y-143822883D01*
X81905552Y-143967772D01*
X81936148Y-144121586D01*
X81940000Y-144200000D01*
X81940000Y-145200000D01*
X81936148Y-145278414D01*
X81905552Y-145432228D01*
X81845537Y-145577117D01*
X81758408Y-145707515D01*
X81647515Y-145818408D01*
X81517117Y-145905537D01*
X81372228Y-145965552D01*
X81218414Y-145996148D01*
X81061586Y-145996148D01*
X80907772Y-145965552D01*
X80762883Y-145905537D01*
X80632485Y-145818408D01*
X80521592Y-145707515D01*
X80434463Y-145577117D01*
X80374448Y-145432228D01*
X80343852Y-145278414D01*
X80340000Y-145200000D01*
X80340000Y-144200000D01*
X80343852Y-144121586D01*
X80374448Y-143967772D01*
X80434463Y-143822883D01*
X80521592Y-143692485D01*
X80632485Y-143581592D01*
X80762883Y-143494463D01*
X80907772Y-143434448D01*
X81061586Y-143403852D01*
X81218414Y-143403852D01*
X81372228Y-143434448D01*
G37*
G36*
X83912228Y-143434448D02*
G01*
X84057117Y-143494463D01*
X84187515Y-143581592D01*
X84298408Y-143692485D01*
X84385537Y-143822883D01*
X84445552Y-143967772D01*
X84476148Y-144121586D01*
X84480000Y-144200000D01*
X84480000Y-145200000D01*
X84476148Y-145278414D01*
X84445552Y-145432228D01*
X84385537Y-145577117D01*
X84298408Y-145707515D01*
X84187515Y-145818408D01*
X84057117Y-145905537D01*
X83912228Y-145965552D01*
X83758414Y-145996148D01*
X83601586Y-145996148D01*
X83447772Y-145965552D01*
X83302883Y-145905537D01*
X83172485Y-145818408D01*
X83061592Y-145707515D01*
X82974463Y-145577117D01*
X82914448Y-145432228D01*
X82883852Y-145278414D01*
X82880000Y-145200000D01*
X82880000Y-144200000D01*
X82883852Y-144121586D01*
X82914448Y-143967772D01*
X82974463Y-143822883D01*
X83061592Y-143692485D01*
X83172485Y-143581592D01*
X83302883Y-143494463D01*
X83447772Y-143434448D01*
X83601586Y-143403852D01*
X83758414Y-143403852D01*
X83912228Y-143434448D01*
G37*
G36*
X86452228Y-143434448D02*
G01*
X86597117Y-143494463D01*
X86727515Y-143581592D01*
X86838408Y-143692485D01*
X86925537Y-143822883D01*
X86985552Y-143967772D01*
X87016148Y-144121586D01*
X87020000Y-144200000D01*
X87020000Y-145200000D01*
X87016148Y-145278414D01*
X86985552Y-145432228D01*
X86925537Y-145577117D01*
X86838408Y-145707515D01*
X86727515Y-145818408D01*
X86597117Y-145905537D01*
X86452228Y-145965552D01*
X86298414Y-145996148D01*
X86141586Y-145996148D01*
X85987772Y-145965552D01*
X85842883Y-145905537D01*
X85712485Y-145818408D01*
X85601592Y-145707515D01*
X85514463Y-145577117D01*
X85454448Y-145432228D01*
X85423852Y-145278414D01*
X85420000Y-145200000D01*
X85420000Y-144200000D01*
X85423852Y-144121586D01*
X85454448Y-143967772D01*
X85514463Y-143822883D01*
X85601592Y-143692485D01*
X85712485Y-143581592D01*
X85842883Y-143494463D01*
X85987772Y-143434448D01*
X86141586Y-143403852D01*
X86298414Y-143403852D01*
X86452228Y-143434448D01*
G37*
G36*
X88992228Y-143434448D02*
G01*
X89137117Y-143494463D01*
X89267515Y-143581592D01*
X89378408Y-143692485D01*
X89465537Y-143822883D01*
X89525552Y-143967772D01*
X89556148Y-144121586D01*
X89560000Y-144200000D01*
X89560000Y-145200000D01*
X89556148Y-145278414D01*
X89525552Y-145432228D01*
X89465537Y-145577117D01*
X89378408Y-145707515D01*
X89267515Y-145818408D01*
X89137117Y-145905537D01*
X88992228Y-145965552D01*
X88838414Y-145996148D01*
X88681586Y-145996148D01*
X88527772Y-145965552D01*
X88382883Y-145905537D01*
X88252485Y-145818408D01*
X88141592Y-145707515D01*
X88054463Y-145577117D01*
X87994448Y-145432228D01*
X87963852Y-145278414D01*
X87960000Y-145200000D01*
X87960000Y-144200000D01*
X87963852Y-144121586D01*
X87994448Y-143967772D01*
X88054463Y-143822883D01*
X88141592Y-143692485D01*
X88252485Y-143581592D01*
X88382883Y-143494463D01*
X88527772Y-143434448D01*
X88681586Y-143403852D01*
X88838414Y-143403852D01*
X88992228Y-143434448D01*
G37*
G36*
X91532228Y-143434448D02*
G01*
X91677117Y-143494463D01*
X91807515Y-143581592D01*
X91918408Y-143692485D01*
X92005537Y-143822883D01*
X92065552Y-143967772D01*
X92096148Y-144121586D01*
X92100000Y-144200000D01*
X92100000Y-145200000D01*
X92096148Y-145278414D01*
X92065552Y-145432228D01*
X92005537Y-145577117D01*
X91918408Y-145707515D01*
X91807515Y-145818408D01*
X91677117Y-145905537D01*
X91532228Y-145965552D01*
X91378414Y-145996148D01*
X91221586Y-145996148D01*
X91067772Y-145965552D01*
X90922883Y-145905537D01*
X90792485Y-145818408D01*
X90681592Y-145707515D01*
X90594463Y-145577117D01*
X90534448Y-145432228D01*
X90503852Y-145278414D01*
X90500000Y-145200000D01*
X90500000Y-144200000D01*
X90503852Y-144121586D01*
X90534448Y-143967772D01*
X90594463Y-143822883D01*
X90681592Y-143692485D01*
X90792485Y-143581592D01*
X90922883Y-143494463D01*
X91067772Y-143434448D01*
X91221586Y-143403852D01*
X91378414Y-143403852D01*
X91532228Y-143434448D01*
G37*
G36*
X94072228Y-143434448D02*
G01*
X94217117Y-143494463D01*
X94347515Y-143581592D01*
X94458408Y-143692485D01*
X94545537Y-143822883D01*
X94605552Y-143967772D01*
X94636148Y-144121586D01*
X94640000Y-144200000D01*
X94640000Y-145200000D01*
X94636148Y-145278414D01*
X94605552Y-145432228D01*
X94545537Y-145577117D01*
X94458408Y-145707515D01*
X94347515Y-145818408D01*
X94217117Y-145905537D01*
X94072228Y-145965552D01*
X93918414Y-145996148D01*
X93761586Y-145996148D01*
X93607772Y-145965552D01*
X93462883Y-145905537D01*
X93332485Y-145818408D01*
X93221592Y-145707515D01*
X93134463Y-145577117D01*
X93074448Y-145432228D01*
X93043852Y-145278414D01*
X93040000Y-145200000D01*
X93040000Y-144200000D01*
X93043852Y-144121586D01*
X93074448Y-143967772D01*
X93134463Y-143822883D01*
X93221592Y-143692485D01*
X93332485Y-143581592D01*
X93462883Y-143494463D01*
X93607772Y-143434448D01*
X93761586Y-143403852D01*
X93918414Y-143403852D01*
X94072228Y-143434448D01*
G37*
G36*
X96612228Y-143434448D02*
G01*
X96757117Y-143494463D01*
X96887515Y-143581592D01*
X96998408Y-143692485D01*
X97085537Y-143822883D01*
X97145552Y-143967772D01*
X97176148Y-144121586D01*
X97180000Y-144200000D01*
X97180000Y-145200000D01*
X97176148Y-145278414D01*
X97145552Y-145432228D01*
X97085537Y-145577117D01*
X96998408Y-145707515D01*
X96887515Y-145818408D01*
X96757117Y-145905537D01*
X96612228Y-145965552D01*
X96458414Y-145996148D01*
X96301586Y-145996148D01*
X96147772Y-145965552D01*
X96002883Y-145905537D01*
X95872485Y-145818408D01*
X95761592Y-145707515D01*
X95674463Y-145577117D01*
X95614448Y-145432228D01*
X95583852Y-145278414D01*
X95580000Y-145200000D01*
X95580000Y-144200000D01*
X95583852Y-144121586D01*
X95614448Y-143967772D01*
X95674463Y-143822883D01*
X95761592Y-143692485D01*
X95872485Y-143581592D01*
X96002883Y-143494463D01*
X96147772Y-143434448D01*
X96301586Y-143403852D01*
X96458414Y-143403852D01*
X96612228Y-143434448D01*
G37*
G36*
X99152228Y-143434448D02*
G01*
X99297117Y-143494463D01*
X99427515Y-143581592D01*
X99538408Y-143692485D01*
X99625537Y-143822883D01*
X99685552Y-143967772D01*
X99716148Y-144121586D01*
X99720000Y-144200000D01*
X99720000Y-145200000D01*
X99716148Y-145278414D01*
X99685552Y-145432228D01*
X99625537Y-145577117D01*
X99538408Y-145707515D01*
X99427515Y-145818408D01*
X99297117Y-145905537D01*
X99152228Y-145965552D01*
X98998414Y-145996148D01*
X98841586Y-145996148D01*
X98687772Y-145965552D01*
X98542883Y-145905537D01*
X98412485Y-145818408D01*
X98301592Y-145707515D01*
X98214463Y-145577117D01*
X98154448Y-145432228D01*
X98123852Y-145278414D01*
X98120000Y-145200000D01*
X98120000Y-144200000D01*
X98123852Y-144121586D01*
X98154448Y-143967772D01*
X98214463Y-143822883D01*
X98301592Y-143692485D01*
X98412485Y-143581592D01*
X98542883Y-143494463D01*
X98687772Y-143434448D01*
X98841586Y-143403852D01*
X98998414Y-143403852D01*
X99152228Y-143434448D01*
G37*
G36*
X101692228Y-143434448D02*
G01*
X101837117Y-143494463D01*
X101967515Y-143581592D01*
X102078408Y-143692485D01*
X102165537Y-143822883D01*
X102225552Y-143967772D01*
X102256148Y-144121586D01*
X102260000Y-144200000D01*
X102260000Y-145200000D01*
X102256148Y-145278414D01*
X102225552Y-145432228D01*
X102165537Y-145577117D01*
X102078408Y-145707515D01*
X101967515Y-145818408D01*
X101837117Y-145905537D01*
X101692228Y-145965552D01*
X101538414Y-145996148D01*
X101381586Y-145996148D01*
X101227772Y-145965552D01*
X101082883Y-145905537D01*
X100952485Y-145818408D01*
X100841592Y-145707515D01*
X100754463Y-145577117D01*
X100694448Y-145432228D01*
X100663852Y-145278414D01*
X100660000Y-145200000D01*
X100660000Y-144200000D01*
X100663852Y-144121586D01*
X100694448Y-143967772D01*
X100754463Y-143822883D01*
X100841592Y-143692485D01*
X100952485Y-143581592D01*
X101082883Y-143494463D01*
X101227772Y-143434448D01*
X101381586Y-143403852D01*
X101538414Y-143403852D01*
X101692228Y-143434448D01*
G37*
G36*
X104232228Y-143434448D02*
G01*
X104377117Y-143494463D01*
X104507515Y-143581592D01*
X104618408Y-143692485D01*
X104705537Y-143822883D01*
X104765552Y-143967772D01*
X104796148Y-144121586D01*
X104800000Y-144200000D01*
X104800000Y-145200000D01*
X104796148Y-145278414D01*
X104765552Y-145432228D01*
X104705537Y-145577117D01*
X104618408Y-145707515D01*
X104507515Y-145818408D01*
X104377117Y-145905537D01*
X104232228Y-145965552D01*
X104078414Y-145996148D01*
X103921586Y-145996148D01*
X103767772Y-145965552D01*
X103622883Y-145905537D01*
X103492485Y-145818408D01*
X103381592Y-145707515D01*
X103294463Y-145577117D01*
X103234448Y-145432228D01*
X103203852Y-145278414D01*
X103200000Y-145200000D01*
X103200000Y-144200000D01*
X103203852Y-144121586D01*
X103234448Y-143967772D01*
X103294463Y-143822883D01*
X103381592Y-143692485D01*
X103492485Y-143581592D01*
X103622883Y-143494463D01*
X103767772Y-143434448D01*
X103921586Y-143403852D01*
X104078414Y-143403852D01*
X104232228Y-143434448D01*
G37*
G36*
X119700000Y-139610000D02*
G01*
X118000000Y-139610000D01*
X118000000Y-137910000D01*
X119700000Y-137910000D01*
X119700000Y-139610000D01*
G37*
G36*
X122240000Y-139610000D02*
G01*
X120540000Y-139610000D01*
X120540000Y-137910000D01*
X122240000Y-137910000D01*
X122240000Y-139610000D01*
G37*
G36*
X114016742Y-137946601D02*
G01*
X114170687Y-138010367D01*
X114309234Y-138102941D01*
X114427059Y-138220766D01*
X114519633Y-138359313D01*
X114583399Y-138513258D01*
X114615907Y-138676685D01*
X114615907Y-138843315D01*
X114583399Y-139006742D01*
X114519633Y-139160687D01*
X114427059Y-139299234D01*
X114309234Y-139417059D01*
X114170687Y-139509633D01*
X114016742Y-139573399D01*
X113853315Y-139605907D01*
X113686685Y-139605907D01*
X113523258Y-139573399D01*
X113369313Y-139509633D01*
X113230766Y-139417059D01*
X113112941Y-139299234D01*
X113020367Y-139160687D01*
X112956601Y-139006742D01*
X112924093Y-138843315D01*
X112924093Y-138676685D01*
X112956601Y-138513258D01*
X113020367Y-138359313D01*
X113112941Y-138220766D01*
X113230766Y-138102941D01*
X113369313Y-138010367D01*
X113523258Y-137946601D01*
X113686685Y-137914093D01*
X113853315Y-137914093D01*
X114016742Y-137946601D01*
G37*
G36*
X116556742Y-137946601D02*
G01*
X116710687Y-138010367D01*
X116849234Y-138102941D01*
X116967059Y-138220766D01*
X117059633Y-138359313D01*
X117123399Y-138513258D01*
X117155907Y-138676685D01*
X117155907Y-138843315D01*
X117123399Y-139006742D01*
X117059633Y-139160687D01*
X116967059Y-139299234D01*
X116849234Y-139417059D01*
X116710687Y-139509633D01*
X116556742Y-139573399D01*
X116393315Y-139605907D01*
X116226685Y-139605907D01*
X116063258Y-139573399D01*
X115909313Y-139509633D01*
X115770766Y-139417059D01*
X115652941Y-139299234D01*
X115560367Y-139160687D01*
X115496601Y-139006742D01*
X115464093Y-138843315D01*
X115464093Y-138676685D01*
X115496601Y-138513258D01*
X115560367Y-138359313D01*
X115652941Y-138220766D01*
X115770766Y-138102941D01*
X115909313Y-138010367D01*
X116063258Y-137946601D01*
X116226685Y-137914093D01*
X116393315Y-137914093D01*
X116556742Y-137946601D01*
G37*
G36*
X124176742Y-137946601D02*
G01*
X124330687Y-138010367D01*
X124469234Y-138102941D01*
X124587059Y-138220766D01*
X124679633Y-138359313D01*
X124743399Y-138513258D01*
X124775907Y-138676685D01*
X124775907Y-138843315D01*
X124743399Y-139006742D01*
X124679633Y-139160687D01*
X124587059Y-139299234D01*
X124469234Y-139417059D01*
X124330687Y-139509633D01*
X124176742Y-139573399D01*
X124013315Y-139605907D01*
X123846685Y-139605907D01*
X123683258Y-139573399D01*
X123529313Y-139509633D01*
X123390766Y-139417059D01*
X123272941Y-139299234D01*
X123180367Y-139160687D01*
X123116601Y-139006742D01*
X123084093Y-138843315D01*
X123084093Y-138676685D01*
X123116601Y-138513258D01*
X123180367Y-138359313D01*
X123272941Y-138220766D01*
X123390766Y-138102941D01*
X123529313Y-138010367D01*
X123683258Y-137946601D01*
X123846685Y-137914093D01*
X124013315Y-137914093D01*
X124176742Y-137946601D01*
G37*
G36*
X126716742Y-137946601D02*
G01*
X126870687Y-138010367D01*
X127009234Y-138102941D01*
X127127059Y-138220766D01*
X127219633Y-138359313D01*
X127283399Y-138513258D01*
X127315907Y-138676685D01*
X127315907Y-138843315D01*
X127283399Y-139006742D01*
X127219633Y-139160687D01*
X127127059Y-139299234D01*
X127009234Y-139417059D01*
X126870687Y-139509633D01*
X126716742Y-139573399D01*
X126553315Y-139605907D01*
X126386685Y-139605907D01*
X126223258Y-139573399D01*
X126069313Y-139509633D01*
X125930766Y-139417059D01*
X125812941Y-139299234D01*
X125720367Y-139160687D01*
X125656601Y-139006742D01*
X125624093Y-138843315D01*
X125624093Y-138676685D01*
X125656601Y-138513258D01*
X125720367Y-138359313D01*
X125812941Y-138220766D01*
X125930766Y-138102941D01*
X126069313Y-138010367D01*
X126223258Y-137946601D01*
X126386685Y-137914093D01*
X126553315Y-137914093D01*
X126716742Y-137946601D01*
G37*
G36*
X119700000Y-137070000D02*
G01*
X118000000Y-137070000D01*
X118000000Y-135370000D01*
X119700000Y-135370000D01*
X119700000Y-137070000D01*
G37*
G36*
X122240000Y-137070000D02*
G01*
X120540000Y-137070000D01*
X120540000Y-135370000D01*
X122240000Y-135370000D01*
X122240000Y-137070000D01*
G37*
G36*
X114016742Y-135406601D02*
G01*
X114170687Y-135470367D01*
X114309234Y-135562941D01*
X114427059Y-135680766D01*
X114519633Y-135819313D01*
X114583399Y-135973258D01*
X114615907Y-136136685D01*
X114615907Y-136303315D01*
X114583399Y-136466742D01*
X114519633Y-136620687D01*
X114427059Y-136759234D01*
X114309234Y-136877059D01*
X114170687Y-136969633D01*
X114016742Y-137033399D01*
X113853315Y-137065907D01*
X113686685Y-137065907D01*
X113523258Y-137033399D01*
X113369313Y-136969633D01*
X113230766Y-136877059D01*
X113112941Y-136759234D01*
X113020367Y-136620687D01*
X112956601Y-136466742D01*
X112924093Y-136303315D01*
X112924093Y-136136685D01*
X112956601Y-135973258D01*
X113020367Y-135819313D01*
X113112941Y-135680766D01*
X113230766Y-135562941D01*
X113369313Y-135470367D01*
X113523258Y-135406601D01*
X113686685Y-135374093D01*
X113853315Y-135374093D01*
X114016742Y-135406601D01*
G37*
G36*
X116556742Y-135406601D02*
G01*
X116710687Y-135470367D01*
X116849234Y-135562941D01*
X116967059Y-135680766D01*
X117059633Y-135819313D01*
X117123399Y-135973258D01*
X117155907Y-136136685D01*
X117155907Y-136303315D01*
X117123399Y-136466742D01*
X117059633Y-136620687D01*
X116967059Y-136759234D01*
X116849234Y-136877059D01*
X116710687Y-136969633D01*
X116556742Y-137033399D01*
X116393315Y-137065907D01*
X116226685Y-137065907D01*
X116063258Y-137033399D01*
X115909313Y-136969633D01*
X115770766Y-136877059D01*
X115652941Y-136759234D01*
X115560367Y-136620687D01*
X115496601Y-136466742D01*
X115464093Y-136303315D01*
X115464093Y-136136685D01*
X115496601Y-135973258D01*
X115560367Y-135819313D01*
X115652941Y-135680766D01*
X115770766Y-135562941D01*
X115909313Y-135470367D01*
X116063258Y-135406601D01*
X116226685Y-135374093D01*
X116393315Y-135374093D01*
X116556742Y-135406601D01*
G37*
G36*
X124176742Y-135406601D02*
G01*
X124330687Y-135470367D01*
X124469234Y-135562941D01*
X124587059Y-135680766D01*
X124679633Y-135819313D01*
X124743399Y-135973258D01*
X124775907Y-136136685D01*
X124775907Y-136303315D01*
X124743399Y-136466742D01*
X124679633Y-136620687D01*
X124587059Y-136759234D01*
X124469234Y-136877059D01*
X124330687Y-136969633D01*
X124176742Y-137033399D01*
X124013315Y-137065907D01*
X123846685Y-137065907D01*
X123683258Y-137033399D01*
X123529313Y-136969633D01*
X123390766Y-136877059D01*
X123272941Y-136759234D01*
X123180367Y-136620687D01*
X123116601Y-136466742D01*
X123084093Y-136303315D01*
X123084093Y-136136685D01*
X123116601Y-135973258D01*
X123180367Y-135819313D01*
X123272941Y-135680766D01*
X123390766Y-135562941D01*
X123529313Y-135470367D01*
X123683258Y-135406601D01*
X123846685Y-135374093D01*
X124013315Y-135374093D01*
X124176742Y-135406601D01*
G37*
G36*
X126716742Y-135406601D02*
G01*
X126870687Y-135470367D01*
X127009234Y-135562941D01*
X127127059Y-135680766D01*
X127219633Y-135819313D01*
X127283399Y-135973258D01*
X127315907Y-136136685D01*
X127315907Y-136303315D01*
X127283399Y-136466742D01*
X127219633Y-136620687D01*
X127127059Y-136759234D01*
X127009234Y-136877059D01*
X126870687Y-136969633D01*
X126716742Y-137033399D01*
X126553315Y-137065907D01*
X126386685Y-137065907D01*
X126223258Y-137033399D01*
X126069313Y-136969633D01*
X125930766Y-136877059D01*
X125812941Y-136759234D01*
X125720367Y-136620687D01*
X125656601Y-136466742D01*
X125624093Y-136303315D01*
X125624093Y-136136685D01*
X125656601Y-135973258D01*
X125720367Y-135819313D01*
X125812941Y-135680766D01*
X125930766Y-135562941D01*
X126069313Y-135470367D01*
X126223258Y-135406601D01*
X126386685Y-135374093D01*
X126553315Y-135374093D01*
X126716742Y-135406601D01*
G37*
G36*
X119700000Y-134530000D02*
G01*
X118000000Y-134530000D01*
X118000000Y-132830000D01*
X119700000Y-132830000D01*
X119700000Y-134530000D01*
G37*
G36*
X122240000Y-134530000D02*
G01*
X120540000Y-134530000D01*
X120540000Y-132830000D01*
X122240000Y-132830000D01*
X122240000Y-134530000D01*
G37*
G36*
X114016742Y-132866601D02*
G01*
X114170687Y-132930367D01*
X114309234Y-133022941D01*
X114427059Y-133140766D01*
X114519633Y-133279313D01*
X114583399Y-133433258D01*
X114615907Y-133596685D01*
X114615907Y-133763315D01*
X114583399Y-133926742D01*
X114519633Y-134080687D01*
X114427059Y-134219234D01*
X114309234Y-134337059D01*
X114170687Y-134429633D01*
X114016742Y-134493399D01*
X113853315Y-134525907D01*
X113686685Y-134525907D01*
X113523258Y-134493399D01*
X113369313Y-134429633D01*
X113230766Y-134337059D01*
X113112941Y-134219234D01*
X113020367Y-134080687D01*
X112956601Y-133926742D01*
X112924093Y-133763315D01*
X112924093Y-133596685D01*
X112956601Y-133433258D01*
X113020367Y-133279313D01*
X113112941Y-133140766D01*
X113230766Y-133022941D01*
X113369313Y-132930367D01*
X113523258Y-132866601D01*
X113686685Y-132834093D01*
X113853315Y-132834093D01*
X114016742Y-132866601D01*
G37*
G36*
X116556742Y-132866601D02*
G01*
X116710687Y-132930367D01*
X116849234Y-133022941D01*
X116967059Y-133140766D01*
X117059633Y-133279313D01*
X117123399Y-133433258D01*
X117155907Y-133596685D01*
X117155907Y-133763315D01*
X117123399Y-133926742D01*
X117059633Y-134080687D01*
X116967059Y-134219234D01*
X116849234Y-134337059D01*
X116710687Y-134429633D01*
X116556742Y-134493399D01*
X116393315Y-134525907D01*
X116226685Y-134525907D01*
X116063258Y-134493399D01*
X115909313Y-134429633D01*
X115770766Y-134337059D01*
X115652941Y-134219234D01*
X115560367Y-134080687D01*
X115496601Y-133926742D01*
X115464093Y-133763315D01*
X115464093Y-133596685D01*
X115496601Y-133433258D01*
X115560367Y-133279313D01*
X115652941Y-133140766D01*
X115770766Y-133022941D01*
X115909313Y-132930367D01*
X116063258Y-132866601D01*
X116226685Y-132834093D01*
X116393315Y-132834093D01*
X116556742Y-132866601D01*
G37*
G36*
X124176742Y-132866601D02*
G01*
X124330687Y-132930367D01*
X124469234Y-133022941D01*
X124587059Y-133140766D01*
X124679633Y-133279313D01*
X124743399Y-133433258D01*
X124775907Y-133596685D01*
X124775907Y-133763315D01*
X124743399Y-133926742D01*
X124679633Y-134080687D01*
X124587059Y-134219234D01*
X124469234Y-134337059D01*
X124330687Y-134429633D01*
X124176742Y-134493399D01*
X124013315Y-134525907D01*
X123846685Y-134525907D01*
X123683258Y-134493399D01*
X123529313Y-134429633D01*
X123390766Y-134337059D01*
X123272941Y-134219234D01*
X123180367Y-134080687D01*
X123116601Y-133926742D01*
X123084093Y-133763315D01*
X123084093Y-133596685D01*
X123116601Y-133433258D01*
X123180367Y-133279313D01*
X123272941Y-133140766D01*
X123390766Y-133022941D01*
X123529313Y-132930367D01*
X123683258Y-132866601D01*
X123846685Y-132834093D01*
X124013315Y-132834093D01*
X124176742Y-132866601D01*
G37*
G36*
X126716742Y-132866601D02*
G01*
X126870687Y-132930367D01*
X127009234Y-133022941D01*
X127127059Y-133140766D01*
X127219633Y-133279313D01*
X127283399Y-133433258D01*
X127315907Y-133596685D01*
X127315907Y-133763315D01*
X127283399Y-133926742D01*
X127219633Y-134080687D01*
X127127059Y-134219234D01*
X127009234Y-134337059D01*
X126870687Y-134429633D01*
X126716742Y-134493399D01*
X126553315Y-134525907D01*
X126386685Y-134525907D01*
X126223258Y-134493399D01*
X126069313Y-134429633D01*
X125930766Y-134337059D01*
X125812941Y-134219234D01*
X125720367Y-134080687D01*
X125656601Y-133926742D01*
X125624093Y-133763315D01*
X125624093Y-133596685D01*
X125656601Y-133433258D01*
X125720367Y-133279313D01*
X125812941Y-133140766D01*
X125930766Y-133022941D01*
X126069313Y-132930367D01*
X126223258Y-132866601D01*
X126386685Y-132834093D01*
X126553315Y-132834093D01*
X126716742Y-132866601D01*
G37*
G36*
X119700000Y-131990000D02*
G01*
X118000000Y-131990000D01*
X118000000Y-130290000D01*
X119700000Y-130290000D01*
X119700000Y-131990000D01*
G37*
G36*
X122240000Y-131990000D02*
G01*
X120540000Y-131990000D01*
X120540000Y-130290000D01*
X122240000Y-130290000D01*
X122240000Y-131990000D01*
G37*
G36*
X114016742Y-130326601D02*
G01*
X114170687Y-130390367D01*
X114309234Y-130482941D01*
X114427059Y-130600766D01*
X114519633Y-130739313D01*
X114583399Y-130893258D01*
X114615907Y-131056685D01*
X114615907Y-131223315D01*
X114583399Y-131386742D01*
X114519633Y-131540687D01*
X114427059Y-131679234D01*
X114309234Y-131797059D01*
X114170687Y-131889633D01*
X114016742Y-131953399D01*
X113853315Y-131985907D01*
X113686685Y-131985907D01*
X113523258Y-131953399D01*
X113369313Y-131889633D01*
X113230766Y-131797059D01*
X113112941Y-131679234D01*
X113020367Y-131540687D01*
X112956601Y-131386742D01*
X112924093Y-131223315D01*
X112924093Y-131056685D01*
X112956601Y-130893258D01*
X113020367Y-130739313D01*
X113112941Y-130600766D01*
X113230766Y-130482941D01*
X113369313Y-130390367D01*
X113523258Y-130326601D01*
X113686685Y-130294093D01*
X113853315Y-130294093D01*
X114016742Y-130326601D01*
G37*
G36*
X116556742Y-130326601D02*
G01*
X116710687Y-130390367D01*
X116849234Y-130482941D01*
X116967059Y-130600766D01*
X117059633Y-130739313D01*
X117123399Y-130893258D01*
X117155907Y-131056685D01*
X117155907Y-131223315D01*
X117123399Y-131386742D01*
X117059633Y-131540687D01*
X116967059Y-131679234D01*
X116849234Y-131797059D01*
X116710687Y-131889633D01*
X116556742Y-131953399D01*
X116393315Y-131985907D01*
X116226685Y-131985907D01*
X116063258Y-131953399D01*
X115909313Y-131889633D01*
X115770766Y-131797059D01*
X115652941Y-131679234D01*
X115560367Y-131540687D01*
X115496601Y-131386742D01*
X115464093Y-131223315D01*
X115464093Y-131056685D01*
X115496601Y-130893258D01*
X115560367Y-130739313D01*
X115652941Y-130600766D01*
X115770766Y-130482941D01*
X115909313Y-130390367D01*
X116063258Y-130326601D01*
X116226685Y-130294093D01*
X116393315Y-130294093D01*
X116556742Y-130326601D01*
G37*
G36*
X124176742Y-130326601D02*
G01*
X124330687Y-130390367D01*
X124469234Y-130482941D01*
X124587059Y-130600766D01*
X124679633Y-130739313D01*
X124743399Y-130893258D01*
X124775907Y-131056685D01*
X124775907Y-131223315D01*
X124743399Y-131386742D01*
X124679633Y-131540687D01*
X124587059Y-131679234D01*
X124469234Y-131797059D01*
X124330687Y-131889633D01*
X124176742Y-131953399D01*
X124013315Y-131985907D01*
X123846685Y-131985907D01*
X123683258Y-131953399D01*
X123529313Y-131889633D01*
X123390766Y-131797059D01*
X123272941Y-131679234D01*
X123180367Y-131540687D01*
X123116601Y-131386742D01*
X123084093Y-131223315D01*
X123084093Y-131056685D01*
X123116601Y-130893258D01*
X123180367Y-130739313D01*
X123272941Y-130600766D01*
X123390766Y-130482941D01*
X123529313Y-130390367D01*
X123683258Y-130326601D01*
X123846685Y-130294093D01*
X124013315Y-130294093D01*
X124176742Y-130326601D01*
G37*
G36*
X126716742Y-130326601D02*
G01*
X126870687Y-130390367D01*
X127009234Y-130482941D01*
X127127059Y-130600766D01*
X127219633Y-130739313D01*
X127283399Y-130893258D01*
X127315907Y-131056685D01*
X127315907Y-131223315D01*
X127283399Y-131386742D01*
X127219633Y-131540687D01*
X127127059Y-131679234D01*
X127009234Y-131797059D01*
X126870687Y-131889633D01*
X126716742Y-131953399D01*
X126553315Y-131985907D01*
X126386685Y-131985907D01*
X126223258Y-131953399D01*
X126069313Y-131889633D01*
X125930766Y-131797059D01*
X125812941Y-131679234D01*
X125720367Y-131540687D01*
X125656601Y-131386742D01*
X125624093Y-131223315D01*
X125624093Y-131056685D01*
X125656601Y-130893258D01*
X125720367Y-130739313D01*
X125812941Y-130600766D01*
X125930766Y-130482941D01*
X126069313Y-130390367D01*
X126223258Y-130326601D01*
X126386685Y-130294093D01*
X126553315Y-130294093D01*
X126716742Y-130326601D01*
G37*
G36*
X76292228Y-123714448D02*
G01*
X76437117Y-123774463D01*
X76567515Y-123861592D01*
X76678408Y-123972485D01*
X76765537Y-124102883D01*
X76825552Y-124247772D01*
X76856148Y-124401586D01*
X76860000Y-124480000D01*
X76860000Y-125480000D01*
X76856148Y-125558414D01*
X76825552Y-125712228D01*
X76765537Y-125857117D01*
X76678408Y-125987515D01*
X76567515Y-126098408D01*
X76437117Y-126185537D01*
X76292228Y-126245552D01*
X76138414Y-126276148D01*
X75981586Y-126276148D01*
X75827772Y-126245552D01*
X75682883Y-126185537D01*
X75552485Y-126098408D01*
X75441592Y-125987515D01*
X75354463Y-125857117D01*
X75294448Y-125712228D01*
X75263852Y-125558414D01*
X75260000Y-125480000D01*
X75260000Y-124480000D01*
X75263852Y-124401586D01*
X75294448Y-124247772D01*
X75354463Y-124102883D01*
X75441592Y-123972485D01*
X75552485Y-123861592D01*
X75682883Y-123774463D01*
X75827772Y-123714448D01*
X75981586Y-123683852D01*
X76138414Y-123683852D01*
X76292228Y-123714448D01*
G37*
G36*
X78832228Y-123714448D02*
G01*
X78977117Y-123774463D01*
X79107515Y-123861592D01*
X79218408Y-123972485D01*
X79305537Y-124102883D01*
X79365552Y-124247772D01*
X79396148Y-124401586D01*
X79400000Y-124480000D01*
X79400000Y-125480000D01*
X79396148Y-125558414D01*
X79365552Y-125712228D01*
X79305537Y-125857117D01*
X79218408Y-125987515D01*
X79107515Y-126098408D01*
X78977117Y-126185537D01*
X78832228Y-126245552D01*
X78678414Y-126276148D01*
X78521586Y-126276148D01*
X78367772Y-126245552D01*
X78222883Y-126185537D01*
X78092485Y-126098408D01*
X77981592Y-125987515D01*
X77894463Y-125857117D01*
X77834448Y-125712228D01*
X77803852Y-125558414D01*
X77800000Y-125480000D01*
X77800000Y-124480000D01*
X77803852Y-124401586D01*
X77834448Y-124247772D01*
X77894463Y-124102883D01*
X77981592Y-123972485D01*
X78092485Y-123861592D01*
X78222883Y-123774463D01*
X78367772Y-123714448D01*
X78521586Y-123683852D01*
X78678414Y-123683852D01*
X78832228Y-123714448D01*
G37*
G36*
X81372228Y-123714448D02*
G01*
X81517117Y-123774463D01*
X81647515Y-123861592D01*
X81758408Y-123972485D01*
X81845537Y-124102883D01*
X81905552Y-124247772D01*
X81936148Y-124401586D01*
X81940000Y-124480000D01*
X81940000Y-125480000D01*
X81936148Y-125558414D01*
X81905552Y-125712228D01*
X81845537Y-125857117D01*
X81758408Y-125987515D01*
X81647515Y-126098408D01*
X81517117Y-126185537D01*
X81372228Y-126245552D01*
X81218414Y-126276148D01*
X81061586Y-126276148D01*
X80907772Y-126245552D01*
X80762883Y-126185537D01*
X80632485Y-126098408D01*
X80521592Y-125987515D01*
X80434463Y-125857117D01*
X80374448Y-125712228D01*
X80343852Y-125558414D01*
X80340000Y-125480000D01*
X80340000Y-124480000D01*
X80343852Y-124401586D01*
X80374448Y-124247772D01*
X80434463Y-124102883D01*
X80521592Y-123972485D01*
X80632485Y-123861592D01*
X80762883Y-123774463D01*
X80907772Y-123714448D01*
X81061586Y-123683852D01*
X81218414Y-123683852D01*
X81372228Y-123714448D01*
G37*
G36*
X83912228Y-123714448D02*
G01*
X84057117Y-123774463D01*
X84187515Y-123861592D01*
X84298408Y-123972485D01*
X84385537Y-124102883D01*
X84445552Y-124247772D01*
X84476148Y-124401586D01*
X84480000Y-124480000D01*
X84480000Y-125480000D01*
X84476148Y-125558414D01*
X84445552Y-125712228D01*
X84385537Y-125857117D01*
X84298408Y-125987515D01*
X84187515Y-126098408D01*
X84057117Y-126185537D01*
X83912228Y-126245552D01*
X83758414Y-126276148D01*
X83601586Y-126276148D01*
X83447772Y-126245552D01*
X83302883Y-126185537D01*
X83172485Y-126098408D01*
X83061592Y-125987515D01*
X82974463Y-125857117D01*
X82914448Y-125712228D01*
X82883852Y-125558414D01*
X82880000Y-125480000D01*
X82880000Y-124480000D01*
X82883852Y-124401586D01*
X82914448Y-124247772D01*
X82974463Y-124102883D01*
X83061592Y-123972485D01*
X83172485Y-123861592D01*
X83302883Y-123774463D01*
X83447772Y-123714448D01*
X83601586Y-123683852D01*
X83758414Y-123683852D01*
X83912228Y-123714448D01*
G37*
G36*
X86452228Y-123714448D02*
G01*
X86597117Y-123774463D01*
X86727515Y-123861592D01*
X86838408Y-123972485D01*
X86925537Y-124102883D01*
X86985552Y-124247772D01*
X87016148Y-124401586D01*
X87020000Y-124480000D01*
X87020000Y-125480000D01*
X87016148Y-125558414D01*
X86985552Y-125712228D01*
X86925537Y-125857117D01*
X86838408Y-125987515D01*
X86727515Y-126098408D01*
X86597117Y-126185537D01*
X86452228Y-126245552D01*
X86298414Y-126276148D01*
X86141586Y-126276148D01*
X85987772Y-126245552D01*
X85842883Y-126185537D01*
X85712485Y-126098408D01*
X85601592Y-125987515D01*
X85514463Y-125857117D01*
X85454448Y-125712228D01*
X85423852Y-125558414D01*
X85420000Y-125480000D01*
X85420000Y-124480000D01*
X85423852Y-124401586D01*
X85454448Y-124247772D01*
X85514463Y-124102883D01*
X85601592Y-123972485D01*
X85712485Y-123861592D01*
X85842883Y-123774463D01*
X85987772Y-123714448D01*
X86141586Y-123683852D01*
X86298414Y-123683852D01*
X86452228Y-123714448D01*
G37*
G36*
X88992228Y-123714448D02*
G01*
X89137117Y-123774463D01*
X89267515Y-123861592D01*
X89378408Y-123972485D01*
X89465537Y-124102883D01*
X89525552Y-124247772D01*
X89556148Y-124401586D01*
X89560000Y-124480000D01*
X89560000Y-125480000D01*
X89556148Y-125558414D01*
X89525552Y-125712228D01*
X89465537Y-125857117D01*
X89378408Y-125987515D01*
X89267515Y-126098408D01*
X89137117Y-126185537D01*
X88992228Y-126245552D01*
X88838414Y-126276148D01*
X88681586Y-126276148D01*
X88527772Y-126245552D01*
X88382883Y-126185537D01*
X88252485Y-126098408D01*
X88141592Y-125987515D01*
X88054463Y-125857117D01*
X87994448Y-125712228D01*
X87963852Y-125558414D01*
X87960000Y-125480000D01*
X87960000Y-124480000D01*
X87963852Y-124401586D01*
X87994448Y-124247772D01*
X88054463Y-124102883D01*
X88141592Y-123972485D01*
X88252485Y-123861592D01*
X88382883Y-123774463D01*
X88527772Y-123714448D01*
X88681586Y-123683852D01*
X88838414Y-123683852D01*
X88992228Y-123714448D01*
G37*
G36*
X91532228Y-123714448D02*
G01*
X91677117Y-123774463D01*
X91807515Y-123861592D01*
X91918408Y-123972485D01*
X92005537Y-124102883D01*
X92065552Y-124247772D01*
X92096148Y-124401586D01*
X92100000Y-124480000D01*
X92100000Y-125480000D01*
X92096148Y-125558414D01*
X92065552Y-125712228D01*
X92005537Y-125857117D01*
X91918408Y-125987515D01*
X91807515Y-126098408D01*
X91677117Y-126185537D01*
X91532228Y-126245552D01*
X91378414Y-126276148D01*
X91221586Y-126276148D01*
X91067772Y-126245552D01*
X90922883Y-126185537D01*
X90792485Y-126098408D01*
X90681592Y-125987515D01*
X90594463Y-125857117D01*
X90534448Y-125712228D01*
X90503852Y-125558414D01*
X90500000Y-125480000D01*
X90500000Y-124480000D01*
X90503852Y-124401586D01*
X90534448Y-124247772D01*
X90594463Y-124102883D01*
X90681592Y-123972485D01*
X90792485Y-123861592D01*
X90922883Y-123774463D01*
X91067772Y-123714448D01*
X91221586Y-123683852D01*
X91378414Y-123683852D01*
X91532228Y-123714448D01*
G37*
G36*
X94072228Y-123714448D02*
G01*
X94217117Y-123774463D01*
X94347515Y-123861592D01*
X94458408Y-123972485D01*
X94545537Y-124102883D01*
X94605552Y-124247772D01*
X94636148Y-124401586D01*
X94640000Y-124480000D01*
X94640000Y-125480000D01*
X94636148Y-125558414D01*
X94605552Y-125712228D01*
X94545537Y-125857117D01*
X94458408Y-125987515D01*
X94347515Y-126098408D01*
X94217117Y-126185537D01*
X94072228Y-126245552D01*
X93918414Y-126276148D01*
X93761586Y-126276148D01*
X93607772Y-126245552D01*
X93462883Y-126185537D01*
X93332485Y-126098408D01*
X93221592Y-125987515D01*
X93134463Y-125857117D01*
X93074448Y-125712228D01*
X93043852Y-125558414D01*
X93040000Y-125480000D01*
X93040000Y-124480000D01*
X93043852Y-124401586D01*
X93074448Y-124247772D01*
X93134463Y-124102883D01*
X93221592Y-123972485D01*
X93332485Y-123861592D01*
X93462883Y-123774463D01*
X93607772Y-123714448D01*
X93761586Y-123683852D01*
X93918414Y-123683852D01*
X94072228Y-123714448D01*
G37*
G36*
X96612228Y-123714448D02*
G01*
X96757117Y-123774463D01*
X96887515Y-123861592D01*
X96998408Y-123972485D01*
X97085537Y-124102883D01*
X97145552Y-124247772D01*
X97176148Y-124401586D01*
X97180000Y-124480000D01*
X97180000Y-125480000D01*
X97176148Y-125558414D01*
X97145552Y-125712228D01*
X97085537Y-125857117D01*
X96998408Y-125987515D01*
X96887515Y-126098408D01*
X96757117Y-126185537D01*
X96612228Y-126245552D01*
X96458414Y-126276148D01*
X96301586Y-126276148D01*
X96147772Y-126245552D01*
X96002883Y-126185537D01*
X95872485Y-126098408D01*
X95761592Y-125987515D01*
X95674463Y-125857117D01*
X95614448Y-125712228D01*
X95583852Y-125558414D01*
X95580000Y-125480000D01*
X95580000Y-124480000D01*
X95583852Y-124401586D01*
X95614448Y-124247772D01*
X95674463Y-124102883D01*
X95761592Y-123972485D01*
X95872485Y-123861592D01*
X96002883Y-123774463D01*
X96147772Y-123714448D01*
X96301586Y-123683852D01*
X96458414Y-123683852D01*
X96612228Y-123714448D01*
G37*
G36*
X99152228Y-123714448D02*
G01*
X99297117Y-123774463D01*
X99427515Y-123861592D01*
X99538408Y-123972485D01*
X99625537Y-124102883D01*
X99685552Y-124247772D01*
X99716148Y-124401586D01*
X99720000Y-124480000D01*
X99720000Y-125480000D01*
X99716148Y-125558414D01*
X99685552Y-125712228D01*
X99625537Y-125857117D01*
X99538408Y-125987515D01*
X99427515Y-126098408D01*
X99297117Y-126185537D01*
X99152228Y-126245552D01*
X98998414Y-126276148D01*
X98841586Y-126276148D01*
X98687772Y-126245552D01*
X98542883Y-126185537D01*
X98412485Y-126098408D01*
X98301592Y-125987515D01*
X98214463Y-125857117D01*
X98154448Y-125712228D01*
X98123852Y-125558414D01*
X98120000Y-125480000D01*
X98120000Y-124480000D01*
X98123852Y-124401586D01*
X98154448Y-124247772D01*
X98214463Y-124102883D01*
X98301592Y-123972485D01*
X98412485Y-123861592D01*
X98542883Y-123774463D01*
X98687772Y-123714448D01*
X98841586Y-123683852D01*
X98998414Y-123683852D01*
X99152228Y-123714448D01*
G37*
G36*
X101692228Y-123714448D02*
G01*
X101837117Y-123774463D01*
X101967515Y-123861592D01*
X102078408Y-123972485D01*
X102165537Y-124102883D01*
X102225552Y-124247772D01*
X102256148Y-124401586D01*
X102260000Y-124480000D01*
X102260000Y-125480000D01*
X102256148Y-125558414D01*
X102225552Y-125712228D01*
X102165537Y-125857117D01*
X102078408Y-125987515D01*
X101967515Y-126098408D01*
X101837117Y-126185537D01*
X101692228Y-126245552D01*
X101538414Y-126276148D01*
X101381586Y-126276148D01*
X101227772Y-126245552D01*
X101082883Y-126185537D01*
X100952485Y-126098408D01*
X100841592Y-125987515D01*
X100754463Y-125857117D01*
X100694448Y-125712228D01*
X100663852Y-125558414D01*
X100660000Y-125480000D01*
X100660000Y-124480000D01*
X100663852Y-124401586D01*
X100694448Y-124247772D01*
X100754463Y-124102883D01*
X100841592Y-123972485D01*
X100952485Y-123861592D01*
X101082883Y-123774463D01*
X101227772Y-123714448D01*
X101381586Y-123683852D01*
X101538414Y-123683852D01*
X101692228Y-123714448D01*
G37*
G36*
X104232228Y-123714448D02*
G01*
X104377117Y-123774463D01*
X104507515Y-123861592D01*
X104618408Y-123972485D01*
X104705537Y-124102883D01*
X104765552Y-124247772D01*
X104796148Y-124401586D01*
X104800000Y-124480000D01*
X104800000Y-125480000D01*
X104796148Y-125558414D01*
X104765552Y-125712228D01*
X104705537Y-125857117D01*
X104618408Y-125987515D01*
X104507515Y-126098408D01*
X104377117Y-126185537D01*
X104232228Y-126245552D01*
X104078414Y-126276148D01*
X103921586Y-126276148D01*
X103767772Y-126245552D01*
X103622883Y-126185537D01*
X103492485Y-126098408D01*
X103381592Y-125987515D01*
X103294463Y-125857117D01*
X103234448Y-125712228D01*
X103203852Y-125558414D01*
X103200000Y-125480000D01*
X103200000Y-124480000D01*
X103203852Y-124401586D01*
X103234448Y-124247772D01*
X103294463Y-124102883D01*
X103381592Y-123972485D01*
X103492485Y-123861592D01*
X103622883Y-123774463D01*
X103767772Y-123714448D01*
X103921586Y-123683852D01*
X104078414Y-123683852D01*
X104232228Y-123714448D01*
G37*
G36*
X117170000Y-123900000D02*
G01*
X115370000Y-123900000D01*
X115370000Y-122100000D01*
X117170000Y-122100000D01*
X117170000Y-123900000D01*
G37*
G36*
X113991256Y-122138754D02*
G01*
X114154257Y-122206271D01*
X114300954Y-122304291D01*
X114425709Y-122429046D01*
X114523729Y-122575743D01*
X114591246Y-122738744D01*
X114625666Y-122911785D01*
X114625666Y-123088215D01*
X114591246Y-123261256D01*
X114523729Y-123424257D01*
X114425709Y-123570954D01*
X114300954Y-123695709D01*
X114154257Y-123793729D01*
X113991256Y-123861246D01*
X113818215Y-123895666D01*
X113641785Y-123895666D01*
X113468744Y-123861246D01*
X113305743Y-123793729D01*
X113159046Y-123695709D01*
X113034291Y-123570954D01*
X112936271Y-123424257D01*
X112868754Y-123261256D01*
X112834334Y-123088215D01*
X112834334Y-122911785D01*
X112868754Y-122738744D01*
X112936271Y-122575743D01*
X113034291Y-122429046D01*
X113159046Y-122304291D01*
X113305743Y-122206271D01*
X113468744Y-122138754D01*
X113641785Y-122104334D01*
X113818215Y-122104334D01*
X113991256Y-122138754D01*
G37*
G36*
X121500000Y-123000000D02*
G01*
X119500000Y-123000000D01*
X119500000Y-121000000D01*
X121500000Y-121000000D01*
X121500000Y-123000000D01*
G37*
G36*
X128290285Y-121043060D02*
G01*
X128471397Y-121118079D01*
X128634393Y-121226990D01*
X128773010Y-121365607D01*
X128881921Y-121528603D01*
X128956940Y-121709715D01*
X128995185Y-121901983D01*
X128995185Y-122098017D01*
X128956940Y-122290285D01*
X128881921Y-122471397D01*
X128773010Y-122634393D01*
X128634393Y-122773010D01*
X128471397Y-122881921D01*
X128290285Y-122956940D01*
X128098017Y-122995185D01*
X127901983Y-122995185D01*
X127709715Y-122956940D01*
X127528603Y-122881921D01*
X127365607Y-122773010D01*
X127226990Y-122634393D01*
X127118079Y-122471397D01*
X127043060Y-122290285D01*
X127004815Y-122098017D01*
X127004815Y-121901983D01*
X127043060Y-121709715D01*
X127118079Y-121528603D01*
X127226990Y-121365607D01*
X127365607Y-121226990D01*
X127528603Y-121118079D01*
X127709715Y-121043060D01*
X127901983Y-121004815D01*
X128098017Y-121004815D01*
X128290285Y-121043060D01*
G37*
G36*
X53850000Y-116850000D02*
G01*
X52150000Y-116850000D01*
X52150000Y-115150000D01*
X53850000Y-115150000D01*
X53850000Y-116850000D01*
G37*
G36*
X101975000Y-113660000D02*
G01*
X100275000Y-113660000D01*
X100275000Y-111960000D01*
X101975000Y-111960000D01*
X101975000Y-113660000D01*
G37*
G36*
X73380000Y-113160000D02*
G01*
X71680000Y-113160000D01*
X71680000Y-111460000D01*
X73380000Y-111460000D01*
X73380000Y-113160000D01*
G37*
G36*
X96975000Y-112660000D02*
G01*
X95275000Y-112660000D01*
X95275000Y-110960000D01*
X96975000Y-110960000D01*
X96975000Y-112660000D01*
G37*
G36*
X127350000Y-112660000D02*
G01*
X125650000Y-112660000D01*
X125650000Y-110960000D01*
X127350000Y-110960000D01*
X127350000Y-112660000D01*
G37*
G36*
X59785000Y-110810000D02*
G01*
X58085000Y-110810000D01*
X58085000Y-109110000D01*
X59785000Y-109110000D01*
X59785000Y-110810000D01*
G37*
G36*
X87500000Y-108850000D02*
G01*
X85800000Y-108850000D01*
X85800000Y-107150000D01*
X87500000Y-107150000D01*
X87500000Y-108850000D01*
G37*
G36*
X65880000Y-107660000D02*
G01*
X64180000Y-107660000D01*
X64180000Y-105960000D01*
X65880000Y-105960000D01*
X65880000Y-107660000D01*
G37*
G36*
X96975000Y-107660000D02*
G01*
X95275000Y-107660000D01*
X95275000Y-105960000D01*
X96975000Y-105960000D01*
X96975000Y-107660000D01*
G37*
G36*
X80000000Y-103350000D02*
G01*
X78300000Y-103350000D01*
X78300000Y-101650000D01*
X80000000Y-101650000D01*
X80000000Y-103350000D01*
G37*
G36*
X110000000Y-99850000D02*
G01*
X108300000Y-99850000D01*
X108300000Y-98150000D01*
X110000000Y-98150000D01*
X110000000Y-99850000D01*
G37*
G36*
X128350000Y-99660000D02*
G01*
X126650000Y-99660000D01*
X126650000Y-97960000D01*
X128350000Y-97960000D01*
X128350000Y-99660000D01*
G37*
G36*
X62785000Y-91810000D02*
G01*
X61085000Y-91810000D01*
X61085000Y-90110000D01*
X62785000Y-90110000D01*
X62785000Y-91810000D01*
G37*
G36*
X58865000Y-87810000D02*
G01*
X57165000Y-87810000D01*
X57165000Y-86110000D01*
X58865000Y-86110000D01*
X58865000Y-87810000D01*
G37*
G36*
X73245000Y-87810000D02*
G01*
X71545000Y-87810000D01*
X71545000Y-86110000D01*
X73245000Y-86110000D01*
X73245000Y-87810000D01*
G37*
G36*
X53181742Y-86146601D02*
G01*
X53335687Y-86210367D01*
X53474234Y-86302941D01*
X53592059Y-86420766D01*
X53684633Y-86559313D01*
X53748399Y-86713258D01*
X53780907Y-86876685D01*
X53780907Y-87043315D01*
X53748399Y-87206742D01*
X53684633Y-87360687D01*
X53592059Y-87499234D01*
X53474234Y-87617059D01*
X53335687Y-87709633D01*
X53181742Y-87773399D01*
X53018315Y-87805907D01*
X52851685Y-87805907D01*
X52688258Y-87773399D01*
X52534313Y-87709633D01*
X52395766Y-87617059D01*
X52277941Y-87499234D01*
X52185367Y-87360687D01*
X52121601Y-87206742D01*
X52089093Y-87043315D01*
X52089093Y-86876685D01*
X52121601Y-86713258D01*
X52185367Y-86559313D01*
X52277941Y-86420766D01*
X52395766Y-86302941D01*
X52534313Y-86210367D01*
X52688258Y-86146601D01*
X52851685Y-86114093D01*
X53018315Y-86114093D01*
X53181742Y-86146601D01*
G37*
G36*
X55721742Y-86146601D02*
G01*
X55875687Y-86210367D01*
X56014234Y-86302941D01*
X56132059Y-86420766D01*
X56224633Y-86559313D01*
X56288399Y-86713258D01*
X56320907Y-86876685D01*
X56320907Y-87043315D01*
X56288399Y-87206742D01*
X56224633Y-87360687D01*
X56132059Y-87499234D01*
X56014234Y-87617059D01*
X55875687Y-87709633D01*
X55721742Y-87773399D01*
X55558315Y-87805907D01*
X55391685Y-87805907D01*
X55228258Y-87773399D01*
X55074313Y-87709633D01*
X54935766Y-87617059D01*
X54817941Y-87499234D01*
X54725367Y-87360687D01*
X54661601Y-87206742D01*
X54629093Y-87043315D01*
X54629093Y-86876685D01*
X54661601Y-86713258D01*
X54725367Y-86559313D01*
X54817941Y-86420766D01*
X54935766Y-86302941D01*
X55074313Y-86210367D01*
X55228258Y-86146601D01*
X55391685Y-86114093D01*
X55558315Y-86114093D01*
X55721742Y-86146601D01*
G37*
G36*
X67561742Y-86146601D02*
G01*
X67715687Y-86210367D01*
X67854234Y-86302941D01*
X67972059Y-86420766D01*
X68064633Y-86559313D01*
X68128399Y-86713258D01*
X68160907Y-86876685D01*
X68160907Y-87043315D01*
X68128399Y-87206742D01*
X68064633Y-87360687D01*
X67972059Y-87499234D01*
X67854234Y-87617059D01*
X67715687Y-87709633D01*
X67561742Y-87773399D01*
X67398315Y-87805907D01*
X67231685Y-87805907D01*
X67068258Y-87773399D01*
X66914313Y-87709633D01*
X66775766Y-87617059D01*
X66657941Y-87499234D01*
X66565367Y-87360687D01*
X66501601Y-87206742D01*
X66469093Y-87043315D01*
X66469093Y-86876685D01*
X66501601Y-86713258D01*
X66565367Y-86559313D01*
X66657941Y-86420766D01*
X66775766Y-86302941D01*
X66914313Y-86210367D01*
X67068258Y-86146601D01*
X67231685Y-86114093D01*
X67398315Y-86114093D01*
X67561742Y-86146601D01*
G37*
G36*
X70101742Y-86146601D02*
G01*
X70255687Y-86210367D01*
X70394234Y-86302941D01*
X70512059Y-86420766D01*
X70604633Y-86559313D01*
X70668399Y-86713258D01*
X70700907Y-86876685D01*
X70700907Y-87043315D01*
X70668399Y-87206742D01*
X70604633Y-87360687D01*
X70512059Y-87499234D01*
X70394234Y-87617059D01*
X70255687Y-87709633D01*
X70101742Y-87773399D01*
X69938315Y-87805907D01*
X69771685Y-87805907D01*
X69608258Y-87773399D01*
X69454313Y-87709633D01*
X69315766Y-87617059D01*
X69197941Y-87499234D01*
X69105367Y-87360687D01*
X69041601Y-87206742D01*
X69009093Y-87043315D01*
X69009093Y-86876685D01*
X69041601Y-86713258D01*
X69105367Y-86559313D01*
X69197941Y-86420766D01*
X69315766Y-86302941D01*
X69454313Y-86210367D01*
X69608258Y-86146601D01*
X69771685Y-86114093D01*
X69938315Y-86114093D01*
X70101742Y-86146601D01*
G37*
G36*
X101750000Y-83400000D02*
G01*
X100050000Y-83400000D01*
X100050000Y-81700000D01*
X101750000Y-81700000D01*
X101750000Y-83400000D01*
G37*
G36*
X106475000Y-83400000D02*
G01*
X104775000Y-83400000D01*
X104775000Y-81700000D01*
X106475000Y-81700000D01*
X106475000Y-83400000D01*
G37*
G36*
X87675000Y-83350000D02*
G01*
X85975000Y-83350000D01*
X85975000Y-81650000D01*
X87675000Y-81650000D01*
X87675000Y-83350000D01*
G37*
G36*
X81991742Y-81686601D02*
G01*
X82145687Y-81750367D01*
X82284234Y-81842941D01*
X82402059Y-81960766D01*
X82494633Y-82099313D01*
X82558399Y-82253258D01*
X82590907Y-82416685D01*
X82590907Y-82583315D01*
X82558399Y-82746742D01*
X82494633Y-82900687D01*
X82402059Y-83039234D01*
X82284234Y-83157059D01*
X82145687Y-83249633D01*
X81991742Y-83313399D01*
X81828315Y-83345907D01*
X81661685Y-83345907D01*
X81498258Y-83313399D01*
X81344313Y-83249633D01*
X81205766Y-83157059D01*
X81087941Y-83039234D01*
X80995367Y-82900687D01*
X80931601Y-82746742D01*
X80899093Y-82583315D01*
X80899093Y-82416685D01*
X80931601Y-82253258D01*
X80995367Y-82099313D01*
X81087941Y-81960766D01*
X81205766Y-81842941D01*
X81344313Y-81750367D01*
X81498258Y-81686601D01*
X81661685Y-81654093D01*
X81828315Y-81654093D01*
X81991742Y-81686601D01*
G37*
G36*
X84531742Y-81686601D02*
G01*
X84685687Y-81750367D01*
X84824234Y-81842941D01*
X84942059Y-81960766D01*
X85034633Y-82099313D01*
X85098399Y-82253258D01*
X85130907Y-82416685D01*
X85130907Y-82583315D01*
X85098399Y-82746742D01*
X85034633Y-82900687D01*
X84942059Y-83039234D01*
X84824234Y-83157059D01*
X84685687Y-83249633D01*
X84531742Y-83313399D01*
X84368315Y-83345907D01*
X84201685Y-83345907D01*
X84038258Y-83313399D01*
X83884313Y-83249633D01*
X83745766Y-83157059D01*
X83627941Y-83039234D01*
X83535367Y-82900687D01*
X83471601Y-82746742D01*
X83439093Y-82583315D01*
X83439093Y-82416685D01*
X83471601Y-82253258D01*
X83535367Y-82099313D01*
X83627941Y-81960766D01*
X83745766Y-81842941D01*
X83884313Y-81750367D01*
X84038258Y-81686601D01*
X84201685Y-81654093D01*
X84368315Y-81654093D01*
X84531742Y-81686601D01*
G37*
G36*
X58880000Y-83160000D02*
G01*
X57180000Y-83160000D01*
X57180000Y-81460000D01*
X58880000Y-81460000D01*
X58880000Y-83160000D01*
G37*
G36*
X97515000Y-83160000D02*
G01*
X95815000Y-83160000D01*
X95815000Y-81460000D01*
X97515000Y-81460000D01*
X97515000Y-83160000D01*
G37*
G36*
X120350000Y-83160000D02*
G01*
X118650000Y-83160000D01*
X118650000Y-81460000D01*
X120350000Y-81460000D01*
X120350000Y-83160000D01*
G37*
G36*
X124940000Y-83160000D02*
G01*
X123240000Y-83160000D01*
X123240000Y-81460000D01*
X124940000Y-81460000D01*
X124940000Y-83160000D01*
G37*
G36*
X53196742Y-81496601D02*
G01*
X53350687Y-81560367D01*
X53489234Y-81652941D01*
X53607059Y-81770766D01*
X53699633Y-81909313D01*
X53763399Y-82063258D01*
X53795907Y-82226685D01*
X53795907Y-82393315D01*
X53763399Y-82556742D01*
X53699633Y-82710687D01*
X53607059Y-82849234D01*
X53489234Y-82967059D01*
X53350687Y-83059633D01*
X53196742Y-83123399D01*
X53033315Y-83155907D01*
X52866685Y-83155907D01*
X52703258Y-83123399D01*
X52549313Y-83059633D01*
X52410766Y-82967059D01*
X52292941Y-82849234D01*
X52200367Y-82710687D01*
X52136601Y-82556742D01*
X52104093Y-82393315D01*
X52104093Y-82226685D01*
X52136601Y-82063258D01*
X52200367Y-81909313D01*
X52292941Y-81770766D01*
X52410766Y-81652941D01*
X52549313Y-81560367D01*
X52703258Y-81496601D01*
X52866685Y-81464093D01*
X53033315Y-81464093D01*
X53196742Y-81496601D01*
G37*
G36*
X55736742Y-81496601D02*
G01*
X55890687Y-81560367D01*
X56029234Y-81652941D01*
X56147059Y-81770766D01*
X56239633Y-81909313D01*
X56303399Y-82063258D01*
X56335907Y-82226685D01*
X56335907Y-82393315D01*
X56303399Y-82556742D01*
X56239633Y-82710687D01*
X56147059Y-82849234D01*
X56029234Y-82967059D01*
X55890687Y-83059633D01*
X55736742Y-83123399D01*
X55573315Y-83155907D01*
X55406685Y-83155907D01*
X55243258Y-83123399D01*
X55089313Y-83059633D01*
X54950766Y-82967059D01*
X54832941Y-82849234D01*
X54740367Y-82710687D01*
X54676601Y-82556742D01*
X54644093Y-82393315D01*
X54644093Y-82226685D01*
X54676601Y-82063258D01*
X54740367Y-81909313D01*
X54832941Y-81770766D01*
X54950766Y-81652941D01*
X55089313Y-81560367D01*
X55243258Y-81496601D01*
X55406685Y-81464093D01*
X55573315Y-81464093D01*
X55736742Y-81496601D01*
G37*
G36*
X91831742Y-81496601D02*
G01*
X91985687Y-81560367D01*
X92124234Y-81652941D01*
X92242059Y-81770766D01*
X92334633Y-81909313D01*
X92398399Y-82063258D01*
X92430907Y-82226685D01*
X92430907Y-82393315D01*
X92398399Y-82556742D01*
X92334633Y-82710687D01*
X92242059Y-82849234D01*
X92124234Y-82967059D01*
X91985687Y-83059633D01*
X91831742Y-83123399D01*
X91668315Y-83155907D01*
X91501685Y-83155907D01*
X91338258Y-83123399D01*
X91184313Y-83059633D01*
X91045766Y-82967059D01*
X90927941Y-82849234D01*
X90835367Y-82710687D01*
X90771601Y-82556742D01*
X90739093Y-82393315D01*
X90739093Y-82226685D01*
X90771601Y-82063258D01*
X90835367Y-81909313D01*
X90927941Y-81770766D01*
X91045766Y-81652941D01*
X91184313Y-81560367D01*
X91338258Y-81496601D01*
X91501685Y-81464093D01*
X91668315Y-81464093D01*
X91831742Y-81496601D01*
G37*
G36*
X94371742Y-81496601D02*
G01*
X94525687Y-81560367D01*
X94664234Y-81652941D01*
X94782059Y-81770766D01*
X94874633Y-81909313D01*
X94938399Y-82063258D01*
X94970907Y-82226685D01*
X94970907Y-82393315D01*
X94938399Y-82556742D01*
X94874633Y-82710687D01*
X94782059Y-82849234D01*
X94664234Y-82967059D01*
X94525687Y-83059633D01*
X94371742Y-83123399D01*
X94208315Y-83155907D01*
X94041685Y-83155907D01*
X93878258Y-83123399D01*
X93724313Y-83059633D01*
X93585766Y-82967059D01*
X93467941Y-82849234D01*
X93375367Y-82710687D01*
X93311601Y-82556742D01*
X93279093Y-82393315D01*
X93279093Y-82226685D01*
X93311601Y-82063258D01*
X93375367Y-81909313D01*
X93467941Y-81770766D01*
X93585766Y-81652941D01*
X93724313Y-81560367D01*
X93878258Y-81496601D01*
X94041685Y-81464093D01*
X94208315Y-81464093D01*
X94371742Y-81496601D01*
G37*
G36*
X89475000Y-76660000D02*
G01*
X87775000Y-76660000D01*
X87775000Y-74960000D01*
X89475000Y-74960000D01*
X89475000Y-76660000D01*
G37*
G36*
X89475000Y-72160000D02*
G01*
X87775000Y-72160000D01*
X87775000Y-70460000D01*
X89475000Y-70460000D01*
X89475000Y-72160000D01*
G37*
G36*
X61015181Y-67348429D02*
G01*
X61267879Y-67416140D01*
X61509577Y-67516255D01*
X61736140Y-67647061D01*
X61943692Y-67806320D01*
X62128680Y-67991308D01*
X62287939Y-68198860D01*
X62418745Y-68425423D01*
X62518860Y-68667121D01*
X62586571Y-68919819D01*
X62620718Y-69179194D01*
X62620718Y-69440806D01*
X62586571Y-69700181D01*
X62518860Y-69952879D01*
X62418745Y-70194577D01*
X62287939Y-70421140D01*
X62128680Y-70628692D01*
X61943692Y-70813680D01*
X61736140Y-70972939D01*
X61509577Y-71103745D01*
X61267879Y-71203860D01*
X61015181Y-71271571D01*
X60755806Y-71305718D01*
X60494194Y-71305718D01*
X60234819Y-71271571D01*
X59982121Y-71203860D01*
X59740423Y-71103745D01*
X59513860Y-70972939D01*
X59306308Y-70813680D01*
X59121320Y-70628692D01*
X58962061Y-70421140D01*
X58831255Y-70194577D01*
X58731140Y-69952879D01*
X58663429Y-69700181D01*
X58629282Y-69440806D01*
X58629282Y-69179194D01*
X58663429Y-68919819D01*
X58731140Y-68667121D01*
X58831255Y-68425423D01*
X58962061Y-68198860D01*
X59121320Y-67991308D01*
X59306308Y-67806320D01*
X59513860Y-67647061D01*
X59740423Y-67516255D01*
X59982121Y-67416140D01*
X60234819Y-67348429D01*
X60494194Y-67314282D01*
X60755806Y-67314282D01*
X61015181Y-67348429D01*
G37*
G36*
X77015181Y-67348429D02*
G01*
X77267879Y-67416140D01*
X77509577Y-67516255D01*
X77736140Y-67647061D01*
X77943692Y-67806320D01*
X78128680Y-67991308D01*
X78287939Y-68198860D01*
X78418745Y-68425423D01*
X78518860Y-68667121D01*
X78586571Y-68919819D01*
X78620718Y-69179194D01*
X78620718Y-69440806D01*
X78586571Y-69700181D01*
X78518860Y-69952879D01*
X78418745Y-70194577D01*
X78287939Y-70421140D01*
X78128680Y-70628692D01*
X77943692Y-70813680D01*
X77736140Y-70972939D01*
X77509577Y-71103745D01*
X77267879Y-71203860D01*
X77015181Y-71271571D01*
X76755806Y-71305718D01*
X76494194Y-71305718D01*
X76234819Y-71271571D01*
X75982121Y-71203860D01*
X75740423Y-71103745D01*
X75513860Y-70972939D01*
X75306308Y-70813680D01*
X75121320Y-70628692D01*
X74962061Y-70421140D01*
X74831255Y-70194577D01*
X74731140Y-69952879D01*
X74663429Y-69700181D01*
X74629282Y-69440806D01*
X74629282Y-69179194D01*
X74663429Y-68919819D01*
X74731140Y-68667121D01*
X74831255Y-68425423D01*
X74962061Y-68198860D01*
X75121320Y-67991308D01*
X75306308Y-67806320D01*
X75513860Y-67647061D01*
X75740423Y-67516255D01*
X75982121Y-67416140D01*
X76234819Y-67348429D01*
X76494194Y-67314282D01*
X76755806Y-67314282D01*
X77015181Y-67348429D01*
G37*
G36*
X105015181Y-67348429D02*
G01*
X105267879Y-67416140D01*
X105509577Y-67516255D01*
X105736140Y-67647061D01*
X105943692Y-67806320D01*
X106128680Y-67991308D01*
X106287939Y-68198860D01*
X106418745Y-68425423D01*
X106518860Y-68667121D01*
X106586571Y-68919819D01*
X106620718Y-69179194D01*
X106620718Y-69440806D01*
X106586571Y-69700181D01*
X106518860Y-69952879D01*
X106418745Y-70194577D01*
X106287939Y-70421140D01*
X106128680Y-70628692D01*
X105943692Y-70813680D01*
X105736140Y-70972939D01*
X105509577Y-71103745D01*
X105267879Y-71203860D01*
X105015181Y-71271571D01*
X104755806Y-71305718D01*
X104494194Y-71305718D01*
X104234819Y-71271571D01*
X103982121Y-71203860D01*
X103740423Y-71103745D01*
X103513860Y-70972939D01*
X103306308Y-70813680D01*
X103121320Y-70628692D01*
X102962061Y-70421140D01*
X102831255Y-70194577D01*
X102731140Y-69952879D01*
X102663429Y-69700181D01*
X102629282Y-69440806D01*
X102629282Y-69179194D01*
X102663429Y-68919819D01*
X102731140Y-68667121D01*
X102831255Y-68425423D01*
X102962061Y-68198860D01*
X103121320Y-67991308D01*
X103306308Y-67806320D01*
X103513860Y-67647061D01*
X103740423Y-67516255D01*
X103982121Y-67416140D01*
X104234819Y-67348429D01*
X104494194Y-67314282D01*
X104755806Y-67314282D01*
X105015181Y-67348429D01*
G37*
G36*
X121015181Y-67348429D02*
G01*
X121267879Y-67416140D01*
X121509577Y-67516255D01*
X121736140Y-67647061D01*
X121943692Y-67806320D01*
X122128680Y-67991308D01*
X122287939Y-68198860D01*
X122418745Y-68425423D01*
X122518860Y-68667121D01*
X122586571Y-68919819D01*
X122620718Y-69179194D01*
X122620718Y-69440806D01*
X122586571Y-69700181D01*
X122518860Y-69952879D01*
X122418745Y-70194577D01*
X122287939Y-70421140D01*
X122128680Y-70628692D01*
X121943692Y-70813680D01*
X121736140Y-70972939D01*
X121509577Y-71103745D01*
X121267879Y-71203860D01*
X121015181Y-71271571D01*
X120755806Y-71305718D01*
X120494194Y-71305718D01*
X120234819Y-71271571D01*
X119982121Y-71203860D01*
X119740423Y-71103745D01*
X119513860Y-70972939D01*
X119306308Y-70813680D01*
X119121320Y-70628692D01*
X118962061Y-70421140D01*
X118831255Y-70194577D01*
X118731140Y-69952879D01*
X118663429Y-69700181D01*
X118629282Y-69440806D01*
X118629282Y-69179194D01*
X118663429Y-68919819D01*
X118731140Y-68667121D01*
X118831255Y-68425423D01*
X118962061Y-68198860D01*
X119121320Y-67991308D01*
X119306308Y-67806320D01*
X119513860Y-67647061D01*
X119740423Y-67516255D01*
X119982121Y-67416140D01*
X120234819Y-67348429D01*
X120494194Y-67314282D01*
X120755806Y-67314282D01*
X121015181Y-67348429D01*
G37*
G36*
X66291742Y-68996601D02*
G01*
X66445687Y-69060367D01*
X66584234Y-69152941D01*
X66702059Y-69270766D01*
X66794633Y-69409313D01*
X66858399Y-69563258D01*
X66890907Y-69726685D01*
X66890907Y-69893315D01*
X66858399Y-70056742D01*
X66794633Y-70210687D01*
X66702059Y-70349234D01*
X66584234Y-70467059D01*
X66445687Y-70559633D01*
X66291742Y-70623399D01*
X66128315Y-70655907D01*
X65961685Y-70655907D01*
X65798258Y-70623399D01*
X65644313Y-70559633D01*
X65505766Y-70467059D01*
X65387941Y-70349234D01*
X65295367Y-70210687D01*
X65231601Y-70056742D01*
X65199093Y-69893315D01*
X65199093Y-69726685D01*
X65231601Y-69563258D01*
X65295367Y-69409313D01*
X65387941Y-69270766D01*
X65505766Y-69152941D01*
X65644313Y-69060367D01*
X65798258Y-68996601D01*
X65961685Y-68964093D01*
X66128315Y-68964093D01*
X66291742Y-68996601D01*
G37*
G36*
X68831742Y-68996601D02*
G01*
X68985687Y-69060367D01*
X69124234Y-69152941D01*
X69242059Y-69270766D01*
X69334633Y-69409313D01*
X69398399Y-69563258D01*
X69430907Y-69726685D01*
X69430907Y-69893315D01*
X69398399Y-70056742D01*
X69334633Y-70210687D01*
X69242059Y-70349234D01*
X69124234Y-70467059D01*
X68985687Y-70559633D01*
X68831742Y-70623399D01*
X68668315Y-70655907D01*
X68501685Y-70655907D01*
X68338258Y-70623399D01*
X68184313Y-70559633D01*
X68045766Y-70467059D01*
X67927941Y-70349234D01*
X67835367Y-70210687D01*
X67771601Y-70056742D01*
X67739093Y-69893315D01*
X67739093Y-69726685D01*
X67771601Y-69563258D01*
X67835367Y-69409313D01*
X67927941Y-69270766D01*
X68045766Y-69152941D01*
X68184313Y-69060367D01*
X68338258Y-68996601D01*
X68501685Y-68964093D01*
X68668315Y-68964093D01*
X68831742Y-68996601D01*
G37*
G36*
X71371742Y-68996601D02*
G01*
X71525687Y-69060367D01*
X71664234Y-69152941D01*
X71782059Y-69270766D01*
X71874633Y-69409313D01*
X71938399Y-69563258D01*
X71970907Y-69726685D01*
X71970907Y-69893315D01*
X71938399Y-70056742D01*
X71874633Y-70210687D01*
X71782059Y-70349234D01*
X71664234Y-70467059D01*
X71525687Y-70559633D01*
X71371742Y-70623399D01*
X71208315Y-70655907D01*
X71041685Y-70655907D01*
X70878258Y-70623399D01*
X70724313Y-70559633D01*
X70585766Y-70467059D01*
X70467941Y-70349234D01*
X70375367Y-70210687D01*
X70311601Y-70056742D01*
X70279093Y-69893315D01*
X70279093Y-69726685D01*
X70311601Y-69563258D01*
X70375367Y-69409313D01*
X70467941Y-69270766D01*
X70585766Y-69152941D01*
X70724313Y-69060367D01*
X70878258Y-68996601D01*
X71041685Y-68964093D01*
X71208315Y-68964093D01*
X71371742Y-68996601D01*
G37*
G36*
X110291742Y-68996601D02*
G01*
X110445687Y-69060367D01*
X110584234Y-69152941D01*
X110702059Y-69270766D01*
X110794633Y-69409313D01*
X110858399Y-69563258D01*
X110890907Y-69726685D01*
X110890907Y-69893315D01*
X110858399Y-70056742D01*
X110794633Y-70210687D01*
X110702059Y-70349234D01*
X110584234Y-70467059D01*
X110445687Y-70559633D01*
X110291742Y-70623399D01*
X110128315Y-70655907D01*
X109961685Y-70655907D01*
X109798258Y-70623399D01*
X109644313Y-70559633D01*
X109505766Y-70467059D01*
X109387941Y-70349234D01*
X109295367Y-70210687D01*
X109231601Y-70056742D01*
X109199093Y-69893315D01*
X109199093Y-69726685D01*
X109231601Y-69563258D01*
X109295367Y-69409313D01*
X109387941Y-69270766D01*
X109505766Y-69152941D01*
X109644313Y-69060367D01*
X109798258Y-68996601D01*
X109961685Y-68964093D01*
X110128315Y-68964093D01*
X110291742Y-68996601D01*
G37*
G36*
X112831742Y-68996601D02*
G01*
X112985687Y-69060367D01*
X113124234Y-69152941D01*
X113242059Y-69270766D01*
X113334633Y-69409313D01*
X113398399Y-69563258D01*
X113430907Y-69726685D01*
X113430907Y-69893315D01*
X113398399Y-70056742D01*
X113334633Y-70210687D01*
X113242059Y-70349234D01*
X113124234Y-70467059D01*
X112985687Y-70559633D01*
X112831742Y-70623399D01*
X112668315Y-70655907D01*
X112501685Y-70655907D01*
X112338258Y-70623399D01*
X112184313Y-70559633D01*
X112045766Y-70467059D01*
X111927941Y-70349234D01*
X111835367Y-70210687D01*
X111771601Y-70056742D01*
X111739093Y-69893315D01*
X111739093Y-69726685D01*
X111771601Y-69563258D01*
X111835367Y-69409313D01*
X111927941Y-69270766D01*
X112045766Y-69152941D01*
X112184313Y-69060367D01*
X112338258Y-68996601D01*
X112501685Y-68964093D01*
X112668315Y-68964093D01*
X112831742Y-68996601D01*
G37*
G36*
X115371742Y-68996601D02*
G01*
X115525687Y-69060367D01*
X115664234Y-69152941D01*
X115782059Y-69270766D01*
X115874633Y-69409313D01*
X115938399Y-69563258D01*
X115970907Y-69726685D01*
X115970907Y-69893315D01*
X115938399Y-70056742D01*
X115874633Y-70210687D01*
X115782059Y-70349234D01*
X115664234Y-70467059D01*
X115525687Y-70559633D01*
X115371742Y-70623399D01*
X115208315Y-70655907D01*
X115041685Y-70655907D01*
X114878258Y-70623399D01*
X114724313Y-70559633D01*
X114585766Y-70467059D01*
X114467941Y-70349234D01*
X114375367Y-70210687D01*
X114311601Y-70056742D01*
X114279093Y-69893315D01*
X114279093Y-69726685D01*
X114311601Y-69563258D01*
X114375367Y-69409313D01*
X114467941Y-69270766D01*
X114585766Y-69152941D01*
X114724313Y-69060367D01*
X114878258Y-68996601D01*
X115041685Y-68964093D01*
X115208315Y-68964093D01*
X115371742Y-68996601D01*
G37*
G36*
X91041742Y-63061601D02*
G01*
X91195687Y-63125367D01*
X91334234Y-63217941D01*
X91452059Y-63335766D01*
X91544633Y-63474313D01*
X91608399Y-63628258D01*
X91640907Y-63791685D01*
X91640907Y-63958315D01*
X91608399Y-64121742D01*
X91544633Y-64275687D01*
X91452059Y-64414234D01*
X91334234Y-64532059D01*
X91195687Y-64624633D01*
X91041742Y-64688399D01*
X90878315Y-64720907D01*
X90711685Y-64720907D01*
X90548258Y-64688399D01*
X90394313Y-64624633D01*
X90255766Y-64532059D01*
X90137941Y-64414234D01*
X90045367Y-64275687D01*
X89981601Y-64121742D01*
X89949093Y-63958315D01*
X89949093Y-63791685D01*
X89981601Y-63628258D01*
X90045367Y-63474313D01*
X90137941Y-63335766D01*
X90255766Y-63217941D01*
X90394313Y-63125367D01*
X90548258Y-63061601D01*
X90711685Y-63029093D01*
X90878315Y-63029093D01*
X91041742Y-63061601D01*
G37*
G36*
X91041742Y-60521601D02*
G01*
X91195687Y-60585367D01*
X91334234Y-60677941D01*
X91452059Y-60795766D01*
X91544633Y-60934313D01*
X91608399Y-61088258D01*
X91640907Y-61251685D01*
X91640907Y-61418315D01*
X91608399Y-61581742D01*
X91544633Y-61735687D01*
X91452059Y-61874234D01*
X91334234Y-61992059D01*
X91195687Y-62084633D01*
X91041742Y-62148399D01*
X90878315Y-62180907D01*
X90711685Y-62180907D01*
X90548258Y-62148399D01*
X90394313Y-62084633D01*
X90255766Y-61992059D01*
X90137941Y-61874234D01*
X90045367Y-61735687D01*
X89981601Y-61581742D01*
X89949093Y-61418315D01*
X89949093Y-61251685D01*
X89981601Y-61088258D01*
X90045367Y-60934313D01*
X90137941Y-60795766D01*
X90255766Y-60677941D01*
X90394313Y-60585367D01*
X90548258Y-60521601D01*
X90711685Y-60489093D01*
X90878315Y-60489093D01*
X91041742Y-60521601D01*
G37*
G36*
X91645000Y-59645000D02*
G01*
X89945000Y-59645000D01*
X89945000Y-57945000D01*
X91645000Y-57945000D01*
X91645000Y-59645000D01*
G37*
G36*
X61015181Y-51348429D02*
G01*
X61267879Y-51416140D01*
X61509577Y-51516255D01*
X61736140Y-51647061D01*
X61943692Y-51806320D01*
X62128680Y-51991308D01*
X62287939Y-52198860D01*
X62418745Y-52425423D01*
X62518860Y-52667121D01*
X62586571Y-52919819D01*
X62620718Y-53179194D01*
X62620718Y-53440806D01*
X62586571Y-53700181D01*
X62518860Y-53952879D01*
X62418745Y-54194577D01*
X62287939Y-54421140D01*
X62128680Y-54628692D01*
X61943692Y-54813680D01*
X61736140Y-54972939D01*
X61509577Y-55103745D01*
X61267879Y-55203860D01*
X61015181Y-55271571D01*
X60755806Y-55305718D01*
X60494194Y-55305718D01*
X60234819Y-55271571D01*
X59982121Y-55203860D01*
X59740423Y-55103745D01*
X59513860Y-54972939D01*
X59306308Y-54813680D01*
X59121320Y-54628692D01*
X58962061Y-54421140D01*
X58831255Y-54194577D01*
X58731140Y-53952879D01*
X58663429Y-53700181D01*
X58629282Y-53440806D01*
X58629282Y-53179194D01*
X58663429Y-52919819D01*
X58731140Y-52667121D01*
X58831255Y-52425423D01*
X58962061Y-52198860D01*
X59121320Y-51991308D01*
X59306308Y-51806320D01*
X59513860Y-51647061D01*
X59740423Y-51516255D01*
X59982121Y-51416140D01*
X60234819Y-51348429D01*
X60494194Y-51314282D01*
X60755806Y-51314282D01*
X61015181Y-51348429D01*
G37*
G36*
X77015181Y-51348429D02*
G01*
X77267879Y-51416140D01*
X77509577Y-51516255D01*
X77736140Y-51647061D01*
X77943692Y-51806320D01*
X78128680Y-51991308D01*
X78287939Y-52198860D01*
X78418745Y-52425423D01*
X78518860Y-52667121D01*
X78586571Y-52919819D01*
X78620718Y-53179194D01*
X78620718Y-53440806D01*
X78586571Y-53700181D01*
X78518860Y-53952879D01*
X78418745Y-54194577D01*
X78287939Y-54421140D01*
X78128680Y-54628692D01*
X77943692Y-54813680D01*
X77736140Y-54972939D01*
X77509577Y-55103745D01*
X77267879Y-55203860D01*
X77015181Y-55271571D01*
X76755806Y-55305718D01*
X76494194Y-55305718D01*
X76234819Y-55271571D01*
X75982121Y-55203860D01*
X75740423Y-55103745D01*
X75513860Y-54972939D01*
X75306308Y-54813680D01*
X75121320Y-54628692D01*
X74962061Y-54421140D01*
X74831255Y-54194577D01*
X74731140Y-53952879D01*
X74663429Y-53700181D01*
X74629282Y-53440806D01*
X74629282Y-53179194D01*
X74663429Y-52919819D01*
X74731140Y-52667121D01*
X74831255Y-52425423D01*
X74962061Y-52198860D01*
X75121320Y-51991308D01*
X75306308Y-51806320D01*
X75513860Y-51647061D01*
X75740423Y-51516255D01*
X75982121Y-51416140D01*
X76234819Y-51348429D01*
X76494194Y-51314282D01*
X76755806Y-51314282D01*
X77015181Y-51348429D01*
G37*
G36*
X105015181Y-51348429D02*
G01*
X105267879Y-51416140D01*
X105509577Y-51516255D01*
X105736140Y-51647061D01*
X105943692Y-51806320D01*
X106128680Y-51991308D01*
X106287939Y-52198860D01*
X106418745Y-52425423D01*
X106518860Y-52667121D01*
X106586571Y-52919819D01*
X106620718Y-53179194D01*
X106620718Y-53440806D01*
X106586571Y-53700181D01*
X106518860Y-53952879D01*
X106418745Y-54194577D01*
X106287939Y-54421140D01*
X106128680Y-54628692D01*
X105943692Y-54813680D01*
X105736140Y-54972939D01*
X105509577Y-55103745D01*
X105267879Y-55203860D01*
X105015181Y-55271571D01*
X104755806Y-55305718D01*
X104494194Y-55305718D01*
X104234819Y-55271571D01*
X103982121Y-55203860D01*
X103740423Y-55103745D01*
X103513860Y-54972939D01*
X103306308Y-54813680D01*
X103121320Y-54628692D01*
X102962061Y-54421140D01*
X102831255Y-54194577D01*
X102731140Y-53952879D01*
X102663429Y-53700181D01*
X102629282Y-53440806D01*
X102629282Y-53179194D01*
X102663429Y-52919819D01*
X102731140Y-52667121D01*
X102831255Y-52425423D01*
X102962061Y-52198860D01*
X103121320Y-51991308D01*
X103306308Y-51806320D01*
X103513860Y-51647061D01*
X103740423Y-51516255D01*
X103982121Y-51416140D01*
X104234819Y-51348429D01*
X104494194Y-51314282D01*
X104755806Y-51314282D01*
X105015181Y-51348429D01*
G37*
G36*
X121015181Y-51348429D02*
G01*
X121267879Y-51416140D01*
X121509577Y-51516255D01*
X121736140Y-51647061D01*
X121943692Y-51806320D01*
X122128680Y-51991308D01*
X122287939Y-52198860D01*
X122418745Y-52425423D01*
X122518860Y-52667121D01*
X122586571Y-52919819D01*
X122620718Y-53179194D01*
X122620718Y-53440806D01*
X122586571Y-53700181D01*
X122518860Y-53952879D01*
X122418745Y-54194577D01*
X122287939Y-54421140D01*
X122128680Y-54628692D01*
X121943692Y-54813680D01*
X121736140Y-54972939D01*
X121509577Y-55103745D01*
X121267879Y-55203860D01*
X121015181Y-55271571D01*
X120755806Y-55305718D01*
X120494194Y-55305718D01*
X120234819Y-55271571D01*
X119982121Y-55203860D01*
X119740423Y-55103745D01*
X119513860Y-54972939D01*
X119306308Y-54813680D01*
X119121320Y-54628692D01*
X118962061Y-54421140D01*
X118831255Y-54194577D01*
X118731140Y-53952879D01*
X118663429Y-53700181D01*
X118629282Y-53440806D01*
X118629282Y-53179194D01*
X118663429Y-52919819D01*
X118731140Y-52667121D01*
X118831255Y-52425423D01*
X118962061Y-52198860D01*
X119121320Y-51991308D01*
X119306308Y-51806320D01*
X119513860Y-51647061D01*
X119740423Y-51516255D01*
X119982121Y-51416140D01*
X120234819Y-51348429D01*
X120494194Y-51314282D01*
X120755806Y-51314282D01*
X121015181Y-51348429D01*
G37*
G36*
X71975000Y-53660000D02*
G01*
X70275000Y-53660000D01*
X70275000Y-51960000D01*
X71975000Y-51960000D01*
X71975000Y-53660000D01*
G37*
G36*
X115975000Y-53660000D02*
G01*
X114275000Y-53660000D01*
X114275000Y-51960000D01*
X115975000Y-51960000D01*
X115975000Y-53660000D01*
G37*
G36*
X66291742Y-51996601D02*
G01*
X66445687Y-52060367D01*
X66584234Y-52152941D01*
X66702059Y-52270766D01*
X66794633Y-52409313D01*
X66858399Y-52563258D01*
X66890907Y-52726685D01*
X66890907Y-52893315D01*
X66858399Y-53056742D01*
X66794633Y-53210687D01*
X66702059Y-53349234D01*
X66584234Y-53467059D01*
X66445687Y-53559633D01*
X66291742Y-53623399D01*
X66128315Y-53655907D01*
X65961685Y-53655907D01*
X65798258Y-53623399D01*
X65644313Y-53559633D01*
X65505766Y-53467059D01*
X65387941Y-53349234D01*
X65295367Y-53210687D01*
X65231601Y-53056742D01*
X65199093Y-52893315D01*
X65199093Y-52726685D01*
X65231601Y-52563258D01*
X65295367Y-52409313D01*
X65387941Y-52270766D01*
X65505766Y-52152941D01*
X65644313Y-52060367D01*
X65798258Y-51996601D01*
X65961685Y-51964093D01*
X66128315Y-51964093D01*
X66291742Y-51996601D01*
G37*
G36*
X68831742Y-51996601D02*
G01*
X68985687Y-52060367D01*
X69124234Y-52152941D01*
X69242059Y-52270766D01*
X69334633Y-52409313D01*
X69398399Y-52563258D01*
X69430907Y-52726685D01*
X69430907Y-52893315D01*
X69398399Y-53056742D01*
X69334633Y-53210687D01*
X69242059Y-53349234D01*
X69124234Y-53467059D01*
X68985687Y-53559633D01*
X68831742Y-53623399D01*
X68668315Y-53655907D01*
X68501685Y-53655907D01*
X68338258Y-53623399D01*
X68184313Y-53559633D01*
X68045766Y-53467059D01*
X67927941Y-53349234D01*
X67835367Y-53210687D01*
X67771601Y-53056742D01*
X67739093Y-52893315D01*
X67739093Y-52726685D01*
X67771601Y-52563258D01*
X67835367Y-52409313D01*
X67927941Y-52270766D01*
X68045766Y-52152941D01*
X68184313Y-52060367D01*
X68338258Y-51996601D01*
X68501685Y-51964093D01*
X68668315Y-51964093D01*
X68831742Y-51996601D01*
G37*
G36*
X110291742Y-51996601D02*
G01*
X110445687Y-52060367D01*
X110584234Y-52152941D01*
X110702059Y-52270766D01*
X110794633Y-52409313D01*
X110858399Y-52563258D01*
X110890907Y-52726685D01*
X110890907Y-52893315D01*
X110858399Y-53056742D01*
X110794633Y-53210687D01*
X110702059Y-53349234D01*
X110584234Y-53467059D01*
X110445687Y-53559633D01*
X110291742Y-53623399D01*
X110128315Y-53655907D01*
X109961685Y-53655907D01*
X109798258Y-53623399D01*
X109644313Y-53559633D01*
X109505766Y-53467059D01*
X109387941Y-53349234D01*
X109295367Y-53210687D01*
X109231601Y-53056742D01*
X109199093Y-52893315D01*
X109199093Y-52726685D01*
X109231601Y-52563258D01*
X109295367Y-52409313D01*
X109387941Y-52270766D01*
X109505766Y-52152941D01*
X109644313Y-52060367D01*
X109798258Y-51996601D01*
X109961685Y-51964093D01*
X110128315Y-51964093D01*
X110291742Y-51996601D01*
G37*
G36*
X112831742Y-51996601D02*
G01*
X112985687Y-52060367D01*
X113124234Y-52152941D01*
X113242059Y-52270766D01*
X113334633Y-52409313D01*
X113398399Y-52563258D01*
X113430907Y-52726685D01*
X113430907Y-52893315D01*
X113398399Y-53056742D01*
X113334633Y-53210687D01*
X113242059Y-53349234D01*
X113124234Y-53467059D01*
X112985687Y-53559633D01*
X112831742Y-53623399D01*
X112668315Y-53655907D01*
X112501685Y-53655907D01*
X112338258Y-53623399D01*
X112184313Y-53559633D01*
X112045766Y-53467059D01*
X111927941Y-53349234D01*
X111835367Y-53210687D01*
X111771601Y-53056742D01*
X111739093Y-52893315D01*
X111739093Y-52726685D01*
X111771601Y-52563258D01*
X111835367Y-52409313D01*
X111927941Y-52270766D01*
X112045766Y-52152941D01*
X112184313Y-52060367D01*
X112338258Y-51996601D01*
X112501685Y-51964093D01*
X112668315Y-51964093D01*
X112831742Y-51996601D01*
G37*
G36*
X92750000Y-49160000D02*
G01*
X91050000Y-49160000D01*
X91050000Y-47460000D01*
X92750000Y-47460000D01*
X92750000Y-49160000D01*
G37*
G36*
X89606742Y-47496601D02*
G01*
X89760687Y-47560367D01*
X89899234Y-47652941D01*
X90017059Y-47770766D01*
X90109633Y-47909313D01*
X90173399Y-48063258D01*
X90205907Y-48226685D01*
X90205907Y-48393315D01*
X90173399Y-48556742D01*
X90109633Y-48710687D01*
X90017059Y-48849234D01*
X89899234Y-48967059D01*
X89760687Y-49059633D01*
X89606742Y-49123399D01*
X89443315Y-49155907D01*
X89276685Y-49155907D01*
X89113258Y-49123399D01*
X88959313Y-49059633D01*
X88820766Y-48967059D01*
X88702941Y-48849234D01*
X88610367Y-48710687D01*
X88546601Y-48556742D01*
X88514093Y-48393315D01*
X88514093Y-48226685D01*
X88546601Y-48063258D01*
X88610367Y-47909313D01*
X88702941Y-47770766D01*
X88820766Y-47652941D01*
X88959313Y-47560367D01*
X89113258Y-47496601D01*
X89276685Y-47464093D01*
X89443315Y-47464093D01*
X89606742Y-47496601D01*
G37*
G36*
X54438953Y-35793233D02*
G01*
X54723239Y-35869407D01*
X54995150Y-35982036D01*
X55250033Y-36129193D01*
X55483528Y-36308360D01*
X55691640Y-36516472D01*
X55870807Y-36749967D01*
X56017964Y-37004850D01*
X56130593Y-37276761D01*
X56206767Y-37561047D01*
X56245183Y-37852843D01*
X56245183Y-38147157D01*
X56206767Y-38438953D01*
X56130593Y-38723239D01*
X56017964Y-38995150D01*
X55870807Y-39250033D01*
X55691640Y-39483528D01*
X55483528Y-39691640D01*
X55250033Y-39870807D01*
X54995150Y-40017964D01*
X54723239Y-40130593D01*
X54438953Y-40206767D01*
X54147157Y-40245183D01*
X53852843Y-40245183D01*
X53561047Y-40206767D01*
X53276761Y-40130593D01*
X53004850Y-40017964D01*
X52749967Y-39870807D01*
X52516472Y-39691640D01*
X52308360Y-39483528D01*
X52129193Y-39250033D01*
X51982036Y-38995150D01*
X51869407Y-38723239D01*
X51793233Y-38438953D01*
X51754817Y-38147157D01*
X51754817Y-37852843D01*
X51793233Y-37561047D01*
X51869407Y-37276761D01*
X51982036Y-37004850D01*
X52129193Y-36749967D01*
X52308360Y-36516472D01*
X52516472Y-36308360D01*
X52749967Y-36129193D01*
X53004850Y-35982036D01*
X53276761Y-35869407D01*
X53561047Y-35793233D01*
X53852843Y-35754817D01*
X54147157Y-35754817D01*
X54438953Y-35793233D01*
G37*
G36*
X127438953Y-35793233D02*
G01*
X127723239Y-35869407D01*
X127995150Y-35982036D01*
X128250033Y-36129193D01*
X128483528Y-36308360D01*
X128691640Y-36516472D01*
X128870807Y-36749967D01*
X129017964Y-37004850D01*
X129130593Y-37276761D01*
X129206767Y-37561047D01*
X129245183Y-37852843D01*
X129245183Y-38147157D01*
X129206767Y-38438953D01*
X129130593Y-38723239D01*
X129017964Y-38995150D01*
X128870807Y-39250033D01*
X128691640Y-39483528D01*
X128483528Y-39691640D01*
X128250033Y-39870807D01*
X127995150Y-40017964D01*
X127723239Y-40130593D01*
X127438953Y-40206767D01*
X127147157Y-40245183D01*
X126852843Y-40245183D01*
X126561047Y-40206767D01*
X126276761Y-40130593D01*
X126004850Y-40017964D01*
X125749967Y-39870807D01*
X125516472Y-39691640D01*
X125308360Y-39483528D01*
X125129193Y-39250033D01*
X124982036Y-38995150D01*
X124869407Y-38723239D01*
X124793233Y-38438953D01*
X124754817Y-38147157D01*
X124754817Y-37852843D01*
X124793233Y-37561047D01*
X124869407Y-37276761D01*
X124982036Y-37004850D01*
X125129193Y-36749967D01*
X125308360Y-36516472D01*
X125516472Y-36308360D01*
X125749967Y-36129193D01*
X126004850Y-35982036D01*
X126276761Y-35869407D01*
X126561047Y-35793233D01*
X126852843Y-35754817D01*
X127147157Y-35754817D01*
X127438953Y-35793233D01*
G37*
G36*
X121100000Y-38100000D02*
G01*
X119400000Y-38100000D01*
X119400000Y-36400000D01*
X121100000Y-36400000D01*
X121100000Y-38100000D01*
G37*
M02*
