%TF.GenerationSoftware,KiCad,Pcbnew,10.0.4*%
%TF.CreationDate,2026-07-04T12:46:53-04:00*%
%TF.ProjectId,carrier1_Adalogger_M0_2x3pin,63617272-6965-4723-915f-4164616c6f67,A*%
%TF.SameCoordinates,Original*%
%TF.FileFunction,Paste,Top*%
%TF.FilePolarity,Positive*%
%FSLAX46Y46*%
G04 Gerber Fmt 4.6, Leading zero omitted, Abs format (unit mm)*
G04 Created by KiCad (PCBNEW 10.0.4) date 2026-07-04 12:46:53*
%MOMM*%
%LPD*%
G01*
G04 APERTURE LIST*
G04 Aperture macros list*
%AMRoundRect*
0 Rectangle with rounded corners*
0 $1 Rounding radius*
0 $2 $3 $4 $5 $6 $7 $8 $9 X,Y pos of 4 corners*
0 Add a 4 corners polygon primitive as box body*
4,1,4,$2,$3,$4,$5,$6,$7,$8,$9,$2,$3,0*
0 Add four circle primitives for the rounded corners*
1,1,$1+$1,$2,$3*
1,1,$1+$1,$4,$5*
1,1,$1+$1,$6,$7*
1,1,$1+$1,$8,$9*
0 Add four rect primitives between the rounded corners*
20,1,$1+$1,$2,$3,$4,$5,0*
20,1,$1+$1,$4,$5,$6,$7,0*
20,1,$1+$1,$6,$7,$8,$9,0*
20,1,$1+$1,$8,$9,$2,$3,0*%
G04 Aperture macros list end*
%ADD10RoundRect,0.250000X-0.250000X-0.475000X0.250000X-0.475000X0.250000X0.475000X-0.250000X0.475000X0*%
%ADD11RoundRect,0.250000X0.350000X0.450000X-0.350000X0.450000X-0.350000X-0.450000X0.350000X-0.450000X0*%
%ADD12RoundRect,0.150000X-0.150000X0.587500X-0.150000X-0.587500X0.150000X-0.587500X0.150000X0.587500X0*%
%ADD13RoundRect,0.150000X0.150000X-0.587500X0.150000X0.587500X-0.150000X0.587500X-0.150000X-0.587500X0*%
%ADD14RoundRect,0.250000X-0.475000X0.250000X-0.475000X-0.250000X0.475000X-0.250000X0.475000X0.250000X0*%
%ADD15RoundRect,0.250000X-0.350000X-0.450000X0.350000X-0.450000X0.350000X0.450000X-0.350000X0.450000X0*%
%ADD16RoundRect,0.250000X0.450000X-0.350000X0.450000X0.350000X-0.450000X0.350000X-0.450000X-0.350000X0*%
%ADD17RoundRect,0.250000X0.250000X0.475000X-0.250000X0.475000X-0.250000X-0.475000X0.250000X-0.475000X0*%
%ADD18RoundRect,0.250000X-0.450000X0.350000X-0.450000X-0.350000X0.450000X-0.350000X0.450000X0.350000X0*%
%ADD19RoundRect,0.250000X-0.400000X-0.625000X0.400000X-0.625000X0.400000X0.625000X-0.400000X0.625000X0*%
%ADD20RoundRect,0.112500X0.350000X0.112500X-0.350000X0.112500X-0.350000X-0.112500X0.350000X-0.112500X0*%
%ADD21RoundRect,0.250000X0.475000X-0.250000X0.475000X0.250000X-0.475000X0.250000X-0.475000X-0.250000X0*%
%ADD22RoundRect,0.150000X-0.587500X-0.150000X0.587500X-0.150000X0.587500X0.150000X-0.587500X0.150000X0*%
%ADD23RoundRect,0.150000X-0.150000X0.725000X-0.150000X-0.725000X0.150000X-0.725000X0.150000X0.725000X0*%
%ADD24RoundRect,0.112500X0.112500X-0.350000X0.112500X0.350000X-0.112500X0.350000X-0.112500X-0.350000X0*%
%ADD25RoundRect,0.150000X-0.825000X-0.150000X0.825000X-0.150000X0.825000X0.150000X-0.825000X0.150000X0*%
%ADD26RoundRect,0.162500X-0.162500X0.650000X-0.162500X-0.650000X0.162500X-0.650000X0.162500X0.650000X0*%
%ADD27RoundRect,0.375000X-0.625000X-0.375000X0.625000X-0.375000X0.625000X0.375000X-0.625000X0.375000X0*%
%ADD28RoundRect,0.500000X-0.500000X-1.400000X0.500000X-1.400000X0.500000X1.400000X-0.500000X1.400000X0*%
G04 APERTURE END LIST*
D10*
%TO.C,C3*%
X85835000Y-88500000D03*
X87735000Y-88500000D03*
%TD*%
D11*
%TO.C,R29*%
X73395000Y-90460000D03*
X71395000Y-90460000D03*
%TD*%
D12*
%TO.C,Q21*%
X124950000Y-85435000D03*
X123050000Y-85435000D03*
X124000000Y-87310000D03*
%TD*%
D13*
%TO.C,Q22*%
X120500000Y-89310000D03*
X122400000Y-89310000D03*
X121450000Y-87435000D03*
%TD*%
D14*
%TO.C,C5*%
X95400000Y-88050000D03*
X95400000Y-89950000D03*
%TD*%
D15*
%TO.C,R23*%
X117000000Y-111310000D03*
X119000000Y-111310000D03*
%TD*%
D16*
%TO.C,R25*%
X93125000Y-94310000D03*
X93125000Y-92310000D03*
%TD*%
D17*
%TO.C,C24*%
X106075000Y-99310000D03*
X104175000Y-99310000D03*
%TD*%
D14*
%TO.C,C9*%
X95400000Y-92050000D03*
X95400000Y-93950000D03*
%TD*%
D10*
%TO.C,C17*%
X71580000Y-92960000D03*
X73480000Y-92960000D03*
%TD*%
%TO.C,C36*%
X115550000Y-106310000D03*
X117450000Y-106310000D03*
%TD*%
%TO.C,C27*%
X53985000Y-90460000D03*
X55885000Y-90460000D03*
%TD*%
D11*
%TO.C,R39*%
X55935000Y-92960000D03*
X53935000Y-92960000D03*
%TD*%
D15*
%TO.C,R33*%
X71530000Y-95460000D03*
X73530000Y-95460000D03*
%TD*%
D18*
%TO.C,R34*%
X66895000Y-101460000D03*
X66895000Y-103460000D03*
%TD*%
D19*
%TO.C,R1*%
X110950000Y-119000000D03*
X114050000Y-119000000D03*
%TD*%
D20*
%TO.C,D11*%
X62322500Y-95650000D03*
X62322500Y-94350000D03*
X60547500Y-95000000D03*
%TD*%
D21*
%TO.C,C22*%
X126500000Y-105760000D03*
X126500000Y-103860000D03*
%TD*%
D15*
%TO.C,R12*%
X95900000Y-86050000D03*
X97900000Y-86050000D03*
%TD*%
D10*
%TO.C,C28*%
X56985000Y-106460000D03*
X58885000Y-106460000D03*
%TD*%
D15*
%TO.C,R44*%
X56935000Y-103960000D03*
X58935000Y-103960000D03*
%TD*%
%TO.C,R21*%
X122500000Y-95810000D03*
X124500000Y-95810000D03*
%TD*%
D22*
%TO.C,Q1*%
X116562500Y-116050000D03*
X116562500Y-117950000D03*
X118437500Y-117000000D03*
%TD*%
D10*
%TO.C,C13*%
X121550000Y-111810000D03*
X123450000Y-111810000D03*
%TD*%
%TO.C,C18*%
X71080000Y-106460000D03*
X72980000Y-106460000D03*
%TD*%
D15*
%TO.C,R38*%
X71030000Y-108960000D03*
X73030000Y-108960000D03*
%TD*%
D21*
%TO.C,C32*%
X82275000Y-115360000D03*
X82275000Y-113460000D03*
%TD*%
D10*
%TO.C,C4*%
X85285000Y-102000000D03*
X87185000Y-102000000D03*
%TD*%
D17*
%TO.C,C33*%
X80350000Y-121047500D03*
X78450000Y-121047500D03*
%TD*%
D21*
%TO.C,C31*%
X79775000Y-115460000D03*
X79775000Y-113560000D03*
%TD*%
D17*
%TO.C,C30*%
X82225000Y-117660000D03*
X80325000Y-117660000D03*
%TD*%
D11*
%TO.C,R22*%
X119000000Y-108810000D03*
X117000000Y-108810000D03*
%TD*%
D12*
%TO.C,Q11*%
X54335000Y-106460000D03*
X52435000Y-106460000D03*
X53385000Y-108335000D03*
%TD*%
D15*
%TO.C,R6*%
X85785000Y-91000000D03*
X87785000Y-91000000D03*
%TD*%
D23*
%TO.C,U11*%
X58935000Y-95810000D03*
X57665000Y-95810000D03*
X56395000Y-95810000D03*
X55125000Y-95810000D03*
X55125000Y-100960000D03*
X56395000Y-100960000D03*
X57665000Y-100960000D03*
X58935000Y-100960000D03*
%TD*%
D11*
%TO.C,R18*%
X87785000Y-86000000D03*
X85785000Y-86000000D03*
%TD*%
D17*
%TO.C,C11*%
X117950000Y-98310000D03*
X116050000Y-98310000D03*
%TD*%
D10*
%TO.C,C19*%
X68305000Y-148690000D03*
X70205000Y-148690000D03*
%TD*%
D15*
%TO.C,R19*%
X118000000Y-95810000D03*
X120000000Y-95810000D03*
%TD*%
D21*
%TO.C,C35*%
X60935000Y-99360000D03*
X60935000Y-97460000D03*
%TD*%
D18*
%TO.C,R27*%
X117500000Y-101310000D03*
X117500000Y-103310000D03*
%TD*%
D23*
%TO.C,U2*%
X87055000Y-93925000D03*
X85785000Y-93925000D03*
X84515000Y-93925000D03*
X83245000Y-93925000D03*
X83245000Y-99075000D03*
X84515000Y-99075000D03*
X85785000Y-99075000D03*
X87055000Y-99075000D03*
%TD*%
D18*
%TO.C,R11*%
X97900000Y-88050000D03*
X97900000Y-90050000D03*
%TD*%
D11*
%TO.C,R7*%
X83285000Y-88500000D03*
X81285000Y-88500000D03*
%TD*%
D19*
%TO.C,R2*%
X110950000Y-116500000D03*
X114050000Y-116500000D03*
%TD*%
D18*
%TO.C,R26*%
X97900000Y-92050000D03*
X97900000Y-94050000D03*
%TD*%
D15*
%TO.C,R35*%
X95625000Y-96310000D03*
X97625000Y-96310000D03*
%TD*%
D24*
%TO.C,D21*%
X124850000Y-90197500D03*
X126150000Y-90197500D03*
X125500000Y-88422500D03*
%TD*%
D15*
%TO.C,R24*%
X121500000Y-108810000D03*
X123500000Y-108810000D03*
%TD*%
D18*
%TO.C,R36*%
X97625000Y-99810000D03*
X97625000Y-101810000D03*
%TD*%
D17*
%TO.C,C25*%
X105625000Y-85810000D03*
X103725000Y-85810000D03*
%TD*%
D25*
%TO.C,U3*%
X100650000Y-88000000D03*
X100650000Y-89270000D03*
X100650000Y-90540000D03*
X100650000Y-91810000D03*
X100650000Y-93080000D03*
X100650000Y-94350000D03*
X100650000Y-95620000D03*
X105600000Y-95620000D03*
X105600000Y-94350000D03*
X105600000Y-93080000D03*
X105600000Y-91810000D03*
X105600000Y-90540000D03*
X105600000Y-89270000D03*
X105600000Y-88000000D03*
%TD*%
D10*
%TO.C,C8*%
X81385000Y-91000000D03*
X83285000Y-91000000D03*
%TD*%
%TO.C,C10*%
X122550000Y-92810000D03*
X124450000Y-92810000D03*
%TD*%
D21*
%TO.C,C26*%
X89150000Y-98900000D03*
X89150000Y-97000000D03*
%TD*%
D18*
%TO.C,R42*%
X52935000Y-98960000D03*
X52935000Y-100960000D03*
%TD*%
%TO.C,R8*%
X80785000Y-97000000D03*
X80785000Y-99000000D03*
%TD*%
D14*
%TO.C,C16*%
X95625000Y-99810000D03*
X95625000Y-101710000D03*
%TD*%
D16*
%TO.C,R10*%
X82785000Y-104000000D03*
X82785000Y-102000000D03*
%TD*%
D26*
%TO.C,U7*%
X123905000Y-98722500D03*
X122635000Y-98722500D03*
X121365000Y-98722500D03*
X120095000Y-98722500D03*
X120095000Y-105897500D03*
X121365000Y-105897500D03*
X122635000Y-105897500D03*
X123905000Y-105897500D03*
%TD*%
D27*
%TO.C,U10*%
X84975000Y-113010000D03*
X84975000Y-115310000D03*
D28*
X91275000Y-115310000D03*
D27*
X84975000Y-117610000D03*
%TD*%
D23*
%TO.C,U9*%
X72935000Y-98310000D03*
X71665000Y-98310000D03*
X70395000Y-98310000D03*
X69125000Y-98310000D03*
X69125000Y-103460000D03*
X70395000Y-103460000D03*
X71665000Y-103460000D03*
X72935000Y-103460000D03*
%TD*%
D18*
%TO.C,R40*%
X58435000Y-90960000D03*
X58435000Y-92960000D03*
%TD*%
D25*
%TO.C,U4*%
X100650000Y-101500000D03*
X100650000Y-102770000D03*
X100650000Y-104040000D03*
X100650000Y-105310000D03*
X100650000Y-106580000D03*
X100650000Y-107850000D03*
X100650000Y-109120000D03*
X105600000Y-109120000D03*
X105600000Y-107850000D03*
X105600000Y-106580000D03*
X105600000Y-105310000D03*
X105600000Y-104040000D03*
X105600000Y-102770000D03*
X105600000Y-101500000D03*
%TD*%
D15*
%TO.C,R9*%
X85235000Y-104500000D03*
X87235000Y-104500000D03*
%TD*%
D21*
%TO.C,C34*%
X75030000Y-103260000D03*
X75030000Y-101360000D03*
%TD*%
D11*
%TO.C,R28*%
X69030000Y-95460000D03*
X67030000Y-95460000D03*
%TD*%
D10*
%TO.C,C29*%
X52485000Y-103960000D03*
X54385000Y-103960000D03*
%TD*%
%TO.C,C12*%
X67080000Y-92960000D03*
X68980000Y-92960000D03*
%TD*%
D11*
%TO.C,R20*%
X120000000Y-93310000D03*
X118000000Y-93310000D03*
%TD*%
D16*
%TO.C,R37*%
X68530000Y-108310000D03*
X68530000Y-106310000D03*
%TD*%
M02*
