%TF.GenerationSoftware,KiCad,Pcbnew,10.0.4*%
%TF.CreationDate,2026-07-04T12:46:53-04:00*%
%TF.ProjectId,carrier1_Adalogger_M0_2x3pin,63617272-6965-4723-915f-4164616c6f67,A*%
%TF.SameCoordinates,Original*%
%TF.FileFunction,Copper,L4,Bot*%
%TF.FilePolarity,Positive*%
%FSLAX46Y46*%
G04 Gerber Fmt 4.6, Leading zero omitted, Abs format (unit mm)*
G04 Created by KiCad (PCBNEW 10.0.4) date 2026-07-04 12:46:53*
%MOMM*%
%LPD*%
G01*
G04 APERTURE LIST*
G04 Aperture macros list*
%AMRoundRect*
0 Rectangle with rounded corners*
0 $1 Rounding radius*
0 $2 $3 $4 $5 $6 $7 $8 $9 X,Y pos of 4 corners*
0 Add a 4 corners polygon primitive as box body*
4,1,4,$2,$3,$4,$5,$6,$7,$8,$9,$2,$3,0*
0 Add four circle primitives for the rounded corners*
1,1,$1+$1,$2,$3*
1,1,$1+$1,$4,$5*
1,1,$1+$1,$6,$7*
1,1,$1+$1,$8,$9*
0 Add four rect primitives between the rounded corners*
20,1,$1+$1,$2,$3,$4,$5,0*
20,1,$1+$1,$4,$5,$6,$7,0*
20,1,$1+$1,$6,$7,$8,$9,0*
20,1,$1+$1,$8,$9,$2,$3,0*%
G04 Aperture macros list end*
%TA.AperFunction,ComponentPad*%
%ADD10R,1.700000X1.700000*%
%TD*%
%TA.AperFunction,ComponentPad*%
%ADD11C,1.700000*%
%TD*%
%TA.AperFunction,WasherPad*%
%ADD12C,4.000000*%
%TD*%
%TA.AperFunction,WasherPad*%
%ADD13C,4.500000*%
%TD*%
%TA.AperFunction,ComponentPad*%
%ADD14R,2.000000X2.000000*%
%TD*%
%TA.AperFunction,ComponentPad*%
%ADD15C,2.000000*%
%TD*%
%TA.AperFunction,ComponentPad*%
%ADD16RoundRect,0.250000X0.550000X-1.050000X0.550000X1.050000X-0.550000X1.050000X-0.550000X-1.050000X0*%
%TD*%
%TA.AperFunction,ComponentPad*%
%ADD17O,1.600000X2.600000*%
%TD*%
%TA.AperFunction,ComponentPad*%
%ADD18R,1.800000X1.800000*%
%TD*%
%TA.AperFunction,ComponentPad*%
%ADD19C,1.800000*%
%TD*%
%TA.AperFunction,ViaPad*%
%ADD20C,0.600000*%
%TD*%
%TA.AperFunction,ViaPad*%
%ADD21C,0.900000*%
%TD*%
%TA.AperFunction,Conductor*%
%ADD22C,0.127000*%
%TD*%
%TA.AperFunction,Conductor*%
%ADD23C,0.400000*%
%TD*%
%TA.AperFunction,Conductor*%
%ADD24C,0.254000*%
%TD*%
G04 APERTURE END LIST*
D10*
%TO.P,JP7,1,A_1*%
%TO.N,FAST1*%
X96665000Y-82310000D03*
D11*
%TO.P,JP7,2,C_2*%
%TO.N,Net-(JP7-C)*%
X94125000Y-82310000D03*
%TO.P,JP7,3,B_3*%
%TO.N,GNDA*%
X91585000Y-82310000D03*
%TD*%
D10*
%TO.P,TP22,1,Pin_1_1*%
%TO.N,PEAKHOLDOUT1*%
X58935000Y-109960000D03*
%TD*%
%TO.P,PROTO6,1,Pin_1_1*%
%TO.N,Net-(PROTO6-Pin_1)*%
X121390000Y-136220000D03*
D11*
%TO.P,PROTO6,2,Pin_2_2*%
X123930000Y-136220000D03*
%TO.P,PROTO6,3,Pin_3_3*%
X126470000Y-136220000D03*
%TD*%
D12*
%TO.P,M1,*%
%TO.N,*%
X76625000Y-53310000D03*
X60625000Y-53310000D03*
X76625000Y-69310000D03*
X60625000Y-69310000D03*
D10*
%TO.P,M1,1,+BIAS_1*%
%TO.N,+BIAS*%
X71125000Y-52810000D03*
D11*
%TO.P,M1,2,TEMP_2*%
%TO.N,TEMP1*%
X68585000Y-52810000D03*
%TO.P,M1,3,+3V3_3*%
%TO.N,+3V3*%
X66045000Y-52810000D03*
%TO.P,M1,4,GND_4*%
%TO.N,GNDA*%
X66045000Y-69810000D03*
%TO.P,M1,5,ANODE_5*%
%TO.N,Net-(JP1-C)*%
X68585000Y-69810000D03*
%TO.P,M1,6,FAST_6*%
%TO.N,FAST1*%
X71125000Y-69810000D03*
%TD*%
D10*
%TO.P,TP11,1,Pin_1_1*%
%TO.N,Net-(TP11-Pin_1)*%
X127500000Y-98810000D03*
%TD*%
%TO.P,TP20,1,Pin_1_1*%
%TO.N,VOLTAMPOUT1*%
X72530000Y-112310000D03*
%TD*%
%TO.P,PROTO8,1,Pin_1_1*%
%TO.N,Net-(PROTO8-Pin_1)*%
X121390000Y-138760000D03*
D11*
%TO.P,PROTO8,2,Pin_2_2*%
X123930000Y-138760000D03*
%TO.P,PROTO8,3,Pin_3_3*%
X126470000Y-138760000D03*
%TD*%
D10*
%TO.P,TP2,1,Pin_1_1*%
%TO.N,Net-(JP1-C)*%
X88625000Y-71310000D03*
%TD*%
%TO.P,TP7,1,Pin_1_1*%
%TO.N,FAST2*%
X124090000Y-82310000D03*
%TD*%
%TO.P,ANCHOR2,1,Pin_1_1*%
%TO.N,GNDA*%
X53000000Y-116000000D03*
%TD*%
%TO.P,PROTO4,1,Pin_1_1*%
%TO.N,Net-(PROTO4-Pin_1)*%
X121390000Y-133680000D03*
D11*
%TO.P,PROTO4,2,Pin_2_2*%
X123930000Y-133680000D03*
%TO.P,PROTO4,3,Pin_3_3*%
X126470000Y-133680000D03*
%TD*%
D10*
%TO.P,ANCHOR3,1,Pin_1_1*%
%TO.N,GNDA*%
X120250000Y-37250000D03*
%TD*%
D13*
%TO.P,H1,*%
%TO.N,*%
X54000000Y-38000000D03*
%TD*%
D10*
%TO.P,JP6,1,A_1*%
%TO.N,FAST1*%
X86825000Y-82500000D03*
D11*
%TO.P,JP6,2,C_2*%
%TO.N,Net-(JP6-C)*%
X84285000Y-82500000D03*
%TO.P,JP6,3,B_3*%
%TO.N,GNDA*%
X81745000Y-82500000D03*
%TD*%
D10*
%TO.P,ANCHOR1,1,Pin_1_1*%
%TO.N,GNDA*%
X119000000Y-149750000D03*
%TD*%
D13*
%TO.P,H2,*%
%TO.N,*%
X127000000Y-38000000D03*
%TD*%
D10*
%TO.P,TP17,1,Pin_1_1*%
%TO.N,Net-(TP17-Pin_1)*%
X109150000Y-99000000D03*
%TD*%
%TO.P,PROTO7,1,Pin_1_1*%
%TO.N,Net-(PROTO7-Pin_1)*%
X118850000Y-138760000D03*
D11*
%TO.P,PROTO7,2,Pin_2_2*%
X116310000Y-138760000D03*
%TO.P,PROTO7,3,Pin_3_3*%
X113770000Y-138760000D03*
%TD*%
D10*
%TO.P,TP21,1,Pin_1_1*%
%TO.N,Net-(D11-K)*%
X61935000Y-90960000D03*
%TD*%
D14*
%TO.P,LS1,1,1_1*%
%TO.N,+5V*%
X120500000Y-122000000D03*
D15*
%TO.P,LS1,2,2_2*%
%TO.N,Net-(Q1-C)*%
X128000000Y-122000000D03*
%TD*%
D13*
%TO.P,H4,*%
%TO.N,*%
X127000000Y-149000000D03*
%TD*%
%TO.P,H3,*%
%TO.N,*%
X54000000Y-149000000D03*
%TD*%
D10*
%TO.P,PROTO1,1,Pin_1_1*%
%TO.N,Net-(PROTO1-Pin_1)*%
X118850000Y-131140000D03*
D11*
%TO.P,PROTO1,2,Pin_2_2*%
X116310000Y-131140000D03*
%TO.P,PROTO1,3,Pin_3_3*%
X113770000Y-131140000D03*
%TD*%
D10*
%TO.P,TP8,1,Pin_1_1*%
%TO.N,ANODE2*%
X119500000Y-82310000D03*
%TD*%
%TO.P,TP18,1,Pin_1_1*%
%TO.N,FASTPULSE3*%
X101125000Y-112810000D03*
%TD*%
%TO.P,TP12,1,Pin_1_1*%
%TO.N,TIAMPOUT2*%
X126500000Y-111810000D03*
%TD*%
%TO.P,TP10,1,Pin_1_1*%
%TO.N,FASTPULSE2*%
X96125000Y-111810000D03*
%TD*%
%TO.P,PROTO2,1,Pin_1_1*%
%TO.N,Net-(PROTO2-Pin_1)*%
X121390000Y-131140000D03*
D11*
%TO.P,PROTO2,2,Pin_2_2*%
X123930000Y-131140000D03*
%TO.P,PROTO2,3,Pin_3_3*%
X126470000Y-131140000D03*
%TD*%
D10*
%TO.P,JP4,1,A_1*%
%TO.N,ANODE1*%
X72395000Y-86960000D03*
D11*
%TO.P,JP4,2,C_2*%
%TO.N,Net-(JP4-C)*%
X69855000Y-86960000D03*
%TO.P,JP4,3,B_3*%
%TO.N,GNDA*%
X67315000Y-86960000D03*
%TD*%
D10*
%TO.P,JPTEMP1,1,A_1*%
%TO.N,TEMP1*%
X90795000Y-58795000D03*
D11*
%TO.P,JPTEMP1,2,C_2*%
%TO.N,TEMP*%
X90795000Y-61335000D03*
%TO.P,JPTEMP1,3,B_3*%
%TO.N,TEMP2*%
X90795000Y-63875000D03*
%TD*%
D10*
%TO.P,PROTO3,1,Pin_1_1*%
%TO.N,Net-(PROTO3-Pin_1)*%
X118850000Y-133680000D03*
D11*
%TO.P,PROTO3,2,Pin_2_2*%
X116310000Y-133680000D03*
%TO.P,PROTO3,3,Pin_3_3*%
X113770000Y-133680000D03*
%TD*%
D16*
%TO.P,A1,1,~{RESET}_1*%
%TO.N,~{RST}*%
X65900000Y-144700000D03*
D17*
%TO.P,A1,2,3V3_2*%
%TO.N,+3V3*%
X68440000Y-144700000D03*
%TO.P,A1,3,AREF_3*%
%TO.N,unconnected-(A1-AREF-Pad3)*%
X70980000Y-144700000D03*
%TO.P,A1,4,GND_4*%
%TO.N,GND*%
X73520000Y-144700000D03*
%TO.P,A1,5,DAC0/A0_5*%
%TO.N,BIASSET*%
X76060000Y-144700000D03*
%TO.P,A1,6,A1_6*%
%TO.N,VOLTAMPOUT1*%
X78600000Y-144700000D03*
%TO.P,A1,7,A2_7*%
%TO.N,FASTAMPOUT1*%
X81140000Y-144700000D03*
%TO.P,A1,8,A3_8*%
%TO.N,TIAMPOUT2*%
X83680000Y-144700000D03*
%TO.P,A1,9,A4_9*%
%TO.N,TEMP*%
X86220000Y-144700000D03*
%TO.P,A1,10,A5_10*%
%TO.N,PEAKHOLDOUT1*%
X88760000Y-144700000D03*
%TO.P,A1,11,SCK/D24_11*%
%TO.N,~{BIASSHDN}*%
X91300000Y-144700000D03*
%TO.P,A1,12,MOSI/D23_12*%
%TO.N,DETECTED*%
X93840000Y-144700000D03*
%TO.P,A1,13,MISO/D22_13*%
%TO.N,PEAKRESET*%
X96380000Y-144700000D03*
%TO.P,A1,14,RX/D0_14*%
%TO.N,unconnected-(A1-RX{slash}D0-Pad14)*%
X98920000Y-144700000D03*
%TO.P,A1,15,TX/D1_15*%
%TO.N,unconnected-(A1-TX{slash}D1-Pad15)*%
X101460000Y-144700000D03*
%TO.P,A1,16,GND_16*%
%TO.N,GND*%
X104000000Y-144700000D03*
%TO.P,A1,17,SDA/D20_17*%
%TO.N,SDA*%
X104000000Y-124980000D03*
%TO.P,A1,18,SCL/D21_18*%
%TO.N,SCL*%
X101460000Y-124980000D03*
%TO.P,A1,19,D5_19*%
%TO.N,BTNA*%
X98920000Y-124980000D03*
%TO.P,A1,20,D6_20*%
%TO.N,BTNB*%
X96380000Y-124980000D03*
%TO.P,A1,21,D9_21*%
%TO.N,BTNC*%
X93840000Y-124980000D03*
%TO.P,A1,22,D10_22*%
%TO.N,FASTPULSE1*%
X91300000Y-124980000D03*
%TO.P,A1,23,D11_23*%
%TO.N,FASTPULSE2*%
X88760000Y-124980000D03*
%TO.P,A1,24,D12_24*%
%TO.N,FASTPULSE3*%
X86220000Y-124980000D03*
%TO.P,A1,25,D13_25*%
%TO.N,unconnected-(A1-D13-Pad25)*%
X83680000Y-124980000D03*
%TO.P,A1,26,USB_26*%
%TO.N,+5V*%
X81140000Y-124980000D03*
%TO.P,A1,27,EN_27*%
%TO.N,GND*%
X78600000Y-124980000D03*
%TO.P,A1,28,VBAT_28*%
%TO.N,unconnected-(A1-VBAT-Pad28)*%
X76060000Y-124980000D03*
%TD*%
D10*
%TO.P,TP9,1,Pin_1_1*%
%TO.N,Net-(TP9-Pin_1)*%
X96125000Y-106810000D03*
%TD*%
D12*
%TO.P,M2,*%
%TO.N,*%
X120625000Y-53310000D03*
X104625000Y-53310000D03*
X120625000Y-69310000D03*
X104625000Y-69310000D03*
D10*
%TO.P,M2,1,+BIAS_1*%
%TO.N,+BIAS*%
X115125000Y-52810000D03*
D11*
%TO.P,M2,2,TEMP_2*%
%TO.N,TEMP2*%
X112585000Y-52810000D03*
%TO.P,M2,3,+3V3_3*%
%TO.N,+3V3*%
X110045000Y-52810000D03*
%TO.P,M2,4,GND_4*%
%TO.N,GNDA*%
X110045000Y-69810000D03*
%TO.P,M2,5,ANODE_5*%
%TO.N,ANODE2*%
X112585000Y-69810000D03*
%TO.P,M2,6,FAST_6*%
%TO.N,FAST2*%
X115125000Y-69810000D03*
%TD*%
D10*
%TO.P,JP1,1,A_1*%
%TO.N,ANODE1*%
X58030000Y-82310000D03*
D11*
%TO.P,JP1,2,C_2*%
%TO.N,Net-(JP1-C)*%
X55490000Y-82310000D03*
%TO.P,JP1,3,B_3*%
%TO.N,GNDA*%
X52950000Y-82310000D03*
%TD*%
D10*
%TO.P,PROTO5,1,Pin_1_1*%
%TO.N,Net-(PROTO5-Pin_1)*%
X118850000Y-136220000D03*
D11*
%TO.P,PROTO5,2,Pin_2_2*%
X116310000Y-136220000D03*
%TO.P,PROTO5,3,Pin_3_3*%
X113770000Y-136220000D03*
%TD*%
D10*
%TO.P,JP5,1,A_1*%
%TO.N,FAST1*%
X58015000Y-86960000D03*
D11*
%TO.P,JP5,2,C_2*%
%TO.N,Net-(JP5-C)*%
X55475000Y-86960000D03*
%TO.P,JP5,3,B_3*%
%TO.N,GNDA*%
X52935000Y-86960000D03*
%TD*%
D10*
%TO.P,TP6,1,Pin_1_1*%
%TO.N,FASTAMPOUT1*%
X86650000Y-108000000D03*
%TD*%
%TO.P,TP19,1,Pin_1_1*%
%TO.N,Net-(TP19-Pin_1)*%
X65030000Y-106810000D03*
%TD*%
D18*
%TO.P,D1,1,K_1*%
%TO.N,GND*%
X116270000Y-123000000D03*
D19*
%TO.P,D1,2,A_2*%
%TO.N,Net-(D1-A)*%
X113730000Y-123000000D03*
%TD*%
D10*
%TO.P,TP5,1,Pin_1_1*%
%TO.N,Net-(TP5-Pin_1)*%
X79150000Y-102500000D03*
%TD*%
%TO.P,TP4,1,Pin_1_1*%
%TO.N,FASTPULSE1*%
X105625000Y-82550000D03*
%TD*%
%TO.P,J8,1,Pin_1_1*%
%TO.N,GNDA*%
X91900000Y-48310000D03*
D11*
%TO.P,J8,2,Pin_2_2*%
%TO.N,+BIAS*%
X89360000Y-48310000D03*
%TD*%
D10*
%TO.P,TP3,1,Pin_1_1*%
%TO.N,Net-(TP3-Pin_1)*%
X100900000Y-82550000D03*
%TD*%
%TO.P,TP1,1,Pin_1_1*%
%TO.N,FAST1*%
X88625000Y-75810000D03*
%TD*%
D20*
%TO.N,GNDA*%
X69750000Y-108250000D03*
X67080000Y-94170000D03*
X109250000Y-87250000D03*
X53750000Y-91750000D03*
X57250000Y-91000000D03*
X124250000Y-89500000D03*
X99314336Y-109314336D03*
X94550000Y-86050000D03*
X89250000Y-85750000D03*
X115750000Y-110000000D03*
X76500000Y-101500000D03*
D21*
X73170500Y-122500000D03*
D20*
X104000000Y-87000000D03*
D21*
X74500000Y-119750000D03*
D20*
X74500000Y-90500000D03*
X119000000Y-98000000D03*
X90459500Y-97040500D03*
D21*
X73250000Y-121250000D03*
D20*
X81750000Y-92750000D03*
X59500000Y-97500000D03*
X81500000Y-104000000D03*
X118000000Y-91750000D03*
X100500000Y-96500000D03*
X126500000Y-102750000D03*
X52000000Y-105250000D03*
X122000000Y-84250000D03*
X94250000Y-95750000D03*
X109300000Y-101550000D03*
X122250000Y-87500000D03*
D21*
X73250000Y-119750000D03*
D20*
X104000000Y-98000000D03*
X54000000Y-94500000D03*
%TO.N,Net-(TP3-Pin_1)*%
X98790500Y-90940500D03*
X98790500Y-99640500D03*
%TO.N,+3V3*%
X105500000Y-100500000D03*
X117000000Y-107500000D03*
X125260000Y-105760000D03*
X105000000Y-87000000D03*
X83500000Y-116500000D03*
X91250000Y-112500000D03*
X81000000Y-116000000D03*
X60250000Y-100500000D03*
X88000000Y-99750000D03*
X117000000Y-97000000D03*
X76490000Y-103260000D03*
%TO.N,Net-(TP9-Pin_1)*%
X99250000Y-104000000D03*
X96750000Y-95250000D03*
%TO.N,PEAKHOLDOUT1*%
X69500000Y-138000000D03*
%TO.N,DETECTED*%
X111000000Y-120750000D03*
%TO.N,Net-(D11-K)*%
X60000000Y-94000000D03*
X57500000Y-97500000D03*
D21*
%TO.N,GND*%
X74500000Y-139500000D03*
D20*
%TO.N,TIAMPOUT2*%
X108000000Y-113500000D03*
%TO.N,+5V*%
X108500000Y-121750000D03*
%TO.N,Net-(TP17-Pin_1)*%
X102250000Y-94750000D03*
X98750000Y-101000000D03*
%TO.N,FASTPULSE3*%
X96500000Y-120500000D03*
%TO.N,FASTPULSE2*%
X99250000Y-105250000D03*
%TO.N,TEMP*%
X86000000Y-140000000D03*
%TO.N,FASTPULSE1*%
X102250000Y-103500000D03*
%TD*%
%TO.N,ANODE2*%
D22*
X119500000Y-82310000D02*
X119500000Y-76725000D01*
X119500000Y-76725000D02*
X112585000Y-69810000D01*
%TO.N,Net-(TP3-Pin_1)*%
X98790500Y-90940500D02*
X98790500Y-99640500D01*
%TO.N,Net-(TP9-Pin_1)*%
X96440000Y-106810000D02*
X99250000Y-104000000D01*
X96125000Y-106810000D02*
X96440000Y-106810000D01*
X96750000Y-95250000D02*
X96750000Y-101500000D01*
X96750000Y-101500000D02*
X99250000Y-104000000D01*
%TO.N,PEAKHOLDOUT1*%
X58935000Y-109960000D02*
X58935000Y-127435000D01*
X58935000Y-127435000D02*
X69500000Y-138000000D01*
%TO.N,DETECTED*%
X111000000Y-123500000D02*
X111000000Y-120750000D01*
X93840000Y-145000000D02*
X93840000Y-140660000D01*
X93840000Y-140660000D02*
X111000000Y-123500000D01*
%TO.N,TEMP1*%
X74570000Y-58795000D02*
X68585000Y-52810000D01*
X90795000Y-58795000D02*
X74570000Y-58795000D01*
%TO.N,Net-(JP1-C)*%
X88434500Y-71500500D02*
X70275500Y-71500500D01*
X70275500Y-71500500D02*
X68585000Y-69810000D01*
X88625000Y-71310000D02*
X88434500Y-71500500D01*
%TO.N,Net-(D11-K)*%
X60000000Y-94000000D02*
X57500000Y-96500000D01*
X57500000Y-96500000D02*
X57500000Y-97500000D01*
%TO.N,GND*%
D23*
X78600000Y-135400000D02*
X78600000Y-124680000D01*
X74500000Y-139500000D02*
X78600000Y-135400000D01*
D24*
X74847000Y-146327000D02*
X102673000Y-146327000D01*
X73520000Y-145000000D02*
X74847000Y-146327000D01*
X102673000Y-146327000D02*
X104000000Y-145000000D01*
%TO.N,VOLTAMPOUT1*%
D22*
X72530000Y-138930000D02*
X78600000Y-145000000D01*
X72530000Y-112310000D02*
X72530000Y-138930000D01*
%TO.N,TIAMPOUT2*%
X108000000Y-113500000D02*
X100396500Y-121103500D01*
X100396500Y-121103500D02*
X100396500Y-128283500D01*
X100396500Y-128283500D02*
X83680000Y-145000000D01*
%TO.N,FASTAMPOUT1*%
X85156500Y-140983500D02*
X81140000Y-145000000D01*
X85156500Y-109493500D02*
X85156500Y-140983500D01*
X86650000Y-108000000D02*
X85156500Y-109493500D01*
%TO.N,+5V*%
D24*
X108500000Y-121750000D02*
X110054000Y-120196000D01*
X118696000Y-120196000D02*
X120500000Y-122000000D01*
X110054000Y-120196000D02*
X118696000Y-120196000D01*
%TO.N,Net-(TP17-Pin_1)*%
D22*
X102250000Y-94750000D02*
X106500000Y-99000000D01*
X102250000Y-97500000D02*
X98750000Y-101000000D01*
X102250000Y-94750000D02*
X102250000Y-97500000D01*
X106500000Y-99000000D02*
X109150000Y-99000000D01*
%TO.N,FASTPULSE3*%
X101125000Y-115875000D02*
X96500000Y-120500000D01*
X101125000Y-112810000D02*
X101125000Y-115875000D01*
%TO.N,FASTPULSE2*%
X96125000Y-111810000D02*
X96125000Y-117315000D01*
X96125000Y-111810000D02*
X99250000Y-108685000D01*
X99250000Y-108685000D02*
X99250000Y-105250000D01*
X96125000Y-117315000D02*
X88760000Y-124680000D01*
%TO.N,ANODE1*%
X58030000Y-82310000D02*
X67745000Y-82310000D01*
X67745000Y-82310000D02*
X72395000Y-86960000D01*
%TO.N,TEMP*%
X87696500Y-138303500D02*
X86000000Y-140000000D01*
X90795000Y-61335000D02*
X89754500Y-62375500D01*
X89754500Y-121981484D02*
X87696500Y-124039484D01*
X89754500Y-62375500D02*
X89754500Y-121981484D01*
X87696500Y-124039484D02*
X87696500Y-138303500D01*
%TO.N,TEMP2*%
X90795000Y-63875000D02*
X101520000Y-63875000D01*
X101520000Y-63875000D02*
X112585000Y-52810000D01*
%TO.N,FASTPULSE1*%
X98250000Y-111500000D02*
X98250000Y-117730000D01*
X98250000Y-117730000D02*
X91300000Y-124680000D01*
X102250000Y-107500000D02*
X98250000Y-111500000D01*
X102250000Y-103500000D02*
X102250000Y-107500000D01*
%TD*%
M02*
