M48
; DRILL file KiCad 10.0.4 date 2026-07-04T23:57:24
; FORMAT={-:-/ absolute / metric / decimal}
; #@! TF.CreationDate,2026-07-04T23:57:24-04:00
; #@! TF.GenerationSoftware,Kicad,Pcbnew,10.0.4
; #@! TF.FileFunction,Plated,1,4,PTH
FMAT,2
METRIC
; #@! TA.AperFunction,Plated,PTH,ViaDrill
T1C0.300
; #@! TA.AperFunction,Plated,PTH,ViaDrill
T2C0.400
; #@! TA.AperFunction,Plated,PTH,ComponentDrill
T3C0.900
; #@! TA.AperFunction,Plated,PTH,ComponentDrill
T4C1.000
%
G90
G05
T1
X52.0Y-105.25
X53.75Y-91.75
X54.0Y-94.5
X57.25Y-91.0
X57.5Y-97.5
X59.5Y-97.5
X60.0Y-94.0
X60.25Y-100.5
X67.08Y-94.17
X69.5Y-138.0
X69.75Y-108.25
X74.5Y-90.5
X76.49Y-103.26
X76.5Y-101.5
X81.0Y-116.0
X81.5Y-104.0
X81.75Y-92.75
X83.5Y-116.5
X86.0Y-140.0
X88.0Y-99.75
X89.25Y-85.75
X90.459Y-97.04
X91.25Y-112.5
X94.25Y-95.75
X94.55Y-86.05
X96.5Y-120.5
X96.75Y-95.25
X98.75Y-101.0
X98.79Y-90.941
X98.79Y-99.64
X99.25Y-104.0
X99.25Y-105.25
X99.314Y-109.314
X100.5Y-96.5
X102.25Y-94.75
X102.25Y-103.5
X104.0Y-87.0
X104.0Y-98.0
X105.0Y-87.0
X105.5Y-100.5
X108.0Y-113.5
X108.5Y-121.75
X109.25Y-87.25
X109.3Y-101.55
X111.0Y-120.75
X115.75Y-110.0
X117.0Y-97.0
X117.0Y-107.5
X118.0Y-91.75
X119.0Y-98.0
X122.0Y-84.25
X122.25Y-87.5
X124.25Y-89.5
X125.26Y-105.76
X126.5Y-102.75
T2
X73.17Y-122.5
X73.25Y-119.75
X73.25Y-121.25
X74.5Y-119.75
X74.5Y-139.5
T3
X113.73Y-123.0
X116.27Y-123.0
T4
X52.935Y-86.96
X52.95Y-82.31
X53.0Y-116.0
X55.475Y-86.96
X55.49Y-82.31
X58.015Y-86.96
X58.03Y-82.31
X58.935Y-109.96
X61.935Y-90.96
X65.03Y-106.81
X65.9Y-145.0
X66.045Y-52.81
X66.045Y-69.81
X67.315Y-86.96
X68.44Y-145.0
X68.585Y-52.81
X68.585Y-69.81
X69.855Y-86.96
X70.98Y-145.0
X71.125Y-52.81
X71.125Y-69.81
X72.395Y-86.96
X72.53Y-112.31
X73.52Y-145.0
X76.06Y-124.68
X76.06Y-145.0
X78.6Y-124.68
X78.6Y-145.0
X79.15Y-102.5
X81.14Y-124.68
X81.14Y-145.0
X81.745Y-82.5
X83.68Y-124.68
X83.68Y-145.0
X84.285Y-82.5
X86.22Y-124.68
X86.22Y-145.0
X86.65Y-108.0
X86.825Y-82.5
X88.625Y-71.31
X88.625Y-75.81
X88.76Y-124.68
X88.76Y-145.0
X89.36Y-48.31
X90.795Y-58.795
X90.795Y-61.335
X90.795Y-63.875
X91.3Y-124.68
X91.3Y-145.0
X91.585Y-82.31
X91.9Y-48.31
X93.84Y-124.68
X93.84Y-145.0
X94.125Y-82.31
X96.125Y-106.81
X96.125Y-111.81
X96.38Y-124.68
X96.38Y-145.0
X96.665Y-82.31
X98.92Y-124.68
X98.92Y-145.0
X100.9Y-82.55
X101.125Y-112.81
X101.46Y-124.68
X101.46Y-145.0
X104.0Y-124.68
X104.0Y-145.0
X105.625Y-82.55
X109.15Y-99.0
X110.045Y-52.81
X110.045Y-69.81
X112.585Y-52.81
X112.585Y-69.81
X113.77Y-131.14
X113.77Y-133.68
X113.77Y-136.22
X113.77Y-138.76
X115.125Y-52.81
X115.125Y-69.81
X116.31Y-131.14
X116.31Y-133.68
X116.31Y-136.22
X116.31Y-138.76
X118.85Y-131.14
X118.85Y-133.68
X118.85Y-136.22
X118.85Y-138.76
X119.0Y-149.75
X119.5Y-82.31
X120.25Y-37.25
X120.5Y-122.0
X121.39Y-131.14
X121.39Y-133.68
X121.39Y-136.22
X121.39Y-138.76
X123.93Y-131.14
X123.93Y-133.68
X123.93Y-136.22
X123.93Y-138.76
X124.09Y-82.31
X126.47Y-131.14
X126.47Y-133.68
X126.47Y-136.22
X126.47Y-138.76
X126.5Y-111.81
X127.5Y-98.81
X128.0Y-122.0
M30
